<svg width="120" height="120" preserveAspectRatio="xMidYMid meet" viewBox="0 0 120 120" xmlns="http://www.w3.org/2000/svg"><path d="M108.833 55.358c-.164-.334-.498-.5-.916-.586-.25 0-.415-.08-.667-.166-.412-.248-.832-.334-1.163-.498-.167 0-.251-.083-.415-.165l-.418-.166c-.164-.086-.331-.168-.495-.168a2.503 2.503 0 0 1-.67-.33c-.332-.252-.666-.417-.997-.586-.42-.166-.754-.33-1.082-.582l-.167-.168c-.25-.165-.337-.417-.337-.668 0-.413-.164-.742-.581-.915-.165-.08-.334-.165-.582-.248-.668-.165-1.085-.33-1.497-.665a.903.903 0 0 0-.587-.25c-.415-.084-.832-.166-1.25-.166-.495-.086-.996-.166-1.413-.334-.332-.082-.66-.165-1.163-.165-.25 0-.498 0-.668-.086-.331-.083-.581-.083-1-.083-.333 0-.662.083-.995.083l-.754.086c-.331 0-.663.083-1 .165-.244.082-.495.248-.745.334-.5.248-1.085.416-1.583.75l-.084.08-.083.086c-.415 0-.748.248-1.08.499-.752.582-1.5 1.166-2.251 1.745-.413.336-.751.584-1.166.916l-.08.086c-.334.25-.585.584-.75 1.002-.333.745-.665 1.492-.75 2.328-.165 1-1.164 2.08-1.581 2.497l-.086.086c-.25.247-.582.498-.83.664-.248.165-.42.333-.67.499-.412.416-.913.75-1.581 1.002h-.242a3.02 3.02 0 0 0-.921.413c-.247.086-.495.164-.746.164-.751.086-1.502.17-2.17.338-.412.08-.832.248-1.25.577-.164.173-.412.252-.662.338l-.333.08c-.418.086-.836.25-1.164.334-.417.164-.834.164-1.171.164-.496-.078-1.077-.078-1.745 0-.334 0-.664.086-.998.252-.337.168-.581.334-.915.416-.166.084-.417.17-.665.17-.165.078-.337.078-.589.078-.165 0-.248.086-.413.086h-.498c-.166 0-.417-.086-.668-.086-.747 0-1.494.086-2.248.172h-.33c-.083 0-.252 0-.338.08-.244.086-.496.086-.747.086h-2.248c-.501 0-.996-.086-1.497-.086-.333 0-.666-.08-1-.08-.249 0-.415-.086-.665-.086h-1.25c-.58 0-1.08.086-1.666-.086-.08 0-.25-.078-.33-.078l-.669-.086c-.416 0-.913-.084-1.332-.084-.496-.082-.999 0-1.497.084a9.969 9.969 0 0 1-1.665.164h-2.33c-.335 0-.666.086-1 .086-.751 0-1.414.086-2.08.166-.165.086-.417.086-.586.086l-.5.082c-.496.083-.995.251-1.58.495-.496.173-.916.338-1.416.338-.33 0-.58.082-.83.166-.252.168-.582.168-.916.247h-.085c-.167 0-.25 0-.331-.08l-.5-.251-.334-.168c-.415-.252-.916-.496-1.496-.582-.169 0-.42-.082-.586-.082h-.164c-.085 0-.166 0-.166-.083-.253-.168-.504-.334-.75-.42-.085-.078-.25-.078-.334-.164-.332-.166-.666-.332-1-.414-.581-.166-1.081-.338-1.497-.585-.085-.083-.17-.083-.25-.083 0 0-.084 0-.084-.082l-.085-.086c-.165-.08-.248-.166-.332-.245a6.154 6.154 0 0 0-.835-.502c-.33-.169-.66-.334-1.08-.664-.33-.251-.58-.42-.829-.586-.42-.247-.835-.499-1.167-.75-.169-.079-.25-.247-.419-.33l-.08-.082c-.336-.252-.585-.583-.836-.835-.163-.167-.249-.333-.415-.42 0 0-.081-.079-.081-.165l-.168-.412c-.166-.251-.251-.503-.415-.75-.166-.331-.337-.669-.337-1.081 0-.086-.08-.251-.08-.337l-.084-.335c-.08-.248-.08-.495-.166-.747v-.247c0-.169 0-.25-.084-.42-.165-.664-.501-1.411-.916-2.248-.081-.165-.164-.33-.25-.499-.084-.165-.165-.33-.248-.498-.252-.495-.418-.916-.502-1.415 0-.248-.081-.5-.165-.834-.08-.164-.08-.247-.165-.333 0-.083-.085-.165-.085-.248-.167-.416-.416-.834-.83-1.163-.42-.42-.667-.673-.835-1.002-.247-.416-.582-.586-.916-.833l-.08-.082a.64.64 0 0 0-.836.082c-.416.5-.666.915-.749 1.5v1.914c0 .33 0 .665-.081 1.08-.085.335-.17.917 0 1.416 0 .165.081.338.081.502v.084c.083.667.083 1.41.168 2.08 0 .496.165.917.252 1.33.164.502.33 1.002.495 1.497.168.672.42 1.25.75 1.752.166.247.334.499.419.832.164.33.331.583.582.748.083.087.164.252.249.5.416 1.413.915 2.415 1.581 3.244.831 1.002 1.666 1.667 2.581 2.169.334.166.58.334.749.413.418.335.832.585 1.252.916l.25.168c.329.252.666.502 1.08.668.83.33 1.58.582 2.33.83.332.085.666.168 1 .333 1.167.416 2.163.75 3.082 1.002.246.08.496.166.745.248l.167.083c-.08.087-.08.164-.08.164-.087.086-.087.252-.168.334 0 .087-.085.166-.085.252-.249.581-.498 1.25-.663 1.997a12.702 12.702 0 0 1-.666 1.913c-.084.252-.169.502-.335.75 0 .086-.08.086-.08.165-.42.668-.584 1.418-.67 2.333-.08.916-.165 2-.58 2.917-.17.412-.251.828-.335 1.249 0 .243-.08.416-.08.664-.085.417-.085.833-.085 1.247 0 .502 0 1.165.084 1.83.081.507.081 1.085.081 1.67v.416c0 .75 0 1.415-.165 2.078l-.085.335c-.083.334-.083.667-.167.997-.084.751-.084 1.58.167 2.417.17.665.17 1.414.085 1.997l-.085.499c-.083.416-.167.75-.167 1.166-.084.417-.165.833-.415 1.333a3.97 3.97 0 0 1-.415.831l-.17.332a7.278 7.278 0 0 1-1.414 1.999c-.667.75-.83 1.58-.996 2.33l-.085.582c0 .168-.084.334-.084.5-.08.172-.167.415-.167.584-.084.083-.084.252-.165.418-.085.164-.085.333-.169.498-.08.417-.08.833-.165 1.246v.918c-.08.582-.165 1.25-.165 1.831l-.084.504v.078c0 .17-.081.252-.081.42-.171.496-.252.995-.5 1.415-.17.248-.17.581-.085.916.084.495.165.83.249 1.167 0 .248.084.495.252.663.084.084.084.166.084.332-.084.25-.171.498-.171.75-.08.252-.08.499.087.664a.75.75 0 0 0 .58.251c.249 0 .584-.08.834-.08h.414l.087.08c.164.168.33.334.499.5.25.334.58.502.831.584.165.083.415.165.584.165.247 0 .415-.082.665-.165.165-.082.417-.25.582-.25.334-.084.583-.335.75-.666l.085-.082c.33-.251.664-.502.83-.915.251.082.415.082.666.166.168.082.5.163.915-.084h.083c.333.084.586.166.833.247.42.17.75.17 1.084-.081l.08-.082c.085-.084.17-.166.252-.252.334-.33.498-.75.668-1.168l.08-.082c.087-.165.087-.33.087-.416 0-.331-.667-1.163-.916-1.329-.086-.086-.251-.086-.336-.168-.08 0-.164 0-.33-.084h-.42c-.25-.164-.496-.25-.664-.415-.252-.166-.252-.335-.252-.5v-.334c.167-.747.252-1.497.42-2.247.08-.252.08-.5.166-.75v-.08c.08-.17.08-.337.164-.503.085-.334.166-.75.252-1.083.165-.664.334-1.246.583-1.831l.08-.248c.086-.166.086-.33.166-.502.252-.5.501-.995.75-1.495l.085-.086c.085-.082.085-.25.166-.334.335-.416.584-.829.915-1.331.335-.582.75-1.163 1.335-1.667.997-.916 1.996-1.995 2.828-3.159.168-.251.333-.503.498-.751.17-.25.417-.584.586-.832.085-.17.165-.334.249-.417.08-.164.165-.33.33-.502.336-.496.67-.916.835-1.33.082-.164.168-.25.252-.33l.496-.749c.253-.417.584-.838.835-1.333.5-.833.915-1.665 1.249-2.499.165-.252.25-.581.416-.833.33-.668.664-1.413.75-2.247v-.168c.08-.334.165-.666 0-1 .331-.329.914-.75 1.165-.915l.5-.164c.245-.086.5-.166.75-.252.33.252.662.166.916.166.164 0 .33-.08.495 0 .416.168.75.25 1.085.502.917.747 1.833 1.25 2.831 1.58.166.083.332.169.58.251a27.9 27.9 0 0 0 1.583.998c.583.334 1.083.581 1.665.75.334.087.75.251 1.084.417.579.247 1.08.5 1.663.663.416.087.833.252 1.335.5.496.252 1.077.502 1.58.668.582.248 1.25.416 1.918.663.998.335 2.08.587 3.08.92l.33.082c.166.084.413.084.668.166.416.082.747.168 1.163.168l1.25.166c.334.083.745.083 1.085.165.25 0 .496.083.745.083l.499.086c.17 0 .248 0 .414.08.337 0 .588.085.918.172v.079l.084.334c.081.416.164.832.164 1.166.084.829.251 1.83.499 2.746.086.334.172.582.172.916 0 .5.08.915.08 1.333l.087.745c.078.669.164 1.42.25 2.083l.084.42c.08.244.08.582.164.83l.083.334c.081.747.248 1.583.248 2.334 0 .412 0 .743.08 1.08.087.248.087.579.087.83v.419c0 .08 0 .166.081.414l.25 1.417.087.166c.163.997.163 1.084.25 1.163.08.252.167.416.247.668l.337.915c.081.248.165.586.328.834.087.251.168.581.254.833 0 .498.164.916.25 1.332.078.165.078.33.164.499.168.582.582.998 1.164 1.084h.086l.244.082c.087.084.251.084.337.084.167 0 .253.082.334.163.248.249.496.42.83.42.253 0 .503.08.753.166.332.082.75 0 1.078-.251.172-.165.339-.251.503-.416.164-.248.334-.334.665-.334h.248c.587 0 1.002-.33 1.083-.916 0-.082 0-.252.083-.416.083-.581-.248-1.085-.751-1.25a1.289 1.289 0 0 1-.663-.499c-.083-.082-.166-.082-.166-.166-.082-.086-.165-.086-.165-.164-.17-.17-.334-.335-.584-.417-.08 0-.167-.082-.167-.252v-.581c0-1.166-.086-2.334.167-3.497.086-.33.086-.581.086-.915 0-.836.081-1.665.081-2.495v-8.33c0-.581.083-1.163.083-1.745 0-1.001 0-2 .248-2.916.086-.25 0-.416 0-.581 0-.169 0-.334.086-.5.165-.502.412-.915.665-1.418.078-.247.25-.413.329-.663l.086-.084c0-.086.086-.168.086-.168.08-.082.08-.168.166-.248l.33-.671c.166-.33.333-.578.5-.908.081-.256.253-.42.334-.586.25-.33.415-.75.582-1.08.334-.75.832-1.418 1.25-2.086l.163-.33c.17-.252.337-.417.42-.665.165-.25.332-.502.58-.75.163-.251.336-.586.5-.833l.086-.169c.167-.33.248-.751.248-1.08v-.751c.083-.665.083-1.333.331-1.914 0-.082.086-.165.086-.33v-.173a3.93 3.93 0 0 1 .499-1.245c.08-.17.166-.247.252-.417l.165-.248c.078-.167.164-.333.25-.42.248-.416.415-.746.75-1.08.08-.083.163-.165.163-.333.165-.496.504-1 .919-1.497.662-.834 1.33-1.75 1.914-2.665l.164-.252c.915-1.331 1.83-2.746 2.583-4.161.085-.164.164-.164.333-.164.331 0 .665 0 .916.078.417 0 .915.086 1.416.086a9.078 9.078 0 0 0 2.167 0h.496c.668 0 1.336-.164 1.995-.334.254-.082.59-.164.835-.248.334-.082.584-.248.916-.42.748-.498 1.166-1.08 1.416-1.745l.083-.164c.165-.42.331-.92.248-1.501 0-.082.083-.082.083-.166.082-.081.082-.081.167-.168.081-.084.081-.084.168-.165a1.69 1.69 0 0 0 .415-.664c.252-.751.416-1.336.416-1.918v-.083c0-.334 0-.668.084-.916-.084-.502-.167-.75-.167-.831m-1.747 3.244c-.418.585-1.086 1.002-1.581 1.25a1.57 1.57 0 0 1-.668.17c-.582.081-1.25.247-1.83.333a3.13 3.13 0 0 1-.917.166c-.163 0-.498.082-.498.498 0 .331.25.581.582.665h.498c.42-.084.838-.165 1.25-.248a17.238 17.238 0 0 1 1.831-.334c.167 0 .334-.083.5-.165-.333.833-.829 1.414-1.58 1.749a7.42 7.42 0 0 1-1.413.415c-.34.08-.755.08-1.086.166l-.582.082c-.336 0-.667.083-1 .083-.753 0-1.498-.083-2.247-.083a17.313 17.313 0 0 0-2.913 0c-.084 0-.168 0-.254.083-.078 0-.164.083-.164.083l-.164.086v.164c0 .418.25.582.498.666 0 .086-.084.086-.084.164l-.327.503c-.59.998-1.255 2.08-1.918 3.08-.504.75-1.085 1.5-1.588 2.248l-.329.417c.25-1.165.329-2.248.329-3.416v-1.579c0-.251 0-.502-.079-.75-.086-.251-.17-.33-.336-.503-.167-.078-.331-.078-.582 0-.08 0-.167.086-.245.172l-.172.08v.168c-.079.495-.079.915-.079 1.415v2.082c0 .499-.086.994-.166 1.497v.335c0 .165-.086.33-.086.581 0 .169-.086.416-.086.586 0 .412-.165.746-.249 1.163-.08.25-.08.416-.164.663-.086.169-.086.417-.17.586 0 .083-.08.248-.164.33-.083.169-.164.338-.247.503-.17.247-.334.5-.42.829-.164.251-.25.585-.332.837-.166.499-.25.915-.333 1.414v2.248c0 .168 0 .334-.08.498-.335.586-.668 1.25-1.164 2-.256.417-.503.748-.668 1.246-.084.252-.253.5-.418.834l-.331.667c-.253.5-.5.995-.834 1.416a20.412 20.412 0 0 0-1.416 2.746c-.082.25-.251.498-.335.75-.247.5-.495 1.08-.667 1.579v.086c-.329.08-.415.414-.498.58-.165.501-.248 1.087-.332 1.83v1.335c0 .834-.08 1.666-.08 2.495v9.491c0 .584-.087 1.17-.087 1.833v.417c-.08.582-.08 1.08-.08 1.666v1.997c0 .586.247 1.002.662 1.25.164.086.25.165.415.33.086.086.172.17.253.17.086.082.167.164.25.25.248.252.499.417.832.582-.498-.082-1.082.083-1.586.417-.412-.252-.827-.334-1.413-.084 0 0-.081 0-.081.084a4.323 4.323 0 0 1-.25-.582c-.17-.668-.418-1.25-.833-2.082-.331-.665-.581-1.25-.668-1.832-.08-.333-.08-.585-.166-.915 0-.17 0-.334-.08-.5-.085-.333-.085-.585-.168-.915v-.587c.083-.077.248-.33-.334-4.91 0-.165-.164-.5-.328-.916-.086-.166-.086-.248-.168-.335 0-.33-.086-.747-.086-1.08v-.582c0-.25 0-.498-.086-.75 0-.334-.078-.75-.414-1.084v-.166l.164-2.164c0-.33.086-.664.086-1.081v-.334c0-.416 0-.832.086-1.166V93.4c0-.577 0-1.163.078-1.744 0-.166 0-.5-.25-.751-.078-.082-.078-.165-.078-.335-.086-.495-.254-.915-.417-1.41 0-.086-.084-.251-.165-.334 0-.087-.084-.172-.084-.172l-.086-.244-.247.08c-.417.085-.417 2.333-.417 3.082h-.337c-.58-.168-2.079-.415-2.079-.415-.414-.087-.83-.087-1.25-.166a225.12 225.12 0 0 0-1.496-.25h-.254c-.91-.17-1.83-.334-2.742-.418-.172 0-.336-.082-.502-.082l-.582-.166c-.833-.25-1.583-.42-2.412-.67-.75-.245-1.501-.496-2.334-.751-.495-.165-.999-.412-1.584-.66-.578-.248-1.166-.504-1.745-.668a10.266 10.266 0 0 1-1.418-.581 4.329 4.329 0 0 0-1.248-.42c-.5-.166-.83-.246-1.08-.496-.251-.17-.585-.334-.834-.586-.25-.166-.498-.33-.747-.5-.334-.25-.75-.415-1.165-.58-.751-.249-1.42-.585-1.916-1.085-.5-.416-1.085-.664-1.582-.829a1.115 1.115 0 0 0-.75 0c-.17 0-.25 0-.334-.087-.25-.164-.585-.25-1-.164-.165 0-.247.086-.414.086-.168 0-.336.078-.582.078-.25.087-.42.087-.586.252-.664.334-1.164.75-1.744 1.164-.336.25-.67.502-1 .75-.585.416-1.001.833-1.335 1.331a9.33 9.33 0 0 1-1.166 1.415c-.33.335-.666.836-.996 1.336-.25.499-.586.995-.916 1.497-.666.998-1.416 2.078-2.08 3.08-.42.586-.92 1.25-1.335 1.832l-.166.17c-.166.243-.334.495-.5.745-.25.334-.5.581-.665.915-.165.17-.25.418-.414.668l-.17.331c-.248.334-.497.75-.746 1.084-.42.5-.835 1.081-1.167 1.663-.085.168-.249.334-.334.498-.166.252-.334.504-.415.751-.416.836-.75 1.583-1 2.247a13.21 13.21 0 0 1-.916 1.915A10.958 10.958 0 0 0 26 107.47c0 .086-.085.166-.167.252-.5 0-.833.164-1.084.664-.165.251-.25.586-.25.915v.672c0 .33 0 .664-.081.994-.083.42-.168.837-.25 1.335l-.084.665v.082c-.167.334-.167.75-.167 1.085v.33c0 .334.081.5.252.586l.08.078c.086.17.25.334.584.42.084.33.167.665.5.999.082.082.082.168.166.248.085.168.249.334.334.498.082.086.082.17.082.252 0 .086-.082.168-.167.252-.164.163-.414.333-.583.663 0 .086-.08.086-.248.168-.5.252-.5.252-.833-.168l-.25-.251-.332-.33c-.167-.166-.417-.334-.668-.334h-.082c-.333 0-.663.086-1 .086l.085-.169c0-.083.081-.17.081-.333 0-.166.084-.582-.33-.916-.085 0-.085-.083-.085-.083 0-.498-.08-1.002-.249-1.414v-.252l.084-.252c.165-.33.25-.664.414-.994 0-.086.085-.086.085-.251.252-1.085.501-2.165.501-3.332 0-.413.08-.748.08-1.163 0-.252.085-.416.085-.668 0-.082.082-.168.082-.248l.167-.416c.082-.17.166-.333.166-.5v-.085c.084-.166.167-.414.167-.664 0-.418.084-.834.25-1.333.084-.168.084-.334.167-.498.082-.252.247-.5.496-.751l.42-.5c.415-.498.747-.915 1.081-1.497.666-1.084 1.081-2.081 1.166-2.997 0-.252.084-.417.084-.668l.08-.331a8.885 8.885 0 0 0-.08-3.33c0-.084-.084-.166-.084-.249 0-.75-.085-1.5.084-2.248.251-1.083.332-2.165.251-3.167V86.91c0-.251-.085-.585-.085-.83 0-.168 0-.42-.086-.584-.08-.668 0-1.333.171-1.997 0-.086.081-.168.081-.334 0-.086 0-.165.085-.252l.08-.164c.084-.251.17-.586.25-.837.168-.413.253-.83.335-1.245.085-.665.166-1.415.25-2.25.084-.496.25-.914.498-1.33.166-.334.333-.75.501-1.167l.166-.498c.249-.83.581-1.667.75-2.497.085-.498.331-.915.665-1.5l.086-.083c.08-.168.25-.416.165-.668.165-.247.165-.495-.084-.829-.167-.166-.332-.502-.747-.502-.169 0-.334-.08-.586-.166-.664-.248-1.33-.413-1.914-.581l-.25-.083c-.33-.086-.666-.251-1-.333-.166-.084-.331-.084-.498-.166l-.583-.166c-.417-.168-.751-.25-1.166-.42l-.416-.164c-.5-.165-1.083-.334-1.579-.586-.252-.081-.5-.247-.751-.416-.335-.165-.585-.413-.915-.664-.585-.499-1.165-.83-1.835-1.166-.417-.248-.831-.5-1.246-1-.416-.495-.665-.915-.835-1.33l-.08-.253c-.17-.412-.336-.83-.416-1.245-.086-.416-.251-.752-.585-.999-.25-.25-.416-.498-.582-.916-.083-.25-.249-.498-.417-.75-.167-.333-.332-.663-.417-1.001-.084-.578-.25-1.081-.582-1.745a2.294 2.294 0 0 1-.249-1.084v-1.333c0-.412 0-.997-.168-1.5-.081-.165-.081-.413 0-.664.083-.499.168-.998.083-1.498v-.416c0-.251 0-.581.085-.833v-.586h.333c.083.086.249.252.334.338.498.5.915.916 1.08 1.58l.084.17c0 .081.08.247.08.329a5.49 5.49 0 0 0 .502 1.666l.084.251c.084.166.165.331.25.579.08.086.08.25.165.336.166.335.252.58.416.916 0 .083.085.166.085.248.085.166.085.252.166.334.168.247.249.581.249.915.084.5.168.916.249 1.25 0 .083.086.247.086.333 0 .08 0 .166.08.248v.087c0 .165.086.33.17.495.25.5.498 1.085.746 1.583l.085.17c.085.081.165.247.249.412l.334.417c.332.42.667.834 1.081 1.167.416.417.835.746 1.25.998l.082.086c.25.248.583.413.915.577.25.173.584.338.835.504.415.334.829.584 1.33.75.165.082.334.166.414.248.172.166.42.33.752.416.168.086.335.166.416.252.5.333 1.085.5 1.583.664.582.165 1.081.417 1.582.664.334.169.581.335.915.335l.25.081c.25 0 .417.087.666.169.166.083.415.083.586.252.249.08.498.247.663.33l.25.169c.417.25.915.25 1.333.164l.414-.082c.25-.082.5-.082.75-.168.165 0 .249-.084.415-.084.586 0 1.167-.164 1.75-.416.416-.165.75-.247 1.248-.334l.249-.081 1.249-.248c.166 0 .25-.087.418-.087l.998-.08c1.001-.085 1.998-.085 3.081-.167.751 0 1.582-.084 2.411-.166.252-.086.586 0 .835 0 .501 0 1.081.082 1.582.082.916.084 1.916.166 2.831.166.498 0 1.084.086 1.58.086.25 0 .585.08.834.08.167 0 .333 0 .501.086.416 0 .833.082 1.329.082h2.167c.332 0 .665 0 1-.082h.248c.749-.087 1.496-.087 2.164-.087.338 0 .586 0 .834.087.25.082.498 0 .667 0 .25 0 .416-.087.664-.087l.416-.08c.334-.085.665-.167 1.002-.333l.247-.086c.248-.08.418-.252.666-.33.25-.086.416-.166.667-.166h1.164c.585.08 1.083 0 1.579-.086.504-.165 1.002-.247 1.5-.413l.166-.086c.423-.086.835-.25 1.083-.498a2.601 2.601 0 0 1 1.085-.504c.164 0 .25-.078.417-.078.329-.086.582-.086.91-.17 1.005-.082 1.92-.416 2.752-.745.495-.252 1.085-.5 1.581-.916l.164-.086c.504-.413 1.004-.834 1.5-1.25a9.954 9.954 0 0 0 1.75-1.914l.08-.082c.168.164.332.33.505.582.33.498.665 1.002 1.08 1.415 0 0 0 .086.083.086.331.581.746 1.08 1.165 1.58.248.25.415.585.666.835.083.165.164.245.25.331a.656.656 0 0 0 .668.165c.248 0 .415-.165.496-.417.083-.079.083-.165.166-.252h.087c.414.087.745-.077.915-.498.08-.165.164-.33.25-.417.084-.164.164-.33.248-.498.084-.166.165-.331.165-.581.086-.414.086-.918.166-1.33l-.829-.671v-.413c0-.251.08-.585.08-.833.254-1.249.504-2.664 1.25-3.913a2.69 2.69 0 0 1 .418-.582l.083-.086c.248-.248.248-.414.08-.75.087-.166.168-.331.087-.495-.086-.17-.167-.335-.415-.335-.253-.086-.417 0-.668.087a3.625 3.625 0 0 0-.915.663l-.248.252c-.253.248-.417.499-.667.83-.418.498-.666 1.165-.83 1.913 0 .168-.086.416-.17.581v.169a4.81 4.81 0 0 0-.25 1.497c0 .586-.08 1.085-.253 1.5-.078.253-.078.417-.078.665 0 .086 0 .252-.086.333-.078.336-.165.67-.25.918-.084.25-.084.415-.168.667v.083l-.328-.417c-.167-.252-.418-.581-.582-.833-.167-.166-.253-.418-.417-.586l-.337-.413c-.247-.334-.581-.75-.834-1.08-.165-.251-.33-.42-.496-.668-.167-.247-.25-.413-.25-.751.083-.582.25-1.25.581-1.999a1.3 1.3 0 0 1 .503-.664c.496-.417.997-.83 1.501-1.167l.164-.166c.415-.334.748-.584 1.163-.915a9.25 9.25 0 0 1 2.746-1.58c.084 0 .249-.085.335-.168.417-.251.915-.33 1.497-.33.334 0 .587 0 .92-.087h.412c.832 0 1.667 0 2.5.252.417.165.915.165 1.327.248.339.086.754.086 1.085.086.083 0 .164 0 .25.079 0 0 .084 0 .084.086a5.194 5.194 0 0 0 1.836.83c.078 0 .164 0 .164.085 0 .499.25.916.582 1.166.083.084.083.166.165.248.083.087.083.166.17.252.082.08.163.252.33.33.498.42 1.002.668 1.414.838.334.077.67.247.915.498.25.165.504.33.751.413.415.168.75.252 1.166.416l.25.086v.334c-.25.331-.25.747 0 1.167.084.08.084.166.168.244l.081.17c.083.247.334.416.665.416h.668c.333.079.25.416 0 .663M75.038 92.485v1.253c0 .165 0 .248-.086.413 0 .086 0 .165-.087.251v.166c0 .168-.078.42-.078.584v.166c0 .5 0 1.081-.086 1.579 0-.164-.086-.248-.086-.412l-.08-.503c-.087-.578-.168-1.163-.251-1.745 0-.25-.084-.585-.084-.837 0-.079 0-.247-.08-.33 0-.169-.084-.247-.084-.412.33-.087.751-.087 1.002-.173M29.91 116.296c-.085.252-.251.5-.417.668 0 .082-.083 0-.083 0h-.166a.771.771 0 0 1-.585-.248c-.082-.086-.246-.168-.33-.168-.085 0-.166-.084-.25-.084-.165 0-.332.084-.5.166l-.085.086c-.246-.086-.33-.252-.415-.502 0-.334-.08-.581-.332-.833-.084-.083-.084-.166-.084-.252 0-.746-.085-1.493-.165-2.244 0-.251 0-.503.08-.916l.085-.337c.17-.578.25-1.246.416-1.828.169-.831.415-1.747.75-2.58.085-.252.25-.503.415-.75.333-.496.666-1 .92-1.416-.505 1.084-.836 2.165-1.085 3.163l-.08.331c-.252 1.002-.505 2.086-.751 3.08l-.084.337c0 .166-.085.413-.085.581a3.235 3.235 0 0 0 0 1.25c.085.25.25.5.415.583.253.168.504.334.75.502l.25.166c.335.247.67.33.999.412.085 0 .085 0 .085.086.08.084.08.165.167.252.25.165.25.248.165.495m5.41-21.894l.835-1.25c.666-.915 1.248-1.83 1.83-2.745.251-.418.503-.752.667-1.168.25-.5.58-.916.832-1.163.415-.503.835-1.002 1.165-1.502a2.896 2.896 0 0 1 1-.997c-.25.747-.582 1.497-1 2.333-.166.332-.33.665-.497.916l-.085.248c-.415.915-.834 1.666-1.334 2.33-.33.502-.666 1.002-.911 1.497a5.75 5.75 0 0 1-.587.92c-.084.165-.249.33-.333.495l-.249.338c-.081.082-.081.165-.166.248-.332.502-.75 1.001-1.082 1.497-.334.42-.583.75-.916 1.166 0 .083-.084.083-.084.17l-.498.498c-.418.417-.833.83-1.247 1.246-.251.25-.585.584-.919 1.002.832-1.333 3.495-5.827 3.579-6.079zm61.5-41.375a.36.36 0 0 0 .083.248c.248.252.248.581 0 .833-.417.334-.835.585-1.332.585h-.084c-.498 0-.997-.251-1.335-.668-.165-.169-.165-.582 0-.75.252-.169.425-.334.59-.582.077-.165.33-.165.411-.165h.418c.17-.087.247-.087.333-.087.501 0 .835.17.916.586z" fill="#1D6C93" fill-rule="evenodd"/></svg>