<svg width="120" height="120" xmlns="http://www.w3.org/2000/svg"><g fill="#1D6C93" fill-rule="evenodd"><path d="M78.202 22.335a.525.525 0 0 0 .078-.058.58.58 0 0 1 .193.064c.06.044.114.126.173.212.033.05.066.099.103.146l.021.029c-.032.097-.048.092-.1.078l-.135-.036a2.252 2.252 0 0 1-.346-.106v-.005a.779.779 0 0 0 .013-.324m.426 1.257a.91.91 0 0 0 .139-.01.745.745 0 0 0 .531-.312c.032-.035.081-.087.102-.166.074-.28.145-.56.215-.84l.093-.371-.375-.238-.12.13c-.012.014-.026.027-.04.04a.679.679 0 0 0-.114.128.765.765 0 0 0-.544-.41.615.615 0 0 0-.592.195l-.016-.005.003.02a1.894 1.894 0 0 0-.116.136c-.024.03-.048.06-.074.089a.99.99 0 0 0-.252.72.815.815 0 0 0 .286.57c.243.204.573.324.874.324m-12.122-1.487l-.016-.033c-.095-.187-.042-.236.05-.289l.166-.097c.178-.106.347-.207.519-.264l.04.059c.087.126.185.27.335.31a.5.5 0 0 1-.012.066.612.612 0 0 0-.023.178l-.017.011c-.11.07-.214.138-.305.151-.117.017-.257-.01-.407-.039a4.265 4.265 0 0 0-.237-.041l-.093-.012zm-.914-.093c.002.06.005.144.052.225.19.327.385.653.58.978l.275.462.477-.108-.009-.177c0-.028 0-.056.002-.084a.702.702 0 0 0-.038-.302l-.037-.083c.089.046.181.08.276.1.262.055.53.002.756-.15.412-.278.367-.678.334-.97a2.702 2.702 0 0 1-.016-.163 1.294 1.294 0 0 0-.431-.898 1.043 1.043 0 0 0-.779-.257c-.485.041-.974.297-1.245.652-.175.23-.245.482-.2.728.003.015.002.032.003.047zm17.501 50.259c-.484-.268-1.033-.224-1.633.13-.63.372-.977.95-1.234 1.466a.82.82 0 0 0-.027.684c.1.247.319.443.598.54l.31.107-.03-.327a3.08 3.08 0 0 0-.043-.285c-.027-.15-.053-.291-.023-.374.235-.633.65-1.04 1.235-1.213.23-.069.438-.052.59.046.144.094.236.26.266.48.028.2.03.405.032.622.002.161.003.323.015.484.01.126.06.54.314.576.22.033.48-.034.635-.162.172-.14.33-.297.484-.448.14-.138.28-.276.43-.402.145-.122.294-.168.418-.133.12.034.216.145.272.314.107.316.158.663.19.93.096.793-.171 1.515-.453 2.277l-.12.325c-.225.625-.095 1.024.054 1.25.148.221.46.494 1.108.53.064.003.13.003.195.004.308.001.488.012.614.219.177.29.14.867-.073 1.12-.146.175-.298.344-.45.513l-.342.386.351.363.152-.138c.083-.076.172-.148.26-.22.212-.173.431-.352.594-.584.374-.534.434-1.102.166-1.6-.257-.475-.713-.74-1.286-.744-.35-.003-.573-.065-.662-.182-.09-.119-.088-.353.007-.696l.028-.106c.032-.122.063-.237.11-.337.5-1.068.611-2.19.331-3.334-.123-.502-.431-.864-.848-.995-.411-.128-.865-.01-1.245.325-.15.133-.303.263-.47.405 0-.074.001-.142.005-.212.048-.712-.246-1.282-.825-1.604M35.429 83.543c.65-.063 1.164.267 1.705.618.117.076.233.152.351.224.478.289.8.051.975-.076.158-.115.245-.295.321-.454.028-.059.056-.118.089-.173l.098-.165-.371-.268-.163.063a.64.64 0 0 0-.206.1c-.355.28-.43.281-.796.005a3.625 3.625 0 0 0-.409-.263c-.864-.487-1.717-.568-2.401-.23-.685.34-1.136 1.067-1.273 2.05-.031.22.04.43.11.633.027.078.054.156.073.234l.044.18.663-.068-.091-.255c-.218-.61.06-1.105.354-1.631.177-.316.462-.477.927-.524m46.373-49.875l.074.285.247-.162c.425-.278.358-.6.317-.793a1.515 1.515 0 0 1-.018-.097c-.03-.22-.063-.448.01-.62.099-.23.491-.298.78-.214.486.14.917.404 1.239.617.15.1.262.24.38.387.072.09.145.18.227.263.132.136.31.23.482.32.217.113.368.2.427.309l-3.67-.126.919.438c.564.27 1.084.403 1.58.403.438 0 .857-.104 1.271-.314l.117-.059.08.029a.793.793 0 0 1 .062.02l.2.082.078-.202a.374.374 0 0 1 .03-.054.765.765 0 0 0 .057-.131l.015-.061a.243.243 0 0 0-.062-.216.41.41 0 0 1-.057-.146c-.053-.19-.155-.534-.732-.496l-.27-.272a16.23 16.23 0 0 0-.619-.61l-.104-.096c-.244-.227-.496-.462-.812-.65-.596-.355-1.986-.257-2.316.278-.333.54-.176 1.063-.024 1.569.031.104.063.21.092.319m-4.512-2.453l-.37-.342a16.174 16.174 0 0 0-.737-.664c-.232-.193-.348-.572-.251-.827.157-.421.315-.842.465-1.265l.021-.06c.155-.435.301-.85.604-1.188.71.677 1.043 1.557 1.395 2.485.183.483.373.983.622 1.47l.075.146a.93.93 0 0 0 .03.282c.02.087.029.138.025.173l-1.755-.096-.125-.114zm-1.861-2.516c-.049.14-.078.286-.106.426-.042.208-.082.405-.175.549-.304.466-.019.731.151.89l.037.034c.073.069.16.127.247.183.095.061.184.12.224.184.277.438.685.508 1.116.582l.475.088c.017.042.028.075.037.1.022.064.049.143.132.193.362.215.743.323 1.126.323.253 0 .508-.047.759-.142.22-.084.4-.382.413-.593a2.19 2.19 0 0 0-.07-.592c-.016-.077-.033-.156-.046-.237l-.046-.28-.137.067a.333.333 0 0 0 .005-.18c-.05-.194-.13-.374-.206-.549l-.04-.092a284.16 284.16 0 0 0-.949-2.193c-.196-.446-.448-.952-.946-1.304-.199-.14-.377-.193-.544-.157-.153.032-.284.134-.387.305a8.437 8.437 0 0 0-.536.997c-.18.41-.35.855-.534 1.398zm9.055 70.238c.058-.135.116-.27.166-.409a3.241 3.241 0 0 1 1.515-1.77c.357-.2.473-.001.517.074.2.341.423.748.565 1.174.077.229.108.476.143.737.018.141.036.282.061.421.06.332.202.557.42.668.217.112.483.096.79-.048.66-.313 1.11-.831 1.428-1.247.332-.436.665-.922.754-1.662l.083-.687-.598.69c-.063.073-.11.128-.158.18l-.385.418c-.449.488-.898.975-1.36 1.453-.036.037-.141.082-.142.093-.04-.02-.111-.136-.12-.228-.063-.714-.16-1.313-.424-1.913-.22-.498-.572-.843-.993-.971-.396-.122-.825-.047-1.237.214-1.169.74-1.637 1.938-1.888 2.775-.095.316-.114.647-.133.984a.77.77 0 0 0 .187.578c.145.157.36.245.622.253l.535.016-.38-.378c-.257-.256-.295-.533-.139-.988.05-.145.11-.286.17-.427M64.55 36.81a.947.947 0 0 0-.885.078c-.385.25-.716.569-1.078.93a20.71 20.71 0 0 0-2.322 2.759c-.121.17-.225.35-.325.525-.1.176-.195.342-.306.496a194.581 194.581 0 0 1-2.376 3.242c-.263.35-.547.717-.88 1.009-.4.349-.822.687-1.231 1.015-.315.252-.63.505-.94.765-.14.118-.198.293-.25.447l-.03.085c-.055.144.055.275.156.358l.14.111.13-.08c.137-.084.27-.169.388-.281.115-.11.224-.233.331-.357.202-.23.392-.448.617-.553.83-.386 1.369-1.014 1.786-1.577.77-1.035 1.533-2.1 2.27-3.13l.531-.741c.188-.262.37-.53.55-.798.36-.534.733-1.086 1.156-1.57.565-.648 1.251-1.218 1.915-1.77l.1-.084c.103-.086.212-.119.302-.09.085.027.152.108.182.221l.256.96c.174.658.348 1.317.53 1.973.054.197.036.243-.068.322a.38.38 0 0 0-.131.218l-.05-.033-.996.549.108.179a1.61 1.61 0 0 0-.236.165l-.514-3.094-.281.216c-.178.138-.276.4-.284.76-.012.584.224 1.398.64 1.75l.438.369-.023.017a98.98 98.98 0 0 1-.58.533 38.778 38.778 0 0 0-1.701 1.618c-.597.616-1.268 1.351-1.675 2.286l-.028.062c-.121.28-.247.57-.407.823l-.089.142c-.25.398-.51.81-.823 1.147l-.069.074c-.414.447-.805.869-1.41.9-.455.025-.91.039-1.367.053-.411.012-.822.025-1.233.044a.812.812 0 0 0-.36.134c-.035.02-.07.04-.105.057l-.387.178.375.201c.033.018.065.04.098.063.099.067.222.151.37.151h.005l.136-.002c.815-.009 1.659-.018 2.487-.087.221-.018.772-.094 1.118-.404.687-.618 1.338-1.24 1.755-2.054.644-1.26 1.363-2.576 2.444-3.62.3-.29.612-.57.922-.85.18-.162.358-.324.535-.487l.13-.12c.244-.224.487-.448.717-.685.136-.14.256-.293.372-.44l.064-.081.315.1.091-.111a.796.796 0 0 1 .18-.138c.194-.127.521-.339.366-.838-.121-.39-.213-.712-.287-1.014-.08-.324-.157-.65-.234-.974-.085-.365-.171-.73-.263-1.092-.107-.427-.407-.783-.782-.93"/><path d="M63.89 49.7a7.355 7.355 0 0 1-.54.521 7.83 7.83 0 0 0-.58.561c-.17.189-.316.395-.458.594-.156.219-.303.426-.475.608l-.237.252c-.54.58-1.052 1.126-1.748 1.49l-.049.024c-.425.222-.826.431-1.295.487-.368.042-.73.125-1.081.205-.153.035-.306.07-.459.101l-.135.028-.1.457.168.067c.037.015.075.032.112.049.1.045.215.097.342.115.16.024.316-.009.48-.043.209-.043.45-.077.706-.114.782-.114 1.668-.242 2.31-.657.633-.41 1.902-2.02 2.006-2.213.467-.863 1.138-1.684 1.796-2.196.417-.325 1.048-.815.915-1.706a13.884 13.884 0 0 1-.093-.866c-.026-.29-.052-.578-.093-.865-.058-.394-.13-.885-.31-1.321-.15-.361-.515-.673-.966-.508-.37.135-.683.298-.93.484-.29.22-.528.5-.758.77l-.036.042c-.356.418-.723.851-1.049 1.309-.25.351-.489.71-.728 1.07a31.32 31.32 0 0 1-.949 1.374c-.366.49-.775.967-1.17 1.427-.166.193-.331.385-.494.58-.68.808-1.384 1.094-2.223.896l-.137-.028-.082.065c-.039.03-.08.06-.121.088-.117.082-.25.175-.34.311-.099.148-.105.336-.109.487l-.002.068c-.026.593.028 1.208.588 1.685.112.095.278.215.48.215a.494.494 0 0 0 .07-.005c.242-.034.404-.24.504-.391l.108-.161-.303-.245a13.319 13.319 0 0 0-.383-.304c-.05-.038-.106-.063-.157-.086l-.013-.006c-.025-.231-.037-.465-.05-.712l-.004-.074.195.009c.31.014.603.028.887-.053.928-.264 1.525-.963 2.102-1.64l.143-.168c.188-.223.337-.399.598-.53.221-.112.312-.364.399-.608a1.8 1.8 0 0 1 .146-.34c.194-.306.411-.608.621-.9.109-.152.218-.304.324-.457l.459-.663c.333-.482.665-.965 1.03-1.47.033-.046.07-.098.108-.134h.136l.008.007c.02.02.04.037.058.058.012.25.017.5.021.75.007.346.013.691.038 1.036.014.205.083.395.148.579.027.074.054.148.076.223l.06.203.512-.15-.01-.168c-.028-.47-.12-1.156-.21-1.82a51.923 51.923 0 0 1-.157-1.236c.03-.042.062-.088.111-.149.044-.05.09-.098.14-.139.143-.116.402-.18.465-.149.126.059.275.294.307.483.09.53.142 1.079.191 1.61l.05.52.004.044c.004.044.014.128.014.14l-.06.086c-.265.373-.537.759-.843 1.097M44.93 23.925c-.04.68.144 1.012.243 1.19.017.03.037.067.04.052l-.01.11.057.048c.045.097.164.434.278.76.293.829.734 2.08 1.07 2.647.337.568.674 1.032.985 1.358.07.098.258.296.558.61.29.305.619.649.802.88.034.044.062.079.076.1l.105.15.015-.007c.13.153.267.301.403.45.388.42.754.817.979 1.332.1.23.284.403.461.57.072.068.143.135.207.206l.141.156.416-.375-.074-.145c-.466-.908-1.095-1.647-1.651-2.25a44.448 44.448 0 0 1-.732-1.012c-.368-.514-.715-1-.8-1.103-.56-.774-.82-1.492-1.071-2.186-.216-.598-.42-1.162-.783-1.665-.286-.527-.68-1.386-.951-1.978l-.022-.241a6.4 6.4 0 0 1-.047-.907c.038-.921.103-1.895.204-3.066a24.172 24.172 0 0 1 1.154-5.488c.066-.2.132-.398.194-.599.085-.275.167-.551.25-.828a63.2 63.2 0 0 1 .3-.99c.038-.122.074-.246.11-.37.107-.367.209-.713.369-1.03.26-.513.558-1.024.846-1.517.165-.284.331-.568.491-.855.656-1.173 1.632-1.819 2.987-1.974.45-.05.788.061 1.068.354.267.278.524.565.78.853.199.22.397.443.6.66.584.626.712 1.451.792 2.242.052.504.064 1.026.075 1.53.006.289.013.578.027.867.007.166.06.344.146.487.204.34.41.68.618 1.017.275.45.55.898.816 1.353.039.067.08.133.122.2.196.311.365.58.305.956-.076.483-.026.982.027 1.412.134 1.102.626 2.08 1.117 3.06.12.236.253.46.351.617.274.674.57 1.435.592 1.542l.025.065c.042.072.092.304.127.473.048.223.088.414.142.513l.015.034c.037.089.084.166.12.22l.302.563.533-.197-.088-.206c-.028-.068-.116-.45-.18-.728-.102-.44-.158-.676-.197-.78-.048-.214-.289-.804-.798-1.95l-.008-.016.002-.001-.074-.164c-.114-.254-.18-.41-.233-.534-.109-.257-.158-.374-.434-.89-.363-.68-.532-1.416-.533-2.318v-.135c0-.536.001-1.09-.2-1.576-.184-.443-.468-.84-.743-1.223-.133-.185-.265-.37-.386-.56a9.341 9.341 0 0 0-.207-.304c-.19-.272-.371-.529-.434-.8-.118-.503-.134-1.05-.15-1.58l-.01-.31c-.034-.958-.108-1.886-.63-2.73l-.023-.036a7.185 7.185 0 0 0-.47-.698 95.984 95.984 0 0 0-1.079-1.332l-.183-.225.104.005c.414.022.806.042 1.167.135.381.099.753.328 1.113.55l.143.087c.278.17.55.37.813.564.127.093.253.187.382.278.223.158.378.395.542.646.22.335.445.682.856.883l.01.032c.01.032.019.064.03.092.349.844.624 1.551.748 2.331.032.203.07.405.107.607.062.334.126.68.162 1.017.148 1.393.297 3.056.284 4.839-.006.795.728 2.02 1.166 2.751.093.156.17.283.215.369.234.438.468.876.694 1.319.07.137.145.273.22.41.197.356.384.693.48 1.051l.007.023-.044.066c-.334.482-1.495 2.014-1.979 2.65-.303.4-.617.79-.932 1.18-.244.303-.488.606-.727.912l-.436.56c-.668.855-1.359 1.739-2.011 2.63a40.52 40.52 0 0 0-1.165 1.707c-.139.21-.277.42-.392.6-.102.105-.213.226-.334.359-.247.27-.527.574-.863.894-.236.224-.538.388-.888.578-.175.096-.357.196-.545.31l-.552.335.643.057c.088.007.17.023.246.037.103.018.202.036.298.036a.544.544 0 0 0 .227-.045c.692-.313 1.51-1.27 2.168-2.04l.11-.128a.448.448 0 0 0 .142-.118c.036-.046.067-.096.098-.145l.021-.037c.061-.07.12-.135.174-.193l.218-.233-.096-.035c.04-.063.08-.125.123-.185a138.71 138.71 0 0 1 2.298-3.174l.332-.448c.088-.12.175-.242.261-.365.19-.266.384-.541.599-.784.213-.243.441-.473.669-.703.28-.285.572-.58.834-.896.131-.157.404-.452.72-.795.646-.703 1.45-1.577 1.676-1.946.112-.182.009-.357-.056-.443-.14-.486-.335-1.109-.618-1.694a26.453 26.453 0 0 0-.919-1.687l-.301-.526c-.375-.662-.603-1.296-.695-1.94a38.795 38.795 0 0 1-.186-1.575c-.043-.41-.086-.82-.138-1.229l-.035-.27c-.186-1.445-.379-2.94-.605-4.405-.143-.921-.462-1.652-1.006-2.3-.15-.179-.297-.36-.443-.541-.521-.645-1.06-1.313-1.765-1.848-1.247-.948-2.618-1.295-4.07-1.032-.85.154-1.68.444-2.484.723l-.134.047a3 3 0 0 0-1.51 1.123c-.81 1.137-1.355 2.413-1.884 3.648l-.13.303a25.72 25.72 0 0 0-1.636 5.305 60.038 60.038 0 0 0-.644 4.27c-.108.915-.12 1.86-.124 2.75l-.018.004.028.197c.014.102.003.577-.006.732M63.59 34.442l-.161.15c-.104.095-1.138.975-1.969 1.682-.707.6-1.143.971-1.188 1.012-.446.409-.703.72-.953 1.02a8.924 8.924 0 0 1-.9.965c-.613.565-1.067 1.288-1.388 2.211-.342.981-.765 1.614-1.37 2.05l-1.346.965.274.455.175-.087c.09-.045.18-.093.27-.14.193-.103.377-.199.568-.275.726-.286 1.134-.866 1.53-1.427l.073-.104c.293-.415.475-.884.65-1.336.234-.602.455-1.17.917-1.61.14-.132.29-.27.44-.409.187-.173.376-.347.55-.513.283-.273.546-.552.809-.83.297-.316.606-.643.938-.95v-.001a.492.492 0 0 0 .033-.028c1.61-1.394 2.282-1.952 2.37-2.006l.239-.125-.132-.15.01-.006-.438-.513z"/><path d="M63.635 29.045c-.158-.057-.335-.023-.54.102a13.29 13.29 0 0 0-.937.64c-.087.064-.178.125-.269.186-.09.062-.181.123-.265.184a.82.82 0 0 0-.155.122 1.97 1.97 0 0 0-.324.314 22.58 22.58 0 0 0-.925 1.279 29.49 29.49 0 0 1-.664.941 127.47 127.47 0 0 1-1.321 1.729c-.341.44-.682.88-1.018 1.324l-.172.227a55.833 55.833 0 0 0-1.594 2.172 33.634 33.634 0 0 0-.851 1.359c-.445.44-1.178 2.037-1.382 2.543-.175.434-.273.894-.368 1.337l-.06.28c-.035.16.063.296.133.395.017.024.033.045.044.064l.252.477.14-.52c.134-.5.994-2.43 1.136-2.63.016-.025.507-.799.753-1.163.021-.032.09-.15.185-.312.218-.372.582-.997.788-1.28.38-.523.74-1.057 1.087-1.573.445-.663.906-1.349 1.41-2.005l.892-1.162c.638-.831 1.277-1.663 1.912-2.496.086-.112.167-.228.248-.345.053.095.096.168.105.18l.023.238c.052.515.104 1.048.237 1.56.085.333.24.64.391.939.064.126.129.254.187.382l.081.179.602-.218-.095-.32a4.868 4.868 0 0 0-.096-.31 1.28 1.28 0 0 0-.076-.162.558.558 0 0 1-.058-.131c-.063-.329-.121-.657-.18-.985-.077-.427-.153-.854-.237-1.28a.73.73 0 0 0-.146-.29l-.002-.096a.948.948 0 0 0 .037-.136c.066-.39.433-.777.743-.78.052-.002.073.008.074.009.019.023.024.132.026.19.006.114.011.243.069.358.242.486.46.998.671 1.493l.218.507c.085.196.166.394.248.591l.188.453.524-.152-.038-.19c-.02-.1-.036-.2-.052-.301a3.787 3.787 0 0 0-.157-.7v-.001a55.87 55.87 0 0 0-.51-1.337c-.188-.48-.375-.96-.549-1.446-.083-.234-.202-.376-.363-.433m8.956 60.779c-.291.054-.582.118-.872.18-.29.064-.58.128-.872.182l-.163.03a332.21 332.21 0 0 1-4.618.843l-.848.147c-1.657.288-3.371.586-5.062.825-.877.124-1.78.186-2.655.245a101 101 0 0 0-1.019.074 1.123 1.123 0 0 1-.41-.036c-.716-.225-1.36.038-1.674.683-.035.072-.035.141-.035.208 0 .027 0 .06-.002.1l-.015.249.248-.026c.075-.008.144-.013.21-.018a3.05 3.05 0 0 0 .395-.048c.14-.03.277-.067.414-.104.218-.06.423-.116.63-.138.244-.026.487-.027.746-.029.237-.002.483-.003.727-.025l.536-.048c1.17-.105 2.381-.213 3.567-.372 1.3-.175 2.632-.426 3.807-.649.935-.176 1.869-.367 2.802-.558.534-.11 1.069-.218 1.603-.325l.235-.049c.286-.06.556-.118.825-.127.657-.02 1.244-.245 1.741-.456.128-.053.183-.176.223-.266a.586.586 0 0 1 .033-.067l.124-.21-.224-.094c-.022-.009-.045-.022-.068-.035-.083-.047-.194-.113-.329-.086"/><path d="M93.299 110.203c-.18-2.335-.404-5.24-.446-6.277-.025-.647-.048-1.293-.07-1.94-.027-.78-.054-1.56-.087-2.339l-.005-.106c-.054-1.298-.11-2.64-.196-3.96-.053-.824-.119-1.646-.185-2.468-.056-.69-.111-1.38-.159-2.07-.073-1.06-.136-2.12-.2-3.181l-.15-2.448a470.602 470.602 0 0 0-.391-5.834l-.173-2.466c-.052-.78-.104-1.558-.17-2.335-.078-.952-.163-1.903-.249-2.854a517.66 517.66 0 0 1-.218-2.478c-.044-.517-.081-1.034-.119-1.552-.012-.179-.027-.358-.04-.537.08-.05.173-.092.258-.138a3.182 3.182 0 0 1-.173-1.01c-.056.023-.113.044-.168.07-.09-1.04-.183-2.08-.277-3.121-.17-1.895-.347-3.853-.496-5.78a93.214 93.214 0 0 1-.173-3.267 156 156 0 0 0-.087-1.932c-.042-.784-.1-1.568-.16-2.352l-.038-.515c-.051-.702-.11-1.405-.167-2.107l-.011-.136c-.022-.27-.041-.54-.06-.81-.048-.643-.096-1.31-.179-1.963-.087-.687-.32-2.166-.49-3.246l-.175-1.124c.13-.115.192-.317.155-.553-.044-.285-.202-.495-.403-.56l-.01-.028-.296-.003-.181.028-.005.023c-.402.052-.803.113-1.205.174a33.09 33.09 0 0 1-2.091.27.572.572 0 0 0-.52.62.5.5 0 0 0 .55.482c.33-.02.614-.03.882-.04a15.09 15.09 0 0 0 1.77-.142c.18 1.146.815 5.617.87 6.308.044.532.115 1.274.192 2.063.12 1.234.255 2.632.303 3.476.06 1.075.12 1.899.178 2.723.057.812.115 1.625.176 2.683.05.883.188 1.497.322 2.09.121.534.246 1.087.312 1.856.144 1.653.3 3.305.457 4.956l.043.456a4.63 4.63 0 0 0-.49.483 68.209 68.209 0 0 0-1.78 2.136c-.248.31-.561.392-1.015.269a3.153 3.153 0 0 1-.452-.176 6.236 6.236 0 0 0-.295-.125c-.24-.092-.479-.188-.718-.284-.58-.234-1.179-.475-1.793-.643-.865-.236-1.66-.022-2.302.621-.542.544-.687 1.202-.826 1.838l-.04.176c-.155.687-.005 1.305.446 1.836l.207.244.144-.286c.115-.228.167-.445.155-.646a2.89 2.89 0 0 0-.058-.387c-.03-.155-.06-.3-.05-.434.018-.293.119-.6.207-.872.175-.536.94-1.443 1.718-1.198.581.184 1.166.394 1.732.597.317.114.635.228.954.338.087.03.175.062.262.094.278.103.565.209.867.257 1.13.187 1.718-.698 2.147-1.342a7.756 7.756 0 0 1 1.09-1.324c.039.418.079.836.117 1.255.09.964.169 1.93.248 2.895l.018.214c.072.871.14 1.744.204 2.616l.02.272c.14 1.919.279 3.836.41 5.756.027.389.048.778.069 1.168.03.57.061 1.159.112 1.738.019.212-.019.25-.213.317-.187.064-.4.137-.553.29-.485.483-.958.977-1.438 1.478l-.281.294c-.13-.55-.387-1.058-.786-1.55-.624-.763-1.938-1.046-2.706-.58-.685.416-1.135 1.142-1.173 1.896-.034.669.254 1.269.811 1.689.391.295.788.29 1.21-.019l.444-.322-.545-.06c-.829-.091-1.091-.385-1.125-1.256-.012-.332.165-.543.388-.81.048-.056.096-.113.142-.172.22-.278.503-.362.701-.383.343-.034.728.081 1.002.307.631.521.967 1.237 1.123 2.392.017.131.054.253.09.37.015.05.03.099.043.148l.053.195.513-.113.01-.16c.002-.05.003-.101.003-.152 0-.09 0-.176.02-.242l.032-.11c.053-.183.108-.373.207-.49a22.77 22.77 0 0 1 1.515-1.626c.13-.126.312-.216.505-.313l.074-.037.08 1.177c.113 1.643.225 3.286.327 4.93.047.748.086 1.497.126 2.246.045.849.09 1.697.144 2.545.036.55.084 1.1.132 1.652.056.642.114 1.305.15 1.958.034.607.043 1.229.052 1.829.006.415.012.83.026 1.244.227 6.83.105 9.721-.093 10.191-5.183.242-11.328 2.312-15.007 3.552-1.442.485-2.58.869-3.186.99-3.637.717-6.503 1.114-8.52 1.177-.894.028-1.79.048-2.686.067l-1.483.034c-.194.005-.388.013-.582.02-.331.013-.655.027-.994.026a143.13 143.13 0 0 1-1.605-.014c-.74-.008-1.478-.017-2.218-.012-.938.014-1.687-.097-2.374-.626-.446-.344-.646-.756-.65-1.337a1.133 1.133 0 0 1 .364-.844c.108-.093.279-.2.497-.166.44.065.881.201 1.278.396.652.32 1.003.935 1.285 1.553.188.413.442.674.754.775.305.1.649.044 1.023-.167.36-.202.735-.427 1.182-.708a.438.438 0 0 0 .167-.243.494.494 0 0 1 .02-.051l.063-.126-.271-.319-.144.064c-.136.06-.272.116-.409.173-.315.133-.641.27-.953.431-.393.203-.472.152-.644-.145a8.989 8.989 0 0 1-.162-.294c-.066-.123-.131-.246-.203-.365-.66-1.099-1.568-1.722-2.7-1.854-.394-.046-.903-.049-1.341.336-.785.688-.938 2.003-.329 2.813a9.1 9.1 0 0 0 .522.619h-.024c-.355.006-.691.012-1.029-.01-.747-.046-1.494-.1-2.24-.154a195.64 195.64 0 0 0-2.753-.184 87.482 87.482 0 0 0-1.92-.08 66.908 66.908 0 0 1-2.366-.108c-1.048-.073-2.112-.19-3.14-.301l-.991-.107c-1.121-.118-1.963-.724-2.37-1.704-.42-1.01-.63-2.134-.808-3.198-.123-.743-.176-1.515-.228-2.263-.023-.34-.046-.68-.076-1.019-.03-.333-.087-1.205-.147-2.097a148.67 148.67 0 0 0-.159-2.264 120.42 120.42 0 0 1-.113-1.543l-.051-.721c.055.053.112.106.163.165l.547.622-.18-.809a15.871 15.871 0 0 0-.137-.551c-.094-.36-.175-.67-.194-.982-.039-.627.169-1.24.617-1.824a.684.684 0 0 1 .49-.24.331.331 0 0 1 .297.123c.1.118.197.237.294.356.167.203.333.406.506.603.334.375.862.446 1.254.166.452-.32.978-.704 1.464-1.13.217-.191.396-.416.57-.633.075-.093.15-.187.226-.277l.111-.129-.317-.421-.165.105c-.041.027-.084.052-.127.077-.104.062-.213.125-.312.21-.225.196-.448.394-.671.592-.364.324-.728.648-1.103.957-.06.049-.117.07-.174.064-.072-.01-.149-.063-.215-.151a29.607 29.607 0 0 1-.656-.902c-.281-.403-.694-.563-1.106-.428-.382.123-.81.282-1.058.592a3.594 3.594 0 0 0-.392.616 13.983 13.983 0 0 0-.042-.35c-.101-.755-.116-1.445-.13-2.176a22.343 22.343 0 0 0-.092-1.893c-.096-.94-.16-1.902-.222-2.832-.028-.427-.057-.855-.088-1.282l-.142-1.922a885.344 885.344 0 0 1-.3-4.104c-.044-.628-.078-1.256-.112-1.885-.021-.397-.042-.795-.066-1.193l-.164-2.674-.224-3.712c-.045-.789-.092-1.578-.142-2.366-.015-.228-.04-.455-.064-.683-.025-.237-.05-.474-.065-.712-.01-.157-.017-.315-.025-.473.065.257.157.51.284.754l.01-.066c-.007-.477.165-.934.393-1.4-.068-.647-.003-1.28.084-1.844a.513.513 0 0 1 .124-.208c.4.011.818.04 1.195.159.198.062.389.163.59.271.258.136.523.277.817.34 1.035.218 2.476-.662 2.806-1.716.242-.77.07-1.53-.509-2.254a3.218 3.218 0 0 0-.25-.269c-.146-.145-.284-.283-.325-.423-.046-.158-.003-.366.041-.586a3.62 3.62 0 0 0 .057-.33l-.01-.14-.332-.248-.245.342c-.096.13-.19.262-.278.398-.229.356-.12.97.124 1.262l.066.077c.243.288.495.586.66.907.168.327.181.708.037 1.073a1.576 1.576 0 0 1-.92.894c-.532.192-.968.069-1.542-.207a8.508 8.508 0 0 0-1.579-.557c-.231-.06-.494-.009-.738.142-.272.168-.468.428-.526.697l-.05.216a9.023 9.023 0 0 0-.105.51c-.026-.501-.051-1.002-.084-1.502-.042-.64-.095-1.28-.149-1.92-.048-.578-.097-1.155-.136-1.733a52.113 52.113 0 0 1-.072-1.388c-.018-.43-.037-.86-.065-1.289-.013-.2-.048-.397-.081-.587a6.01 6.01 0 0 1-.068-.45c-.032-.319-.058-.64-.083-.96a31.616 31.616 0 0 0-.147-1.532c-.146-1.123-.295-2.221-.517-3.303-.165-.802-.408-1.597-.643-2.367l-.096-.315a20.024 20.024 0 0 0-.319-.941c-.169-.474-.343-.964-.455-1.454-.1-.443-.243-1.861-.319-2.624l-.016-.159a18.32 18.32 0 0 0 1.99-.04.674.674 0 0 0 .577-.384.739.739 0 0 0-.04-.729.605.605 0 0 0-.567-.257c-.439.035-.879.055-1.318.075-.567.027-1.153.054-1.726.112-.328.032-.531.332-.54.602a.473.473 0 0 0 .32.476c.177.787.529 2.741.605 3.638.051.599.596 1.896 1.046 2.88l.027.061c.014.035.032.11.052.19.07.276.108.43.238.478a.892.892 0 0 1 .123.192c.032.155.06.31.088.466l.06.333c.067.342.138.684.209 1.027.154.75.315 1.526.424 2.293.094.663.141 1.347.188 2.009.025.367.05.736.084 1.103.03.325.066.65.103.976.054.485.11.986.14 1.478.047.773.078 1.548.11 2.322.02.517.041 1.035.067 1.552.032.639.085 1.277.132 1.825.059.689.123 1.378.187 2.066l.074.81.04.384c.028.256.057.52.066.776.015.409.022.819.03 1.228.01.602.021 1.224.056 1.838.031.556.084 1.118.135 1.663.048.522.097 1.045.129 1.57.037.61.057 1.22.078 1.831.022.627.043 1.253.082 1.879.074 1.225.166 2.45.258 3.674l.12 1.641c.039.53.074 1.06.109 1.591.077 1.167.156 2.374.269 3.559.081.865.095 1.709.108 2.524.015 1.005.031 2.044.177 3.124.14 1.03.577 6.443.866 10.025.141 1.751.253 3.135.283 3.416.126 1.217.3 2.503.906 3.681.294.572.716 1.066 1.158 1.353.61.399 1.329.64 2.075.698.448.036.905.112 1.347.186.392.065.797.134 1.202.174.786.078 1.585.122 2.36.164l.75.042c.469.028.938.053 1.407.077.523.027 1.045.054 1.568.086.541.033 1.083.069 1.625.105.884.06 1.77.119 2.654.162 1.615.079 3.209.128 4.69.17.301.007.605.01.908.01.381 0 .761-.004 1.134-.009l.224-.003c1.014-.012 2.029-.027 3.043-.055.5-.014 1-.034 1.5-.054.578-.023 1.157-.046 1.736-.06.629-.014 1.258-.021 1.888-.03.979-.011 1.992-.024 2.989-.064 1.023-.04 7.172-1.317 12.812-2.564 11.438-2.528 11.47-2.753 11.496-2.934.014-.1-.042-.866-.256-3.643"/><path d="M71.173 80.828a1.916 1.916 0 0 0-.433-.063h-.381c-.46.001-.932 0-1.396.07-.86.132-1.728.292-2.568.446-.495.092-.99.183-1.486.27a117.2 117.2 0 0 0-.754.134c-.822.148-1.673.3-2.513.397-2.072.238-4.171.43-6.132.6-.188.018-.388-.028-.602-.077a5.127 5.127 0 0 0-.323-.065c-.05-.008-.103-.023-.156-.037-.153-.041-.327-.088-.496-.027-.258.093-.498.226-.73.354-.091.05-.182.102-.274.15l-.12.061.016.483.149.043c.052.015.104.034.156.053.134.048.287.102.449.104h.01c.156 0 .305-.026.45-.052.11-.02.223-.04.336-.044.385-.016.77-.024 1.155-.033a38 38 0 0 0 2.012-.08 46.499 46.499 0 0 0 3.556-.397c1.32-.2 2.656-.448 3.975-.737l.583-.13c1.119-.25 2.276-.51 3.44-.588a22.72 22.72 0 0 0 1.542-.175c.228-.031.457-.063.686-.09l.184-.023.003-.481-.174-.032a4.327 4.327 0 0 1-.164-.034m1.457 2.662a1.058 1.058 0 0 0-.237-.02c-.488.037-.977.072-1.465.106-1.21.086-2.46.174-3.689.3-1.667.17-3.36.377-4.995.577l-1.53.187c-.613.074-1.308.157-1.988.285a9.43 9.43 0 0 0-1.03.274c-.11.034-.221.068-.332.1-.29.085-.595.152-.89.217-.932.205-1.895.416-2.636 1.21l-.078.083.107.443.342-.085c.108-.025.215-.05.32-.086.271-.09.54-.188.81-.285.55-.199 1.116-.404 1.683-.543a37.41 37.41 0 0 1 3.458-.662c.923-.136 1.87-.24 2.784-.343a161.25 161.25 0 0 0 1.54-.177c.452-.055.903-.117 1.355-.177a80.96 80.96 0 0 1 1.902-.24c.79-.088 1.58-.165 2.372-.241.626-.062 1.253-.122 1.879-.189a1.07 1.07 0 0 0 .37-.132c.04-.02.08-.042.12-.059l.181-.076-.147-.438-.206-.029z"/><path d="M70.071 66.648l-.16.037c-.404.092-.808.184-1.213.274-.297.066-.595.136-.893.205-.712.167-1.448.34-2.177.456-.464.075-.95.104-1.418.132-.39.023-.792.047-1.188.097-1.347.17-2.692.356-4.037.542-.688.096-1.376.191-2.064.284l-.291.04a41.14 41.14 0 0 1-1.76.213c-.831.076-1.71.14-2.686.193-.434.021-.704-.16-.847-.561a2.008 2.008 0 0 1-.078-.362l-.09-.564c-.081-.51-.163-1.02-.23-1.532a53.774 53.774 0 0 1-.142-1.22c-.04-.362-.08-.723-.125-1.083a1.03 1.03 0 0 0-.087-.281.703.703 0 0 1-.057-.172c-.02-.178-.029-.358-.039-.537a7.529 7.529 0 0 0-.067-.77 13.457 13.457 0 0 0-.222-1.061l-.062-.266c.07-.015.14-.03.208-.047.365-.092.747-.148 1.117-.201.435-.064.886-.13 1.328-.254.803-.227 1.647-.38 2.462-.528l.486-.09c.998-.184 1.998-.363 2.998-.54 1.075-.193 2.15-.385 3.224-.585.976-.182 1.95-.37 2.924-.56 1.096-.212 2.192-.425 3.29-.627l.116-.019c.087.533.232 1.544.373 2.523.154 1.076.313 2.188.404 2.726.054.315.586 2.91 1.003 4.138m12.868 40.06a470.273 470.273 0 0 0-.193-5.072c-.053-1.202-.13-2.492-.233-3.944l-.074-1.03c-.116-1.65-.237-3.358-.4-5.033-.23-2.346-.5-4.727-.762-7.03l-.125-1.1a665.4 665.4 0 0 0-.736-6.175c-.085-.686-.176-1.372-.268-2.057-.104-.785-.21-1.57-.304-2.357a60.405 60.405 0 0 1-.163-1.59 69.236 69.236 0 0 0-.154-1.51c-.067-.573-.145-1.145-.222-1.718a90.482 90.482 0 0 1-.231-1.79l-.161-1.405c-.34-2.957-.648-5.63-.683-5.848a18.08 18.08 0 0 1-.127-1.248c-.105-1.296-.177-1.906-.408-2.094l-.007-.04a.616.616 0 0 0-.079-.205l-.687-.003c0 .022-.005.043-.001.066l.017.119c-.856.026-1.938.142-2.675.221l-.346.037c-.644.067-1.303.112-1.941.155-.79.053-1.607.11-2.408.207-1.576.194-3.166.47-4.703.738l-.156.027c-.583.102-1.17.228-1.736.35-.479.102-.958.205-1.44.295-.956.178-1.914.348-2.873.519-.991.176-1.983.353-2.973.538-1.322.246-9.938 1.46-10.355 1.479l-.28.012.014.038-.202.029c-.748.105-2.14.303-2.949.66-.28.125-.516.371-.605.628a.564.564 0 0 0 .023.46l.088.164.174-.066a1.52 1.52 0 0 1 .125-.036c.128-.034.274-.072.373-.19.193-.233.484-.395.819-.459.477-.09.98-.125 1.467-.16.18-.012.36-.025.54-.04.357-.03.715-.06 1.073-.088.54-.042 1.081-.085 1.62-.135a28.44 28.44 0 0 0 1.493-.186c.158-.023.27.012.348.262.078.254.173.589.216.924.097.757.188 1.515.278 2.274.08.667.16 1.333.244 2l.036.286c.083.662.17 1.347.312 2.013.062.29.177.83.739 1.116.869.44 1.758.359 2.639.278.486-.045.975-.111 1.449-.175l.767-.102c.334-.043.669-.086 1.002-.142.227-.038.453-.082.679-.126a14.71 14.71 0 0 1 1.052-.18c.306-.038.624-.055.932-.071.298-.016.596-.032.892-.066.46-.052.92-.116 1.38-.18.774-.108 1.576-.22 2.364-.269a17.526 17.526 0 0 0 3.513-.57c.654-.178 1.3-.412 1.926-.638l.498-.179a.353.353 0 0 0 .04.04l.25.216.091-.318a.844.844 0 0 1 .03-.079.622.622 0 0 0 .058-.317c-.094-.658-.63-3.192-.984-4.869l-.255-1.215c-.08-.39-.427-2.948-.468-3.396a2.208 2.208 0 0 0-.031-.213 20.712 20.712 0 0 1 2.074-.19c.39-.02.793-.04 1.19-.088l.132-.016a606.98 606.98 0 0 1 4.54-.535l.103.703c.103.699.207 1.398.304 2.098l.03.216c.155 1.113.315 2.264.438 3.398.084.772.156 1.544.228 2.316.089.954.18 1.94.295 2.909.257 2.168.529 4.335.8 6.5a649.33 649.33 0 0 1 1.038 8.56l.061.54c.136 1.168.27 2.337.394 3.506l.17 1.562c.169 1.549.343 3.15.486 4.727a243.287 243.287 0 0 1 .686 10.494c.039.885.075 1.77.11 2.656-.43-.007-1 .01-1.512.026s-.997.03-1.205.015c-1.47-.107-2.92.07-4.28.262-.32.046-.64.09-.96.134-.685.094-1.37.188-2.054.296-.651.104-1.302.217-1.952.328-.799.138-1.597.277-2.398.399-.874.133-1.75.254-2.624.376-.922.128-1.844.256-2.763.398-.466.072-.933.167-1.385.26-.48.099-.977.2-1.466.272-1.278.187-2.646.374-3.993.477-.89.068-1.79.017-2.634-.041-.753-.052-1.522-.184-2.201-.3-1.453-.25-2.699-.646-3.807-1.212a1.303 1.303 0 0 1-.276-.221 3.426 3.426 0 0 0-.155-.142l-.057-.034a1.172 1.172 0 0 0-.546-.067c-.203-.932-.515-2.446-.792-3.792a293.88 293.88 0 0 0-.602-2.883c-.964-4.32-2.087-11.167-2.165-12.06a62.835 62.835 0 0 1-.118-1.738 96.963 96.963 0 0 0-.072-1.162c-.031-.429-.066-.858-.1-1.287-.04-.495-.081-.99-.114-1.486l-.04-.558c-.052-.717-.106-1.46-.101-2.184.001-.17-.03-.339-.059-.503-.076-.422-.107-.693.183-.938l.206-.179-.223-.158c-.24-.17-.24-.17-.242-.528l-.001-1.433v-.51c.018-.134-.014-.421-.095-1.129-.087-.773-.207-1.833-.226-2.468-.016-.552-.096-1.106-.174-1.641l-.034-.235c-.173-1.216-.866-4.86-1.046-5.693a.276.276 0 0 1 .063-.048c.086-.036.142-.116.193-.277.035-.109.135-.483-.025-.738-.1-.16-.288-.218-.454-.27a1.33 1.33 0 0 1-.158-.054l-.222-.096-.067.233c-.012.044-.03.09-.048.135-.05.129-.107.276-.085.434.053.356.119.71.184 1.064.063.332.124.664.175.997.297 1.977.562 3.794.807 5.556.046.33.068.673.092 1.036l.007.112c-.627-.35-1.178-.033-1.608.313-.013.01-.028.017-.043.025-.03.017-.061.033-.088.053l-.498.353c-.468.332-.935.663-1.395 1.003-.552.41-.398.804-.257 1.003l.226.32c.36.513.73 1.043 1.157 1.518l.076.087c.236.272.559.644 1.19.644h.428l-.26-.34c-.246-.324-.514-.62-.773-.905-.479-.528-.932-1.028-1.223-1.66l.514-.366c.581-.417 1.16-.83 1.745-1.234.12-.084.242-.124.332-.107.032.006.079.021.125.09.201.295.452.662.487 1 .082.784.11 1.591.137 2.372.01.287.02.575.032.863.02.47.02.47-.405.613l-.046.016c-.35.118-.76.33-.822.933l-.022.212.212.021c.356.034.614-.153.819-.305.132-.098.235-.17.342-.204.014.09.028.186.034.281.038.512.069 1.023.098 1.535.037.65.071 1.299.105 1.948.074 1.408.151 2.863.262 4.293.09 1.14.185 2.234.288 3.3l-.16.102a2.109 2.109 0 0 0-.56.492c-.085.11-.159.17-.215.177-.056.008-.139-.038-.24-.125-.063-.053-.12-.11-.18-.167a2.994 2.994 0 0 0-.291-.26c-.924-.691-1.583-.64-2.344.189a6.13 6.13 0 0 0-.329.397c-.84 1.065-.967 2.182-.378 3.32.442.856 1.133 1.523 2.173 2.1.12.066.267.097.421.097.353 0 .744-.162.95-.432l.234-.305-.383-.035a13.27 13.27 0 0 0-.286-.02 3.805 3.805 0 0 1-.568-.06c-.728-.155-1.197-.675-1.677-1.407-.336-.513-.643-1.118-.378-1.72.23-.523.553-1.032.934-1.473.341-.394.677-.413 1.162-.062.09.065.17.142.253.218.122.115.248.233.402.323.131.078.53.246.777.094.253-.156.577-.4.747-.798a117.503 117.503 0 0 0 1.134 8.504 112.6 112.6 0 0 0 .92 4.85c-.01.007-.023.009-.033.016-.15.114-.295.236-.44.358a6.9 6.9 0 0 1-.59.465l-.063.043c-.372.253-.64.427-.755.409-.123-.027-.303-.31-.544-.707-.377-.621-.895-1.472-1.981-1.642-1.045-.164-2.128.546-2.362 1.553-.143.613.011 1.192.47 1.77.217.275.471.52.717.757.153.147.306.295.45.45a1.4 1.4 0 0 0 1.035.436c.261 0 .53-.066.778-.201l.438-.238-.621-.198a6.182 6.182 0 0 0-.195-.06c-1.029-.297-1.747-.929-2.133-1.88-.18-.444-.023-1.034.338-1.263.58-.368 1.227-.348 1.572.047.378.435.751.937 1.108 1.492.23.356.499.558.803.6.294.044.592-.068.889-.327a.828.828 0 0 1 .192-.097c.483-.212.812-.57 1.11-.94.234 1.046.187 1.928.148 2.147l-.055.054.087.306.162-.03c.088.023.329.096.526.157.576.176.818.248.943.254.104.046.364.178.615.305.572.29 1.354.687 1.833.87 1.479.56 3.031.727 4.625.86.55.047 1.107.04 1.648.033.164-.003.329-.005.493-.006l.586.007c.178.003.358.007.54.007a7.26 7.26 0 0 0 1.063-.065 124.06 124.06 0 0 0 3.34-.556c.762-.133 1.524-.267 2.287-.392.97-.156 1.94-.3 2.912-.445.73-.108 1.459-.216 2.188-.33a278.34 278.34 0 0 0 2.828-.461l1.189-.196c.364-.06.727-.126 1.091-.192.807-.145 1.641-.295 2.464-.376.332-.033.662-.082.993-.13.728-.108 1.48-.218 2.225-.142.414.042.835.06 1.242.076.198.009.395.017.593.028.147.008.294.019.44.03l.404.028.037-.117c.438.07 1.018.012 1.293-.2a.426.426 0 0 0 .177-.3.498.498 0 0 0-.008-.278"/><path d="M73.978 88.145l.08-.468-.155-.066c-.02-.009-.04-.021-.062-.033-.077-.042-.182-.1-.307-.086l-.106.012c-1.02.124-2.076.252-3.111.403-1.357.197-2.54.386-3.618.574-.558.098-1.115.202-1.672.305l-.857.156c-.902.168-1.804.336-2.707.492-.476.082-.947.204-1.404.323-.865.224-1.682.441-2.555.41a.346.346 0 0 0-.198.066l-.582.128c-.368.08-.735.16-1.1.25-.28.07-.542.177-.762.274l-.127.08-.004.134c0 .004-.008.352.19.454a.97.97 0 0 0 .43.107.702.702 0 0 0 .14-.014 553.81 553.81 0 0 0 3.832-.814l1.11-.238c.33-.071.657-.144.986-.216.727-.162 1.48-.33 2.222-.466.753-.138 1.51-.26 2.268-.38.622-.1 1.243-.2 1.864-.31.461-.08.92-.176 1.379-.272.438-.09.876-.18 1.316-.26a55.427 55.427 0 0 1 1.678-.263l.799-.118.667-.105.366-.059zM38.467 27.878a.599.599 0 0 1-.233.422.73.73 0 0 1-.555.111c-.146-.025-.218-.15-.248-.223-.156-.369-.14-.751.042-1.139.07-.146.206-.184.309-.19l.036-.001c.075 0 .153.013.23.027.118.021.26.048.375-.075a.42.42 0 0 1 .077.237 5.37 5.37 0 0 1-.033.831zm-.498 1.171a2.66 2.66 0 0 1-.485.626c-.01-.046-.007-.095-.004-.148a.611.611 0 0 0-.005-.164 3.035 3.035 0 0 1-.037-.27l-.005-.046c.177.004.351.006.536.002zm.882-2.679a.243.243 0 0 1 .045-.021c.294-.097.61-.136.97-.135.108.001.224.004.337.015.045.004.087.02.086.111 0 .085-.012.155-.075.222a3.06 3.06 0 0 0-.195.234 3.65 3.65 0 0 1-.135.166 9.72 9.72 0 0 1-.782.8.123.123 0 0 1-.026.017 15.49 15.49 0 0 1-.026-.36 7.997 7.997 0 0 0-.06-.627 1.457 1.457 0 0 0-.1-.326c-.014-.031-.026-.063-.039-.096zm-2.264 1.481a.702.702 0 0 0-.149.038c-.032.01-.064.02-.096.027a.202.202 0 0 1-.067-.005l-.037-.005c-.393-.044-.742.103-1.062.268-.343.177-.53.491-.57.959-.026.319.063.618.273.914.068.097.141.19.213.282l.046.06c-.002 0-.005 0-.007-.002l-.066-.015a1.94 1.94 0 0 1-.258-.074c-.475-.184-.946-.072-1.304.045a.74.74 0 0 0-.451.42l-.056.122c-.054.116-.11.235-.148.364-.083.292-.076.586.022.898.089.286.195.583.43.81a.136.136 0 0 1 .021.04l.005.012-.013.006a.413.413 0 0 1-.114.04c-.231.025-.45.102-.662.175a6.131 6.131 0 0 1-.32.105c-.218.062-.379.214-.49.467-.372.834-.048 1.607.438 2.003a.938.938 0 0 0 .111.075.546.546 0 0 1 .151.118.054.054 0 0 1-.013.007c-.268.054-.448.234-.601.42l-.119.14c-.079.094-.159.188-.235.285a1.414 1.414 0 0 0-.286 1.026c.022.245.147.49.362.71.163.167.365.296.599.385.031.011.062.025.1.042a.958.958 0 0 1-.056.04c-.224.152-.421.295-.567.508a1.44 1.44 0 0 0-.253.93c.01.158.029.298.056.426.086.42.294.79.618 1.101.033.031.065.064.1.1l.003.001-.051.087a1.717 1.717 0 0 1-.165.251c-.179.214-.262.46-.33.762l-.12-.338a12.409 12.409 0 0 1-.313-.948 16.69 16.69 0 0 1-.494-2.747l-.042-.364c-.04-.331-.029-.686.035-1.152.022-.163.042-.326.061-.49.033-.273.066-.556.115-.83.102-.579.212-1.143.432-1.692.13-.322.254-.653.374-.973.1-.265.2-.53.304-.795.076-.192.163-.385.247-.572.04-.087.079-.173.117-.26l.01-.02a.326.326 0 0 0 .02-.043c.147-.403.362-.779.57-1.142.113-.2.231-.406.337-.615a17.6 17.6 0 0 1 .568-1.02 3.49 3.49 0 0 1 .507-.69c.075-.075.155-.138.239-.206a4.922 4.922 0 0 1 .83-.55c.133-.075.27-.152.401-.235.284-.18.61-.328.997-.454a.372.372 0 0 1 .086-.015l-.107.793a.72.72 0 0 0-.176-.01zm-1.433 1.131l.005-.1c.012-.014.023-.03.035-.047.035-.05.071-.1.115-.136.243-.202.525-.279.836-.228.229.037.347.147.372.345.02.158.111.267.254.307.082.022.099.1.099.163 0 .163-.003.354-.031.539a.42.42 0 0 1-.243.328 4.869 4.869 0 0 0-.081.041c-.047.025-.095.05-.143.07a.42.42 0 0 1-.37-.017c-.372-.193-.608-.4-.765-.67-.104-.18-.094-.373-.083-.595zm-.521 4.152c-.289-.068-.557-.23-.842-.512-.261-.258-.398-.508-.43-.785-.029-.247.01-.496.12-.761a.472.472 0 0 1 .234-.241c.169-.085.33-.128.49-.128.066 0 .133.007.199.023.07.015.138.034.207.053l.093.025.064.005v-.002l.084.031c.116.044.232.087.349.129.078.029.159.055.238.08l.117.039c.211.07.305.197.304.411 0 .205-.016.423-.129.628a5.727 5.727 0 0 0-.334.75c-.054.142-.137.22-.27.252a1.032 1.032 0 0 1-.494.003zm.107 10.944c.031-.195.06-.266.162-.347.021.136.013.274 0 .43a.489.489 0 0 1-.162-.083zm-2.218 2.49c.106.098.207.19.323.26.112.067.24.11.362.15l.088.03-.494.725-.036-.098c-.13-.362-.266-.737-.313-1.13l.07.064zm.108-2.234c.086.022.17.047.263.074l.07.021a.362.362 0 0 1-.039.057.137.137 0 0 1-.025.01c-.016.007-.032.013-.047.022-.203.127-.43.286-.553.574l-.008.02c-.033.077-.066.157-.129.204-.027-.036-.036-.084-.046-.136a3.056 3.056 0 0 0-.365-1.438l-.016-.048c.192.324.486.534.895.64zm1.339-8.525l-.067.005c-.194.016-.376.03-.552-.045l-.006-.002c-.279-.087-.636-.222-.923-.5-.242-.234-.34-.522-.3-.882a.378.378 0 0 1 .01-.057c.003-.024.008-.048.01-.072.023-.256.146-.404.412-.494.326-.11.663-.222 1.018-.222.031 0 .062 0 .093.003.07.003.145-.005.2.014.27.092.578.196.872.316.147.06.21.176.191.345-.04.36-.12.824-.383 1.235-.143.225-.326.338-.575.356zm.86 5.615c-.01.006-.016.01-.01.01h-.689c-.005-.055.022-.102.058-.155.231-.339.36-.724.486-1.097l.025-.075c.013-.037.025-.075.04-.114l.097 1.217.016.2-.023.014zm-2.127 3.906c.16-.24.317-.381.512-.46.34-.138.711-.268 1.102-.284l.034-.003a.1.1 0 0 1 .025-.003h.007c.132 0 .16.025.183.16.032.189.015.493-.04.708v.002c-.042.201-.13.39-.274.598a.653.653 0 0 1-.136.152c-.204.15-.591.198-.9.111a.794.794 0 0 1-.543-.46c-.083-.207-.075-.364.03-.52zm1.583-5.913a4.066 4.066 0 0 1-.87 2.004c-.26.324-.71.323-.996.137a.968.968 0 0 1-.352-.433 2.146 2.146 0 0 1-.19-.754.75.75 0 0 1 .161-.519.662.662 0 0 1 .089-.101c.335-.286.671-.546 1.098-.597a.943.943 0 0 0 .437-.18l.032-.023a1.6 1.6 0 0 1 .2-.13.42.42 0 0 1 .185-.055c.042 0 .078.011.107.033a.48.48 0 0 0 .312.098 1.07 1.07 0 0 0-.213.52zm-.294-1.755a6.197 6.197 0 0 1-.354.537.574.574 0 0 1-.199.158 2.965 2.965 0 0 1-.326.13l-.08.029c-.016.006-.06.024-.093.017-.34-.05-.729-.124-1.039-.381-.18-.15-.244-.325-.194-.536.026-.111.053-.226.109-.314a4.97 4.97 0 0 1 .358-.489c.144-.178.348-.284.622-.322l.07-.01c.1-.014.194-.027.288-.027h.008c.325.002.672.015 1.01.097.031.007.062.02.096.033l.013.004c-.017.36-.14.823-.289 1.074zm.595 5.39l-.068.14a16.74 16.74 0 0 1-.175.356c-.077.151-.21.228-.385.295-.23.09-.46.06-.7.027l-.044-.006a2.201 2.201 0 0 1-.877-.322c-.191-.118-.234-.242-.163-.473.092-.297.285-.534.591-.729a.478.478 0 0 1 .184-.05c.212-.03.38-.085.53-.174a1.15 1.15 0 0 1 .543-.15c.073-.001.145-.011.216-.02.053-.008.107-.015.161-.019a.788.788 0 0 1 .052-.002c.11 0 .141.038.167.17.06.297.061.527.005.744-.01.04-.018.08-.026.12l-.019.09.008.003zm-.242-4.802a.766.766 0 0 1 .111-.243l.035-.059a8.193 8.193 0 0 1 .034.354l.004.044a.67.67 0 0 1-.09-.035c-.029-.014-.055-.033-.083-.053l-.011-.008zm.57 8.108l-.001.055a.547.547 0 0 1-.218.003c.05-.147.12-.274.208-.404.021.117.017.229.012.346zm-1.126 2.883c.013.006.026.01.04.015.435.136.77-.086 1.012-.296.02-.018.042-.038.064-.06l.001.023c.011.443.022.886.03 1.328.005.233.054.428.153.613l.04.073c.076.136.148.265.148.414a8.092 8.092 0 0 0-.63-1.007.925.925 0 0 0-.134-.148c-.31-.28-.558-.61-.803-.951a.067.067 0 0 1-.004-.02c.021-.005.044.001.083.016zm-.44-1.4c.316-.576.8-.884 1.44-.915h.023c.055 0 .092.01.112.032.025.027.032.08.023.158-.013.108-.04.219-.064.325l-.02.086h-.006l-.075.228c-.042.127-.083.254-.13.38a.875.875 0 0 1-.441.514.458.458 0 0 1-.27.038c-.23-.027-.405-.141-.566-.368a.41.41 0 0 1-.026-.477zm3.125-16.938a.336.336 0 0 1-.07.129l-.028.039a.156.156 0 0 1-.092-.13c.053-.031.114-.034.19-.038zm-6.317 8.753c.024.15.05.303.064.455.067.677.253 1.329.434 1.96l.063.22c.06.214.126.427.192.64l.068.223c.05.165.101.329.153.493l.073.218c.047.138.096.28.13.422.088.37.173.74.258 1.11.102.449.205.897.314 1.343.084.34.196.675.304 1l.017.05c.1.3.258.567.41.826.057.096.114.192.168.29.213.385.493.772.881 1.216.176.2.338.416.497.624.093.123.187.246.283.366.08.102.144.225.207.344l.014.027c.06.119.116.24.17.355l.078.166.019.01a.632.632 0 0 0 .295.082.53.53 0 0 0 .32-.116.201.201 0 0 1 .035-.019.445.445 0 0 0 .043-.02c.208-.118.276-.267.227-.497-.053-.25-.115-.5-.18-.754l-.01-.038c-.019-.077-.04-.164-.094-.226-.11-.125-.133-.273-.134-.473 0-.157-.003-.315-.004-.472a32.233 32.233 0 0 1 .009-1.606c.016-.407.003-.817-.01-1.213-.006-.17-.012-.342-.015-.513l-.01-.376c-.007-.275-.014-.55-.015-.826 0-.212.003-.425.007-.637.005-.292.01-.595.004-.893a63.565 63.565 0 0 0-.075-2.015 24.984 24.984 0 0 0-.234-2.361l-.009-.057c-.088-.597-.179-1.214-.115-1.832.007-.064.01-.128.014-.192a3.35 3.35 0 0 1 .017-.227l.039-.318c.047-.412.095-.838.238-1.24.035-.103.06-.21.083-.314l.009-.04a102.705 102.705 0 0 0 .223-1.02c.033-.15.082-.303.22-.411a.62.62 0 0 0 .154-.198c.194-.358.318-.705.378-1.061a.552.552 0 0 1 .055-.192c.133-.215.271-.424.41-.634l.084-.128c.024-.036.049-.07.074-.104.046-.062.093-.126.129-.198.103-.204.25-.365.406-.536l.058-.065c.113-.124.222-.256.328-.383l.113-.137c.022-.026.042-.053.062-.08.019-.024.038-.05.058-.073l.113-.135.554-.657.233-.277c.283-.34.575-.691.91-.99.088-.079.163-.174.235-.266.035-.045.07-.09.107-.132.023-.027.046-.055.068-.084.052-.064.101-.126.16-.169.208-.15.26-.366.31-.575.009-.04.018-.079.029-.118a.277.277 0 0 0-.021-.163c-.073-.197-.208-.292-.388-.286-.444.016-.894-.02-1.354.065-.454.085-.886.2-1.32.353a91.93 91.93 0 0 0-1.523.556c-.124.047-.286.11-.443.196-.118.066-.235.136-.351.205a8.592 8.592 0 0 1-.395.229c-.326.172-.64.389-.959.664a1.977 1.977 0 0 0-.35.4l-.076.113c-.238.354-.485.72-.678 1.114a2.32 2.32 0 0 1-.096.167l-.685 1.142c-.03.049-.054.1-.077.154l-.151.344c-.119.27-.242.548-.351.827-.133.341-.262.684-.391 1.027-.148.394-.3.801-.46 1.199a7.762 7.762 0 0 0-.435 1.685c-.035.232-.066.465-.097.698-.033.24-.065.482-.103.722a6.38 6.38 0 0 0-.067 1.54c.015.171.042.342.068.507zm14.396 1.342l-.026-.056a.754.754 0 0 1-.04-.086l-.091-.252-.224.146a.919.919 0 0 1-.094.05c-.114.057-.256.127-.305.278-.106.33-.204.434-.437.46-.151.018-.272.103-.379.177a1.48 1.48 0 0 1-.109.073.137.137 0 0 0-.06.057 8.43 8.43 0 0 1-.42.02l-.24.01c-.658.028-1.245-.197-1.746-.674a.45.45 0 0 1-.066-.572c.217-.322.253-.323.575-.23a.703.703 0 0 0 .6-.119c.07-.061.108-.158.111-.29.001-.06-.003-.267-.124-.382-.109-.105-.247-.155-.37-.199-.047-.017-.095-.034-.14-.055a2.876 2.876 0 0 0-.264-.102c-.133-.046-.315-.11-.35-.173-.257-.467-.203-.978-.114-1.324a1.49 1.49 0 0 1 .719-.9c.157-.082.395-.162.64-.073.06.022.123.062.19.104.08.05.159.098.244.133.134.054.261.035.377.044l.236.018-.012-.328c-.004-.05-.008-.1-.003-.148l.005-.062c.002-.034.013-.096-.012-.078.451-.382.913-.75 1.408-1.144a.85.85 0 0 1 .173-.114.706.706 0 0 1 .043.164c.014.078.039.159.066.242.083.262.098.364-.056.481-.122.092-.097.253-.088.306.026.171.093.277.198.314.146.052.36.062.513-.03.137-.084.266-.178.395-.273.128-.093.255-.187.39-.266.152-.09.326-.15.475-.167.234-.023.409.088.58.378.08.138.055.348-.053.432a.861.861 0 0 0-.191.226l-.052.074-.212.28.347.058c.035.005.072.017.11.028.13.037.292.084.433-.004.215-.134.371-.103.672.135.309.243.543 1.212.38 1.57a.681.681 0 0 1-.248.298c-.2.111-1.03.448-1.528.648l-.163.066c-.079-.025-.164 0-.253.074-.043.035-.174.144-.115.302.18.461.301.698.388.82.026.066.05.133.075.2a5.1 5.1 0 0 0 .192.472c.382.788.77 1.574 1.163 2.356a5.514 5.514 0 0 1-.337.25c-.023.01-.066.015-.109.02a.617.617 0 0 0-.29.089l-.023.016a.464.464 0 0 1-.04-.068l-.073-.142c-.18-.349-.365-.71-.518-1.073a40.58 40.58 0 0 1-.56-1.429l-.154-.439a.577.577 0 0 0-.016-.141c-.009-.034-.016-.072-.024-.11-.032-.168-.068-.358-.237-.427a.476.476 0 0 0-.179-.033c-.096 0-.19.023-.272.044-.04.01-.078.02-.113.025l-.168.025zm-4.913-3.826c-.39 1.01-.308 1.856.255 2.585.019.024.036.082.04.084a5.959 5.959 0 0 1-.309.565l-.093.157c-.172.296-.159.597.04.895.585.884 1.416 1.254 2.474 1.1l-.064.287.62-.18c.252-.071.504-.143.752-.227a.488.488 0 0 0 .204-.152l.019-.02c.508-.043.71-.412.874-.71.038-.07.075-.139.116-.202a.237.237 0 0 0 .02-.037c.16.221.348.853.5 1.36.078.261.151.508.22.7.006.018.781 1.943 1.035 2.109a.55.55 0 0 0 .31.081c.118 0 .24-.022.355-.043l.126-.022c.211-.032.455-.079.672-.184.067-.034.355-.165.494-.224l.184.1.043-.301c.003-.022.01-.045.023-.094.016-.063.046-.181-.005-.296a57.993 57.993 0 0 0-.818-1.733 144.47 144.47 0 0 0-.987-1.969c.69-.071 1.605-.441 1.848-.864.356-.62.436-1.312.24-2.057-.172-.649-.516-1.036-1.022-1.152-.194-.044-.223-.092-.267-.299-.152-.705-.778-1.358-1.552-1.224a4.21 4.21 0 0 0-.739.217 33.96 33.96 0 0 0-.113.04l-.035-.08c-.082-.189-.167-.384-.248-.58-.147-.357-.467-.49-.855-.361l-.05.017c-.238.08-.509.17-.72.34-.36.288-.705.6-1.04.903-.105.097-.212.193-.319.289a1.916 1.916 0 0 0-.445-.09c-.734-.046-1.482.495-1.783 1.272zm35.176-20.95v.002-.002zm-1.218-9.069c-.025.376-.06.74-.103 1.112v-.02c-.002-.054-.001-.11 0-.166 0-.104.001-.21-.006-.318a43.091 43.091 0 0 1-.024-.39l-.023-.379-.008-.05c-.021-.233-.035-.485-.05-.741-.008-.148-.015-.297-.026-.443l-.002-.057c.02.171.036.35.05.536.005.128.022.257.054.425.03.147.109.232.197.268a.359.359 0 0 0-.059.223zm.768-2.284c-.001.098-.003.19 0 .288.001.134-.005.267-.012.403l-.011.274c0 .269-.01.546-.019.812-.006.07-.006.141-.002.21a.346.346 0 0 0-.163-.128.229.229 0 0 0 .01-.038.794.794 0 0 0 .037-.26c.01-.577.065-1.146.162-1.702l-.002.141zm.611 4.307l-.023.01c.003-.013.01-.018.014-.027l.009.017zm-.023.01l.028.005-.021.016c-.003-.007-.008-.012-.007-.02zm-1.936.494l.038.056a.11.11 0 0 1-.038.03l-.03-.078.03-.008zm-1.48 5.124V14.8v.003zm-.513 4.957l.01-.047.038.004.117.011c.16.018.344.039.555-.036l.07-.031c.042-.019.084-.038.117-.05l.047-.025a.33.33 0 0 0 .131-.216l.017-.088-.051-.073c-.032-.047-.13-.15-.311-.097l-.015.006a1.827 1.827 0 0 1-.565-.053c-.04-.007-.055-.012-.07-.013a.606.606 0 0 1 .004-.105l.085-.981.017.024a.43.43 0 0 0 .08.206l.05.072.086.016c.05.009.085.006.07.002l.034-.188.008-.006.05.19c.182-.049.375-.09.537-.01l.124.028h.012c.095 0 .19-.039.257-.103.058-.058.09-.132.085-.168.03-.173-.085-.34-.232-.366-.253-.08-.5-.092-.743-.033a1.68 1.68 0 0 0-.29.12.276.276 0 0 0-.128.208l-.017.005.056-.634c.028-.38.048-.77.065-1.154-.001-.07.002-.14.005-.21.004-.08.008-.16.006-.226.008-.155.017-.31.031-.44l.01-.055c.207.085.44.15.72.2.102.019.203.037.298.045.106.019.21.037.296.043.185.022.395.047.625-.062l.269-.203-.12-.174-.092-.077a.363.363 0 0 0-.14-.058 8.516 8.516 0 0 1-.486-.078 4.461 4.461 0 0 0-.181-.028c-.053-.007-.107-.014-.171-.026a2.702 2.702 0 0 1-.703-.186c-.038-.021-.085-.056-.1-.045l-.04-.016c-.109-.048-.15-.116-.133-.24.01-.13.017-.258.025-.388.009-.158.018-.317.033-.49.004-.083.006-.163.007-.243a6.41 6.41 0 0 1 .007-.24c0-.218.015-.462.03-.723 0-.018.001-.037.004-.057a.856.856 0 0 0 .004-.087l.003-.045c.007-.132.012-.252.038-.394.023-.173.057-.328.111-.505a.367.367 0 0 0 .024-.13c.096-.382.302-.67.613-.857.153-.09.304-.178.455-.25.017-.006.054-.016.078-.033a.408.408 0 0 0 .205-.161l.01.013v.002l.082-.027a.807.807 0 0 0 .16-.077l-.002.027.001.039c-.005.168.096.292.285.326.212.019.32-.061.366-.135a.167.167 0 0 0 .064.06c.097.073.2.076.3.07a.74.74 0 0 1 .454.102c.15.07.247.195.338.428.175.451.337.893.403 1.338a.85.85 0 0 1-.144.027l-.08.01-.028-.005-.029.002a3.75 3.75 0 0 1-1.177-.08 1.572 1.572 0 0 0-.31-.021l-.065.001-.053.037c-.033.022-.119.083-.136.186-.02.105.039.19.06.224l.035.05.054.024c.097.043.18.07.28.087.528.117 1.044.099 1.485.071h.016l.017.003.035-.005a.475.475 0 0 1 .12-.007.3.3 0 0 1 0 .02c-.008.69-.057 1.239-.152 1.715a3.642 3.642 0 0 0-.058.307l-.045.275c-.015.09-.029.184-.053.278-.022.095-.042.193-.063.292-.019.091-.037.182-.053.25l-.026.078c-.016.059-.027.118-.038.177a1.677 1.677 0 0 1-.012.068.208.208 0 0 0-.087-.1.353.353 0 0 0-.164-.073l-.035-.004c-.266-.003-.5.003-.683.098-.093.028-.155.093-.223.164l-.12.125.169.268.085.016a.347.347 0 0 0 .094.003c.104-.002.205-.007.305-.012.098-.004.194-.01.271-.01l.053.002.03-.003a.368.368 0 0 0 .179-.055.577.577 0 0 0 .056-.046c-.003.032-.008.066-.01.098-.063.597-.18 1.183-.293 1.75l-.172.932a15.49 15.49 0 0 1-.313 1.45c-.043.18-.085.36-.116.53l-.05.28a7.045 7.045 0 0 0-.051.229 7.63 7.63 0 0 1-.052.228c-.074.356-.149.711-.234 1.074-.08.33-.163.678-.227.978l-.052.232a3.92 3.92 0 0 0-.04.163l-.028.123-.019.047-.019.022c-.027.002-.06.005-.063.01l-.103.009a4.87 4.87 0 0 1-.527.002c-.06-.003-.126-.015-.177-.024l-.117-.021a1.26 1.26 0 0 0-.248-.014.3.3 0 0 0-.262.25.32.32 0 0 0 .116.307.7.7 0 0 0 .397.156c.223 0 .426-.004.64-.008l.09-.008c.03-.003.062-.006.101-.008l-.009.032c-.03.107-.057.216-.085.326a12.49 12.49 0 0 1-.083.323l-.077.296c-.049.187-.098.371-.14.566a6.662 6.662 0 0 0-.097.424l-.007.044a6.04 6.04 0 0 0-.051.224l-.047.206c-.05.223-.112.45-.176.651l-.023.067c-.025.076-.05.153-.062.22-.007.04-.021.077-.035.117l-.031.093c-.016-.002-.032-.002-.05-.002l-.19-.024a7.733 7.733 0 0 0-.708-.075.627.627 0 0 0-.24.064c-.192.072-.22.232-.186.348.037.126.127.213.212.225a.64.64 0 0 0 .27.039c.243.003.467.003.722-.002l.074-.001-.08.443c-.06.336-.157.84-.288 1.322a3.81 3.81 0 0 1-.462 1.019.54.54 0 0 1-.162.16.548.548 0 0 1-.154.075c-.041-.087-.063-.176-.078-.235a3.76 3.76 0 0 1-.086-.593l-.055-.638c-.043-.44-.088-.895-.11-1.344l-.025-.43c-.025-.443-.052-.9-.042-1.34.014-.296.039-.602.061-.886l.01-.057c.01-.108.018-.216.015-.285.023-.003.05 0 .073.002.023.004.06.01.108.007a.698.698 0 0 0 .475-.114c.026-.019.085-.059.137-.14l.133-.122-.123-.171a.26.26 0 0 0-.17-.112.31.31 0 0 0-.13 0v-.001a.359.359 0 0 0-.073.001c-.07.005-.137.01-.189 0-.082-.015-.155-.037-.261-.067-.059-.553-.016-2.362.066-2.958l.097.034a2.22 2.22 0 0 0 1.487.017.97.97 0 0 0 .282-.13.264.264 0 0 0 .114-.174.271.271 0 0 0-.056-.21l-.075-.109-.466.067a1.61 1.61 0 0 0-.166.025c-.318.056-.657.006-1.038-.156-.092-.038-.106-.058-.107-.058-.001-.003-.01-.024-.007-.108l.05-.689.04-.532c.024-.355.056-.697.091-.996l.01-.044zm-.957 10.086c.014.16.027.32.038.47l.003.088c.018.164.035.328.044.521.007.05.007.098.008.143 0 .036.001.072.003.105l.013.27c.05.532.175.998.379 1.425l.044.091.097.023c.037.01.104.026.184.026.12 0 .268-.037.384-.192.006-.008.007-.009.037-.03.043-.03.06-.04.087-.05.194-.074.349-.195.492-.404.162-.245.278-.444.366-.63.17-.37.311-.813.435-1.363l.024-.137-.208-.037.22-.023c.029-.164.059-.328.096-.48l.035-.167c.059-.268.12-.544.132-.817a.649.649 0 0 1 .022-.125l.015-.071a7.44 7.44 0 0 1 .059-.22c.021-.074.042-.148.057-.209.07-.224.12-.432.166-.632.03-.111.064-.243.086-.37l.031-.123c.017-.073.033-.144.065-.234.035-.139.07-.279.119-.436l.175-.637c.07-.27.13-.552.195-.855l.064-.283c.075-.337.153-.686.252-1.02.182-.664.313-1.337.441-1.992l.06-.33c.025-.14.056-.278.085-.41.028-.129.056-.252.076-.367.02-.11.051-.229.08-.337l.138-.594a20.3 20.3 0 0 0 .139-.753l.058-.336c.01-.08.024-.159.039-.237.015-.087.031-.174.041-.26.016-.086.032-.172.054-.248l.044-.227c.032-.168.065-.34.08-.507.047-.508.158-1.015.266-1.507l.065-.32c.147-.698.241-1.29.296-1.86a4.61 4.61 0 0 0 .02-.374l.003-.1-.005-.053a.75.75 0 0 1 .002-.095.983.983 0 0 0 .002-.124 2.776 2.776 0 0 0-.089-.847 2.214 2.214 0 0 1-.032-.124 3.536 3.536 0 0 0-.04-.151l-.064-.221a6.529 6.529 0 0 0-.196-.65 2.362 2.362 0 0 0-.424-.772c-.06-.07-.068-.112-.064-.156a.98.98 0 0 0 .01-.072.447.447 0 0 1 .018-.084l.047-.255a5.992 5.992 0 0 0 .077-.545.826.826 0 0 1 .01-.112l.004-.042c.007-.083.013-.156.027-.234.036-.201.07-.405.105-.609.036-.21.072-.422.11-.63l.102-.566a.727.727 0 0 1 .032-.124l.036-.197c.042-.233.086-.475.11-.745a.38.38 0 0 0-.06-.222c-.044-.064-.135-.134-.304-.111-.169.01-.299.107-.345.246a1.94 1.94 0 0 0-.049.15c-.011.038-.02.075-.035.106l-.015.05a1.477 1.477 0 0 1-.022.096 2.6 2.6 0 0 0-.036.165 3.403 3.403 0 0 1-.102.408 8.63 8.63 0 0 0-.175.66 11.73 11.73 0 0 1 .006-1.42c.02-.243.022-.482.023-.693l.001-.181c-.015-.61.002-1.263.052-1.995.027-.428.05-.837.075-1.25.005-.146 0-.283-.005-.421L75.042.61 75.04.608V.593c0-.041 0-.082-.006-.125L75.02.366a.242.242 0 0 0 .011-.154c-.018-.07-.084-.19-.317-.21L74.69 0l-.024.003c-.18.026-.237.15-.282.264a.928.928 0 0 0-.047.183l-.043.24c-.052.34-.108.65-.164.96a9.55 9.55 0 0 0-.1.78l-.022.174c-.018.215-.038.43-.061.62a5.938 5.938 0 0 0-.032.401l-.007.08c-.01.132-.022.288-.04.449a4.203 4.203 0 0 1-.071-.324l-.04-.188a2.814 2.814 0 0 1-.076-.655.624.624 0 0 0-.047-.219c-.06-.156-.238-.243-.415-.202a.383.383 0 0 0-.28.235l-.032.158-.027.127c-.024.103-.05.22-.057.346l-.009.142c-.018.291-.036.58-.05.851l-.024.405c-.01.117-.008.226-.006.338l.013.28c.011.224.023.45.024.678l.001.06c.019.293.03.592.04.893.01.251.02.505.033.756.015.359.01.724.005 1.07l-.005.153c0 .035-.006.063-.014.106l-.022.123h-.003a1.11 1.11 0 0 0-.322.096 9.31 9.31 0 0 0-.505.286l-.127.081c-.069.048-.13.109-.187.169-.396.402-.616.906-.715 1.634a3.81 3.81 0 0 0-.031.505l-.01.059a3.395 3.395 0 0 0-.01.17c0 .048-.002.098-.007.148l-.037.373c-.003.062-.01.122-.016.184-.01.101-.021.204-.021.304l-.013.246c-.009.154-.016.307-.022.45a12.33 12.33 0 0 1-.056 1.076c-.03.285-.041.57-.048.837a16.435 16.435 0 0 1-.065 1.456c-.017.153-.034.306-.04.452l-.01.15c-.008.07-.015.144-.014.219v.04c-.006.19-.03.379-.057.592-.013.152-.03.302-.048.453-.017.155-.035.31-.045.446l-.01.05c-.043.357-.08.725-.11 1.055a1.88 1.88 0 0 0-.021.26c-.001.041-.002.08-.006.121l-.026.362c-.012.158-.023.306-.047.486l-.006.067c-.028.312-.057.635-.066.945-.023.48-.037.96-.053 1.461l-.02.676c-.006.31 0 .622.021.955a5.05 5.05 0 0 1-.01.864l-.03.17c-.023.185-.05.394-.046.603.01.565.03 1.078.06 1.57.01.165.024.327.038.49z"/><path d="M73.716 13.121c.064-.01.23-.033.274-.203.058-.177-.071-.301-.144-.367a.71.71 0 0 0-.218-.107.624.624 0 0 0-.193-.035l-.05-.009c-.376-.048-.926-.035-1.312.106-.068.017-.12.054-.15.075a.29.29 0 0 0-.12.179l-.014.098.05.072.134.114.062.004c.095.007.203.005.31.003l.12-.006c.084.003.167.004.21-.004l.107-.001c.228-.002.463-.006.707.072.033.005.085.015.148.015a.58.58 0 0 0 .08-.006m8.902 25.19a.394.394 0 0 1-.046.073c.053.128.056.288-.015.488a.966.966 0 0 1-.34.448c-.11.242-.43.394-.653.48-.122.046-.247.08-.373.106a1.49 1.49 0 0 1-.622.226c-.142.019-.631.083-.673-.157-.023-.128.1-.217.242-.278a.576.576 0 0 1 .204-.197.994.994 0 0 1 .199-.085c-.018-.01-.04-.017-.058-.028-.124-.08-.136-.167-.05-.285.083-.113.272-.22.497-.3a.384.384 0 0 1-.24-.417c.013-.13.104-.219.218-.28.461-.589 2.066-.592 1.71.206m-2.582 6.236c.002.033-.003.043-.018.08-.097.235-.064.495.1.776l.434.71.149.228c.164.251.335.511.465.745.018.045.044.077.041.062.063.153.118.324.158.487a1.38 1.38 0 0 0-.097.078.653.653 0 0 1-.17.118.507.507 0 0 0-.14.095 1.165 1.165 0 0 1-.261.148l-.402.212a.979.979 0 0 0-.145.078c-.028.017-.054.034-.083.046-.049.02-.095.036-.142.051l-.06.021a1.562 1.562 0 0 1-.036-.21c-.006-.046-.012-.092-.018-.121a.952.952 0 0 0-.163-.432c-.035-.048-.063-.123-.09-.195l-.081-.24c-.084-.27-.17-.549-.306-.814a4.842 4.842 0 0 0-.341-.614c-.02-.023-.038-.074-.055-.119l-.026-.069a5.42 5.42 0 0 0-.224-.495c-.048-.071-.084-.146-.12-.219a3.268 3.268 0 0 0-.067-.129l-.227-.426c-.04-.068-.054-.093-.056-.124a.288.288 0 0 0-.304-.272.292.292 0 0 0-.226.137c-.049.08-.056.174-.032.22a.708.708 0 0 0 .069.186l.037.08c.043.086.088.168.134.249.042.076.085.152.145.27l.032.083c.124.203.237.431.354.716.03.071.06.137.092.203.027.057.055.115.08.175a.337.337 0 0 0 .092.139c.11.136.184.309.26.526.088.253.159.498.228.737.024.096.064.22.151.32a.332.332 0 0 1 .071.198c.01.125.03.242.06.352a1.96 1.96 0 0 0-.548.08.25.25 0 0 1-.156.012l-.052-.28c-.11-.621-.296-1.66-.612-2.224a4.787 4.787 0 0 0-.598-1.019c-.064-.086-.12-.161-.157-.221a.865.865 0 0 0-.131-.19l-.071-.087a1.18 1.18 0 0 0-.436-.551l-.286-.187a1.02 1.02 0 0 1-.264-.198c-.077-.09-.175-.155-.272-.22l-.045-.028c-.02-.014-.046-.033-.082-.05a.809.809 0 0 0-.13-.083c.004-.018.012-.034.013-.052l.006-.033v-.014a.482.482 0 0 0 .012-.128.333.333 0 0 0-.05-.16.331.331 0 0 0 .12-.066l.026-.024a.538.538 0 0 0 .071.037c.098.04.198.124.297.252.074.086.163.17.238.227.024.018.042.038.061.057.03.03.06.06.094.088.071.08.155.159.247.225l.484.269a.384.384 0 0 0 .193.025c.21.017.337-.109.37-.247.058-.184-.089-.312-.134-.351a3.073 3.073 0 0 0-.2-.172.275.275 0 0 0 .223-.118.257.257 0 0 0 .027-.04l.032-.11.117-.05.03-.07c.09-.133.028-.263 0-.323l-.052-.087a.66.66 0 0 0-.064-.092.302.302 0 0 1-.057-.088 2.995 2.995 0 0 1-.126-.253l.029.01.055-.023c.019-.004.033-.016.05-.021l.075.178c.028.064.057.128.083.193a.61.61 0 0 0 .356.325l.145.037.17-.136.058-.137-.088-.203a.326.326 0 0 0 .087-.148.275.275 0 0 0-.036-.217.295.295 0 0 0-.139-.116c-.012-.005.076-.01.089.003l.041.042.052.06.078.012a.363.363 0 0 0 .23-.04c-.003.13.006.264.028.398l.024.078c.013.04.03.097.09.184l.11.125c.07.06.16.082.25.062a.31.31 0 0 0 .202-.159c0 .21.055.408.1.545.083.39.19.766.295 1.13.008.066.03.122.07.176.02.041.05.093.096.139m-5.486-3.616a1.095 1.095 0 0 1-.068.022c-.38.105-.786.183-1.086-.002-.235.077-.207.201.09.373.362.106.164.286-.137.408-.044.298.417.526.59.62.41.221-.753.583-1.04.432-.522-.275-.998-.638-.678-1.176-.387-.362-.25-.954.347-1.273.314-.167.817-.293 1.283-.28a1.79 1.79 0 0 1 1.041.04c.216-.072.473-.113.728-.13.156-.232.377-.445.614-.59.71-.435 2.07-.832 2.679-.037.263.342-.94.678-1.18.364-.41-.533-.765-.074-.956.383 1.02.412.468 1.383-.58 1.21-.415-.069-.645-.23-.744-.435-.247.118-.672.138-.903.071M72 43.684c.12.129-.107.303-.234.365-.253.121-.614.172-.875.052-.763-.352-.976-1.406-.986-2.165a.19.19 0 0 1 .044-.117c-.15-.373-.124-.719-.044-1.139a.597.597 0 0 1 .01-.231c.205-.86 1.553-1.017 2.25-1.098.556-.064.628.357.087.491-.417.103-1.045.221-1.085.72-.02.256.224.655.25.937.023.23.071.444.126.655.233.393.37.806.586 1.213.064.122-.003.231-.13.317m.784-7.04c.158-.477 1.05-.594 1.455-.576.274.012.76.149.94.394.314.136.587.444.336.77a.803.803 0 0 1-.187.166c.13.044.24.116.338.202a4.9 4.9 0 0 1 .369-.027c.8-.022.384.452-.12.54-.076.477-1.069.654-1.474.393-.073-.046-.135-.102-.1-.197.008-.022.024-.04.034-.06-.387.07-.797-.019-.945-.368-.033-.079.094-.181.143-.216a1.427 1.427 0 0 1-.229-.053c-.016.02-.029.042-.048.064-.011.014-.03.026-.044.039-.03.208.05.414.258.574.227.176-.887.568-1.185.342-.338-.256-.39-.607-.276-.94-.26-.447.246-.82.735-1.047m3.227-1.419c.109-.105.238-.185.38-.245.342-.346 1.14-.347 1.52-.268.322.067.865.349 1.071.716.06.007.117.016.174.027.57-.072 2.18.02 2.14.837.342.232.532.551.227.927-.517.637-1.893.558-2.577.321-.551-.19-.629-.524-.436-.799-.264-.095-.403-.213-.454-.34-.237.014-.465-.015-.615-.083a.192.192 0 0 1-.111-.129c0-.012.002-.023.003-.035a2.711 2.711 0 0 1-.34-.094c-.021.008-.04.017-.063.025-.212.07-.525.088-.777.028-.319.103-.716.139-.807-.026-.25-.448.189-.727.665-.862m7.346 3.512a.69.69 0 0 0-.002-.097l.006-.073c.01-.118.02-.246.012-.344a1.09 1.09 0 0 0-.13-.603l-.212-.652c-.071-.175-.153-.372-.312-.488a5.47 5.47 0 0 0-.252-.237 2.413 2.413 0 0 0-.557-.42l-.046-.037a8.72 8.72 0 0 0-.273-.203 12.432 12.432 0 0 1-.278-.206c-.273-.175-.58-.345-.98-.405h-.004c-.088-.012-.176-.031-.265-.05a2.801 2.801 0 0 0-.444-.067c-.02-.002-.043-.009-.065-.014a.954.954 0 0 0-.107-.023.49.49 0 0 0-.085-.016l-.082-.016a1.69 1.69 0 0 1-.294-.022.936.936 0 0 1-.325-.093l-.197-.147c-.354-.278-.737-.394-1.075-.473a2.534 2.534 0 0 0-.945-.013 3.514 3.514 0 0 1-.148.02c-.146.019-.31.04-.458.1a4.932 4.932 0 0 0-.612.268c-.345.16-.615.328-.85.532-.085.073-.167.14-.25.21-.085.07-.17.14-.244.205a.7.7 0 0 1-.239.124l-.093.023a.925.925 0 0 0-.327.119c-.054.028-.105.057-.155.085-.075.043-.146.084-.223.116a1.481 1.481 0 0 0-.275.15c-.014.01-.03.018-.045.027-.05.028-.113.063-.173.115a.53.53 0 0 0-.084.096l-.15.129.012.015-.005.004a1.784 1.784 0 0 0-.362.371l-.035-.014-.098.138c-.117.166-.132.19-.175.361l-.032.126.002.003-.027.002-.05.12c-.33.793-.317 1.001-.312 1.07v.01L71 38.71c-.008.008-.03.023-.014.017a2.519 2.519 0 0 0-.593.367 7.927 7.927 0 0 0-.723.76c-.05.061-.099.126-.148.191a2.916 2.916 0 0 1-.257.313.442.442 0 0 0-.117.26c-.035.15-.025.301-.015.454.017.243.073.47.127.688l.05.198c.02.08.044.17.058.263.048.279.082.544.102.814.013.065.02.132.026.2.008.08.017.162.033.246.062.282.207.545.418.758l.086.084c.08.075.155.146.195.226.05.119.15.19.284.195l.162.033a.335.335 0 0 1 .014.006l.096.04c.252.074.47.06.656-.033.046-.02.087-.04.128-.062.03-.015.058-.03.091-.044.081-.034.148-.082.201-.12l.094-.07a.978.978 0 0 0 .13-.117.155.155 0 0 1 .143-.06c.18.015.32-.045.435-.093l.038-.02c.073-.049.175-.116.233-.257.059-.142.115-.276.165-.457.179.092.373.136.542.122l.164.01c.105.021.211.037.318.054.1.015.2.03.325.053.02.001.038.005.056.008a.798.798 0 0 0 .108.017c.11.008.235.022.339.065.043.018.087.03.135.044a1.1 1.1 0 0 1 .144.05l.042.016c.14.08.272.155.383.237.234.204.447.352.666.463.117.066.197.16.243.299.09.218.187.417.295.604.01.025.028.055.053.091l.025.043c.029.04.053.083.077.125.032.059.066.116.1.162a.913.913 0 0 1 .041.07c.02.035.038.07.07.117.085.109.147.227.193.372l.15.361c.056.11.099.236.123.352a.676.676 0 0 0 .013.084l.124.564c.06.335.122.681.234.988.036.14.094.265.173.373l.042.056.066.02c.13.041.252.056.367.056.125 0 .243-.017.358-.04.089-.023.182-.035.279-.034.308-.012.61-.035.914-.178.176-.054.34-.14.482-.25.046-.03.09-.062.107-.07.23-.064.423-.194.594-.309l.068-.045a4.26 4.26 0 0 0 .356-.293l.096-.086c.149-.127.184-.344.06-.547a.279.279 0 0 1-.044-.093l-.055-.162a1.748 1.748 0 0 0-.17-.423c-.032-.06-.07-.121-.107-.182a8.239 8.239 0 0 1-.112-.187 6.28 6.28 0 0 1-.295-.463 18.486 18.486 0 0 0-.236-.385c-.079-.126-.158-.251-.247-.4a.755.755 0 0 1-.112-.24.26.26 0 0 1-.009-.096l.031-.074.013-.045c.022-.121.078-.438-.273-.6l-.031-.065a4.167 4.167 0 0 0-.118-.449c-.054-.15-.09-.303-.127-.453a6.48 6.48 0 0 0-.075-.292c-.054-.225-.048-.43-.023-.698.034-.228.104-.443.181-.687a1.12 1.12 0 0 1 .197-.37l.025-.038c.044-.067.092-.143.136-.188a.291.291 0 0 0 .08-.112h.01l.027.005h.015c.044.007.11.019.141.001.163-.032.3-.072.449-.134.302-.14.585-.288.852-.428.095-.04.185-.077.261-.088a.624.624 0 0 0 .083-.013c.02-.005.038-.01.08-.007.181-.013.323-.09.474-.176a.578.578 0 0 0 .247-.46l.02-.054c.053-.182.07-.368.05-.63-.004-.02-.003-.055-.003-.091"/><path d="M76.923 42.997a5.174 5.174 0 0 1-.497-.392l-.052-.043a.298.298 0 0 0 .134-.143l.008-.04h.007a.314.314 0 0 0 .056-.01l.056.104c.083.168.173.343.288.524m2.651 3.229c.039.096.061.185.084.274.011.044.02.093.03.142.012.059.023.118.042.189.092.26.184.52.283.763.03.07.059.14.079.217.015.077.046.14.07.187l.09.135.16.067.083-.033a.297.297 0 0 0 .164-.182l.027-.064-.018-.07c-.021-.085-.044-.17-.05-.248l-.047-.146-.03-.05c-.041-.052-.063-.131-.089-.223a1.244 1.244 0 0 0-.122-.32 1.124 1.124 0 0 0-.082-.266l-.023-.05a.174.174 0 0 1-.02-.072 1.423 1.423 0 0 0-.185-.55c-.01-.031-.023-.076-.053-.122a2.552 2.552 0 0 0-.212-.396c-.027-.05-.067-.081-.1-.108l-.034-.039-.047-.019a.232.232 0 0 0-.32.117l-.083.195.097.041.306.631zm-35.736-.646a.583.583 0 0 0 .538-.591c-.006-.303-.23-.53-.545-.553-1.96-.142-3.977.005-5.929.148-.415.03-.828.06-1.239.087-.395.027-.59.362-.573.664a.553.553 0 0 0 .566.542h.032c.857-.042 1.737-.059 2.588-.076 1.5-.03 3.052-.06 4.562-.22m28.319 3.696c-.09.19-.16.179-.26.138l-.176-.07a2.769 2.769 0 0 1-.53-.246c.007-.023.016-.047.021-.068.047-.146.099-.311.037-.455a.43.43 0 0 1 .06-.03.637.637 0 0 0 .155-.093l.019.007c.123.042.24.084.307.146.085.08.15.209.22.344.037.071.073.143.115.213l.047.08-.015.034m.7.86l.086-.039.03-.09c.206-.635-.02-.903-.26-1.057l-.022-.77s-.164.058-.206-.027a.978.978 0 0 0-.584-.502c-.472-.152-.76.13-.97.335a2.766 2.766 0 0 1-.119.115 1.292 1.292 0 0 0-.44.893c-.013.291.085.565.278.771.251.269.758.553 1.37.553.264 0 .547-.053.837-.183m-33.866-1.524a2.329 2.329 0 0 0-.016-.033c-.095-.187-.041-.236.051-.289l.166-.097c.178-.106.347-.207.518-.264l.04.059c.087.126.186.27.336.31 0 .01-.008.044-.013.066a.612.612 0 0 0-.022.178l-.018.011c-.11.071-.214.138-.304.151-.115.017-.257-.01-.407-.039a4.319 4.319 0 0 0-.237-.041l-.094-.012zm-.913-.092c.002.06.005.143.051.224.196.337.396.672.597 1.006l.259.433.476-.107-.008-.178a.913.913 0 0 1 .001-.083c.003-.087.007-.196-.038-.302l-.036-.083c.088.046.18.08.276.1a.98.98 0 0 0 .755-.15c.412-.278.367-.678.334-.97a2.702 2.702 0 0 1-.015-.163 1.294 1.294 0 0 0-.432-.898 1.04 1.04 0 0 0-.778-.257c-.485.041-.975.297-1.245.652-.176.23-.246.482-.2.728.002.015.002.032.003.048zm9.621 2.447l.02.005c.128.027.248.053.322.108.094.07.174.188.26.314.044.066.09.133.139.198l.057.074-.012.035c-.065.2-.136.197-.24.168l-.185-.048c-.201-.05-.392-.1-.554-.18l.012-.07c.029-.15.06-.321-.018-.456a.417.417 0 0 1 .056-.038c.036-.022.094-.057.143-.11m.69 1.82c.288-.038.515-.168.658-.373.011-.017.025-.033.039-.049l.07-.107c.045-.145.069-.291.072-.445v-.051l-.021-.045a.617.617 0 0 1-.06-.178l-.2-1.145-.149.414a.98.98 0 0 0-.762-.689c-.491-.096-.739.22-.922.45-.035.043-.068.086-.105.127a1.29 1.29 0 0 0-.329.94c.021.29.152.55.368.732.323.271.76.43 1.158.43.062 0 .124-.003.184-.011m-9.201-31.759c.04-.11.133-.22.231-.338.051-.06.103-.122.15-.187l.057-.076.036.002c.21.008.226.078.228.185l.005.191a2.74 2.74 0 0 1-.02.582l-.07.007c-.154.015-.327.031-.435.144-.01-.006-.034-.029-.051-.044a.608.608 0 0 0-.145-.106l-.002-.02c-.009-.131-.016-.254.016-.34m-.84-.779a.696.696 0 0 0 .374.123.98.98 0 0 0-.456.926c.043.495.415.649.686.762.051.02.102.042.152.065.183.087.38.13.574.13.144 0 .287-.023.42-.072.273-.102.487-.299.602-.557.198-.445.21-.996.032-1.405-.116-.265-.302-.448-.54-.528-.014-.005-.028-.013-.042-.02a.608.608 0 0 0-.223-.063c-.382.007-.764.02-1.147.033l-.527.017-.136.47.16.078a.956.956 0 0 1 .071.041M58.098 66.1c-.007-.044-.057-.08-.057-.08-.008-.043-.058-.08-.058-.08a.967.967 0 0 0-.165-.197c-.056-.08-.107-.117-.12-.204l-.051-.037s-.007-.043.036-.05c-.006-.043.03-.094.03-.094s.209-.656.202-.7c-.007-.043.037-.05-.014-.087-.05-.037-.13.02-.174.028l-.348.054-.043.007s.007.043-.036.05c.006.044-.037.05-.03.094.006.044-.15.47-.193.476l-.05-.037-.172-.24c-.007-.043-.107-.117-.114-.16 0 0-.05-.037-.057-.08l-.088.013-.521.082s.228.321.279.358c.057.08.107.116.165.196.006.044.057.08.057.08.006.044.057.08.064.124 0 0 .007.044.05.037l.007.043c.007.044-.06.188-.053.232 0 0-.208.656-.202.7.007.043-.03.094-.03.094l.131-.021.304-.047.13-.021c.044-.007.09-.282.09-.282-.006-.043.083-.325.083-.325l.03-.093.05.036s.007.043.05.037c.007.043.236.364.236.364s.007.044.05.037c0 0 .007.043.05.036 0 0 .007.044.051.037l.043-.007.392-.062.13-.02s-.063-.124-.107-.117l-.027-.174zm-2.438-.196l.013.087c.028.174-.132.289-.169.339 0 0-.037.05-.08.057l-.13.02c-.044.007-.051-.036-.095-.03-.05-.036-.1-.072-.15-.11l-.065-.123c-.006-.043-.057-.08-.07-.167l-.014-.087-.014-.087c-.007-.043.03-.094.023-.137a.331.331 0 0 1 .3-.36c.087-.013.188.06.238.097.05.037.058.08.064.123.1.074.142.335.149.378m-.991-.067s.007.044 0 0m1.387-.53c-.007-.043-.057-.08-.064-.124-.007-.043-.158-.153-.208-.19-.05-.036-.094-.03-.1-.073-.05-.037-.095-.03-.145-.066-.094-.03-.188-.06-.318-.04a1.533 1.533 0 0 0-.508.17c-.204.12-.257.352-.293.402-.037.05-.03.094-.023.138.006.043-.023.137-.023.137l.027.174.041.261c.007.043.135.29.142.334.007.043.057.08.064.124l.252.183c.05.037.093.03.144.067.043-.008.094.03.137.023.044-.007.087-.014.137.022.044-.007.349-.054.472-.118.08-.058.204-.122.197-.165.073-.1.176-.295.193-.476.009-.224-.103-.653-.103-.653.043-.006-.02-.13-.02-.13m-2.477-.725c-.007-.043 0 0 0 0zm.063 1.818c.007.043.007.043-.03.093s-.073.101-.204.122l-.13.02c.043-.006 0 0 0 0l-.13.02-.131.021-.02-.13c-.008-.044-.048-.304-.062-.391l-.014-.088c-.007-.043.044-.007.087-.013l.13-.02.131-.021c.087-.014.174-.028.225.01.05.036.093.029.1.072.007.044.064.124.078.211 0 0 .014.087-.03.094zm-.867-.978l-.02-.13-.02-.13-.022-.131-.006-.044-.007-.043.043-.008.044-.006c.043-.007.384-.105.435-.069.1.074.114.16.128.248l.02.13c.007.043-.03.094-.023.138-.037.05-.123.064-.203.12l-.261.041-.131.021c.037-.05.073-.1.023-.137zm-.306-.531c.006.043-.037.05 0 0-.044.006 0 0 0 0zm.047 1.15s.044-.006 0 0c.044-.006.044-.006 0 0zm1.415-.355l-.1-.073s-.044.006-.051-.037c0 0-.007-.044.037-.05l.11-.152s.066-.144.059-.187c-.007-.044.016-.181.01-.225-.008-.043-.021-.13-.028-.174l-.007-.043c-.05-.037-.064-.124-.114-.16-.007-.044-.05-.037-.057-.08-.008-.044-.05-.037-.058-.08-.043.006-.1-.074-.144-.067l-.094-.03-.043.007c-.043.007-.087.014-.094-.03l-.13.02a391.8 391.8 0 0 1-1.088.172l.083.522.02.13.034.218a13.92 13.92 0 0 0 .035.217 3198.458 3198.458 0 0 0 .123.783l.054.348.055.348c.007.044.02.13.064.124l.13-.021.218-.034.652-.103.13-.02.088-.014c.043-.007.297-.091.4-.286-.006-.043.067-.144.06-.188-.007-.043.03-.093.03-.093-.007-.044.023-.138.016-.181-.048-.304-.148-.378-.156-.421-.136-.023-.194-.103-.244-.14zm4.215-4.942c-.008-.043-.021-.13-.021-.13l-.13.02-.218.034-.174.028.068.435.02.13-.087.014-.217.034.075.478.218-.034.044-.007c.043-.006.075.479.081.522l.035.218c.007.043.078.21.091.297a.331.331 0 0 0 .114.16c.152.11.426.156.47.15l.391-.062.043-.007s.044-.006.037-.05l-.006-.043-.014-.087-.041-.261-.218.033-.087.014c-.05-.036-.144-.066-.15-.11-.065-.123-.062-.39-.062-.39l-.034-.219c-.008-.043-.008-.043-.014-.087l-.014-.087.087-.013.391-.062-.075-.478-.522.082-.081-.522m8.237.799s-.078-.21-.085-.254l-.014-.087-.006-.043-.041-.262-.041-.26a66.045 66.045 0 0 1-.041-.262l-.042-.26-.02-.13-.007-.045-.007-.043-.13.02-.261.042-.174.027.007.043.014.087a120.013 120.013 0 0 0 .109.697l.007.043.02.13c.007.044.041.261-.069.412a.136.136 0 0 1-.08.057c-.043.007-.08.058-.13.021-.044.007-.087.014-.137-.023-.044.007-.051-.037-.058-.08-.007-.044-.013-.087-.064-.124l-.02-.13-.02-.13-.063-.392-.02-.13-.061-.392c-.008-.043-.008-.043-.05-.037l-.175.027-.304.048-.044.007.007.044.02.13.062.392.02.13.042.261.04.261.021.13c.007.044.014.088.065.124.006.044.034.218.278.357.05.037.094.03.145.067.043-.007.093.03.18.016 0 0 .218-.034.211-.077.043-.007.08-.058.124-.065.043-.007.08-.057.08-.057.043-.007.037-.05.073-.1l.037-.05.043-.007.02.13c.008.043.014.087.058.08l.174-.027.13-.02.175-.028-.008-.043c.024-.138.016-.182.01-.225M64.25 61.3c-.047-.305-.045-.573-.18-.864-.057-.08-.064-.124-.158-.153a.335.335 0 0 0-.23-.053.813.813 0 0 0-.663.327s-.036.05-.08.057c-.043.007-.02-.13-.034-.218l-.007-.043-.174.027-.26.041-.088.014.014.087c.133.559.198 1.261.28 1.783.007.044.225.01.268.003l.305-.048-.007-.044-.062-.391-.047-.305-.062-.39c-.007-.045-.048-.305.257-.353.087-.014.224.01.237.096.008.043.058.08.064.124l.035.217.082.522c.02.13.04.261.062.391l.013.087.522-.082-.027-.173c.039-.319-.032-.486-.06-.66zm-2.164-.73l-.014-.087-.087.014c-.167.07-.328.185-.394.329-.007-.043-.057-.08-.064-.123l-.007-.044-.391.061-.087.014.02.13c.007.044.174.82.187.907l.117.74.014.087.347-.055.218-.034-.014-.087-.116-.74-.048-.304c-.014-.087.06-.188.14-.245.08-.057.167-.07.254-.084l.087-.014-.041-.261c-.108-.117-.115-.16-.121-.204zm-1.805.997s-.043.007 0 0l-.173.027-.392.062-.044.007-.006-.044c-.014-.087-.021-.13.009-.224l.11-.151c.036-.05.123-.064.167-.071.043-.007.087-.014.137.023.05.037.1.073.158.153-.036.05.02.131.034.218-.007-.044-.007-.044 0 0zm.495-.256c-.007-.044-.064-.124-.07-.167-.008-.044-.058-.08-.065-.124-.05-.037-.057-.08-.107-.117l-.152-.11c-.043.007-.093-.03-.093-.03-.044.008-.231-.052-.318-.039l-.262.041c-.043.007-.123.065-.167.071a.954.954 0 0 0-.196.165c-.037.05-.074.1-.067.144-.103.195-.092.55-.085.593l.02.13.028.175.027.174c.007.043.058.08.071.167.057.08.064.123.121.204a.53.53 0 0 0 .252.183c.044-.007.05.036.094.03.05.036.137.022.231.052l.26-.04c.088-.015.175-.028.255-.086.044-.006.08-.056.167-.07a.588.588 0 0 0 .153-.158l.074-.101c.037-.05.03-.094.03-.094-.007-.043.037-.05.03-.093-.007-.044-.007-.044.03-.094l-.007-.044s-.181-.016-.218.035l-.218.033-.043.008s.014.087-.06.187c-.036.05-.123.064-.166.07a.393.393 0 0 1-.225-.008l-.151-.11c-.05-.037-.064-.124-.07-.167l-.008-.044.218-.034.174-.027.217-.034.435-.07c.044-.006-.132-.558-.14-.601zm-4.631.595l.007.043.048.305.062.39c.006.044.04.262.148.379.215.233.432.2.476.193l.13-.021.218-.034a28.7 28.7 0 0 1 .174-.028l-.014-.087-.047-.304-.008-.044-.26.041c-.044.007-.044.007-.095-.03-.05-.036-.057-.08-.114-.16s-.09-.297-.09-.297l-.063-.392-.006-.043.26-.041.13-.02.088-.014-.075-.48s-.486.033-.529.04l-.048-.305-.014-.087-.013-.087-.087.014-.392.062.048.304.02.13.021.13-.087.015-.087.013-.086.014.013.087.02.13.028.174.013.087c-.05-.036.211-.077.211-.077zm11.558-2.176l-.02-.13-.044.007-.348.055-.087.014-.007-.044-.007-.043a13.922 13.922 0 0 0-.02-.13l-.034-.218-.007-.044-.044.007-.26.041-.174.027.02.131.048.304.014.087-.044.007-.304.048.013.087.062.391.087-.013.217-.034.02.13.021.13.035.218.047.305a28.7 28.7 0 0 1 .049.304c.006.044.027.174.221.277.1.073.275.046.318.04l.392-.063.087-.013-.014-.087-.02-.13a4.914 4.914 0 0 1-.014-.088l-.02-.13-.087.013c-.044.007-.268-.002-.312.005-.05-.036-.064-.123-.064-.123l-.027-.175a38.59 38.59 0 0 1-.069-.434l-.014-.088-.006-.043.043-.007.174-.027.261-.041-.02-.13-.062-.392zM53.89 62.305l.062.391.075.479c.007.043.027.174.178.284.158.154.376.119.42.112.13-.02.297-.091.34-.098.044-.007.124-.064.117-.108.044-.006.11-.15.154-.157l.036-.05.007.043.041.261c.05.036.087-.014.13-.02l.218-.035.13-.02c.044-.007-.04-.261-.047-.305a124.961 124.961 0 0 1-.083-.522l-.04-.261-.007-.043-.034-.218c-.008-.043-.076-.478-.09-.565l-.173.027-.348.055a23.055 23.055 0 0 0 .04.26l.021.131.137.87c.007.044-.03.094-.073.1-.037.051-.037.051-.08.058 0 0-.167.07-.261.041-.137-.023-.209-.19-.209-.19l-.047-.304-.083-.522-.034-.218-.027-.174-.392.062-.13.02.04.261c-.015.181-.001.268.012.355zm-1.463.899a89.191 89.191 0 0 0-.041-.261l-.014-.087-.006-.044.087-.014.26-.04.088-.014.043-.007s.087-.014.094.03c0 0 .201.146.185.327.007.044-.016.181-.016.181-.06.188-.545.22-.596.183l-.087.013c-.043.007-.006-.043-.006-.043l-.014-.087c.037-.05.03-.094.023-.137zm-.15-.957l-.041-.261-.021-.13-.02-.131-.007-.043.043-.008.13-.02.218-.034.043-.007s.05.037.095.03c.093.03.17.24.178.284.006.043.034.217-.083.325-.043.007-.08.057-.08.057l-.218.034-.13.02-.044.008c-.057-.08-.063-.124-.063-.124zm.701 1.628l.218-.035.087-.013c.043-.007.043-.007.08-.058l.16-.114c.044-.007.037-.05.08-.057.037-.05.104-.194.096-.238a.475.475 0 0 0 .01-.224l-.007-.044-.02-.13c-.014-.087-.085-.254-.092-.298-.007-.043-.108-.117-.158-.153l-.1-.073-.05-.037s-.044.007-.05-.037l.035-.05s.044-.007.037-.05c-.006-.044.067-.145.11-.152-.006-.043.037-.05.03-.093l-.007-.044s-.004-.311-.011-.354c-.02-.131-.128-.248-.229-.321-.158-.154-.476-.193-.476-.193l-.087.014a172.537 172.537 0 0 0-.782.123l-.131.02-.087.014-.087.014.027.174.014.087.007.043.007.044.006.043.007.044.014.087.014.087.034.217.02.13.021.132.034.217.02.13.014.087.014.087a67.915 67.915 0 0 1 .082.522l.02.13.049.305.013.087c.02.13.97-.064 1.014-.07z"/></g></svg>