<?xml version="1.0" encoding="UTF-8"?>
<svg width="120px" height="120px" viewBox="0 0 120 120" version="1.1" xmlns="http://www.w3.org/2000/svg" xmlns:xlink="http://www.w3.org/1999/xlink">
    <!-- Generator: Sketch 50.2 (55047) - http://www.bohemiancoding.com/sketch -->
    <title>image / outline / step-1</title>
    <desc>Created with Sketch.</desc>
    <defs></defs>
    <g id="Symbols" stroke="none" stroke-width="1" fill="none" fill-rule="evenodd">
        <g id="image-/-outline-/-step-1" fill="#1D6C93">
            <path d="M108.832818,55.3576825 C108.668601,55.0239118 108.33483,54.8579158 107.917469,54.7719535 C107.667289,54.7719535 107.502478,54.6925125 107.249927,54.6059574 C106.837901,54.358149 106.417575,54.2721868 106.086769,54.1079692 C105.919587,54.1079692 105.835996,54.0249712 105.671779,53.942566 L105.254417,53.77657 C105.0902,53.6906077 104.923018,53.6087954 104.758801,53.6087954 C104.508621,53.5263902 104.336696,53.4433921 104.088295,53.2785818 C103.756896,53.0266234 103.423125,52.8618131 103.092319,52.6928528 C102.671993,52.5274496 102.338222,52.363232 102.009787,52.1112737 L101.842605,51.9434991 C101.592426,51.777503 101.506463,51.5261376 101.506463,51.2753649 C101.506463,50.8621533 101.341653,50.5325325 100.924884,50.3600152 C100.760074,50.2805742 100.591114,50.194612 100.342712,50.1122068 C99.675171,49.9468036 99.2578094,49.7814003 98.8457835,49.4470368 C98.6762304,49.2792622 98.428422,49.1968571 98.2588688,49.1968571 C97.8444715,49.1132662 97.42711,49.0314538 97.0097484,49.0314538 C96.5141316,48.9448987 96.0131792,48.8654578 95.5958177,48.6970903 C95.2644184,48.6146851 94.9365761,48.5316871 94.4326595,48.5316871 C94.1824797,48.5316871 93.9346713,48.5316871 93.7645253,48.4457249 C93.4337189,48.3633197 93.1835391,48.3633197 92.7655847,48.3633197 C92.4318141,48.3633197 92.103379,48.4457249 91.7696083,48.4457249 L91.0155119,48.5316871 C90.6847055,48.5316871 90.3533062,48.6146851 90.0165713,48.6970903 C89.7717271,48.7794955 89.5209545,48.9448987 89.2707747,49.0314538 C88.7704151,49.2792622 88.1858718,49.4470368 87.6878836,49.7814003 L87.6036999,49.8608413 L87.5207019,49.9468036 C87.1063046,49.9468036 86.7725339,50.194612 86.4411346,50.4459775 C85.6894096,51.0275565 84.9412416,51.6120998 84.1895165,52.1907147 C83.7774906,52.5274496 83.4389772,52.775258 83.023987,53.1066573 L82.9433604,53.1926195 C82.6095897,53.4433921 82.3588171,53.77657 82.1945995,54.1945243 C81.8608289,54.9403209 81.5294296,55.6873032 81.4434673,56.523212 C81.2792498,57.5221526 80.2803092,58.6023127 79.8629476,59.0196743 L79.7769854,59.1056365 C79.5262128,59.3534449 79.1948135,59.6042176 78.9470051,59.7696208 C78.6991966,59.935024 78.5272722,60.1033914 78.2764995,60.2687947 C77.8650664,60.6849705 77.364114,61.0187412 76.6959798,61.2706995 L76.4540999,61.2706995 C76.1144008,61.3501405 75.7859657,61.5185079 75.5328217,61.6839111 C75.2856061,61.7698734 75.0377977,61.8481287 74.7870251,61.8481287 C74.0358929,61.9340909 73.2847607,62.0176818 72.6172194,62.1860492 C72.2051934,62.2654902 71.7848676,62.4338576 71.3675061,62.7634784 C71.2032886,62.9359957 70.9554802,63.0154367 70.7053004,63.101399 L70.3715297,63.1814328 C69.9535753,63.267395 69.5362138,63.4316126 69.2083716,63.5146106 C68.79101,63.679421 68.3742413,63.679421 68.0369136,63.679421 C67.5412968,63.6011657 66.9597177,63.6011657 66.2915835,63.679421 C65.9578129,63.679421 65.6281921,63.7653832 65.2944215,63.9307865 C64.9565009,64.0991539 64.7128424,64.2645571 64.3790717,64.3469623 C64.2130757,64.4305532 63.9617102,64.5165154 63.7139018,64.5165154 C63.5490914,64.5947707 63.3771669,64.5947707 63.1252086,64.5947707 C62.9598054,64.5947707 62.8774002,64.680733 62.7119969,64.680733 L62.2140087,64.680733 C62.0480127,64.680733 61.7966472,64.5947707 61.5458746,64.5947707 C60.7988923,64.5947707 60.05191,64.680733 59.2978136,64.7672881 L58.9681928,64.7672881 C58.8846019,64.7672881 58.7162345,64.7672881 58.6296794,64.846729 C58.3860209,64.9326913 58.1340626,64.9326913 57.8826971,64.9326913 L57.6348887,64.9326913 L55.6358218,64.9326913 C55.1336837,64.9326913 54.6392525,64.846729 54.1383001,64.846729 C53.8045295,64.846729 53.4719445,64.7672881 53.1381738,64.7672881 C52.8891797,64.7672881 52.7231837,64.680733 52.4730039,64.680733 L51.7224645,64.680733 L51.2238835,64.680733 C50.6423044,64.680733 50.1425377,64.7672881 49.5568087,64.5947707 C49.476182,64.5947707 49.3078146,64.5165154 49.2271879,64.5165154 L48.5584609,64.4305532 C48.1416922,64.4305532 47.6454826,64.3469623 47.2263425,64.3469623 C46.72954,64.2645571 46.2274019,64.3469623 45.7294137,64.4305532 C45.2314255,64.5165154 44.6451037,64.5947707 44.0641174,64.5947707 L42.649001,64.5947707 L42.4000069,64.5947707 L41.7336512,64.5947707 C41.3992877,64.5947707 41.0684813,64.680733 40.7347106,64.680733 C39.9829856,64.680733 39.3195942,64.7672881 38.6532385,64.846729 C38.489021,64.9326913 38.2370627,64.9326913 38.0675096,64.9326913 L37.5689285,65.0150965 C37.0715332,65.0980945 36.5729521,65.266462 35.9872231,65.5101205 C35.4921992,65.6826378 35.0718734,65.848041 34.5721067,65.848041 C34.2413002,65.848041 33.9911204,65.9298534 33.7415335,66.0140371 C33.490168,66.1818117 33.1599544,66.1818117 32.8261838,66.2612527 L32.7414072,66.2612527 C32.5742254,66.2612527 32.4912274,66.2612527 32.4100079,66.1818117 C32.2404548,66.0958494 32.0762372,66.0140371 31.910834,65.9298534 L31.5758777,65.7620788 C31.1608875,65.5101205 30.6599351,65.266462 30.0795417,65.1804997 C29.9111743,65.1804997 29.6598088,65.0980945 29.4938127,65.0980945 L29.330188,65.0980945 C29.2448186,65.0980945 29.164192,65.0980945 29.164192,65.0150965 C28.911048,64.846729 28.6596825,64.680733 28.4142455,64.5947707 C28.3294689,64.5165154 28.1640657,64.5165154 28.0804748,64.4305532 C27.7478898,64.2645571 27.4141192,64.0991539 27.0803485,64.0173416 C26.4987694,63.8513455 25.9990027,63.679421 25.5834197,63.4316126 C25.4980503,63.3492074 25.4138666,63.3492074 25.3326471,63.3492074 C25.3326471,63.3492074 25.2490562,63.3492074 25.2490562,63.267395 L25.1642796,63.1814328 C24.9988764,63.101399 24.9164712,63.0154367 24.8316946,62.9359957 C24.5827005,62.7634784 24.3337064,62.5992609 23.9969716,62.4338576 C23.6673508,62.2654902 23.3371372,62.100087 22.9174043,61.7698734 C22.5865979,61.5185079 22.3370109,61.3501405 22.0880168,61.1841444 C21.6682839,60.9369288 21.2532937,60.6849705 20.9207088,60.4347907 C20.7523413,60.3553498 20.6717147,60.1869823 20.5021615,60.1033914 L20.4215349,60.0215791 C20.0859857,59.7696208 19.8369916,59.4394072 19.586219,59.1874489 C19.4225943,59.0196743 19.3372249,58.8536782 19.1706359,58.767716 C19.1706359,58.767716 19.0900093,58.688275 19.0900093,58.6023127 L18.9216418,58.1902868 C18.7562386,57.9389213 18.6708692,57.686963 18.5066517,57.4391546 C18.3412485,57.108941 18.1699168,56.7710204 18.1699168,56.3589945 C18.1699168,56.2730322 18.0892901,56.107629 18.0892901,56.0216668 L18.0056993,55.6873032 C17.9250726,55.4394948 17.9250726,55.1922793 17.840296,54.9403209 L17.840296,54.6925125 C17.840296,54.5241451 17.840296,54.4423327 17.7555195,54.2721868 C17.5913019,53.6087954 17.2545671,52.8618131 16.8401697,52.0253115 C16.7589502,51.8599082 16.6759522,51.6956907 16.5905828,51.5261376 C16.5063991,51.3613272 16.4251796,51.195924 16.3415887,51.0275565 C16.0902232,50.5325325 15.9242272,50.1122068 15.8400434,49.6130329 C15.8400434,49.3652245 15.7588239,49.1132662 15.6752331,48.7794955 C15.5946064,48.6146851 15.5946064,48.5316871 15.5098298,48.4457249 C15.5098298,48.3633197 15.4250533,48.2809145 15.4250533,48.1979164 C15.2578715,47.7817406 15.0088774,47.3643791 14.5944801,47.0347583 C14.1747472,46.6144325 13.9281245,46.3624742 13.759757,46.0328535 C13.5131343,45.6166776 13.178178,45.4471245 12.8444073,45.1999089 L12.7637806,45.1175037 C12.5141937,44.9491363 12.1774588,44.9491363 11.9284647,45.1999089 C11.5122889,45.6990828 11.2621091,46.1152587 11.179111,46.7003948 L11.179111,47.2784168 L11.179111,47.8641458 L11.179111,48.6146851 C11.179111,48.9448987 11.179111,49.2792622 11.0978915,49.6948453 C11.013115,50.0286159 10.9283384,50.6107878 11.0978915,51.1099617 C11.0978915,51.2753649 11.179111,51.4478823 11.179111,51.6120998 L11.179111,51.6956907 C11.2621091,52.363232 11.2621091,53.1066573 11.3474785,53.77657 C11.3474785,54.2721868 11.5122889,54.6925125 11.598844,55.1057242 C11.7630615,55.6078623 11.9284647,56.107629 12.0944608,56.6032458 C12.2622354,57.2749371 12.5141937,57.8523662 12.8444073,58.3545043 C13.0098105,58.6023127 13.178178,58.8536782 13.2629545,59.1874489 C13.4271721,59.5176625 13.5943538,59.7696208 13.8445336,59.935024 C13.9281245,60.0215791 14.0087511,60.1869823 14.0935277,60.4347907 C14.5097035,61.8481287 15.0088774,62.8500335 15.6752331,63.679421 C16.5063991,64.680733 17.3405293,65.3459029 18.2564719,65.848041 C18.5902426,66.0140371 18.8368653,66.1818117 19.0046399,66.2612527 C19.4225943,66.5956162 19.8369916,66.845796 20.2567245,67.1771952 L20.5063114,67.3449698 C20.8359322,67.5969282 21.1726671,67.8471079 21.5870644,68.013104 C22.4176376,68.3427248 23.1675841,68.5946831 23.9163449,68.8424915 C24.2489299,68.9284537 24.5827005,69.0108589 24.9164712,69.1762622 C26.0837793,69.592438 27.0803485,69.9262087 27.9992553,70.178167 C28.2446923,70.257608 28.4948721,70.3435702 28.7444591,70.4259754 L28.911048,70.5089734 C28.8304213,70.5955285 28.8304213,70.673191 28.8304213,70.673191 C28.7444591,70.7591532 28.7444591,70.9251493 28.6632396,71.0069616 C28.6632396,71.0935167 28.578463,71.1729577 28.578463,71.2589199 C28.3294689,71.840499 28.0804748,72.5086332 27.9150716,73.2556155 C27.7478898,73.9231568 27.4988957,74.5906981 27.2487159,75.1687201 C27.1651251,75.4206785 27.0803485,75.6708582 26.9143524,75.9186667 C26.9143524,76.0046289 26.8337258,76.0046289 26.8337258,76.0840699 C26.4139929,76.7516112 26.2497753,77.5021506 26.1644059,78.4169074 C26.0837793,79.33285 25.9990027,80.4177529 25.5834197,81.3336955 C25.4138666,81.7457214 25.3326471,82.1624901 25.2490562,82.5828159 C25.2490562,82.8264744 25.1684295,82.9989917 25.1684295,83.2468001 C25.083653,83.6641617 25.083653,84.0797447 25.083653,84.4935492 C25.083653,84.9956873 25.083653,85.6590787 25.1684295,86.3242486 C25.2490562,86.8305366 25.2490562,87.4085586 25.2490562,87.9936948 L25.2490562,88.4098706 C25.2490562,89.1598171 25.2490562,89.8249871 25.083653,90.4883785 L24.9988764,90.822742 C24.9164712,91.1565127 24.9164712,91.4902833 24.8316946,91.8199041 C24.7481038,92.5710363 24.7481038,93.4004238 24.9988764,94.2369254 C25.1684295,94.9015025 25.1684295,95.651449 25.083653,96.2336209 L24.9988764,96.7327948 C24.9164712,97.1489707 24.8316946,97.4827413 24.8316946,97.8989172 C24.7481038,98.3156859 24.6674771,98.7318617 24.4167045,99.2316285 C24.3337064,99.4794369 24.1677104,99.8132075 24.0023072,100.063387 L23.832754,100.394787 C23.5013547,101.062328 23.0839932,101.730462 22.4176376,102.393854 C21.7512819,103.1438 21.5870644,103.974373 21.4216612,104.72432 L21.3368846,105.305899 C21.3368846,105.474266 21.2532937,105.640262 21.2532937,105.805666 C21.1726671,105.97759 21.086112,106.221249 21.086112,106.390209 C21.0019283,106.473207 21.0019283,106.641574 20.9207088,106.80757 C20.8359322,106.971788 20.8359322,107.141341 20.7523413,107.305559 C20.6717147,107.72292 20.6717147,108.138503 20.5869381,108.552308 L20.5869381,109.058596 L20.5869381,109.222813 L20.5869381,109.388216 L20.5869381,109.470029 C20.5063114,110.052201 20.4215349,110.719742 20.4215349,111.301321 L20.337944,111.804645 L20.337944,111.8829 C20.337944,112.052453 20.2567245,112.134858 20.2567245,112.303226 C20.0859857,112.798843 20.005359,113.298017 19.7563649,113.717749 C19.586219,113.965558 19.586219,114.299329 19.6715884,114.633692 C19.7563649,115.128716 19.8369916,115.46308 19.9205825,115.801 C19.9205825,116.048808 20.005359,116.296024 20.1725408,116.464392 C20.2567245,116.547982 20.2567245,116.630388 20.2567245,116.795791 C20.1725408,117.045971 20.0859857,117.293779 20.0859857,117.545737 C20.005359,117.797696 20.005359,118.044911 20.1725408,118.209722 C20.2567245,118.295684 20.4215349,118.461087 20.7523413,118.461087 C21.0019283,118.461087 21.3368846,118.381646 21.5870644,118.381646 L21.7512819,118.381646 L22.0014617,118.381646 L22.0880168,118.461087 C22.2522343,118.629454 22.4176376,118.794858 22.5865979,118.960261 C22.8367776,119.294624 23.1675841,119.462992 23.4183567,119.544804 C23.5825742,119.628395 23.832754,119.710207 24.0023072,119.710207 C24.2489299,119.710207 24.4167045,119.628395 24.6674771,119.544804 C24.8316946,119.462992 25.083653,119.294624 25.2490562,119.294624 C25.5834197,119.211034 25.8324138,118.960261 25.9990027,118.629454 L26.0837793,118.547049 C26.4139929,118.295684 26.7477635,118.044911 26.9143524,117.6317 C27.1651251,117.714105 27.3293426,117.714105 27.5795224,117.797696 C27.7478898,117.879508 28.0804748,117.96132 28.4948721,117.714105 L28.578463,117.714105 C28.911048,117.797696 29.164192,117.879508 29.4108147,117.96132 C29.8305476,118.131466 30.1601684,118.131466 30.4945319,117.879508 L30.5751585,117.797696 C30.6599351,117.714105 30.7458973,117.6317 30.826524,117.545737 C31.1608875,117.215524 31.325105,116.795791 31.4946582,116.378429 L31.5758777,116.296024 C31.6618399,116.130621 31.6618399,115.966403 31.6618399,115.879848 C31.6618399,115.549042 30.9954843,114.71669 30.7458973,114.551287 C30.6599351,114.465325 30.4945319,114.465325 30.4097553,114.382919 C30.3291287,114.382919 30.2455378,114.382919 30.0795417,114.299329 L29.8263977,114.299329 L29.6598088,114.299329 C29.4108147,114.135111 29.164192,114.049149 28.9964174,113.883746 C28.7444591,113.717749 28.7444591,113.549382 28.7444591,113.383979 L28.7444591,113.298017 L28.7444591,113.050208 C28.911048,112.303226 28.9964174,111.553279 29.164192,110.80274 C29.2448186,110.551374 29.2448186,110.303566 29.330188,110.052201 L29.330188,109.973945 C29.4108147,109.803799 29.4108147,109.636025 29.4938127,109.470029 C29.5785893,109.136258 29.6598088,108.720675 29.745771,108.386904 C29.9111743,107.72292 30.0795417,107.141341 30.3291287,106.555612 L30.4097553,106.307804 C30.4945319,106.1424 30.4945319,105.97759 30.5751585,105.805666 C30.826524,105.305899 31.0761109,104.810875 31.325105,104.311108 L31.4098816,104.225146 C31.4946582,104.142741 31.4946582,103.974373 31.5758777,103.891375 C31.910834,103.475199 32.1598281,103.061988 32.4912274,102.55985 C32.8261838,101.978271 33.2411739,101.396691 33.8263101,100.892775 C34.8228793,99.9774251 35.8218199,98.8978578 36.6541716,97.7341068 C36.8219462,97.4827413 36.9873494,97.230783 37.1521598,96.9829746 C37.3217129,96.7327948 37.5689285,96.3990242 37.7378888,96.1512157 C37.8226654,95.9816626 37.903292,95.8174451 37.9868829,95.7338542 C38.0675096,95.5696367 38.1522861,95.4042335 38.3176893,95.2317161 C38.6532385,94.7360993 38.9870092,94.3157735 39.1524124,93.9025619 C39.2336319,93.7383444 39.3195942,93.6523821 39.4043707,93.5729411 L39.8999876,92.8229946 C40.1531316,92.4056331 40.483938,91.9853073 40.7347106,91.4902833 C41.235663,90.656746 41.6500604,89.8249871 41.983831,88.9914497 C42.1486414,88.7394914 42.2346037,88.4098706 42.4000069,88.1579123 C42.7296276,87.490371 43.0639911,86.7445744 43.1499534,85.911037 L43.1499534,85.7426696 C43.2305801,85.4088989 43.3153566,85.0774996 43.1499534,84.7437289 C43.4813527,84.4141082 44.0641174,83.9937824 44.3154829,83.8277864 L44.814064,83.6641617 C45.0600938,83.5781994 45.3144235,83.4981656 45.5651962,83.4122034 C45.8948169,83.6641617 46.2274019,83.5781994 46.4805459,83.5781994 C46.6447634,83.5781994 46.8107595,83.4981656 46.9761627,83.5781994 C47.3917457,83.745974 47.7261092,83.8277864 48.0610656,84.0797447 C48.9781938,84.826727 49.8935436,85.3294579 50.8924842,85.6590787 C51.0578874,85.7426696 51.2238835,85.8286318 51.4728776,85.911037 C51.97383,86.2448077 52.4730039,86.5744284 53.0551758,86.9087919 C53.6379406,87.2425626 54.1383001,87.490371 54.720472,87.6599241 C55.0542427,87.7458864 55.4698257,87.9101039 55.8041892,88.0761 C56.3828041,88.3233155 56.8849422,88.5752739 57.4665213,88.7394914 C57.8826971,88.8260465 58.3000586,88.9914497 58.8021967,89.2386653 C59.2978136,89.4906236 59.8793926,89.7413962 60.3827164,89.9067994 C60.9642955,90.1546079 61.6324297,90.3229753 62.299971,90.5701909 C63.2977259,90.9045544 64.3790717,91.1565127 65.3803837,91.4902833 L65.7100045,91.5720957 C65.8760005,91.6556866 66.1232161,91.6556866 66.3781386,91.7380918 C66.7943145,91.8199041 67.1251209,91.9058664 67.5412968,91.9058664 L68.79101,92.0718624 C69.1247807,92.1554533 69.5362138,92.1554533 69.8759129,92.2372656 C70.1260927,92.2372656 70.3715297,92.3196708 70.6211167,92.3196708 L71.1196977,92.4056331 C71.2892508,92.4056331 71.3675061,92.4056331 71.534095,92.4850741 C71.8708299,92.4850741 72.1216025,92.5710363 72.452409,92.6575914 L72.452409,92.7370324 L72.5359998,93.070803 C72.6172194,93.4869789 72.7002174,93.9025619 72.7002174,94.2369254 C72.7838083,95.06572 72.95099,96.0676249 73.1987984,96.9829746 C73.2847607,97.3167453 73.3707229,97.5645537 73.3707229,97.8989172 C73.3707229,98.3980911 73.4513496,98.8142669 73.4513496,99.2316285 L73.5379047,99.9774251 C73.61616,100.645559 73.7021222,101.396691 73.7880845,102.060083 L73.8716753,102.480409 C73.9528948,102.724067 73.9528948,103.061988 74.0358929,103.309796 L74.1194838,103.643567 C74.2001104,104.390549 74.3666993,105.227051 74.3666993,105.97759 C74.3666993,106.390209 74.3666993,106.721015 74.4479188,107.05775 C74.5344739,107.305559 74.5344739,107.636958 74.5344739,107.887138 L74.5344739,108.306871 C74.5344739,108.386904 74.5344739,108.472867 74.6151006,108.720675 L74.8652804,110.138163 L74.9518355,110.303566 C75.1154601,111.301321 75.1154601,111.387876 75.2020152,111.467317 C75.2826419,111.718683 75.3686041,111.8829 75.4492308,112.134858 L75.7859657,113.050208 C75.8671852,113.298017 75.9507761,113.635937 76.1144008,113.883746 C76.2009559,114.135111 76.2815825,114.465325 76.3675448,114.71669 C76.3675448,115.214678 76.5317623,115.632633 76.6183174,116.048808 C76.6959798,116.213619 76.6959798,116.378429 76.7819421,116.547982 C76.9497167,117.129561 77.364114,117.545737 77.9456931,117.6317 L78.0316553,117.6317 L78.2764995,117.714105 C78.3630546,117.797696 78.5272722,117.797696 78.6132344,117.797696 C78.7804162,117.797696 78.8663784,117.879508 78.9470051,117.96132 C79.1948135,118.209722 79.4426219,118.381646 79.7769854,118.381646 C80.0301294,118.381646 80.2803092,118.461087 80.530489,118.547049 C80.8618883,118.629454 81.2792498,118.547049 81.6076849,118.295684 C81.7802022,118.131466 81.9467911,118.044911 82.1110087,117.879508 C82.2752262,117.6317 82.4447793,117.545737 82.7761786,117.545737 L83.023987,117.545737 C83.6109017,117.545737 84.0258918,117.215524 84.1065185,116.630388 C84.1065185,116.547982 84.1065185,116.378429 84.1895165,116.213619 C84.2731074,115.632633 83.942301,115.128716 83.4389772,114.964498 C83.1965044,114.885058 82.9433604,114.71669 82.7761786,114.465325 C82.6925877,114.382919 82.6095897,114.382919 82.6095897,114.299329 C82.5283702,114.213366 82.4447793,114.213366 82.4447793,114.135111 C82.2752262,113.965558 82.1110087,113.800155 81.8608289,113.717749 C81.7802022,113.717749 81.6936471,113.635937 81.6936471,113.466384 L81.6936471,113.050208 L81.6936471,112.884805 C81.6936471,111.718683 81.6076849,110.551374 81.8608289,109.388216 C81.9467911,109.058596 81.9467911,108.806637 81.9467911,108.472867 C81.9467911,107.636958 82.0280106,106.80757 82.0280106,105.97759 L82.0280106,105.391861 L82.0280106,105.227051 L82.0280106,104.142741 L82.0280106,101.730462 L82.0280106,100.97933 L82.0280106,99.8991698 L82.0280106,97.6481446 C82.0280106,97.0665655 82.1110087,96.4849864 82.1110087,95.9034073 C82.1110087,94.9015025 82.1110087,93.9025619 82.3588171,92.9872122 C82.4447793,92.7370324 82.3588171,92.5710363 82.3588171,92.4056331 C82.3588171,92.2372656 82.3588171,92.0718624 82.4447793,91.9058664 C82.6095897,91.4043211 82.8568053,90.9905166 83.1099493,90.4883785 C83.1882046,90.2405701 83.3607219,90.0751669 83.4389772,89.8249871 L83.5249394,89.7413962 C83.5249394,89.655434 83.6109017,89.5730288 83.6109017,89.5730288 C83.6915283,89.4906236 83.6915283,89.4046613 83.7774906,89.3252204 L84.1065185,88.6535291 C84.2731074,88.3233155 84.4402892,88.0761 84.6074709,87.7458864 C84.6880976,87.490371 84.8600221,87.3261535 84.9412416,87.1601574 C85.1914214,86.8305366 85.3556389,86.4108037 85.5228207,86.0794044 C85.8565913,85.3294579 86.3545795,84.6619166 86.7725339,83.9937824 L86.9361586,83.6641617 C87.1063046,83.4122034 87.2728935,83.2468001 87.3564843,82.9989917 C87.5207019,82.7482191 87.6878836,82.4968536 87.9350992,82.2490452 C88.0993167,81.9976797 88.2718341,81.6633162 88.4360516,81.4155078 L88.5220139,81.2471404 C88.6891956,80.9163339 88.7704151,80.4960082 88.7704151,80.1663874 L88.7704151,79.8326168 L88.7704151,79.4164409 C88.8534132,78.751271 88.8534132,78.0831368 89.1012216,77.5021506 C89.1012216,77.4197454 89.1871838,77.3373402 89.1871838,77.171937 L89.1871838,76.9994196 C89.2707747,76.5868008 89.4349922,76.1700321 89.6857649,75.7544491 C89.7663915,75.584896 89.8523538,75.5066407 89.938316,75.3370876 L90.1031264,75.0892792 C90.1813817,74.9215046 90.2673439,74.7555085 90.3533062,74.6695463 C90.6011146,74.2533704 90.7677035,73.9231568 91.102067,73.5893861 C91.1826937,73.5057953 91.2662845,73.4239829 91.2662845,73.2556155 C91.4305021,72.7599987 91.7696083,72.2566749 92.1845985,71.7586867 C92.8468042,70.9251493 93.5143456,70.0092067 94.0988888,69.093857 L94.2631064,68.8424915 C95.1784561,67.5109659 96.0938059,66.0958494 96.8455309,64.680733 C96.9314931,64.5165154 97.0097484,64.5165154 97.1793016,64.5165154 C97.510108,64.5165154 97.8444715,64.5165154 98.0946513,64.5947707 C98.5120128,64.5947707 99.010001,64.680733 99.5109534,64.680733 C100.25675,64.7672881 100.924884,64.7672881 101.678388,64.680733 L102.174005,64.680733 C102.842139,64.680733 103.50968,64.5165154 104.168922,64.3469623 C104.422658,64.2645571 104.758801,64.1827448 105.004238,64.0991539 C105.338008,64.0173416 105.588188,63.8513455 105.919587,63.679421 C106.668348,63.1814328 107.08571,62.5992609 107.335889,61.9340909 L107.41948,61.7698734 C107.583698,61.3501405 107.750287,60.8503737 107.667289,60.2687947 C107.667289,60.1869823 107.750287,60.1869823 107.750287,60.1033914 C107.831506,60.0215791 107.831506,60.0215791 107.917469,59.935024 C107.998095,59.8514331 107.998095,59.8514331 108.08465,59.7696208 C108.256575,59.6042176 108.420792,59.3534449 108.49964,59.1056365 C108.752192,58.3545043 108.916409,57.769961 108.916409,57.188382 L108.916409,57.1047911 C108.916409,56.7710204 108.916409,56.4372498 109,56.1894413 C108.916409,55.6873032 108.832818,55.4394948 108.832818,55.3576825 M107.08571,58.6023127 C106.668348,59.1874489 106.000214,59.6042176 105.504597,59.8514331 C105.338008,59.935024 105.0902,60.0215791 104.837056,60.0215791 C104.255477,60.1033914 103.587343,60.2687947 103.006356,60.3553498 C102.755584,60.4347907 102.421813,60.520753 102.090414,60.520753 C101.926789,60.520753 101.592426,60.6031582 101.592426,61.0187412 C101.592426,61.3501405 101.842605,61.6003203 102.174005,61.6839111 L102.671993,61.6839111 C103.092319,61.6003203 103.50968,61.5185079 103.921706,61.4361027 C104.586283,61.2706995 105.170826,61.1841444 105.752998,61.1023321 C105.919587,61.1023321 106.086769,61.0187412 106.253358,60.9369288 C105.919587,61.7698734 105.42397,62.3514525 104.672838,62.685816 C104.255477,62.8500335 103.756896,63.0154367 103.2595,63.101399 C102.919801,63.1814328 102.505404,63.1814328 102.174005,63.267395 L101.592426,63.3492074 C101.255691,63.3492074 100.924884,63.4316126 100.591114,63.4316126 C99.8393885,63.4316126 99.0935919,63.3492074 98.3448311,63.3492074 C97.42711,63.267395 96.4281694,63.267395 95.4316001,63.3492074 C95.3480092,63.3492074 95.2644184,63.3492074 95.1784561,63.4316126 C95.1002008,63.4316126 95.0142386,63.5146106 95.0142386,63.5146106 L94.850021,63.6011657 L94.850021,63.7653832 C94.850021,64.1827448 95.1002008,64.3469623 95.3480092,64.4305532 C95.3480092,64.5165154 95.2644184,64.5165154 95.2644184,64.5947707 L94.9365761,65.0980945 C94.3461044,66.0958494 93.6815273,67.1771952 93.0193216,68.1785072 C92.5154049,68.9284537 91.9338259,69.6784003 91.4305021,70.4259754 L91.102067,70.8433369 C91.3522468,69.6784003 91.4305021,68.5946831 91.4305021,67.427375 L91.4305021,67.0111992 L91.4305021,66.5120253 L91.4305021,65.848041 C91.4305021,65.5966756 91.4305021,65.3459029 91.3522468,65.0980945 C91.2662845,64.846729 91.1826937,64.7672881 91.0155119,64.5947707 C90.848923,64.5165154 90.6847055,64.5165154 90.4339328,64.5947707 C90.3533062,64.5947707 90.2673439,64.680733 90.1890886,64.7672881 L90.0165713,64.846729 L90.0165713,65.0150965 C89.938316,65.5101205 89.938316,65.9298534 89.938316,66.4296201 L89.938316,66.6774285 L89.938316,67.5109659 L89.938316,68.5122779 C89.938316,69.0108589 89.8523538,69.5058829 89.7717271,70.0092067 L89.7717271,70.3435702 C89.7717271,70.5089734 89.6857649,70.673191 89.6857649,70.9251493 C89.6857649,71.0935167 89.5998026,71.3407323 89.5998026,71.5108783 C89.5998026,71.9229042 89.4349922,72.2566749 89.3514014,72.6740364 C89.2707747,72.9242162 89.2707747,73.0902123 89.1871838,73.3374278 C89.1012216,73.5057953 89.1012216,73.7536037 89.0176307,73.9231568 C89.0176307,74.005562 88.937004,74.1709652 88.8534132,74.2533704 C88.7704151,74.4217378 88.6891956,74.5906981 88.6056047,74.7555085 C88.4360516,75.0033169 88.2718341,75.2552752 88.1858718,75.584896 C88.0216543,75.8362615 87.9350992,76.1700321 87.8544725,76.4219904 C87.6878836,76.9205715 87.6036999,77.3373402 87.5207019,77.8359212 L87.5207019,77.9195121 L87.5207019,78.3350951 L87.5207019,78.751271 L87.5207019,79.2510377 L87.5207019,79.5806584 L87.5207019,80.0839822 C87.5207019,80.2523497 87.5207019,80.4177529 87.4400752,80.5819704 C87.1063046,81.1682922 86.7725339,81.8316837 86.2769171,82.5828159 C86.0208089,82.9989917 85.7735933,83.330391 85.6087829,83.8277864 C85.525192,84.0797447 85.3556389,84.3275531 85.1914214,84.6619166 L84.8600221,85.3294579 C84.6074709,85.8286318 84.3596625,86.3242486 84.0258918,86.7445744 C83.5249394,87.573369 83.023987,88.4893116 82.6095897,89.4906236 C82.5283702,89.7413962 82.3588171,89.9892046 82.2752262,90.2405701 C82.0280106,90.7403368 81.7802022,91.3219159 81.6076849,91.8199041 L81.6076849,91.9058664 C81.2792498,91.9853073 81.1926947,92.3196708 81.1096967,92.4850741 C80.9448863,92.9872122 80.8618883,93.5729411 80.7782974,94.3157735 L80.7782974,95.651449 C80.7782974,96.4849864 80.6976707,97.3167453 80.6976707,98.1461328 L80.6976707,99.6478043 L80.6976707,100.480749 L80.6976707,101.560909 L80.6976707,103.891375 L80.6976707,106.307804 L80.6976707,107.636958 C80.6976707,108.220908 80.6111156,108.806637 80.6111156,109.470029 L80.6111156,109.88739 C80.530489,110.468969 80.530489,110.96755 80.530489,111.553279 L80.530489,111.718683 L80.530489,112.884805 L80.530489,113.466384 L80.530489,113.549382 C80.530489,114.135111 80.7782974,114.551287 81.1926947,114.799095 C81.3569122,114.885058 81.4434673,114.964498 81.6076849,115.128716 C81.6936471,115.214678 81.7802022,115.298269 81.8608289,115.298269 C81.9467911,115.380674 82.0280106,115.46308 82.1110087,115.549042 C82.3588171,115.801 82.6095897,115.966403 82.9433604,116.130621 C82.4447793,116.048808 81.8608289,116.213619 81.3569122,116.547982 C80.9448863,116.296024 80.530489,116.213619 79.9435743,116.464392 C79.9435743,116.464392 79.8629476,116.464392 79.8629476,116.547982 C79.7769854,116.378429 79.6981373,116.213619 79.612175,115.966403 C79.4426219,115.298269 79.1948135,114.71669 78.7804162,113.883746 C78.4490169,113.218576 78.1988371,112.634032 78.112282,112.052453 C78.0316553,111.718683 78.0316553,111.467317 77.9456931,111.137103 C77.9456931,110.96755 77.9456931,110.80274 77.8650664,110.63793 C77.7814755,110.303566 77.7814755,110.052201 77.6978847,109.721987 L77.6978847,109.470029 L77.6978847,109.136258 C77.7814755,109.058596 77.9456931,108.806637 77.364114,104.225146 C77.364114,104.060928 77.1998965,103.725379 77.0356789,103.309796 C76.9497167,103.1438 76.9497167,103.061988 76.8684972,102.975433 C76.8684972,102.645812 76.7819421,102.22845 76.7819421,101.89468 L76.7819421,101.313101 C76.7819421,101.062328 76.7819421,100.815112 76.6959798,100.563154 C76.6959798,100.229383 76.6183174,99.8132075 76.2815825,99.4794369 L76.2815825,99.3134408 L76.4458001,97.1489707 C76.4458001,96.8193499 76.5317623,96.4849864 76.5317623,96.0676249 L76.5317623,95.7338542 C76.5317623,95.3176784 76.5317623,94.9015025 76.6183174,94.5683247 L76.6183174,94.3157735 L76.6183174,93.4004238 C76.6183174,92.8229946 76.6183174,92.2372656 76.6959798,91.6556866 C76.6959798,91.4902833 76.6959798,91.1565127 76.4458001,90.9045544 C76.3675448,90.822742 76.3675448,90.7403368 76.3675448,90.5701909 C76.2815825,90.0751669 76.1144008,89.655434 75.9507761,89.1598171 C75.9507761,89.0738549 75.8671852,88.9090445 75.7859657,88.8260465 C75.7859657,88.7394914 75.7023748,88.6535291 75.7023748,88.6535291 L75.6164126,88.4098706 L75.3686041,88.4893116 C74.9518355,88.5752739 74.9518355,90.822742 74.9518355,91.5720957 L74.7816895,91.5720957 L74.6151006,91.5720957 C74.0358929,91.4043211 72.5359998,91.1565127 72.5359998,91.1565127 C72.1216025,91.0699576 71.7066124,91.0699576 71.2868795,90.9905166 C70.785927,90.9045544 70.2903102,90.822742 69.7899506,90.7403368 L69.5362138,90.7403368 C68.6261996,90.5701909 67.7067,90.4065662 66.7943145,90.3229753 C66.6217971,90.3229753 66.4575796,90.2405701 66.2915835,90.2405701 L65.7100045,90.0751669 C64.8770599,89.8249871 64.1271134,89.655434 63.2977259,89.4046613 C62.5477794,89.1598171 61.7966472,88.9090445 60.9642955,88.6535291 C60.4686787,88.4893116 59.9653549,88.2415032 59.3796259,87.9936948 C58.8021967,87.7458864 58.2135036,87.490371 57.6348887,87.3261535 C57.1369005,87.1601574 56.719539,86.9947542 56.2174009,86.7445744 C55.8871873,86.5744284 55.4698257,86.4108037 54.9694661,86.3242486 C54.4685137,86.1588454 54.1383001,86.0794044 53.889306,85.8286318 C53.6379406,85.6590787 53.3035771,85.4948611 53.0551758,85.2434957 C52.8044032,85.0774996 52.5565948,84.9132821 52.3076007,84.7437289 C51.97383,84.4935492 51.5576541,84.3275531 51.142664,84.1621499 C50.3915318,83.9143415 49.7228048,83.5781994 49.2271879,83.0784327 C48.7262355,82.6622568 48.1416922,82.4144484 47.6454826,82.2490452 C47.3917457,82.1624901 47.1457158,82.1624901 46.8955361,82.2490452 C46.7253901,82.2490452 46.6447634,82.2490452 46.5611726,82.1624901 C46.3115856,81.9976797 45.9760364,81.9111246 45.5610463,81.9976797 C45.395643,81.9976797 45.3144235,82.083642 45.1466489,82.083642 C44.9794672,82.083642 44.8110997,82.1624901 44.5650699,82.1624901 C44.3154829,82.2490452 44.1459298,82.2490452 43.9793409,82.4144484 C43.3153566,82.7482191 42.814997,83.1643949 42.2346037,83.5781994 C41.8990545,83.8277864 41.5652838,84.0797447 41.235663,84.3275531 C40.6499341,84.7437289 40.2337582,85.1610905 39.8999876,85.6590787 C39.5685883,86.1588454 39.1524124,86.6580193 38.7338652,87.0741951 C38.4042444,87.4085586 38.0675096,87.9101039 37.7378888,88.4098706 C37.4883018,88.9090445 37.1521598,89.4046613 36.8219462,89.9067994 C36.1555906,90.9045544 35.4062369,91.9853073 34.7422526,92.9872122 C34.3219269,93.5729411 33.822753,94.2369254 33.4065771,94.8185045 L33.2411739,94.9880576 C33.0751779,95.2317161 32.9068104,95.4836744 32.7414072,95.7338542 C32.4912274,96.0676249 32.2404548,96.3154333 32.0762372,96.6492039 C31.910834,96.8193499 31.8254646,97.0665655 31.6618399,97.3167453 L31.4911011,97.6481446 C31.2444784,97.9819152 30.9954843,98.3980911 30.7458973,98.7318617 C30.3261644,99.2316285 29.9111743,99.8132075 29.5785893,100.394787 C29.4938127,100.563154 29.330188,100.728557 29.2448186,100.892775 C29.0794154,101.144733 28.911048,101.396691 28.8304213,101.6445 C28.4142455,102.480409 28.0804748,103.227391 27.830295,103.891375 C27.5795224,104.558917 27.2487159,105.227051 26.9143524,105.805666 C26.5793961,106.307804 26.2497753,106.893533 25.9990027,107.470962 C25.9990027,107.556924 25.9142261,107.636958 25.8324138,107.72292 C25.3326471,107.72292 24.9988764,107.887138 24.7481038,108.386904 C24.5827005,108.63827 24.497924,108.972633 24.497924,109.302254 L24.497924,109.973945 C24.497924,110.303566 24.497924,110.63793 24.4167045,110.96755 C24.3337064,111.387876 24.2489299,111.804645 24.1677104,112.303226 L24.0829338,112.967803 L24.0829338,113.050208 C23.9163449,113.383979 23.9163449,113.800155 23.9163449,114.135111 L23.9163449,114.465325 C23.9163449,114.799095 23.9969716,114.964498 24.1677104,115.051054 L24.2489299,115.128716 C24.3337064,115.298269 24.497924,115.46308 24.8316946,115.549042 C24.9164712,115.879848 24.9988764,116.213619 25.3326471,116.547982 C25.4138666,116.630388 25.4138666,116.71635 25.4980503,116.795791 C25.5834197,116.964158 25.7470444,117.129561 25.8324138,117.293779 C25.9142261,117.380334 25.9142261,117.463332 25.9142261,117.545737 C25.9142261,117.6317 25.8324138,117.714105 25.7470444,117.797696 C25.5834197,117.96132 25.3326471,118.131466 25.1642796,118.461087 C25.1642796,118.547049 25.083653,118.547049 24.9164712,118.629454 C24.4167045,118.88082 24.4167045,118.88082 24.0829338,118.461087 L23.832754,118.209722 C23.7521274,118.131466 23.5825742,117.96132 23.5013547,117.879508 C23.3335801,117.714105 23.0839932,117.545737 22.8326277,117.545737 L22.7514082,117.545737 C22.4176376,117.545737 22.0880168,117.6317 21.7512819,117.6317 L21.8360585,117.463332 C21.8360585,117.380334 21.917278,117.293779 21.917278,117.129561 C21.917278,116.964158 22.0014617,116.547982 21.5870644,116.213619 C21.5022878,116.213619 21.5022878,116.130621 21.5022878,116.130621 C21.5022878,115.632633 21.4216612,115.128716 21.2532937,114.71669 L21.2532937,114.465325 L21.3368846,114.213366 C21.5022878,113.883746 21.5870644,113.549382 21.7512819,113.218576 C21.7512819,113.132613 21.8360585,113.132613 21.8360585,112.967803 C22.0880168,111.8829 22.3370109,110.80274 22.3370109,109.636025 C22.3370109,109.222813 22.4176376,108.88845 22.4176376,108.472867 C22.4176376,108.220908 22.5024141,108.056691 22.5024141,107.804732 C22.5024141,107.72292 22.5836336,107.636958 22.5836336,107.556924 L22.7514082,107.141341 C22.8326277,106.971788 22.9174043,106.80757 22.9174043,106.641574 L22.9174043,106.555612 C23.0009952,106.390209 23.0839932,106.1424 23.0839932,105.891628 C23.0839932,105.474266 23.1675841,105.05809 23.3335801,104.558917 C23.4183567,104.390549 23.4183567,104.225146 23.5013547,104.060928 C23.5825742,103.80897 23.7479775,103.561754 23.9969716,103.309796 L24.4167045,102.810029 C24.8316946,102.312041 25.1642796,101.89468 25.4980503,101.313101 C26.1644059,100.229383 26.5793961,99.2316285 26.6641726,98.3156859 C26.6641726,98.0643204 26.7477635,97.8989172 26.7477635,97.6481446 L26.8283902,97.3167453 C26.999129,96.2336209 26.999129,95.1522751 26.7477635,93.9861528 C26.7477635,93.9025619 26.6641726,93.8207495 26.6641726,93.7383444 C26.6641726,92.9872122 26.5793961,92.2372656 26.7477635,91.4902833 C26.999129,90.4065662 27.0803485,89.3252204 26.999129,88.3233155 L26.999129,87.6599241 L26.999129,86.9087919 C26.999129,86.6580193 26.9143524,86.3242486 26.9143524,86.0794044 C26.9143524,85.911037 26.9143524,85.6590787 26.8283902,85.4948611 C26.7477635,84.826727 26.8283902,84.1621499 26.999129,83.4981656 C26.999129,83.4122034 27.0803485,83.330391 27.0803485,83.1643949 C27.0803485,83.0784327 27.0803485,82.9989917 27.1651251,82.9124366 L27.2457517,82.7482191 C27.3293426,82.4968536 27.4141192,82.1624901 27.4947458,81.9111246 C27.6631133,81.497913 27.7478898,81.0817372 27.830295,80.6655613 C27.9150716,80.0009842 27.9956982,79.2510377 28.0804748,78.4169074 C28.1640657,77.9195121 28.3294689,77.5021506 28.578463,77.0859747 C28.7444591,76.7516112 28.911048,76.3360282 29.0794154,75.9186667 L29.2448186,75.4206785 C29.4938127,74.5906981 29.8263977,73.7536037 29.995358,72.9242162 C30.0795417,72.426228 30.3261644,72.0088665 30.6599351,71.424916 L30.7458973,71.3407323 C30.826524,71.1729577 30.9954843,70.9251493 30.9107077,70.673191 C31.0761109,70.4259754 31.0761109,70.178167 30.826524,69.8443963 C30.6599351,69.6784003 30.4945319,69.3416654 30.0795417,69.3416654 C29.9111743,69.3416654 29.745771,69.2622244 29.4938127,69.1762622 C28.8304213,68.9284537 28.1640657,68.7630505 27.5795224,68.5946831 L27.3293426,68.5122779 C26.999129,68.4263156 26.6641726,68.2609124 26.330402,68.1785072 C26.1644059,68.0949163 25.9990027,68.0949163 25.8324138,68.013104 L25.2490562,67.8471079 C24.8316946,67.6793333 24.497924,67.5969282 24.0829338,67.427375 L23.6673508,67.2631575 C23.1675841,67.0977543 22.5836336,66.9293868 22.0880168,66.6774285 C21.8360585,66.5956162 21.5870644,66.4296201 21.3368846,66.2612527 C21.0019283,66.0958494 20.7523413,65.848041 20.4215349,65.5966756 C19.8369916,65.0980945 19.2565982,64.7672881 18.5872783,64.4305532 C18.1699168,64.1827448 17.7555195,63.9307865 17.3405293,63.4316126 C16.9249463,62.9359957 16.6759522,62.51567 16.5063991,62.100087 L16.4251796,61.8481287 C16.2556265,61.4361027 16.0902232,61.0187412 16.0095966,60.6031582 C15.9242272,60.1869823 15.7588239,59.8514331 15.4250533,59.6042176 C15.1748735,59.3534449 15.0088774,59.1056365 14.8434742,58.688275 C14.7598833,58.4380952 14.5944801,58.1902868 14.4261127,57.9389213 C14.2589309,57.6045578 14.0935277,57.2749371 14.0087511,56.9370165 C13.9251603,56.3589945 13.759757,55.8556707 13.4271721,55.1922793 C13.2588046,54.8579158 13.178178,54.5241451 13.178178,54.1079692 L13.178178,53.6087954 L13.178178,53.1926195 L13.178178,52.775258 C13.178178,52.363232 13.178178,51.777503 13.0098105,51.2753649 C12.928591,51.1099617 12.928591,50.8621533 13.0098105,50.6107878 C13.0934014,50.1122068 13.178178,49.6130329 13.0934014,49.1132662 L13.0934014,48.6970903 C13.0934014,48.4457249 13.0934014,48.1155113 13.178178,47.8641458 L13.178178,47.4479699 L13.178178,47.2784168 L13.5107629,47.2784168 C13.5943538,47.3643791 13.759757,47.5297823 13.8445336,47.6157445 C14.3425218,48.1155113 14.7598833,48.5316871 14.9241009,49.1968571 L15.0088774,49.3652245 C15.0088774,49.4470368 15.0895041,49.6130329 15.0895041,49.6948453 C15.1748735,50.2805742 15.3384982,50.8621533 15.5910493,51.3613272 L15.6752331,51.6120998 C15.7588239,51.777503 15.8400434,51.9434991 15.9242272,52.1907147 C16.0048538,52.2772698 16.0048538,52.4414873 16.0902232,52.5274496 C16.2556265,52.8618131 16.3415887,53.1066573 16.5063991,53.4433921 C16.5063991,53.5263902 16.5905828,53.6087954 16.5905828,53.6906077 C16.6759522,53.8566038 16.6759522,53.942566 16.7565789,54.0249712 C16.9249463,54.2721868 17.005573,54.6059574 17.005573,54.9403209 C17.0903495,55.4394948 17.1739404,55.8556707 17.2545671,56.1894413 C17.2545671,56.2730322 17.3405293,56.4372498 17.3405293,56.523212 C17.3405293,56.6032458 17.3405293,56.6892081 17.4217488,56.7710204 L17.4217488,56.8575755 C17.4217488,57.0229787 17.5065254,57.188382 17.5913019,57.3525995 C17.840296,57.8523662 18.0892901,58.4380952 18.3370986,58.9360834 L18.4218751,59.1056365 C18.5066517,59.1874489 18.5872783,59.3534449 18.6708692,59.5176625 L19.0046399,59.935024 C19.3372249,60.3553498 19.6715884,60.7685614 20.0859857,61.1023321 C20.5021615,61.5185079 20.9207088,61.8481287 21.3368846,62.100087 L21.4175113,62.1860492 C21.6682839,62.4338576 22.0014617,62.5992609 22.332861,62.7634784 C22.5836336,62.9359957 22.9174043,63.101399 23.1675841,63.267395 C23.5825742,63.6011657 23.9969716,63.8513455 24.497924,64.0173416 C24.6633272,64.0991539 24.8316946,64.1827448 24.9123213,64.2645571 C25.083653,64.4305532 25.3326471,64.5947707 25.6640463,64.680733 C25.8324138,64.7672881 25.9990027,64.846729 26.0802222,64.9326913 C26.5793961,65.266462 27.1651251,65.432458 27.6631133,65.5966756 C28.2446923,65.7620788 28.7444591,66.0140371 29.2448186,66.2612527 C29.5785893,66.4296201 29.8263977,66.5956162 30.1601684,66.5956162 L30.4097553,66.6774285 C30.6599351,66.6774285 30.826524,66.7639836 31.0761109,66.845796 C31.2415142,66.9293868 31.4911011,66.9293868 31.6618399,67.0977543 C31.910834,67.1771952 32.1598281,67.3449698 32.3252313,67.427375 L32.5742254,67.5969282 C32.9921798,67.8471079 33.490168,67.8471079 33.9075296,67.7611457 L34.3219269,67.6793333 C34.5721067,67.5969282 34.8228793,67.5969282 35.0718734,67.5109659 C35.2372766,67.5109659 35.3208675,67.427375 35.4868636,67.427375 C36.0725925,67.427375 36.6541716,67.2631575 37.2363435,67.0111992 C37.6531122,66.845796 37.9868829,66.7639836 38.4848711,66.6774285 L38.7338652,66.5956162 C39.1524124,66.5120253 39.5685883,66.4296201 39.9829856,66.3478078 C40.1489817,66.3478078 40.2337582,66.2612527 40.40094,66.2612527 L41.3992877,66.1818117 C42.4000069,66.0958494 43.3965761,66.0958494 44.4802933,66.0140371 C45.2314255,66.0140371 46.0619987,65.9298534 46.8913862,65.848041 C47.1427516,65.7620788 47.4771151,65.848041 47.7261092,65.848041 C48.2270616,65.848041 48.807455,65.9298534 49.3078146,65.9298534 C50.2237572,66.0140371 51.2238835,66.0958494 52.1392332,66.0958494 C52.6372214,66.0958494 53.2229504,66.1818117 53.7197529,66.1818117 C53.9699327,66.1818117 54.3042962,66.2612527 54.5532903,66.2612527 C54.720472,66.2612527 54.8858753,66.2612527 55.0542427,66.3478078 C55.4698257,66.3478078 55.8871873,66.4296201 56.3828041,66.4296201 L57.966288,66.4296201 L58.5502384,66.4296201 C58.8816377,66.4296201 59.2154084,66.4296201 59.549179,66.3478078 L59.7975803,66.3478078 C60.546934,66.2612527 61.2939163,66.2612527 61.9620504,66.2612527 C62.299971,66.2612527 62.5477794,66.2612527 62.7955878,66.3478078 C63.0457676,66.4296201 63.293576,66.3478078 63.4631291,66.3478078 C63.7139018,66.3478078 63.879305,66.2612527 64.1271134,66.2612527 L64.5426964,66.1818117 C64.8770599,66.0958494 65.2084592,66.0140371 65.5446012,65.848041 L65.7924097,65.7620788 C66.0402181,65.6826378 66.2097712,65.5101205 66.4575796,65.432458 C66.7077594,65.3459029 66.8737555,65.266462 67.1251209,65.266462 L67.2893385,65.266462 L68.2882791,65.266462 C68.8740081,65.3459029 69.3719963,65.266462 69.8676131,65.1804997 C70.3715297,65.0150965 70.8695179,64.9326913 71.3675061,64.7672881 L71.534095,64.680733 C71.9567921,64.5947707 72.3688181,64.4305532 72.6172194,64.1827448 C72.95099,63.9307865 73.2847607,63.7653832 73.7021222,63.679421 C73.8663398,63.679421 73.9528948,63.6011657 74.1194838,63.6011657 C74.4479188,63.5146106 74.7010628,63.5146106 75.0294979,63.4316126 C76.0337741,63.3492074 76.9497167,63.0154367 77.7814755,62.685816 C78.2764995,62.4338576 78.8663784,62.1860492 79.3619952,61.7698734 L79.5262128,61.6839111 C80.0301294,61.2706995 80.530489,60.8503737 81.0261058,60.4347907 C81.6076849,59.935024 82.1945995,59.3534449 82.7761786,58.5199075 L82.8568053,58.4380952 C83.023987,58.6023127 83.1882046,58.767716 83.3607219,59.0196743 C83.6915283,59.5176625 84.0258918,60.0215791 84.4402892,60.4347907 C84.4402892,60.4347907 84.4402892,60.520753 84.52388,60.520753 C84.8552793,61.1023321 85.2696767,61.6003203 85.6894096,62.100087 C85.937218,62.3514525 86.1043997,62.685816 86.3545795,62.9359957 C86.4381704,63.101399 86.5187971,63.1814328 86.6047593,63.267395 C86.7725339,63.4316126 87.0227137,63.5146106 87.2728935,63.4316126 C87.5207019,63.4316126 87.6878836,63.267395 87.7685103,63.0154367 C87.8521012,62.9359957 87.8521012,62.8500335 87.9350992,62.7634784 L88.0216543,62.7634784 C88.4360516,62.8500335 88.7674509,62.685816 88.937004,62.2654902 C89.0176307,62.100087 89.1012216,61.9340909 89.1871838,61.8481287 C89.2707747,61.6839111 89.3514014,61.5185079 89.4349922,61.3501405 C89.5185831,61.1841444 89.5998026,61.0187412 89.5998026,60.7685614 C89.6857649,60.3553498 89.6857649,59.8514331 89.7663915,59.4394072 L88.937004,58.767716 L88.937004,58.3545043 C88.937004,58.1037317 89.0176307,57.769961 89.0176307,57.5221526 C89.2707747,56.2730322 89.5209545,54.8579158 90.2673439,53.6087954 C90.3533062,53.4433921 90.5198951,53.1926195 90.6847055,53.0266234 L90.7677035,52.9406612 C91.0155119,52.6928528 91.0155119,52.5274496 90.848923,52.1907147 C90.9348853,52.0253115 91.0155119,51.8599082 90.9348853,51.6956907 C90.848923,51.5261376 90.7677035,51.3613272 90.5198951,51.3613272 C90.2673439,51.2753649 90.1031264,51.3613272 89.8523538,51.4478823 C89.5209545,51.6120998 89.1871838,51.8599082 88.937004,52.1112737 L88.6891956,52.363232 C88.4360516,52.6110404 88.2718341,52.8618131 88.0216543,53.1926195 C87.6036999,53.6906077 87.3564843,54.358149 87.1922668,55.1057242 C87.1922668,55.2740916 87.1063046,55.5219 87.0227137,55.6873032 L87.0227137,55.8556707 C86.8584961,56.3589945 86.7725339,56.8575755 86.7725339,57.3525995 C86.7725339,57.9389213 86.6913144,58.4380952 86.5187971,58.8536782 C86.4411346,59.1056365 86.4411346,59.2698541 86.4411346,59.5176625 C86.4411346,59.6042176 86.4411346,59.7696208 86.3545795,59.8514331 C86.2769171,60.1869823 86.190362,60.520753 86.1043997,60.7685614 C86.0208089,61.0187412 86.0208089,61.1841444 85.937218,61.4361027 L85.937218,61.5185079 L85.6087829,61.1023321 C85.4416012,60.8503737 85.1914214,60.520753 85.0272038,60.2687947 C84.8600221,60.1033914 84.7740598,59.8514331 84.6098423,59.6830657 L84.2731074,59.2698541 C84.0258918,58.9360834 83.6915283,58.5199075 83.4389772,58.1902868 C83.2741668,57.9389213 83.1099493,57.769961 82.9433604,57.5221526 C82.7761786,57.2749371 82.6925877,57.108941 82.6925877,56.7710204 C82.7761786,56.1894413 82.9433604,55.5219 83.2741668,54.7719535 C83.3607219,54.5241451 83.5249394,54.2721868 83.7774906,54.1079692 C84.2731074,53.6906077 84.7740598,53.2785818 85.2779765,52.9406612 L85.4416012,52.775258 C85.8565913,52.4414873 86.190362,52.1907147 86.6047593,51.8599082 C87.5207019,51.1099617 88.4360516,50.6107878 89.3514014,50.2805742 C89.4349922,50.2805742 89.5998026,50.194612 89.6857649,50.1122068 C90.1031264,49.8608413 90.6011146,49.7814003 91.1826937,49.7814003 C91.5170572,49.7814003 91.7696083,49.7814003 92.103379,49.6948453 L92.5154049,49.6948453 C93.3471638,49.6948453 94.1824797,49.6948453 95.0142386,49.9468036 C95.4316001,50.1122068 95.9295883,50.1122068 96.3416143,50.194612 C96.6807205,50.2805742 97.0957107,50.2805742 97.42711,50.2805742 C97.510108,50.2805742 97.5913275,50.2805742 97.6772898,50.3600152 C97.6772898,50.3600152 97.7608806,50.3600152 97.7608806,50.4459775 C98.3448311,50.8621533 98.9293744,51.1099617 99.5969157,51.2753649 C99.675171,51.2753649 99.7611332,51.2753649 99.7611332,51.3613272 C99.7611332,51.8599082 100.011906,52.2772698 100.342712,52.5274496 C100.426303,52.6110404 100.426303,52.6928528 100.507523,52.775258 C100.591114,52.8618131 100.591114,52.9406612 100.677076,53.0266234 C100.760074,53.1066573 100.841293,53.2785818 101.008475,53.356837 C101.506463,53.77657 102.009787,54.0249712 102.421813,54.1945243 C102.755584,54.2721868 103.092319,54.4423327 103.337163,54.6925125 C103.587343,54.8579158 103.841079,55.0239118 104.088295,55.1057242 C104.503285,55.2740916 104.837056,55.3576825 105.254417,55.5219 L105.504597,55.6078623 L105.504597,55.9416329 C105.254417,56.2730322 105.254417,56.6892081 105.504597,57.108941 C105.588188,57.188382 105.588188,57.2749371 105.671779,57.3525995 L105.752998,57.5221526 C105.835996,57.769961 106.086769,57.9389213 106.417575,57.9389213 L107.08571,57.9389213 C107.41948,58.0177694 107.335889,58.3545043 107.08571,58.6023127 M75.0377977,92.4850741 L75.0377977,92.5710363 L75.0377977,92.9012499 L75.0377977,93.7383444 C75.0377977,93.9025619 75.0377977,93.9861528 74.9518355,94.1509632 C74.9518355,94.2369254 74.9518355,94.3157735 74.8652804,94.4023286 L74.8652804,94.5683247 C74.8652804,94.7360993 74.7870251,94.9880576 74.7870251,95.1522751 L74.7870251,95.3176784 C74.7870251,95.8174451 74.7870251,96.3990242 74.7010628,96.8970124 C74.7010628,96.7327948 74.6151006,96.6492039 74.6151006,96.4849864 L74.5344739,95.9816626 C74.4479188,95.4042335 74.3666993,94.8185045 74.2837013,94.2369254 C74.2837013,93.9861528 74.2001104,93.6523821 74.2001104,93.4004238 C74.2001104,93.3209828 74.2001104,93.1526154 74.1194838,93.070803 C74.1194838,92.9012499 74.0358929,92.8229946 74.0358929,92.6575914 C74.3666993,92.5710363 74.7870251,92.5710363 75.0377977,92.4850741 M29.9111743,116.296024 C29.8263977,116.547982 29.6598088,116.795791 29.4938127,116.964158 C29.4938127,117.045971 29.4108147,116.964158 29.4108147,116.964158 L29.2448186,116.964158 C28.9964174,116.964158 28.8304213,116.881753 28.6596825,116.71635 C28.578463,116.630388 28.4142455,116.547982 28.3294689,116.547982 C28.2446923,116.547982 28.1640657,116.464392 28.0804748,116.464392 C27.9150716,116.464392 27.7478898,116.547982 27.5795224,116.630388 L27.4947458,116.71635 C27.2487159,116.630388 27.1651251,116.464392 27.0803485,116.213619 C27.0803485,115.879848 26.999129,115.632633 26.7477635,115.380674 C26.6641726,115.298269 26.6641726,115.214678 26.6641726,115.128716 C26.6641726,114.382919 26.5793961,113.635937 26.4987694,112.884805 C26.4987694,112.634032 26.4987694,112.382074 26.5793961,111.969455 L26.6641726,111.632127 C26.8337258,111.053513 26.9143524,110.385971 27.0803485,109.803799 C27.2487159,108.972633 27.4947458,108.056691 27.830295,107.223153 C27.9150716,106.971788 28.0804748,106.721015 28.2446923,106.473207 C28.578463,105.97759 28.911048,105.474266 29.164192,105.05809 C28.6596825,106.1424 28.3294689,107.223153 28.0804748,108.220908 L27.9992553,108.552308 C27.7478898,109.55362 27.4947458,110.63793 27.2487159,111.632127 L27.1651251,111.969455 C27.1651251,112.134858 27.0803485,112.382074 27.0803485,112.550441 C26.999129,112.967803 26.999129,113.383979 27.0803485,113.800155 C27.1651251,114.049149 27.3293426,114.299329 27.4947458,114.382919 C27.7478898,114.551287 27.9992553,114.71669 28.2446923,114.885058 L28.4948721,115.051054 C28.8304213,115.298269 29.164192,115.380674 29.4938127,115.46308 C29.5785893,115.46308 29.5785893,115.46308 29.5785893,115.549042 C29.6598088,115.632633 29.6598088,115.714445 29.745771,115.801 C29.995358,115.966403 29.995358,116.048808 29.9111743,116.296024 M35.3208675,94.4023286 L36.1555906,93.1526154 C36.8219462,92.2372656 37.4041181,91.3219159 37.9868829,90.4065662 C38.2370627,89.9892046 38.489021,89.655434 38.6532385,89.2386653 C38.9034183,88.7394914 39.2336319,88.3233155 39.4849974,88.0761 C39.8999876,87.573369 40.3197205,87.0741951 40.6499341,86.5744284 C40.8989282,86.1588454 41.235663,85.8286318 41.6500604,85.5772663 C41.3992877,86.3242486 41.0684813,87.0741951 40.6499341,87.9101039 C40.483938,88.2415032 40.3197205,88.5752739 40.1531316,88.8260465 L40.068355,89.0738549 C39.6533648,89.9892046 39.2336319,90.7403368 38.7338652,91.4043211 C38.4042444,91.9058664 38.0675096,92.4056331 37.8226654,92.9012499 C37.6531122,93.2350206 37.4883018,93.4869789 37.2363435,93.8207495 C37.1521598,93.9861528 36.9873494,94.1509632 36.9025729,94.3157735 L36.6541716,94.6542869 C36.5729521,94.7360993 36.5729521,94.8185045 36.4881755,94.9015025 C36.1555906,95.4042335 35.7388219,95.9034073 35.4062369,96.3990242 C35.0718734,96.8193499 34.8228793,97.1489707 34.4902943,97.5645537 C34.4902943,97.6481446 34.4055178,97.6481446 34.4055178,97.7341068 L33.9075296,98.2326878 C33.490168,98.6500494 33.0751779,99.0620753 32.6607805,99.4794369 C32.4100079,99.7296167 32.0762372,100.063387 31.7424666,100.480749 C32.5742254,99.1480376 35.2372766,94.6542869 35.3208675,94.4023286 Z M96.8196237,53.0268606 C96.8196237,53.1928566 96.9032145,53.274669 96.9032145,53.274669 C97.1510229,53.5266273 97.1510229,53.8562481 96.9032145,54.1082064 C96.4864458,54.441977 96.0684915,54.6927497 95.5705033,54.6927497 L95.4869124,54.6927497 C94.9889242,54.6927497 94.4903431,54.441977 94.1518297,54.0252083 C93.9870194,53.8562481 93.9870194,53.4430364 94.1518297,53.274669 C94.4043809,53.1063016 94.5768982,52.9408983 94.7411158,52.6930899 C94.8193711,52.5276867 95.0725151,52.5276867 95.1531417,52.5276867 L95.4009501,52.5276867 L95.4869124,52.5276867 L95.5705033,52.5276867 C95.7400564,52.4411316 95.8183117,52.4411316 95.9042739,52.4411316 C96.4052263,52.4411316 96.738997,52.6112776 96.8196237,53.0268606 Z" id="dog"></path>
        </g>
    </g>
</svg>