<svg width="120" height="120" preserveAspectRatio="xMidYMid meet" viewBox="0 0 120 120" xmlns="http://www.w3.org/2000/svg"><g fill="none" fill-rule="evenodd"><path d="M100.108 84.592c-2.926-3.949-6.775-8.087-7.112-13.258-.297-4.552 3.381-8.263 2.982-12.942-.706-8.276-9.2-14.034-15.676-17.87-8.596-5.094-18.453-8.183-28.398-9.046-9.618-.835-20.873-.38-28.818 5.816-5.919 4.616-8.957 12.652-6.33 19.658a9.75 9.75 0 0 0-.162.91c-.195.862-.38 1.73-.544 2.6-.694.185-1.282.72-1.449 1.674a33.072 33.072 0 0 0-.412 7.889c-.152.38-.223.812-.174 1.294.086.854.3 1.591.602 2.252A34.693 34.693 0 0 0 19.17 85.69a30.734 30.734 0 0 0 2.733 3.78l.006.008c.349.461.74.897 1.165 1.309 5.051 5.377 11.76 8.854 18.822 11.345 10.373 3.66 21.18 6.245 32.039 7.959 8.485 1.34 20.15 3.17 27.335-2.908 7.355-6.22 3.626-16.13-1.162-22.591" fill-opacity=".9" fill="#F8DA69"/><path d="M71.647 12.673c-1.294-1.005-3.073-1.213-4.312.085-1.14 1.196-1.462 2.838-1.225 4.477-.443 1.11.007 4.2-.264 5.354-.318 2.87-.308 4.173-.083 7.097.066.862.364 1.362.405 2.226.02.4.03.807.087 1.203.004.04.012.078.017.117.215.213.437.422.664.627a6.03 6.03 0 0 0 .81-.419c.007-.034.008-.066.02-.101.759-2.49 1.193-5.039 2.148-7.436a61.02 61.02 0 0 1 .369-2.002.91.91 0 0 1 .238-.464c.29-2.74.543-5.485 1.558-8.081.144-.37.13-.726.015-1.047.243-.531.178-1.15-.447-1.636" fill="#FF9E1F"/><path d="M71.011 10.998c-.137-.877.12-1.666.46-2.438a8.478 8.478 0 0 0-.115-1.15c.033-1.16-.75-1.072-.75-1.072-.01-.146-.024-.291-.038-.437-.133-.092.191-2.737-.37-1.879-.162.222-.55 1.488-.61.974-.043-.183 0-.463-.22-.463-1.176 0-.618 3.865-.738 4.452.062.674.132 1.348.122 2.026-.002.133-.084.833-.122.937.268.212.657-.246 1.056-.263.599-.027 1.04-.282 1.333-.675-.002-.005-.007-.007-.008-.012" fill="#A5CD48"/><path d="M77.028 103.73c-1.47-6.965-1.036-20.195-1.344-27.308-.152-3.506-.126-7.006-.036-10.512.063-2.408.046-4.817-.38-7.171l1.828-.362c2.911-.575 1.66-4.941-1.22-4.427-1.064.19-2.127.384-3.19.578a2.824 2.824 0 0 0-1.475.252c-.043.018-.087.03-.13.046a575.639 575.639 0 0 0-23.758 4.929c-1.571.126-3.143.241-4.714.356-.615-.257-1.338-.174-1.959.144-.502.035-1.003.077-1.504.111-1.548.105-3.155 1.968-2 3.487.624.822.962 1.788 1.146 2.814-.231 2.785.026 5.604.262 8.428l.166 6.832c-.201.48-.325.975-.313 1.461.033 1.277 1.242 2.439 2.072 3.428-.009 3.423-.018 6.846-.016 10.27 0 .412.082.762.218 1.055.118 3.252.952 6.393 2.397 9.37.808 1.664 4.014-.126 4.054-.189 2.677 2.104 30.754-3.04 29.896-3.592" fill="#FFF"/><path d="M82.901 58.397c-.509-9.38.758-8.517-1.402-16.357-.015-.05-.038-.093-.055-.14.068-.219.138-.436.201-.656.417-1.455-.961-2.664-2.35-2.35l-.968.218a2.274 2.274 0 0 0-.425-.318c-.4-.566-1.087-.918-1.962-.686l-3.637.96a2.181 2.181 0 0 0-.485.193l-1.288.36c-.038.01-.07.028-.107.04-12.358 1.697-24.717 3.393-37.075 5.087a1.46 1.46 0 0 0-1.052.645l-3.32.476a1.489 1.489 0 0 0-.996.569l-.018-.06c-.673-2.24-4.215-1.274-3.512.968.955 3.043 2.82 25.531 4.046 22.249.578-1.546 2.366-1.999 2.809-2.65 1.676-.045 3.9 1.038 3.545.142 3.197-1.754-.096-3.084.38-3.807 1.327-2.021 4.442-2.726 6.682-3.319 2.803-.74 5.683-1.255 8.535-1.768a181.396 181.396 0 0 1 18.788-2.356c.195-.014.368-.058.53-.115.409.326 1.148-.347 1.76-.136.102.035-.095-.023.983-.424-.016 3.619.265 6.508 1.047 10.05.174.784.104 5.606.758 5.698.836.624 3.8.403 4.343-.618.033-.062 4.522 1.82 3.736.068-.502-1.12.065-.53 1.242-.925 1.506-.504.337-7.827-.733-11.038" fill="#E9F0FA"/><path d="M83.984 67.238a30.697 30.697 0 0 0-3.51 2.977c-.824-.553-1.843-.779-2.868-.49l-.98-.439c-1.209-.54-2.912.066-2.834 1.627.315 6.39 1.564 12.664 2.468 18.985.45 3.155.775 6.32.846 9.507.045 2.07-.544 2.558-.347 4.6-5.498.212-2.512-.068-7.85 1.3-4.94.13-10.78 1.928-15.723 1.811-4.577 1.612-9.16-1.924-10.377-2.019-.131-.133-1.069-6.94-1.2-7.073-2.226-11.012-1.99-31.021-3.562-32.69-.92-.978-3.514-.47-3.807.88a44.684 44.684 0 0 0-.446 2.397c-.392.015-.732-.007-.674.002-.673-.106-1.321-.466-1.926-.752-1.409-.668-2.731.305-2.698 1.734-.657.385-1.096 1.118-.845 2.073.222.884 3.143 33.26 3.157 33.609.057 1.43.227 3.08.593 4.696.17 1.346.337 2.691.51 4.036.173 1.364 1.44 2.003 2.48 1.827.862.63 1.902.676 2.993.685.3.363.736.592 1.3.526a45.495 45.495 0 0 1 4.063-.271c.599.05 1.199.09 1.79.139 2.732.231 5.47.373 8.21.428.091.002.182.001.272.003.236.11.513.181.833.203 5.316.354 10.6-.013 15.831-1.017a1.6 1.6 0 0 0 1.165-.887c.864-.104 1.728-.21 2.591-.322a2.073 2.073 0 0 0 1.683-1.287c2.422-.483 4.838-.993 7.25-1.534.053-.012.097-.034.147-.05.062.02.122.041.187.053.041.008.079.01.119.017.318.405.8.675 1.437.64 1.052-.058 1.834-.346 2.568-1.125a2.11 2.11 0 0 0 .442-.699c.706-1.174-.105-3.985-.103-3.992.126-.328-1.93-41.026-3.185-40.108" fill="#FAE1A9"/><path d="M32.672 27.346c-3.752 4.077-4.455 3.303-5.201 8.057-.447 2.849-.78 4.974.327 7.817.958 2.462 2.173 6.366 4.358 7.135 2.185.77-.542-10.144-.208-13.501.35-3.537 2.014-7.089 5.724-9.111 1.277-.695 2.355-1.306 2.177-2.24-.136-.71-4.306-1.276-7.177 1.843m11.886 13.647c.008-.014-.625-.513-.617-.528a2.55 2.55 0 0 0 .117-.24c.108-.052.28-.051.46-.046a.744.744 0 0 1 .546-.486c.706-.183.982-1.255.62-1.865-.23-.389-.651-.429-.987-.698-.482-.389-.418-.722-1.165-.611-.34.05-.78-.02-.942-.384-.295-.662-.821-.833-1.402-.76-.53.469-.91 1.04-.92 1.04-.816-.035-1.462-.59-2.047.726-.85 1.913.848 2.52.847 2.57-.87.263-1.544 1.302-.683 1.937.957.705 1.895.56 2.951.086 0 0 1.054-.493 1.14-.506.095.177.657.313.723.506.279.805.89 2.017.89 2.017s-.317 1.215.807 1.085c1.123-.129 1.498-.18 1.171-.746-.95-1.647-.541-1.711-1.51-3.097m33.34-5.213c-.789-.442-1.647-.474-2.482-.76-.619-.211-1.04-.471-1.657-.606-1.097.095-1.897.725-3.083 1.238a.969.969 0 0 1-.374.08c-.906.497-1.55 1.225-2.052 2.176-.018.034-.04.06-.06.088a3.955 3.955 0 0 1-.212.626c-.17.344-.464.451-.748.404-.094.101-.199.21-.332.339-.02.02-.041.033-.062.05.013.023.023.047.036.07a3.149 3.149 0 0 0-.94 1.317c-.054.147-.092.29-.124.433l-.014.024c.246.48.304 1.125.385 1.592.076.432.203.915.385 1.337.228.177.48.328.75.443.031.013.062.021.093.033 1-.098 1.658-.67 2.645-1.082.79-.33 1.491-.092 2.2.322.638.373 1.097.811 1.397 1.315.053.014.106.028.158.039.592.997.802 2.16.973 3.314.708-.035 1.38-.093 2.028-.21.393-.216.84-.437 1.255-.683-.365-.527-.644-1.124-.982-1.69-.455-.764-.809-1.487-1.033-2.259a1.666 1.666 0 0 0-.23-1.143 6.898 6.898 0 0 1-.037-.496c-.294-.981.197-1.827 1.22-2.04.417-.088.832-.099 1.247-.18.406-.256.764-.533 1.028-1.055.04-.078.073-.154.105-.23.2-1.065-.178-2.076-1.483-2.806" fill="#A5CD48"/><path d="M54.084 32.862c1.826-1.904 4.258-3.278 5.524-5.658.196-.368.497-.492.798-.461.12-1.319-.377-2.598-1.311-3.87-2.063-2.806-2.783-6.323-1.87-9.676a3.53 3.53 0 0 0 .321-1.828 4.297 4.297 0 0 0-.973-2.535c-1.575-2.32-4.669-3.376-7.483-2.424-3.74 1.267-6.01 5.453-7.106 9.021-1.165 3.799-.965 7.684.85 11.25 1.62 3.185 4.087 5.833 6.06 8.79.486.73 1.189 1.125 1.952 1.266 1.007-1.35 2.066-2.654 3.238-3.875m4.632-1.964c-1.947 2.089-2.924 3.706-4.894 5.775-1.403 2.054-2.706 4.207-4.251 5.996-1.594 1.847 1.515 4.028 3.092 2.19 1.583-1.846 2.994-3.816 4.336-5.842 1.28-1.933 3.941-3.053 3.628-5.394-.351-2.63-.354-3.13-1.911-2.725" fill="#EC6B55"/><path d="M58.443 39.544c-1.005 1.759-1.296 2.337-2.671 3.808-1.212 1.297-2.357 2.758-4.157 3.18-2.364.555-1.645 3.732.664 3.614 2.322-.119 3.545-.727 4.229-2.8.497-1.508 2.475-2.978 3.252-3.757.779-.78 2.034-1.033 1.894-2.373-.243-2.318-1.052-3.075-1.87-2.883-.483.114-.969.56-1.341 1.211" fill="#EC6B55"/><path d="M59.379 46.49c-1.319 1.921-3.554 5.133-6.195 4.923-1.951-.155-2.83 3-.788 3.493 3.552.858 5.308-1.324 7.365-4.153.44-.606 1.14-1.077 1.124-1.763-.029-1.194-.686-3.8-.686-3.8s-.58.95-.82 1.3" fill="#EC6B55"/><g fill="#1D6C93"><path d="M74.068 24.227a.499.499 0 0 0 .075-.054.55.55 0 0 1 .182.06c.057.042.11.12.165.202.031.046.063.093.098.139l.02.027c-.03.092-.046.087-.095.074l-.128-.034a2.14 2.14 0 0 1-.33-.101l.001-.005a.74.74 0 0 0 .012-.308m.405 1.195c.044 0 .09-.003.132-.009a.708.708 0 0 0 .505-.297c.03-.033.077-.083.097-.158.07-.265.137-.532.204-.798l.089-.353-.358-.226-.113.125a1.09 1.09 0 0 1-.038.036.645.645 0 0 0-.108.122.727.727 0 0 0-.517-.389.584.584 0 0 0-.563.185l-.016-.004.003.018a1.8 1.8 0 0 0-.11.13 1.946 1.946 0 0 1-.07.084.942.942 0 0 0-.24.685.775.775 0 0 0 .272.54c.231.195.545.309.831.309m-11.521-1.413l-.016-.032c-.09-.178-.04-.224.05-.274l.156-.092c.17-.1.33-.197.493-.25.013.018.028.038.038.054.083.12.177.257.32.295 0 .01-.008.042-.013.063a.581.581 0 0 0-.021.17l-.017.01c-.105.067-.203.13-.29.143-.11.017-.244-.009-.386-.037a4.054 4.054 0 0 0-.226-.039l-.088-.011zm-.868-.088c.002.057.004.136.049.213.18.311.366.621.55.93l.263.439.453-.102-.008-.17c-.002-.025 0-.052 0-.08a.632.632 0 0 0-.07-.365.933.933 0 0 0 .98-.047c.392-.265.35-.645.318-.922-.006-.052-.012-.104-.015-.155a1.23 1.23 0 0 0-.41-.854.991.991 0 0 0-.74-.244c-.46.04-.926.283-1.183.62-.167.219-.233.458-.19.692l.003.045zm16.632 47.767c-.46-.255-.982-.214-1.551.123-.6.354-.93.902-1.173 1.393a.78.78 0 0 0-.026.65.93.93 0 0 0 .568.513l.294.102-.028-.31a2.927 2.927 0 0 0-.04-.271c-.026-.143-.051-.277-.022-.356.223-.602.617-.99 1.173-1.153.218-.065.417-.05.56.044.138.09.226.247.254.457.026.19.028.384.03.59.002.154.003.308.015.46.009.12.057.513.298.548a.823.823 0 0 0 .603-.154c.164-.134.315-.282.46-.426.134-.131.267-.263.41-.382.138-.116.279-.16.397-.126.113.031.205.137.258.298.102.3.15.63.181.883.091.755-.163 1.44-.431 2.165l-.113.309c-.214.594-.09.973.05 1.187.141.211.437.47 1.053.504.061.003.123.004.186.004.293.001.464.012.583.208.169.276.133.824-.069 1.066-.14.165-.283.326-.427.486l-.326.367.334.345.145-.131c.079-.072.162-.14.246-.209.202-.164.41-.335.565-.555.356-.507.412-1.047.157-1.52-.243-.452-.677-.704-1.221-.708-.333-.003-.545-.061-.63-.173-.085-.113-.083-.335.007-.661l.027-.101c.03-.116.059-.225.103-.32a4.677 4.677 0 0 0 .316-3.17c-.117-.476-.41-.82-.806-.944-.391-.122-.822-.01-1.183.308-.143.127-.289.25-.447.386 0-.07.001-.136.005-.202.045-.677-.235-1.218-.785-1.524M33.416 82.4c.618-.06 1.107.254 1.62.588.111.072.222.144.334.213.454.274.761.048.927-.073.15-.11.232-.28.305-.431.027-.056.053-.113.084-.164l.093-.158-.353-.254-.154.06a.608.608 0 0 0-.195.094c-.338.267-.409.268-.757.006a3.445 3.445 0 0 0-.389-.25c-.821-.463-1.632-.54-2.282-.218-.65.322-1.08 1.013-1.21 1.947-.03.21.039.409.105.602.025.075.05.149.069.223l.042.17.63-.064-.087-.242c-.207-.58.057-1.05.337-1.55.168-.3.44-.454.88-.498M77.49 34.998l.07.272.235-.154c.403-.265.34-.571.301-.754a1.44 1.44 0 0 1-.017-.093c-.03-.21-.06-.425.01-.59.093-.218.466-.282.74-.202.462.133.872.383 1.178.587.143.095.249.227.362.367.068.085.137.17.215.25.126.13.295.218.459.304.205.108.349.19.405.294l-3.488-.12.873.417c.536.256 1.03.383 1.501.383.417 0 .816-.1 1.21-.299l.11-.056a1.39 1.39 0 0 0 .135.047l.19.077.074-.191c.007-.017.018-.034.028-.052a.727.727 0 0 0 .055-.125l.015-.058a.23.23 0 0 0-.06-.205.39.39 0 0 1-.054-.138c-.05-.18-.147-.508-.695-.471a31.001 31.001 0 0 1-.257-.26c-.192-.195-.383-.39-.588-.579l-.1-.092c-.231-.215-.47-.438-.77-.617-.568-.338-1.888-.245-2.202.264-.317.513-.167 1.01-.023 1.491.03.1.06.2.087.303M73.2 32.667l-.35-.325c-.24-.224-.465-.436-.7-.63-.222-.184-.331-.544-.24-.787.15-.4.3-.8.443-1.202l.02-.056c.147-.415.286-.809.573-1.13.675.643.991 1.48 1.326 2.362.174.459.355.933.591 1.396l.071.14a.884.884 0 0 0 .03.267c.02.083.027.131.023.165l-1.668-.092-.118-.108zm-1.768-2.392c-.046.134-.073.272-.1.406-.04.198-.078.385-.167.521-.288.443-.018.696.144.846l.035.033c.07.065.152.12.235.174.09.058.175.113.213.174.263.416.65.483 1.06.553l.451.084c.017.04.028.072.036.096.02.06.047.136.126.183.344.204.705.307 1.07.307.24 0 .482-.045.721-.135.21-.08.38-.363.393-.564a2.082 2.082 0 0 0-.066-.563 4.927 4.927 0 0 1-.045-.224l-.044-.266-.13.062a.317.317 0 0 0 .005-.17c-.048-.184-.123-.356-.195-.522l-.039-.088c-.298-.695-.597-1.39-.901-2.083-.187-.425-.426-.906-.9-1.24-.189-.133-.358-.183-.517-.149-.145.03-.27.127-.368.29a8.02 8.02 0 0 0-.509.947c-.17.39-.332.813-.508 1.328zm8.606 66.757c.056-.13.11-.258.158-.39.26-.725.745-1.291 1.44-1.683.34-.188.45 0 .492.071.189.325.402.711.537 1.116.072.218.102.453.135.7.017.135.034.269.059.401.057.315.191.529.398.635.207.106.46.09.75-.046.63-.298 1.057-.79 1.359-1.185.316-.414.632-.877.716-1.58l.08-.653-.57.657c-.059.069-.103.12-.149.17l-.366.397c-.427.464-.854.927-1.292 1.381-.035.036-.135.078-.136.09-.037-.021-.106-.13-.113-.218-.061-.678-.153-1.248-.404-1.818-.208-.473-.543-.8-.943-.923-.377-.116-.784-.045-1.176.204-1.11.703-1.556 1.842-1.795 2.637-.09.3-.108.614-.126.935a.73.73 0 0 0 .178.55c.138.149.341.232.59.24l.51.015-.361-.36c-.245-.242-.281-.506-.133-.938.047-.138.105-.272.162-.405M61.093 37.984a.9.9 0 0 0-.841.075c-.366.237-.68.54-1.025.884a19.682 19.682 0 0 0-2.206 2.622c-.116.161-.214.333-.31.5a5.288 5.288 0 0 1-.29.47 184.933 184.933 0 0 1-2.258 3.081c-.25.334-.52.682-.837.959-.38.332-.781.654-1.17.965-.3.24-.6.48-.893.727-.133.112-.189.278-.238.425l-.029.08c-.051.138.053.262.15.342l.132.105.123-.076c.13-.08.257-.16.37-.268a4.96 4.96 0 0 0 .314-.339c.192-.219.372-.426.586-.525.789-.368 1.301-.964 1.698-1.499.731-.984 1.457-1.996 2.158-2.976l.504-.703c.179-.25.351-.504.523-.76.342-.506.696-1.03 1.098-1.491.538-.615 1.19-1.158 1.82-1.683l.095-.079c.099-.082.202-.113.287-.085.081.025.145.102.173.21l.243.912c.166.626.332 1.251.504 1.875.052.187.034.231-.064.306a.36.36 0 0 0-.125.207l-.047-.03-.946.52.102.17c-.08.048-.154.097-.224.157l-.49-2.94-.266.206c-.169.13-.262.38-.27.723-.011.554.213 1.328.608 1.661l.416.352-.021.016c-.183.17-.367.338-.551.506a36.855 36.855 0 0 0-1.618 1.539c-.567.585-1.205 1.284-1.591 2.172l-.026.06a5.804 5.804 0 0 1-.387.78l-.085.136c-.238.378-.484.77-.782 1.09l-.066.07c-.393.425-.765.826-1.34.857-.432.023-.865.036-1.299.05-.39.01-.782.022-1.172.041a.76.76 0 0 0-.342.127c-.034.02-.067.039-.1.054l-.368.17.357.191a.972.972 0 0 1 .093.06c.094.063.21.143.352.143h.004l.129-.001c.775-.01 1.577-.018 2.364-.083.21-.017.734-.09 1.062-.385.653-.587 1.272-1.179 1.669-1.952.612-1.197 1.295-2.448 2.323-3.44.285-.276.58-.542.876-.809.17-.153.34-.307.508-.462l.124-.114c.231-.213.463-.426.682-.651.129-.133.242-.278.353-.418l.06-.077.3.095.087-.106c.036-.045.101-.086.17-.13.185-.121.496-.322.349-.798-.116-.37-.203-.676-.273-.963-.077-.308-.15-.617-.223-.925a52.337 52.337 0 0 0-.25-1.039c-.102-.405-.387-.744-.743-.884"/><path d="M60.465 50.235a6.99 6.99 0 0 1-.513.496 7.442 7.442 0 0 0-.551.533c-.16.18-.3.375-.435.565-.148.207-.288.404-.452.577l-.225.24c-.514.55-1 1.07-1.661 1.415l-.047.024c-.403.21-.785.41-1.23.462-.35.04-.695.12-1.028.196-.145.033-.29.066-.436.096l-.129.026-.095.435.16.063c.036.014.071.03.107.046.095.044.204.093.325.11.152.023.3-.008.456-.04.198-.042.427-.075.671-.11.743-.107 1.586-.23 2.195-.624.602-.389 1.808-1.919 1.907-2.103.444-.82 1.082-1.6 1.707-2.087.397-.309.996-.775.87-1.621-.041-.273-.065-.548-.09-.824-.024-.274-.048-.549-.087-.821-.055-.375-.124-.842-.295-1.256-.142-.343-.49-.64-.918-.483a3.429 3.429 0 0 0-.884.46c-.276.21-.502.475-.72.732l-.034.04c-.339.397-.688.809-.997 1.243-.238.334-.465.676-.692 1.018-.289.434-.588.883-.902 1.305-.348.467-.737.92-1.113 1.357-.157.183-.314.366-.47.551-.644.768-1.314 1.04-2.111.852l-.13-.027-.079.062c-.037.03-.075.056-.115.084a1.174 1.174 0 0 0-.323.295c-.094.141-.1.32-.103.463l-.003.064c-.024.564.027 1.149.56 1.602.106.09.264.204.455.204a.47.47 0 0 0 .067-.005c.23-.032.384-.227.48-.371l.102-.153-.288-.233c-.122-.1-.242-.196-.364-.289-.047-.036-.101-.06-.15-.082l-.011-.005c-.024-.22-.036-.442-.048-.677l-.004-.07.185.008c.295.013.573.027.843-.05.883-.251 1.45-.915 1.998-1.558l.136-.16c.179-.212.32-.38.568-.504.21-.106.296-.346.38-.578.041-.117.084-.238.138-.323.185-.29.391-.578.59-.856.104-.144.207-.288.308-.434l.436-.63c.317-.458.633-.917.98-1.398a.86.86 0 0 1 .102-.127h.13l.007.007a.57.57 0 0 1 .055.055c.012.237.016.476.02.713.007.329.013.657.036.985.014.195.079.375.141.55.026.07.051.141.072.212l.058.193.485-.143-.009-.16c-.026-.445-.114-1.098-.199-1.729-.055-.407-.11-.816-.15-1.175.028-.04.06-.083.106-.141.042-.048.086-.093.134-.132.135-.11.381-.171.441-.142.12.056.26.28.292.459.085.503.135 1.025.181 1.53l.047.495.005.04c.004.043.013.123.013.134l-.058.082c-.25.354-.51.721-.8 1.042m-18.02-24.496c-.037.646.138.961.232 1.13.016.03.035.065.038.05l-.01.104.055.046c.042.093.155.412.264.723.278.787.698 1.977 1.017 2.516.32.54.64.98.936 1.29.067.093.245.282.53.58.276.29.588.616.763.837.032.04.058.074.072.094l.1.143.014-.007c.124.146.254.286.383.427.368.4.716.778.93 1.266.096.22.27.384.439.543.067.064.135.128.196.195l.134.149.396-.357-.07-.137c-.444-.864-1.042-1.566-1.57-2.138-.07-.085-.388-.531-.696-.963-.35-.489-.68-.95-.76-1.048-.533-.736-.78-1.418-1.018-2.078-.206-.568-.4-1.104-.744-1.583-.272-.5-.646-1.316-.904-1.88l-.02-.228c-.03-.299-.059-.581-.046-.862.036-.876.098-1.802.195-2.914a22.973 22.973 0 0 1 1.096-5.216c.063-.19.125-.379.184-.57.081-.261.16-.523.238-.786.093-.314.186-.628.285-.941.036-.117.07-.234.105-.352.102-.349.198-.677.35-.978.248-.489.53-.974.804-1.443.158-.27.315-.54.467-.813.624-1.114 1.552-1.728 2.839-1.875.427-.048.749.058 1.015.336.253.265.498.537.742.81.189.21.377.421.57.628.554.595.676 1.38.753 2.13.049.48.06.976.07 1.454.007.275.013.55.026.825.007.158.058.327.14.463.193.324.39.645.586.967.262.427.523.853.775 1.285.038.064.077.127.117.19.186.296.347.552.29.909-.072.459-.025.933.025 1.342.128 1.047.595 1.977 1.062 2.908.114.225.24.437.334.587.26.64.54 1.364.562 1.465l.024.062c.04.068.087.289.121.45.045.211.083.393.135.487l.014.033a1.3 1.3 0 0 0 .114.209l.287.535.506-.188-.083-.196c-.027-.064-.11-.427-.171-.691-.097-.42-.15-.642-.187-.742-.046-.203-.275-.764-.759-1.853l-.007-.016h.001l-.07-.156c-.108-.241-.171-.39-.22-.508-.105-.244-.152-.355-.414-.846-.345-.645-.506-1.345-.507-2.202v-.129c.001-.51.002-1.036-.189-1.497-.175-.422-.445-.799-.706-1.163a11.697 11.697 0 0 1-.368-.533 8.878 8.878 0 0 0-.196-.288c-.181-.259-.353-.503-.413-.76-.112-.478-.127-.999-.142-1.502l-.01-.295c-.032-.91-.103-1.792-.598-2.594l-.022-.035a6.828 6.828 0 0 0-.447-.663 95.448 95.448 0 0 0-1.025-1.266l-.175-.214.099.005c.394.02.766.04 1.11.129.362.093.715.311 1.057.521l.136.084c.265.161.523.352.773.536.12.089.24.178.363.264.212.15.36.375.515.614.209.318.423.648.814.839l.009.03a.82.82 0 0 0 .03.088c.33.802.592 1.474.71 2.216.03.192.066.384.101.576.06.318.12.646.154.967.14 1.323.282 2.904.27 4.599-.005.756.692 1.92 1.108 2.615.09.148.162.268.205.35.222.416.444.833.66 1.254.066.13.137.26.209.389.187.339.364.66.456 1l.007.022-.043.062c-.317.458-1.42 1.914-1.88 2.519-.288.379-.587.75-.886 1.12-.232.289-.464.577-.691.868l-.415.531c-.634.813-1.29 1.653-1.911 2.5a38.51 38.51 0 0 0-1.107 1.623c-.132.2-.263.4-.373.57-.097.1-.202.215-.317.341-.235.256-.501.546-.82.85-.224.213-.512.369-.844.55-.166.09-.34.185-.518.294l-.525.319.612.053c.083.008.16.022.233.035.098.018.192.035.283.035a.517.517 0 0 0 .216-.043c.658-.297 1.436-1.207 2.06-1.938l.106-.123a.426.426 0 0 0 .134-.112 1.57 1.57 0 0 0 .093-.137l.02-.035c.059-.066.114-.129.166-.184l.207-.221-.091-.034a4.56 4.56 0 0 1 .116-.176 131.835 131.835 0 0 1 2.184-3.016l.316-.426c.084-.114.166-.23.248-.346.18-.253.365-.515.569-.746.203-.23.42-.45.636-.668.267-.271.544-.551.793-.851.125-.15.383-.43.684-.757.614-.667 1.379-1.498 1.593-1.849.106-.173.008-.338-.053-.421-.133-.462-.319-1.054-.588-1.61a25.142 25.142 0 0 0-.873-1.603 88.465 88.465 0 0 1-.286-.5c-.356-.629-.573-1.232-.66-1.843-.073-.496-.126-1.005-.178-1.497-.04-.39-.081-.78-.131-1.168l-.033-.257c-.177-1.374-.36-2.794-.575-4.187-.136-.876-.439-1.57-.956-2.186-.143-.17-.282-.342-.421-.514-.495-.613-1.008-1.248-1.677-1.757-1.185-.9-2.489-1.23-3.869-.98-.808.146-1.597.421-2.36.687l-.128.044a2.85 2.85 0 0 0-1.435 1.068c-.77 1.08-1.288 2.294-1.79 3.467l-.124.288a24.444 24.444 0 0 0-1.555 5.042 57.06 57.06 0 0 0-.612 4.058c-.103.87-.114 1.768-.118 2.614l-.017.004.027.187c.013.096.002.549-.006.696m17.736 9.995l-.154.142c-.099.091-1.081.927-1.87 1.6-.672.57-1.087.922-1.13.961-.423.389-.668.684-.906.969-.236.284-.46.552-.855.917-.582.538-1.014 1.225-1.32 2.102-.325.933-.726 1.534-1.302 1.949l-1.279.916.26.433.168-.083c.085-.043.17-.088.256-.133.184-.097.358-.189.54-.26.69-.273 1.078-.824 1.453-1.358l.07-.099c.28-.394.452-.839.619-1.269.221-.572.431-1.113.87-1.53l.42-.389c.177-.164.356-.33.52-.487.27-.26.52-.525.77-.789.283-.3.576-.611.892-.904a.467.467 0 0 0 .03-.027c1.53-1.325 2.17-1.855 2.254-1.906l.227-.119-.126-.143.01-.006-.417-.487z"/><path d="M60.223 30.605c-.15-.054-.318-.022-.513.097a12.8 12.8 0 0 0-.89.608c-.083.06-.17.118-.256.177a7.857 7.857 0 0 0-.252.175.779.779 0 0 0-.147.115 1.94 1.94 0 0 0-.308.299c-.313.393-.6.81-.879 1.215-.206.301-.413.603-.63.895a121.15 121.15 0 0 1-1.257 1.643c-.324.418-.648.837-.968 1.259l-.163.215a53.064 53.064 0 0 0-1.515 2.065 31.967 31.967 0 0 0-.809 1.291c-.423.418-1.12 1.937-1.313 2.417-.166.413-.26.85-.35 1.271l-.056.266c-.034.152.059.281.126.375.016.023.031.043.041.061l.24.453.133-.494c.127-.474.944-2.308 1.08-2.5.015-.023.481-.758.715-1.105.02-.03.086-.142.176-.296.207-.354.553-.948.75-1.216a48.85 48.85 0 0 0 1.032-1.496c.423-.63.862-1.281 1.34-1.906l.848-1.104c.607-.79 1.213-1.58 1.817-2.372a6.5 6.5 0 0 0 .236-.328c.05.09.091.16.1.172l.022.225c.049.49.099.997.224 1.483.082.316.23.609.373.892.06.12.122.242.177.364l.077.17.572-.207-.09-.304a4.626 4.626 0 0 0-.092-.295 1.217 1.217 0 0 0-.072-.154.53.53 0 0 1-.055-.125c-.06-.312-.115-.624-.171-.936a81.384 81.384 0 0 0-.225-1.216.693.693 0 0 0-.14-.275l-.001-.092a.9.9 0 0 0 .035-.13c.063-.37.412-.738.706-.742.05 0 .07.009.071.01.018.021.023.125.025.181.005.108.01.23.065.34.23.462.438.948.638 1.418l.207.482c.081.187.158.375.236.563l.179.43.498-.145-.037-.181c-.018-.095-.033-.19-.049-.286a3.6 3.6 0 0 0-.15-.666 53.1 53.1 0 0 0-.484-1.27c-.178-.457-.357-.913-.521-1.374-.08-.223-.192-.358-.346-.412m8.512 57.765c-.276.052-.553.112-.828.172-.276.06-.552.12-.83.172l-.154.029c-1.437.27-2.924.547-4.389.8l-.806.14c-1.575.274-3.204.557-4.811.784-.833.118-1.692.177-2.523.234-.323.022-.646.044-.969.07a1.074 1.074 0 0 1-.389-.035c-.681-.213-1.292.036-1.591.65-.033.068-.033.134-.033.197 0 .026 0 .057-.003.095l-.014.237.236-.025a10.3 10.3 0 0 1 .199-.017c.137-.01.258-.02.376-.046.132-.027.263-.063.393-.099.207-.057.402-.11.599-.13.231-.025.463-.026.709-.028.226-.002.459-.003.69-.024l.51-.045c1.113-.1 2.263-.203 3.39-.354 1.237-.166 2.502-.405 3.618-.616.89-.168 1.777-.35 2.664-.531.507-.104 1.015-.208 1.523-.31l.224-.046c.27-.057.528-.112.784-.12.624-.019 1.182-.233 1.655-.433.121-.051.173-.168.212-.253a.557.557 0 0 1 .03-.064l.119-.2-.214-.089c-.02-.009-.042-.021-.064-.033-.079-.045-.184-.107-.313-.082"/><path d="M88.416 107.738c-.17-2.219-.384-4.98-.423-5.966a402.14 402.14 0 0 1-.067-1.843c-.026-.741-.052-1.482-.083-2.223l-.004-.1c-.052-1.235-.105-2.51-.186-3.765-.05-.783-.114-1.564-.176-2.345a162.66 162.66 0 0 1-.152-1.967c-.07-1.008-.13-2.016-.19-3.024l-.142-2.326a425.286 425.286 0 0 0-.372-5.545l-.164-2.344c-.05-.74-.1-1.48-.161-2.22a354.29 354.29 0 0 0-.238-2.712c-.07-.785-.14-1.57-.207-2.354-.042-.492-.077-.984-.113-1.475l-.038-.511c.076-.048.165-.087.245-.131a3.025 3.025 0 0 1-.164-.96c-.053.022-.107.042-.16.067-.085-.99-.174-1.978-.263-2.967-.162-1.8-.33-3.662-.471-5.494a88.592 88.592 0 0 1-.165-3.104c-.025-.612-.05-1.224-.083-1.836-.04-.746-.095-1.49-.151-2.235l-.036-.49c-.05-.668-.105-1.335-.16-2.003l-.01-.13c-.021-.255-.04-.512-.058-.768a34.412 34.412 0 0 0-.169-1.867c-.083-.653-.304-2.059-.465-3.085-.073-.461-.134-.85-.167-1.068.124-.11.182-.301.148-.525-.043-.271-.193-.471-.384-.532l-.009-.027-.281-.003-.173.027-.004.022c-.382.05-.764.107-1.146.164-.652.1-1.326.201-1.987.257a.544.544 0 0 0-.494.59c.02.282.236.476.523.457.313-.018.583-.029.838-.038.546-.02 1.023-.038 1.683-.134.17 1.09.774 5.338.827 5.995.04.506.109 1.21.182 1.96.113 1.173.242 2.502.288 3.304.057 1.022.113 1.805.169 2.589.054.77.109 1.544.166 2.55.048.839.18 1.422.307 1.985.115.508.233 1.034.297 1.765.136 1.57.285 3.14.434 4.71l.04.433a4.408 4.408 0 0 0-.464.46c-.54.62-1.094 1.283-1.692 2.03-.236.293-.534.372-.965.255a2.996 2.996 0 0 1-.43-.167 5.927 5.927 0 0 0-.28-.12c-.23-.086-.456-.178-.683-.27-.55-.221-1.12-.45-1.704-.61-.822-.225-1.578-.02-2.187.59-.516.517-.653 1.142-.786 1.747l-.037.167c-.148.653-.006 1.24.423 1.745l.196.232.137-.272c.11-.217.16-.423.148-.613a2.746 2.746 0 0 0-.055-.369 1.668 1.668 0 0 1-.049-.412c.018-.278.114-.57.198-.829.166-.51.894-1.371 1.633-1.138.552.175 1.108.374 1.646.567.302.108.603.217.906.321l.25.09c.263.097.537.198.823.244 1.075.177 1.633-.664 2.041-1.276a7.372 7.372 0 0 1 1.036-1.257l.112 1.192c.084.916.16 1.834.235 2.752l.017.202c.068.829.133 1.658.194 2.487l.019.258c.132 1.824.265 3.647.39 5.47.026.37.046.74.065 1.11.03.542.059 1.102.107 1.653.017.202-.018.237-.203.3-.178.062-.38.131-.525.277-.461.459-.91.928-1.367 1.404l-.267.28a3.617 3.617 0 0 0-.747-1.473c-.593-.726-1.842-.994-2.572-.552-.651.396-1.078 1.086-1.115 1.802-.032.636.242 1.206.771 1.606.372.28.749.275 1.15-.018l.422-.306-.518-.057c-.787-.087-1.037-.366-1.069-1.194-.012-.316.156-.516.369-.77.045-.053.09-.108.135-.164a.962.962 0 0 1 .666-.363 1.34 1.34 0 0 1 .952.292c.6.495.92 1.175 1.067 2.273.017.125.052.24.086.352.015.047.029.093.041.14l.05.186.488-.108.009-.152.003-.144c0-.087 0-.168.019-.23l.03-.104c.05-.175.103-.356.197-.466.507-.594.978-1.1 1.44-1.546.124-.12.297-.206.48-.297l.07-.035.077 1.118a787.7 787.7 0 0 1 .31 4.685c.045.711.082 1.423.12 2.135.042.807.085 1.613.137 2.418.034.524.08 1.047.125 1.57.054.61.108 1.241.143 1.862.032.577.04 1.168.05 1.738.005.394.011.789.024 1.183.216 6.49.1 9.239-.088 9.685-4.927.23-10.767 2.198-14.263 3.376-1.37.461-2.452.826-3.029.94-3.456.683-6.18 1.06-8.096 1.12-.85.027-1.702.045-2.553.064-.47.01-.94.02-1.41.032-.184.005-.369.012-.553.019-.315.012-.623.025-.945.024-.508 0-1.016-.007-1.525-.013-.703-.008-1.405-.016-2.108-.011-.891.013-1.603-.092-2.257-.596-.423-.326-.613-.718-.616-1.27-.002-.308.13-.615.345-.802a.58.58 0 0 1 .472-.158c.418.061.838.191 1.214.376.62.304.954.89 1.222 1.476.179.393.42.64.717.737.29.095.616.041.972-.159.341-.192.698-.405 1.124-.673.095-.06.132-.159.158-.23.006-.017.012-.035.02-.05l.059-.119-.258-.303-.137.06a18.8 18.8 0 0 1-.388.165c-.3.127-.61.257-.906.41-.373.193-.449.144-.613-.138a8.543 8.543 0 0 1-.153-.28c-.063-.116-.125-.233-.193-.347-.627-1.043-1.49-1.636-2.566-1.762-.375-.043-.858-.046-1.275.32-.745.654-.891 1.903-.312 2.674a8.2 8.2 0 0 0 .496.587h-.023c-.338.006-.657.012-.978-.009-.71-.044-1.42-.095-2.13-.146a171.93 171.93 0 0 0-2.615-.175 78.678 78.678 0 0 0-1.824-.076 63.586 63.586 0 0 1-2.25-.103c-.996-.07-2.007-.18-2.985-.286l-.941-.102c-1.066-.112-1.866-.687-2.253-1.62-.4-.96-.598-2.027-.767-3.038-.118-.706-.168-1.44-.217-2.15-.022-.324-.044-.648-.073-.97-.028-.316-.083-1.144-.139-1.992-.058-.879-.118-1.778-.151-2.152-.027-.308-.064-.841-.108-1.467l-.048-.685c.052.05.106.1.155.156l.52.592-.172-.769a14.938 14.938 0 0 0-.13-.524c-.09-.342-.166-.637-.184-.933-.037-.596.16-1.179.587-1.733a.65.65 0 0 1 .466-.23.315.315 0 0 1 .282.119c.094.112.186.224.279.338.158.193.316.385.481.572.317.357.819.425 1.192.159.429-.305.929-.67 1.391-1.075.206-.181.376-.395.542-.601.07-.089.142-.178.215-.263l.105-.123-.301-.4-.157.1c-.04.026-.08.049-.12.073-.1.059-.203.119-.297.2-.215.185-.426.374-.638.563-.346.307-.692.615-1.049.909-.056.046-.11.067-.165.06-.068-.008-.141-.059-.204-.143a28.139 28.139 0 0 1-.623-.857c-.268-.383-.66-.535-1.052-.407-.363.117-.77.268-1.005.562a3.38 3.38 0 0 0-.373.586 13.29 13.29 0 0 0-.04-.332c-.096-.718-.11-1.374-.123-2.069a21.235 21.235 0 0 0-.088-1.799 76.511 76.511 0 0 1-.21-2.692l-.084-1.218-.136-1.827c-.097-1.3-.194-2.6-.285-3.9-.042-.596-.074-1.194-.106-1.791-.02-.378-.04-.756-.063-1.134-.05-.847-.103-1.695-.155-2.542l-.213-3.528c-.043-.75-.087-1.5-.136-2.248-.014-.217-.037-.433-.06-.65-.024-.225-.049-.45-.062-.676l-.024-.45c.062.245.15.485.27.717l.01-.063c-.007-.454.156-.887.373-1.331-.064-.614-.003-1.217.08-1.752a.487.487 0 0 1 .118-.198c.38.01.777.039 1.135.151.189.06.37.156.562.258.244.13.497.263.776.323.984.208 2.353-.63 2.667-1.631.23-.732.067-1.453-.484-2.142a3.059 3.059 0 0 0-.237-.255c-.14-.139-.27-.27-.31-.402-.043-.15-.003-.348.04-.558.021-.105.042-.211.054-.314l-.01-.133-.316-.236-.233.326c-.09.124-.18.249-.264.378-.217.339-.114.923.119 1.2l.062.073c.23.274.47.557.628.862.16.31.172.673.035 1.02a1.5 1.5 0 0 1-.874.85c-.507.182-.921.065-1.466-.197a8.086 8.086 0 0 0-1.5-.53c-.22-.057-.47-.008-.703.135-.258.16-.444.407-.5.663l-.046.205c-.036.159-.073.32-.1.484-.026-.476-.05-.952-.08-1.427-.04-.609-.091-1.217-.142-1.825-.046-.55-.092-1.098-.13-1.647-.03-.439-.05-.879-.068-1.319a50.215 50.215 0 0 0-.062-1.225 5.03 5.03 0 0 0-.077-.558 5.712 5.712 0 0 1-.065-.427c-.03-.304-.054-.608-.078-.913-.038-.477-.077-.97-.14-1.456-.139-1.068-.28-2.111-.491-3.139-.157-.762-.388-1.519-.611-2.25l-.091-.299c-.092-.3-.197-.598-.303-.895-.161-.45-.327-.916-.433-1.381-.096-.421-.231-1.77-.303-2.494l-.016-.151c.554.023 1.164.01 1.892-.038a.64.64 0 0 0 .548-.365.702.702 0 0 0-.038-.693.575.575 0 0 0-.54-.245c-.416.033-.834.053-1.252.072-.538.025-1.095.05-1.64.106-.311.03-.505.315-.513.573a.45.45 0 0 0 .304.452c.168.748.502 2.605.575 3.457.049.57.567 1.803.994 2.738l.026.058c.014.032.03.103.05.18.066.262.102.409.225.454a.848.848 0 0 1 .117.183c.03.147.058.295.084.443l.058.316c.063.325.13.65.197.976.147.713.3 1.45.403 2.18.09.63.135 1.28.179 1.909.025.35.049.699.08 1.048.028.31.063.619.098.928.051.46.104.937.133 1.405.045.735.075 1.47.104 2.206.02.492.04.984.064 1.476.03.606.081 1.213.126 1.734.056.655.116 1.31.178 1.964l.07.77.038.364c.027.243.054.494.062.738.015.389.021.778.028 1.167.01.572.021 1.164.054 1.746.03.53.08 1.064.128 1.581.047.497.093.994.123 1.492.035.58.055 1.16.075 1.74.02.596.04 1.192.077 1.786.07 1.165.158 2.328.245 3.492a236.021 236.021 0 0 1 .218 3.072c.073 1.11.149 2.256.255 3.382.078.823.09 1.625.103 2.4.015.955.03 1.942.169 2.969.132.979.548 6.123.823 9.527.134 1.665.24 2.98.268 3.247.12 1.157.286 2.38.862 3.499.28.543.68 1.012 1.1 1.286a4.22 4.22 0 0 0 1.972.663c.426.034.86.106 1.28.176.373.063.758.128 1.143.166.747.074 1.507.116 2.242.156l.714.04c.446.026.891.05 1.337.073a185.85 185.85 0 0 1 3.035.182c.84.056 1.681.112 2.522.153a211.6 211.6 0 0 0 4.457.161c.287.008.575.011.864.011.362 0 .723-.005 1.078-.009l.212-.003c.964-.011 1.928-.026 2.893-.052.475-.014.95-.033 1.425-.051.55-.022 1.1-.044 1.65-.057.598-.014 1.196-.02 1.794-.029.93-.01 1.894-.023 2.84-.06.973-.04 6.817-1.253 12.178-2.437 10.87-2.404 10.9-2.618 10.925-2.79.014-.095-.04-.823-.243-3.462"/><path d="M67.387 79.82a1.82 1.82 0 0 0-.411-.06h-.362c-.438.001-.886 0-1.327.067-.817.125-1.642.277-2.441.424-.47.087-.94.173-1.412.255l-.717.128c-.781.14-1.59.286-2.387.378-1.97.226-3.965.408-5.829.57-.178.017-.368-.027-.571-.073-.103-.022-.206-.045-.308-.062a1.215 1.215 0 0 1-.148-.035c-.146-.04-.311-.083-.471-.026-.246.088-.474.215-.694.337-.087.048-.174.096-.261.142l-.113.058.015.46.14.04c.05.015.1.033.15.05.127.046.272.098.426.1h.01c.148 0 .29-.025.427-.05.106-.019.212-.038.32-.042.365-.015.731-.022 1.098-.03a36.115 36.115 0 0 0 1.912-.077 44.193 44.193 0 0 0 3.379-.377 59.626 59.626 0 0 0 3.778-.701l.554-.123c1.064-.238 2.163-.484 3.27-.559a21.09 21.09 0 0 0 1.465-.167c.217-.03.435-.06.652-.086l.175-.021.003-.457-.166-.03-.156-.033m1.385 2.53a1.006 1.006 0 0 0-.225-.019c-.464.035-.928.068-1.393.101-1.149.081-2.338.165-3.505.284-1.585.162-3.193.359-4.748.55l-1.454.177c-.583.07-1.243.15-1.89.271a8.962 8.962 0 0 0-.978.26l-.316.096c-.275.08-.565.144-.846.205-.886.195-1.8.396-2.504 1.15l-.075.08.102.42.325-.08c.103-.024.204-.049.304-.082.258-.086.514-.179.77-.271.522-.189 1.06-.384 1.6-.516a35.556 35.556 0 0 1 3.286-.629c.877-.13 1.776-.23 2.645-.326.488-.055.977-.11 1.464-.169.43-.052.859-.11 1.288-.167a73.82 73.82 0 0 1 1.808-.23c.75-.082 1.502-.156 2.254-.228.596-.058 1.19-.116 1.786-.18a.957.957 0 0 0 .351-.125c.038-.02.077-.04.115-.055l.172-.073-.14-.417-.196-.027z"/><path d="M66.34 66.344l-.152.034c-.384.088-.768.176-1.152.26-.283.063-.566.13-.849.196-.677.158-1.377.322-2.07.433-.44.071-.902.099-1.347.125-.37.022-.752.045-1.129.092-1.28.162-2.559.34-3.837.516l-1.961.27-.278.037a39.1 39.1 0 0 1-1.673.203 68.22 68.22 0 0 1-2.552.184c-.412.02-.669-.152-.805-.534a1.895 1.895 0 0 1-.074-.344l-.085-.536c-.078-.484-.156-.97-.219-1.456a51.11 51.11 0 0 1-.135-1.16c-.038-.343-.076-.686-.119-1.028-.012-.101-.05-.19-.082-.268a.668.668 0 0 1-.055-.163c-.018-.17-.027-.34-.036-.51-.013-.24-.026-.488-.064-.733-.053-.338-.13-.663-.211-1.008l-.06-.252.199-.046c.346-.087.71-.14 1.06-.19a9.68 9.68 0 0 0 1.263-.242c.763-.216 1.565-.361 2.34-.502l.462-.084c.949-.176 1.899-.346 2.849-.515 1.022-.183 2.044-.365 3.065-.555.927-.173 1.853-.353 2.779-.532 1.04-.202 2.082-.404 3.126-.596l.11-.018c.083.506.221 1.467.355 2.397.146 1.023.297 2.08.384 2.591.05.3.557 2.766.953 3.934m12.23 38.074a446.956 446.956 0 0 0-.183-4.822c-.05-1.142-.124-2.368-.222-3.748l-.07-.98a178.97 178.97 0 0 0-.38-4.783c-.218-2.23-.476-4.492-.724-6.68l-.12-1.047a578.5 578.5 0 0 0-.7-5.868c-.08-.652-.166-1.304-.253-1.955-.1-.746-.2-1.493-.29-2.24a57.41 57.41 0 0 1-.155-1.51 68.41 68.41 0 0 0-.145-1.436 97.075 97.075 0 0 0-.212-1.633 85.995 85.995 0 0 1-.22-1.7l-.152-1.337a633.26 633.26 0 0 0-.65-5.558c-.049-.308-.083-.734-.12-1.186-.1-1.232-.168-1.812-.388-1.99l-.007-.039a.585.585 0 0 0-.075-.194l-.653-.003c0 .021-.004.04 0 .063l.016.112c-.814.025-1.842.136-2.543.211l-.328.035c-.612.064-1.239.106-1.845.147a43.06 43.06 0 0 0-2.29.197c-1.497.184-3.008.447-4.468.701l-.15.026c-.553.097-1.11.216-1.649.332-.455.098-.91.196-1.368.281-.91.17-1.82.331-2.73.493-.943.168-1.885.336-2.826.511-1.257.235-9.446 1.389-9.842 1.406l-.265.012.012.036-.192.027c-.71.1-2.034.288-2.803.629-.265.117-.49.351-.575.596a.536.536 0 0 0 .023.437l.083.156.165-.063a1.05 1.05 0 0 1 .12-.034c.12-.033.26-.069.354-.182.183-.22.46-.374.778-.435.454-.085.932-.12 1.394-.151.171-.012.342-.025.513-.04l1.02-.082c.514-.041 1.028-.082 1.54-.13a27.03 27.03 0 0 0 1.418-.176c.15-.022.258.012.331.25.074.24.165.558.206.877.092.72.178 1.44.265 2.162.075.633.151 1.267.231 1.9l.035.272c.078.63.16 1.28.295 1.913.06.276.17.79.703 1.061.826.419 1.671.34 2.508.265.462-.043.927-.106 1.377-.167l.73-.097c.317-.041.635-.082.951-.135.216-.036.43-.078.646-.12.327-.064.667-.13 1-.171.29-.036.593-.052.885-.068.284-.015.567-.03.849-.062.437-.05.874-.11 1.31-.171.737-.103 1.499-.21 2.247-.255a16.657 16.657 0 0 0 3.34-.543c.621-.169 1.236-.39 1.83-.606l.473-.17a.336.336 0 0 0 .038.038l.239.206.086-.303a.802.802 0 0 1 .027-.075.591.591 0 0 0 .056-.3c-.09-.626-.598-3.035-.935-4.629-.111-.526-.2-.947-.242-1.155-.076-.371-.407-2.802-.445-3.227a2.098 2.098 0 0 0-.03-.203c.358-.047.721-.088 1.083-.122.295-.029.592-.044.888-.058.37-.019.754-.038 1.131-.084l.126-.015c1.128-.136 3.078-.371 4.314-.509l.098.668c.099.665.197 1.33.29 1.994l.028.206c.147 1.058.3 2.152.417 3.23.08.733.148 1.467.216 2.2.084.907.171 1.845.28 2.765.244 2.061.503 4.12.761 6.179.156 1.244.313 2.489.466 3.734.18 1.466.35 2.933.52 4.4l.059.513c.128 1.11.255 2.222.374 3.333l.16 1.484c.162 1.472.327 2.994.463 4.493a231.223 231.223 0 0 1 .652 9.974c.037.84.072 1.682.105 2.524-.409-.006-.95.01-1.437.024-.487.016-.948.029-1.145.015-1.398-.102-2.776.067-4.068.25-.304.043-.609.084-.913.126a90.97 90.97 0 0 0-1.952.282c-.619.099-1.237.205-1.855.312-.76.13-1.518.262-2.28.378-.83.127-1.662.242-2.494.358-.875.122-1.751.244-2.625.378-.443.068-.887.16-1.316.248-.456.093-.929.19-1.394.258-1.214.177-2.514.355-3.795.453-.845.065-1.7.016-2.503-.039-.715-.049-1.447-.174-2.092-.285-1.381-.237-2.565-.614-3.618-1.152a1.238 1.238 0 0 1-.262-.21c-.05-.046-.098-.092-.148-.135l-.054-.033a1.114 1.114 0 0 0-.519-.063c-.193-.886-.49-2.325-.753-3.604a238.2 238.2 0 0 0-.572-2.74c-.916-4.105-1.984-10.613-2.057-11.461-.048-.55-.08-1.102-.112-1.653a92.153 92.153 0 0 0-.07-1.104c-.029-.408-.062-.815-.095-1.223-.038-.47-.076-.94-.107-1.412l-.038-.531c-.05-.682-.101-1.387-.097-2.076.002-.162-.027-.322-.055-.477-.072-.402-.102-.66.174-.892l.196-.17-.213-.15c-.229-.163-.229-.163-.23-.502v-1.848c.017-.126-.014-.4-.09-1.072-.084-.735-.198-1.742-.215-2.345-.016-.526-.092-1.052-.166-1.56l-.032-.224c-.165-1.155-.824-4.618-.995-5.41a.263.263 0 0 1 .06-.046c.082-.034.135-.11.184-.263.033-.103.128-.46-.024-.701-.095-.153-.273-.208-.431-.257-.053-.016-.105-.031-.151-.051l-.21-.091-.064.221a1.315 1.315 0 0 1-.046.128c-.048.123-.102.262-.08.413.05.338.112.675.175 1.01.059.316.117.632.166.949.282 1.879.533 3.605.767 5.28.043.313.064.64.087.984l.006.107c-.596-.333-1.12-.031-1.528.297-.012.01-.026.017-.04.024a.864.864 0 0 0-.085.05l-.473.336c-.444.315-.888.63-1.326.954-.524.388-.378.763-.243.952l.214.305c.342.487.695.991 1.1 1.443l.072.082c.224.258.531.612 1.13.613h.408l-.247-.324c-.234-.308-.49-.588-.735-.86-.455-.501-.886-.977-1.162-1.578l.488-.348c.553-.396 1.102-.789 1.659-1.173.114-.08.23-.117.315-.1.03.004.075.02.119.084.191.28.43.63.463.952.078.744.104 1.511.13 2.253.01.273.019.547.03.82.02.446.02.446-.385.583l-.043.015c-.334.112-.723.315-.782.887l-.02.201.2.02c.34.033.585-.145.78-.29.126-.092.223-.161.324-.193.013.086.027.176.033.267.036.486.065.972.093 1.459.035.617.068 1.234.1 1.851.07 1.338.143 2.721.25 4.08.084 1.084.175 2.124.272 3.137l-.152.097c-.23.145-.404.298-.533.467-.08.104-.15.162-.203.168-.053.008-.132-.036-.229-.118-.059-.05-.114-.105-.17-.16a2.846 2.846 0 0 0-.277-.246c-.878-.657-1.504-.608-2.227.179-.11.118-.21.246-.313.377-.798 1.012-.919 2.074-.36 3.156.42.814 1.077 1.448 2.066 1.996a.828.828 0 0 0 .4.092c.335 0 .707-.154.903-.41l.222-.29-.364-.034a8.037 8.037 0 0 0-.271-.018 3.645 3.645 0 0 1-.54-.058c-.692-.147-1.138-.64-1.595-1.337-.319-.487-.61-1.063-.359-1.634.219-.497.526-.981.889-1.4.323-.375.643-.393 1.104-.06.085.062.162.135.24.208.116.109.236.22.382.307.125.073.503.234.739.089.24-.148.548-.38.71-.758a111.676 111.676 0 0 0 1.078 8.082c.284 1.686.572 3.198.874 4.61-.01.006-.022.008-.031.015a9.687 9.687 0 0 0-.418.34c-.19.16-.368.31-.561.441l-.06.042c-.354.24-.608.406-.719.388-.116-.025-.287-.295-.516-.672-.359-.59-.85-1.398-1.883-1.56-.993-.156-2.023.519-2.245 1.476-.136.583.01 1.133.446 1.682.207.262.449.494.682.72.146.14.292.28.429.427.253.273.61.414.983.414.248 0 .503-.063.74-.19l.415-.227-.59-.188a5.874 5.874 0 0 0-.185-.058c-.978-.28-1.66-.882-2.028-1.786-.171-.422-.02-.982.322-1.2.552-.35 1.166-.331 1.494.045.36.413.714.89 1.053 1.418.218.338.474.53.763.57.28.042.563-.065.845-.311a.787.787 0 0 1 .182-.092c.46-.202.772-.54 1.055-.894.223.994.178 1.833.14 2.04l-.05.052.081.291.154-.027c.084.02.313.09.5.148.548.168.778.236.897.241.099.044.345.17.584.29.543.276 1.287.653 1.742.826 1.406.533 2.881.692 4.396.819a16.1 16.1 0 0 0 1.566.03c.156-.002.313-.004.469-.004.186.001.37.003.557.006.169.003.34.006.512.006a6.9 6.9 0 0 0 1.011-.062c1.062-.156 2.136-.345 3.174-.528.725-.127 1.45-.254 2.175-.372.92-.15 1.844-.286 2.767-.423.693-.103 1.386-.206 2.08-.314.896-.14 1.791-.289 2.687-.438l1.13-.187c.346-.057.691-.119 1.038-.181.766-.138 1.56-.281 2.341-.358.316-.032.63-.078.943-.124.693-.102 1.408-.207 2.115-.135.394.04.794.057 1.18.073a28.449 28.449 0 0 1 .983.054l.384.027.035-.11c.415.066.967.01 1.229-.191a.404.404 0 0 0 .167-.286.473.473 0 0 0-.007-.263"/><path d="M70.054 86.775l.075-.446-.147-.062a.57.57 0 0 1-.059-.032c-.073-.04-.173-.096-.291-.082l-.102.012c-.97.118-1.972.24-2.956.383-1.29.188-2.415.366-3.439.546-.53.092-1.059.192-1.589.29-.271.05-.543.097-.814.148-.857.159-1.714.319-2.573.467-.452.078-.9.195-1.334.307-.823.213-1.598.42-2.428.39a.33.33 0 0 0-.189.062c-.184.042-.369.082-.553.123-.35.076-.698.152-1.045.237a4.478 4.478 0 0 0-.724.26l-.122.077-.003.127c0 .003-.008.334.18.431a.929.929 0 0 0 .409.102c.045 0 .09-.004.133-.013 1.215-.252 2.43-.513 3.642-.774l1.056-.226.936-.206a58.429 58.429 0 0 1 2.112-.442c.716-.132 1.436-.247 2.155-.362.591-.095 1.182-.19 1.772-.294.438-.077.874-.168 1.31-.258.417-.086.833-.173 1.252-.248a56.781 56.781 0 0 1 1.594-.25 86.426 86.426 0 0 0 1.394-.212l.348-.055zM36.303 29.496a.57.57 0 0 1-.22.401.693.693 0 0 1-.529.105c-.138-.024-.207-.142-.235-.211-.148-.351-.134-.715.04-1.083.066-.139.196-.175.293-.181l.035-.001c.07 0 .145.012.218.026.112.02.247.045.356-.071a.402.402 0 0 1 .074.225c.005.249.005.517-.032.79zm-.473 1.113a2.553 2.553 0 0 1-.46.595c-.01-.044-.007-.09-.005-.141a.58.58 0 0 0-.004-.156c-.017-.081-.026-.167-.036-.256l-.005-.044c.17.003.334.006.51.002zm.839-2.546a.23.23 0 0 1 .042-.021c.28-.091.58-.129.922-.128.102.001.212.004.32.014.043.004.083.02.082.106 0 .08-.011.147-.071.211-.067.07-.127.148-.186.222a3.469 3.469 0 0 1-.128.158 9.238 9.238 0 0 1-.743.76.117.117 0 0 1-.025.017 14.722 14.722 0 0 1-.025-.341 7.127 7.127 0 0 0-.057-.597 1.385 1.385 0 0 0-.095-.31c-.013-.03-.024-.06-.036-.091zm-2.152 1.407a.667.667 0 0 0-.142.036c-.03.01-.06.02-.09.026a.19.19 0 0 1-.065-.005l-.035-.004c-.374-.043-.706.097-1.01.254-.325.168-.502.467-.54.911-.026.303.059.587.258.869.065.092.135.18.202.268l.045.058-.008-.002-.062-.015a1.843 1.843 0 0 1-.246-.07c-.45-.175-.899-.069-1.238.042a.704.704 0 0 0-.43.4l-.053.116c-.05.11-.104.223-.14.346-.079.277-.073.556.02.853.085.272.186.554.41.77a.13.13 0 0 1 .02.038l.004.011a.392.392 0 0 1-.12.043c-.22.025-.428.098-.63.167-.1.035-.202.07-.304.1-.207.059-.36.204-.466.444-.353.792-.045 1.527.417 1.904.032.026.07.049.105.071a.519.519 0 0 1 .144.112.05.05 0 0 1-.013.007c-.254.051-.425.222-.571.399l-.113.133c-.075.09-.15.179-.223.27-.212.27-.306.607-.272.976.02.233.14.465.344.675.155.158.347.281.569.365.03.011.06.025.095.04a.911.911 0 0 1-.053.039c-.213.144-.4.28-.539.482-.18.264-.262.562-.24.885.01.15.027.282.053.404.081.4.28.751.588 1.047l.095.094.002.001a6.208 6.208 0 0 0-.048.083 1.62 1.62 0 0 1-.157.239c-.17.204-.249.437-.314.724a23.435 23.435 0 0 0-.114-.321 11.793 11.793 0 0 1-.297-.901 15.862 15.862 0 0 1-.47-2.612l-.04-.345c-.038-.315-.027-.652.034-1.095.021-.155.04-.31.058-.465.03-.26.063-.53.109-.79.097-.55.202-1.086.411-1.607.122-.307.24-.621.355-.925.095-.252.19-.504.289-.755.072-.183.155-.367.235-.544l.11-.248.01-.02a.31.31 0 0 0 .02-.04c.139-.382.343-.74.54-1.085.109-.19.221-.386.321-.584.154-.302.33-.619.54-.97.125-.211.281-.454.482-.656.072-.07.147-.131.227-.195l.095-.076c.215-.177.459-.315.695-.448.126-.07.256-.144.38-.223.27-.17.58-.311.948-.431a.354.354 0 0 1 .081-.014l-.101.753a.685.685 0 0 0-.167-.009zm-1.362 1.075l.004-.094a.484.484 0 0 0 .033-.046c.034-.047.068-.095.11-.13a.959.959 0 0 1 .795-.216c.217.035.33.14.353.328.02.15.106.254.242.291.077.022.093.097.093.156 0 .154-.002.336-.03.512a.4.4 0 0 1-.23.312 4.628 4.628 0 0 0-.077.039 1.68 1.68 0 0 1-.136.065.398.398 0 0 1-.351-.015c-.354-.183-.578-.38-.727-.637-.1-.17-.09-.354-.08-.565zm-.496 3.946c-.274-.065-.529-.219-.8-.487-.248-.245-.378-.482-.408-.746a1.42 1.42 0 0 1 .114-.723.449.449 0 0 1 .222-.23c.16-.08.314-.12.465-.12.063 0 .127.006.19.02.066.016.131.033.197.052l.088.023.061.005v-.001l.08.029c.11.041.22.083.33.122.076.028.152.052.228.077l.111.036c.2.067.29.188.289.391 0 .195-.016.402-.123.597a5.443 5.443 0 0 0-.318.713c-.05.135-.13.208-.255.24a.987.987 0 0 1-.47.002zm.102 10.4c.03-.184.057-.251.155-.329.02.13.012.261 0 .408a.465.465 0 0 1-.155-.078zm-2.108 2.369c.101.092.197.179.308.246.106.064.226.104.343.142l.083.029-.469.69-.034-.094c-.124-.344-.253-.7-.297-1.074l.066.06zm.103-2.124c.081.02.162.044.25.07l.067.02a.344.344 0 0 1-.037.054.13.13 0 0 1-.024.01.307.307 0 0 0-.045.02c-.193.121-.41.273-.526.546l-.007.018c-.032.074-.063.15-.123.195a.333.333 0 0 1-.044-.13 2.905 2.905 0 0 0-.347-1.367l-.014-.045c.182.308.461.508.85.609zm1.272-8.102l-.063.004c-.185.015-.358.029-.525-.043l-.006-.002c-.265-.082-.604-.21-.877-.475-.23-.222-.323-.496-.285-.838a.338.338 0 0 1 .009-.054c.003-.023.008-.046.01-.068.022-.244.139-.385.392-.47.31-.104.63-.211.968-.211.029 0 .058 0 .088.002.066.004.137-.004.19.014.257.087.549.186.828.3.14.057.2.168.182.328-.038.342-.115.784-.364 1.174a.668.668 0 0 1-.547.339zm.817 5.336c-.008.005-.014.01-.01.01h-.652c-.006-.053.02-.098.054-.148.22-.322.343-.688.462-1.043l.024-.07.038-.11c.032.386.062.771.092 1.158l.015.19-.022.013zm-2.021 3.712c.151-.227.301-.362.486-.437.325-.131.677-.255 1.048-.27l.032-.003c.008-.001.015-.003.024-.003h.007c.125 0 .151.024.174.153.03.179.014.468-.038.672v.002c-.04.191-.123.372-.26.569a.62.62 0 0 1-.13.144c-.194.143-.562.189-.855.106a.755.755 0 0 1-.516-.437c-.08-.198-.072-.347.028-.496zm1.505-5.62c-.1.708-.379 1.35-.827 1.905-.246.308-.675.307-.947.13a.92.92 0 0 1-.334-.411 2.04 2.04 0 0 1-.18-.717.713.713 0 0 1 .152-.493.63.63 0 0 1 .084-.096c.319-.272.638-.519 1.044-.567a.897.897 0 0 0 .416-.171l.03-.022c.064-.047.125-.09.19-.125a.399.399 0 0 1 .176-.051c.04 0 .074.01.102.031a.457.457 0 0 0 .296.093 1.005 1.005 0 0 0-.202.494zm-.28-1.667a5.89 5.89 0 0 1-.336.51.545.545 0 0 1-.189.15 2.818 2.818 0 0 1-.31.123l-.077.028c-.014.005-.056.023-.087.017-.324-.047-.693-.119-.988-.363-.171-.142-.232-.309-.185-.51a.995.995 0 0 1 .104-.298c.098-.159.212-.304.34-.464.137-.17.33-.27.592-.306l.067-.01c.094-.013.183-.026.273-.026h.007c.31.002.64.014.96.092.03.007.06.019.092.032l.012.004c-.017.342-.134.782-.275 1.02zm.566 5.122l-.065.133c-.054.113-.11.226-.166.338-.073.144-.2.217-.366.281-.218.085-.436.056-.665.026l-.042-.006a2.092 2.092 0 0 1-.833-.306c-.182-.113-.223-.23-.155-.45.087-.282.27-.508.561-.692a.45.45 0 0 1 .175-.048c.201-.029.361-.081.504-.165.156-.09.33-.137.516-.142.069-.002.138-.012.205-.02.05-.007.102-.014.153-.018a.748.748 0 0 1 .05-.002c.104 0 .134.037.159.161.056.283.058.501.004.708-.01.037-.017.075-.025.113l-.017.086.007.003zm-.23-4.564c.016-.081.058-.151.105-.23l.033-.056a7.787 7.787 0 0 1 .033.337l.004.04a.638.638 0 0 1-.087-.033c-.026-.013-.05-.031-.077-.05l-.011-.008zm.542 7.707l-.002.051a.52.52 0 0 1-.207.003c.048-.14.115-.26.198-.384.02.112.016.218.011.33zm-1.07 2.74a.46.46 0 0 0 .037.013c.414.13.731-.081.962-.28a.828.828 0 0 0 .06-.059 1.246 1.246 0 0 0 .175 1.868l.039.07c.072.129.14.251.14.392a7.691 7.691 0 0 0-.597-.956.879.879 0 0 0-.128-.14c-.296-.267-.53-.582-.764-.905a.064.064 0 0 1-.004-.018c.02-.006.042 0 .08.015zm-.419-1.33c.3-.55.76-.842 1.37-.87l.02-.001c.052 0 .088.01.107.03.024.026.03.077.022.15-.013.104-.037.208-.06.31a6.042 6.042 0 0 0-.02.082l-.006-.001-.071.217c-.04.12-.079.241-.123.36a.831.831 0 0 1-.42.49.435.435 0 0 1-.256.036c-.22-.026-.385-.134-.538-.35a.39.39 0 0 1-.025-.454zm2.97-16.1a.32.32 0 0 1-.067.123l-.026.037a.15.15 0 0 1-.088-.124.386.386 0 0 1 .18-.035zm-6.003 8.32c.022.141.046.288.06.432.064.643.241 1.263.413 1.862l.06.21c.058.204.12.405.182.607l.065.214.145.467c.023.07.046.14.07.208.044.13.09.266.123.401.084.351.165.703.245 1.055.098.426.195.852.299 1.276.08.323.186.642.29.95l.015.049c.095.284.245.538.39.784.054.091.108.182.16.275a6.6 6.6 0 0 0 .837 1.157c.166.19.321.395.472.593.088.116.177.233.269.348.076.096.137.213.196.327l.014.025c.058.113.11.228.162.338l.073.157.019.01a.6.6 0 0 0 .28.078.496.496 0 0 0 .303-.11.191.191 0 0 1 .035-.018.423.423 0 0 0 .04-.02c.198-.112.263-.253.216-.472-.05-.238-.11-.475-.171-.717l-.01-.036a.482.482 0 0 0-.089-.214c-.104-.119-.126-.26-.127-.45l-.004-.449c-.006-.5-.012-1.018.008-1.526.015-.387.003-.776-.01-1.153a105.56 105.56 0 0 0-.023-.845 33.96 33.96 0 0 1-.014-.785c0-.201.003-.403.007-.605.004-.278.01-.566.003-.849a60.413 60.413 0 0 0-.071-1.915 23.745 23.745 0 0 0-.222-2.244l-.008-.054c-.084-.567-.17-1.154-.11-1.74.006-.062.01-.123.013-.184.004-.072.008-.145.017-.216.013-.1.024-.201.036-.301.045-.392.091-.797.226-1.18.034-.097.057-.199.08-.298l.008-.037.113-.518.099-.452c.031-.143.078-.288.209-.391a.589.589 0 0 0 .146-.188c.185-.34.302-.67.36-1.009a.525.525 0 0 1 .052-.182c.126-.204.258-.403.39-.602l.08-.122c.022-.034.046-.067.07-.099.043-.059.089-.12.122-.188.098-.194.238-.347.386-.51l.056-.061a11.5 11.5 0 0 0 .31-.364l.109-.13.059-.076c.017-.024.036-.047.054-.07l.108-.128c.175-.209.35-.417.527-.625l.22-.263c.27-.323.547-.657.865-.94.085-.076.156-.166.224-.253.034-.043.067-.086.102-.126l.065-.08c.05-.061.096-.12.152-.16.197-.144.246-.348.293-.547.01-.037.018-.075.029-.112a.264.264 0 0 0-.02-.155c-.07-.187-.198-.278-.369-.272-.422.015-.85-.02-1.287.062-.432.08-.842.19-1.254.335a87.37 87.37 0 0 0-1.448.53 3.237 3.237 0 0 0-.42.185c-.113.062-.224.129-.335.195-.121.074-.248.15-.375.217a4.87 4.87 0 0 0-.911.631 1.88 1.88 0 0 0-.334.381l-.072.107c-.226.337-.46.685-.644 1.06a2.058 2.058 0 0 1-.09.157l-.652 1.086a1.325 1.325 0 0 0-.073.146c-.047.11-.095.218-.144.327-.112.257-.23.521-.333.786-.127.325-.25.65-.372.976-.14.375-.286.762-.436 1.14-.185.469-.32.993-.414 1.602-.034.22-.064.442-.093.663-.031.229-.062.458-.097.687a6.064 6.064 0 0 0-.065 1.463c.015.163.04.325.066.482zm13.682 1.275l-.026-.053a.716.716 0 0 1-.037-.082l-.087-.24-.212.14a.84.84 0 0 1-.09.047c-.108.054-.243.12-.29.264-.1.314-.194.413-.415.438-.144.016-.259.097-.36.168-.035.024-.069.048-.104.069a.13.13 0 0 0-.057.054c-.132.01-.266.015-.399.02l-.229.008c-.625.027-1.182-.187-1.659-.64a.429.429 0 0 1-.062-.544c.206-.305.24-.307.547-.218a.668.668 0 0 0 .569-.113c.067-.059.103-.15.106-.275.001-.058-.003-.255-.118-.364-.103-.1-.235-.147-.35-.189a1.45 1.45 0 0 1-.135-.052 2.733 2.733 0 0 0-.25-.097c-.127-.044-.3-.104-.333-.165-.244-.444-.194-.93-.108-1.258.092-.35.36-.686.683-.856.15-.078.375-.154.608-.069.057.021.117.059.181.1.075.046.15.092.231.125.128.051.249.034.36.043l.223.017-.012-.312c-.003-.047-.007-.095-.002-.141l.005-.059c.002-.032.012-.092-.012-.074.429-.364.868-.713 1.338-1.087a.766.766 0 0 1 .165-.108c.01.024.026.07.04.155.014.074.038.15.063.23.08.249.094.346-.053.457-.115.087-.092.24-.084.29.025.164.089.264.189.3.138.049.343.058.487-.03.13-.078.253-.168.376-.258.121-.089.242-.178.37-.254.145-.085.31-.142.452-.158.223-.022.389.084.55.359.078.131.054.331-.05.41-.08.064-.134.145-.181.215a.982.982 0 0 1-.049.071l-.201.267.329.054c.033.005.069.016.105.026.124.036.277.08.41-.003.205-.127.354-.098.64.128.293.232.516 1.152.36 1.492a.648.648 0 0 1-.234.284c-.19.106-.98.425-1.453.616l-.155.062c-.075-.024-.156 0-.24.07-.041.034-.166.138-.11.287.172.439.287.664.37.78l.07.19c.056.151.112.303.182.448.364.75.733 1.496 1.107 2.24a4.364 4.364 0 0 1-.321.237c-.022.01-.063.014-.103.02-.082.01-.184.021-.276.084l-.022.015a.44.44 0 0 1-.038-.064l-.07-.135c-.17-.332-.346-.675-.492-1.02-.188-.447-.363-.91-.533-1.358l-.145-.417a.548.548 0 0 0-.016-.135 1.913 1.913 0 0 1-.022-.105c-.03-.16-.065-.34-.226-.405a.453.453 0 0 0-.17-.031c-.092 0-.181.022-.258.041-.038.01-.074.019-.108.024l-.16.024zm-4.67-3.636c-.371.96-.292 1.764.242 2.457.018.023.035.078.039.08-.083.181-.186.354-.294.536l-.089.15c-.163.28-.15.567.038.85.557.84 1.347 1.192 2.352 1.046l-.061.272.589-.17c.24-.068.48-.137.715-.216.09-.03.15-.097.194-.145l.018-.02c.483-.04.675-.39.83-.674.036-.066.072-.131.111-.192a.225.225 0 0 0 .019-.034c.152.21.33.81.475 1.292.074.248.144.483.208.665.007.018.744 1.846.985 2.004.087.058.19.078.295.078.112 0 .228-.022.337-.042l.12-.02c.2-.03.432-.075.638-.176.064-.031.338-.156.47-.212l.174.094.042-.285c.003-.02.01-.043.021-.089.015-.06.044-.173-.004-.281a55.118 55.118 0 0 0-.778-1.648c-.308-.626-.621-1.25-.938-1.87.655-.069 1.526-.42 1.756-.822.339-.59.415-1.248.228-1.956-.163-.616-.49-.984-.97-1.094-.185-.042-.212-.088-.255-.284-.144-.67-.74-1.29-1.474-1.164a4 4 0 0 0-.703.207l-.108.038-.033-.076c-.077-.18-.158-.366-.235-.552-.14-.339-.445-.466-.813-.343l-.047.016c-.227.076-.484.162-.685.323-.342.274-.67.571-.987.86-.101.09-.202.183-.304.273a1.821 1.821 0 0 0-.423-.085c-.698-.044-1.409.47-1.695 1.21zm33.432-19.911v.001-.001zm-1.157-8.62a21.72 21.72 0 0 1-.099 1.057v-.018c-.002-.052 0-.105 0-.16 0-.097.002-.198-.005-.3l-.023-.371-.022-.36-.007-.049c-.02-.22-.034-.46-.047-.704l-.025-.42c0-.019-.002-.037-.003-.055.019.163.035.333.048.51.005.121.021.244.051.403.029.14.104.221.187.256a.341.341 0 0 0-.055.212zm.73-2.17c-.002.093-.003.18-.002.273.002.128-.004.254-.01.383l-.01.26c0 .256-.01.52-.019.773a1.366 1.366 0 0 0-.002.198.329.329 0 0 0-.155-.12.217.217 0 0 0 .01-.037.755.755 0 0 0 .036-.247c.01-.548.06-1.089.153-1.617l-.002.134zm.58 4.093l-.021.01c.002-.013.008-.017.012-.026l.009.016zm-.021.01l.026.004-.02.015c-.003-.006-.008-.01-.006-.02zm-1.84.47l.035.052a.105.105 0 0 1-.036.028l-.029-.074.03-.007zm-1.407 4.869v-.003.003zm-.488 4.711l.01-.045.035.004.111.01c.153.018.328.037.528-.033l.067-.03.11-.048.045-.023a.314.314 0 0 0 .125-.206l.016-.083-.048-.07c-.031-.044-.123-.143-.296-.092l-.014.006a1.737 1.737 0 0 1-.537-.05c-.037-.007-.052-.012-.066-.013a.576.576 0 0 1 .003-.1l.081-.932.017.023a.408.408 0 0 0 .075.195l.047.07.082.014c.048.009.08.006.067.003l.032-.18.008-.005.048.18c.173-.046.355-.085.51-.01l.118.027h.01a.353.353 0 0 0 .245-.098c.056-.055.085-.125.081-.159.03-.165-.08-.324-.22-.348a1.28 1.28 0 0 0-.706-.03 1.547 1.547 0 0 0-.275.113.262.262 0 0 0-.122.197l-.017.005.054-.602a37.6 37.6 0 0 0 .061-1.097 2.99 2.99 0 0 1 .005-.2c.004-.076.007-.152.005-.214.008-.148.016-.295.03-.42l.01-.051c.197.081.417.142.684.19.096.018.193.035.283.043.1.018.2.035.282.04.175.022.375.046.594-.058l.255-.193-.115-.165-.086-.073a.345.345 0 0 0-.133-.056 8.63 8.63 0 0 1-.463-.074c-.058-.01-.115-.018-.172-.026a3.725 3.725 0 0 1-.162-.025 2.568 2.568 0 0 1-.668-.177c-.036-.02-.08-.053-.094-.043l-.038-.015c-.105-.045-.143-.11-.128-.228.01-.123.016-.245.024-.37.009-.149.017-.3.031-.465.005-.079.006-.155.007-.23.002-.073.003-.144.007-.229 0-.206.014-.439.028-.686 0-.018.002-.036.004-.055a.814.814 0 0 0 .004-.082l.003-.043c.006-.126.012-.24.036-.375.022-.165.054-.312.106-.48.008-.025.025-.078.022-.124a1.27 1.27 0 0 1 .583-.814c.145-.085.29-.17.432-.238a.302.302 0 0 0 .074-.03.387.387 0 0 0 .195-.154l.01.013v.001l.078-.025a.767.767 0 0 0 .15-.073v.062c-.004.16.092.278.271.31.202.018.304-.058.349-.128a.16.16 0 0 0 .06.056c.092.07.19.073.286.067a.703.703 0 0 1 .43.097c.143.067.236.185.323.407.165.429.32.85.382 1.272a.808.808 0 0 1-.137.025l-.076.01-.026-.005-.028.002c-.39.032-.754.008-1.119-.076a1.494 1.494 0 0 0-.295-.02l-.061.001-.05.035c-.031.022-.113.079-.13.177-.018.1.037.181.058.212l.032.048.052.023c.092.042.172.066.266.083.502.111.992.094 1.412.068l.015-.001.016.003.033-.005a.451.451 0 0 1 .114-.006v.02c-.008.655-.054 1.176-.145 1.629a3.37 3.37 0 0 0-.054.291l-.043.261c-.014.087-.027.175-.05.265-.022.09-.04.184-.06.278a15.97 15.97 0 0 1-.05.238l-.025.074a1.855 1.855 0 0 0-.036.168 1.593 1.593 0 0 1-.012.064.198.198 0 0 0-.083-.095.336.336 0 0 0-.156-.07l-.033-.003c-.253-.003-.474.003-.648.093a.492.492 0 0 0-.212.156l-.114.12.16.253.08.015a.33.33 0 0 0 .09.003c.098-.001.194-.006.29-.01.092-.005.184-.01.257-.011l.051.002.028-.002a.35.35 0 0 0 .17-.052.548.548 0 0 0 .054-.044c-.004.03-.009.062-.01.093-.06.568-.171 1.124-.279 1.663l-.163.886c-.06.386-.156.828-.298 1.378a11 11 0 0 0-.11.504l-.047.266c-.018.07-.033.144-.049.217-.015.07-.03.139-.05.218-.07.337-.14.675-.222 1.02-.075.313-.155.645-.216.93l-.048.22a2.65 2.65 0 0 0-.038.154l-.027.118-.018.045-.018.02c-.026.002-.058.005-.06.01l-.098.008a4.629 4.629 0 0 1-.501.002c-.057-.002-.12-.014-.168-.023l-.112-.02a1.197 1.197 0 0 0-.235-.013.284.284 0 0 0-.249.238.3.3 0 0 0 .11.292.658.658 0 0 0 .378.148c.211 0 .404-.004.607-.008l.086-.007c.03-.003.059-.006.096-.008l-.008.03c-.028.102-.055.206-.08.31-.026.102-.051.204-.08.307l-.073.281c-.047.178-.094.354-.134.539a6.332 6.332 0 0 0-.091.403l-.007.041a6.483 6.483 0 0 0-.049.214c-.014.063-.028.126-.045.195a7.609 7.609 0 0 1-.167.619l-.021.064a1.59 1.59 0 0 0-.06.21c-.006.036-.02.072-.033.11-.01.028-.02.057-.029.088-.015-.002-.03-.002-.048-.002l-.18-.023c-.206-.028-.44-.06-.673-.07a.596.596 0 0 0-.229.06c-.181.068-.208.22-.176.33.035.12.12.203.201.215.059.02.175.05.258.036.23.004.443.003.685-.001l.07-.002-.075.421c-.058.32-.15.8-.274 1.257a3.62 3.62 0 0 1-.44.968.513.513 0 0 1-.153.152.521.521 0 0 1-.147.072 1.284 1.284 0 0 1-.074-.224 3.708 3.708 0 0 1-.081-.563l-.053-.606c-.04-.418-.083-.851-.104-1.278l-.024-.409c-.024-.42-.05-.855-.04-1.272.013-.282.037-.573.058-.843l.01-.054c.009-.103.017-.206.014-.271.022-.003.047 0 .07.002.02.004.057.01.102.006a.664.664 0 0 0 .451-.108c.025-.018.081-.055.131-.132l.126-.116-.117-.164a.247.247 0 0 0-.16-.106.295.295 0 0 0-.125 0 .341.341 0 0 0-.069 0c-.067.005-.13.01-.18 0-.078-.014-.148-.035-.248-.063-.056-.526-.015-2.245.063-2.812l.092.033c.47.168.961.173 1.413.016a.922.922 0 0 0 .268-.124.25.25 0 0 0 .109-.165.258.258 0 0 0-.054-.2l-.071-.103-.443.063a1.53 1.53 0 0 0-.158.024c-.302.054-.624.006-.986-.148-.087-.036-.101-.055-.102-.056-.001-.003-.01-.022-.006-.102l.048-.655.037-.506c.023-.337.054-.662.087-.946l.01-.042zm-.91 9.586c.014.152.026.304.036.448l.003.082c.017.156.034.312.042.496.007.046.007.092.008.136 0 .034 0 .067.003.1l.012.256c.048.506.166.949.36 1.354l.042.087.092.022c.036.008.1.024.175.024a.438.438 0 0 0 .365-.183.137.137 0 0 1 .035-.027.35.35 0 0 1 .083-.05.958.958 0 0 0 .468-.382c.154-.233.264-.423.347-.599a6.53 6.53 0 0 0 .414-1.295l.023-.13-.198-.036.208-.021c.029-.156.057-.312.092-.457l.033-.159c.056-.254.114-.517.126-.776.003-.045.012-.082.02-.119l.015-.068c.017-.068.036-.138.056-.208.02-.07.04-.141.054-.199.068-.213.114-.411.158-.6.028-.107.06-.231.082-.352l.03-.117c.016-.07.031-.138.061-.223.033-.132.066-.264.113-.414l.167-.605c.065-.257.123-.525.185-.814l.06-.268c.072-.32.146-.652.24-.97.173-.63.298-1.27.42-1.892l.057-.315c.023-.132.052-.263.08-.39.027-.121.053-.238.072-.348a3.89 3.89 0 0 1 .077-.32l.13-.564c.05-.236.093-.482.132-.716l.056-.32c.01-.076.023-.15.037-.225.014-.083.03-.166.04-.247.014-.082.029-.163.05-.236l.042-.215c.03-.16.061-.323.076-.482.045-.483.15-.965.253-1.433l.061-.304c.14-.664.23-1.226.282-1.767a4.66 4.66 0 0 0 .019-.356l.003-.095-.005-.05c-.002-.03 0-.06.002-.09a.934.934 0 0 0 .002-.119 2.638 2.638 0 0 0-.085-.804l-.03-.118a3.36 3.36 0 0 0-.037-.144l-.062-.21a6.205 6.205 0 0 0-.186-.618 2.245 2.245 0 0 0-.403-.733c-.057-.067-.065-.107-.06-.149a.931.931 0 0 0 .009-.068.425.425 0 0 1 .017-.08l.044-.242a5.314 5.314 0 0 0 .073-.518.835.835 0 0 1 .01-.106l.004-.04c.006-.08.012-.149.026-.223l.1-.579c.033-.2.067-.401.103-.599l.097-.537c.005-.025.009-.05.031-.119l.034-.186c.04-.222.082-.452.105-.708a.362.362 0 0 0-.056-.212c-.043-.06-.13-.127-.29-.106-.16.01-.284.102-.328.234a1.844 1.844 0 0 0-.047.143.69.69 0 0 1-.033.1l-.014.048a1.404 1.404 0 0 1-.021.092c-.01.038-.02.077-.034.156a3.258 3.258 0 0 1-.098.389 8.202 8.202 0 0 0-.166.627c-.019-.394-.03-.872.006-1.35.02-.23.02-.458.022-.658l.001-.173c-.014-.58.002-1.2.05-1.896.025-.406.048-.795.07-1.188.005-.138 0-.269-.004-.4l-.015-.26-.003-.004v-.014a.966.966 0 0 0-.004-.119l-.015-.096a.23.23 0 0 0 .01-.147c-.017-.066-.08-.18-.3-.2L70.728 3l-.023.003c-.17.025-.225.143-.268.25a.882.882 0 0 0-.045.175l-.04.228c-.05.324-.103.618-.156.912-.045.245-.07.492-.095.742l-.02.165a16.16 16.16 0 0 1-.06.589 5.643 5.643 0 0 0-.03.382l-.006.075c-.01.126-.02.274-.038.427a4.252 4.252 0 0 1-.068-.308l-.037-.179c-.042-.21-.08-.41-.073-.622a.593.593 0 0 0-.045-.208c-.056-.149-.226-.23-.394-.193a.364.364 0 0 0-.265.225l-.032.15a3.635 3.635 0 0 1-.025.12c-.022.098-.048.21-.054.328l-.009.136c-.017.277-.034.551-.048.81l-.022.384c-.01.11-.008.214-.006.321l.013.266c.01.212.021.428.023.644v.057c.018.28.029.563.039.849.01.239.018.48.031.718.014.342.009.688.004 1.018l-.005.144c0 .034-.005.06-.013.102l-.02.116h-.004a1.058 1.058 0 0 0-.305.092c-.164.083-.33.182-.48.271l-.12.078a1.2 1.2 0 0 0-.179.16c-.376.382-.585.86-.679 1.554a3.69 3.69 0 0 0-.03.48l-.01.055a3.226 3.226 0 0 0-.008.161c-.002.047-.003.093-.008.141l-.034.355c-.003.058-.01.116-.016.174-.01.097-.02.195-.02.29l-.012.234c-.008.146-.016.291-.02.426-.006.376-.023.71-.054 1.024-.03.27-.04.54-.046.796a15.62 15.62 0 0 1-.062 1.383c-.016.146-.032.291-.037.43l-.01.142a1.658 1.658 0 0 0-.014.208l.001.038c-.006.182-.029.36-.054.564a15.23 15.23 0 0 1-.046.43 9.97 9.97 0 0 0-.043.423l-.009.048c-.042.339-.076.69-.105 1.003-.014.08-.017.165-.02.247a1.476 1.476 0 0 1-.006.115l-.024.344c-.012.15-.023.29-.046.462l-.005.064a14.73 14.73 0 0 0-.062.898c-.022.455-.036.912-.05 1.388l-.02.642c-.006.296 0 .592.02.909a4.8 4.8 0 0 1-.01.82l-.028.162c-.022.175-.048.374-.044.573.01.537.029 1.025.057 1.493.01.156.023.31.037.464z"/><path d="M69.805 15.47c.06-.008.219-.03.26-.192.055-.168-.068-.287-.137-.35a.676.676 0 0 0-.208-.101.593.593 0 0 0-.183-.033l-.047-.009c-.358-.046-.88-.033-1.247.101-.064.016-.114.051-.142.07a.275.275 0 0 0-.115.17l-.013.095.048.068.127.108.058.004c.091.007.193.005.295.003l.114-.006c.08.003.159.004.2-.004h.101c.218-.003.44-.006.673.067a.706.706 0 0 0 .216.01m8.461 23.94a.375.375 0 0 1-.043.07c.05.122.052.274-.015.464a.918.918 0 0 1-.322.425c-.106.23-.409.375-.621.456a2.384 2.384 0 0 1-.355.101c-.178.113-.37.187-.591.215-.136.018-.6.079-.64-.15-.022-.12.094-.205.23-.264a.548.548 0 0 1 .194-.187.977.977 0 0 1 .189-.08c-.017-.01-.038-.017-.055-.027-.118-.076-.13-.159-.047-.27.078-.109.258-.21.471-.286a.365.365 0 0 1-.227-.396c.012-.125.098-.208.207-.266.438-.56 1.964-.563 1.625.195m-2.454 5.927c.002.031-.003.04-.017.076-.093.223-.06.47.095.737l.412.675.142.217c.156.239.319.486.442.709.017.042.042.072.039.058.06.146.112.308.15.463a1.871 1.871 0 0 0-.092.074.62.62 0 0 1-.162.112.482.482 0 0 0-.133.091c-.08.06-.15.1-.248.14l-.382.201a.93.93 0 0 0-.138.075c-.026.016-.05.032-.079.044a1.88 1.88 0 0 1-.134.048l-.058.02a1.484 1.484 0 0 1-.034-.2c-.006-.043-.011-.087-.017-.115a.905.905 0 0 0-.154-.41c-.034-.046-.06-.117-.087-.185l-.076-.229c-.08-.256-.161-.521-.29-.774a4.602 4.602 0 0 0-.326-.583c-.018-.021-.036-.07-.052-.113l-.025-.065a5.151 5.151 0 0 0-.212-.471c-.046-.067-.08-.14-.114-.208a3.106 3.106 0 0 0-.063-.123l-.217-.405c-.038-.065-.05-.088-.053-.117a.273.273 0 0 0-.288-.259.277.277 0 0 0-.215.13c-.047.076-.054.165-.031.21.013.069.041.126.065.176.01.02.02.04.035.076.042.082.085.16.128.237.04.072.081.144.138.256l.03.08c.118.193.226.41.337.68.028.067.058.13.087.193.026.054.052.109.076.166a.32.32 0 0 0 .087.132c.106.13.176.294.247.5.085.24.152.474.217.7a.73.73 0 0 0 .144.305.316.316 0 0 1 .068.188c.008.12.027.23.057.334a1.863 1.863 0 0 0-.52.076.238.238 0 0 1-.15.012l-.048-.267c-.106-.59-.283-1.576-.583-2.113a4.487 4.487 0 0 0-.568-.968c-.06-.082-.115-.154-.15-.21a.822.822 0 0 0-.124-.18l-.067-.084c-.095-.228-.23-.4-.415-.524l-.27-.178a.97.97 0 0 1-.252-.187 1.222 1.222 0 0 0-.259-.21l-.043-.026a.533.533 0 0 0-.077-.048.769.769 0 0 0-.125-.078c.005-.017.013-.032.014-.05l.005-.03v-.014a.458.458 0 0 0 .011-.123.317.317 0 0 0-.046-.152.315.315 0 0 0 .114-.062l.024-.023a.51.51 0 0 0 .068.035.738.738 0 0 1 .281.24 1.5 1.5 0 0 0 .227.215c.022.017.04.036.058.055.028.028.056.057.089.083.068.077.147.151.235.214l.46.256a.365.365 0 0 0 .184.024c.199.016.32-.104.35-.235.056-.175-.083-.297-.127-.334a2.92 2.92 0 0 0-.19-.163.261.261 0 0 0 .212-.112.244.244 0 0 0 .026-.04l.03-.103.112-.047.028-.067c.085-.127.027-.25 0-.307l-.05-.082a.627.627 0 0 0-.06-.088.287.287 0 0 1-.054-.083 2.846 2.846 0 0 1-.12-.24l.027.008.053-.022c.018-.003.03-.014.048-.02.023.057.046.115.07.17.027.06.054.121.08.184a.58.58 0 0 0 .337.308l.138.035.163-.13.054-.129-.083-.193a.31.31 0 0 0 .082-.14.261.261 0 0 0-.034-.207.28.28 0 0 0-.132-.11c-.011-.005.072-.01.084.003a.606.606 0 0 1 .04.04l.049.057.074.011a.345.345 0 0 0 .22-.038c-.004.123.004.25.026.378l.022.074a.566.566 0 0 0 .086.175l.105.119a.266.266 0 0 0 .236.059.295.295 0 0 0 .193-.151c0 .199.052.388.095.518.078.371.18.728.28 1.073a.344.344 0 0 0 .066.168c.02.04.05.088.092.132m-5.214-3.436a1.04 1.04 0 0 1-.065.02c-.361.1-.746.174-1.032-.002-.223.074-.196.192.085.355.345.1.157.271-.13.388-.041.283.397.5.562.588.388.211-.717.555-.988.412-.497-.262-.95-.607-.645-1.118-.368-.344-.237-.907.33-1.21.297-.16.776-.279 1.218-.266.315-.089.665-.07.99.038a2.79 2.79 0 0 1 .692-.123c.148-.22.358-.424.584-.562.675-.412 1.967-.79 2.546-.035.25.326-.894.645-1.123.347-.389-.507-.725-.07-.907.363.97.392.444 1.314-.551 1.15-.395-.065-.613-.218-.707-.413-.235.112-.64.13-.86.068m-2.423 2.616c.115.122-.101.288-.222.347-.24.115-.583.163-.831.05-.725-.335-.928-1.337-.938-2.058a.18.18 0 0 1 .042-.111c-.143-.355-.118-.684-.041-1.083a.568.568 0 0 1 .009-.22c.195-.817 1.476-.966 2.138-1.043.528-.061.597.34.083.467-.396.097-.993.21-1.03.684-.02.243.211.623.237.89.021.218.067.422.12.622.22.374.35.767.556 1.153.061.117-.003.22-.123.302m.745-6.691c.15-.453.997-.564 1.382-.548.261.012.722.142.893.375.3.129.56.422.32.731a.763.763 0 0 1-.177.159c.123.042.228.11.321.192a4.38 4.38 0 0 1 .35-.026c.76-.02.366.43-.114.514-.071.452-1.015.62-1.4.373-.07-.044-.129-.097-.095-.188.007-.02.022-.037.032-.057-.368.067-.757-.017-.898-.35-.032-.075.089-.172.136-.205a1.356 1.356 0 0 1-.218-.05c-.015.02-.027.04-.046.061-.01.013-.028.024-.042.037-.027.198.049.394.245.546.217.167-.843.54-1.126.324-.321-.243-.37-.577-.261-.892-.249-.426.233-.78.698-.996m3.067-1.349c.103-.1.226-.176.36-.233.326-.328 1.085-.33 1.445-.254.307.063.823.331 1.019.68.056.007.11.016.164.025.543-.068 2.072.02 2.034.797.326.22.507.523.216.88-.49.606-1.799.53-2.449.306-.524-.182-.598-.499-.414-.76-.251-.09-.383-.203-.432-.322-.225.012-.442-.015-.584-.08a.182.182 0 0 1-.106-.122c0-.012.003-.022.003-.034-.1-.02-.21-.05-.324-.09-.019.008-.037.017-.058.024a1.48 1.48 0 0 1-.74.028c-.302.097-.68.131-.767-.026-.238-.426.18-.69.633-.819m6.981 3.338a.656.656 0 0 0-.001-.092l.005-.07a2.19 2.19 0 0 0 .012-.327 1.035 1.035 0 0 0-.125-.572l-.2-.62c-.068-.166-.146-.354-.297-.464a5.2 5.2 0 0 0-.24-.225 2.293 2.293 0 0 0-.529-.4l-.043-.034a10.274 10.274 0 0 0-.26-.194c-.082-.06-.165-.12-.264-.196-.26-.166-.552-.327-.932-.385h-.003a3.318 3.318 0 0 1-.252-.046 2.663 2.663 0 0 0-.423-.064.345.345 0 0 1-.06-.014.906.906 0 0 0-.103-.022.466.466 0 0 0-.08-.015l-.079-.015a1.605 1.605 0 0 1-.279-.021.89.89 0 0 1-.309-.089l-.187-.139c-.337-.265-.7-.375-1.022-.45a2.408 2.408 0 0 0-.898-.012 2.99 2.99 0 0 1-.141.02c-.138.017-.295.036-.435.095a4.687 4.687 0 0 0-.582.254 3.349 3.349 0 0 0-.807.505c-.081.07-.16.134-.238.2-.08.066-.16.133-.231.195a.664.664 0 0 1-.228.118l-.089.022a.88.88 0 0 0-.31.113c-.052.026-.1.054-.147.08-.072.041-.14.08-.212.11a1.408 1.408 0 0 0-.261.144l-.044.025a.946.946 0 0 0-.164.109.504.504 0 0 0-.08.092l-.142.122.011.015-.005.003a1.695 1.695 0 0 0-.344.353l-.033-.014-.093.132c-.111.158-.125.18-.167.343l-.03.12.002.002-.026.002-.048.115c-.314.753-.3.95-.296 1.016l.001.01-.037.14c-.007.007-.028.021-.013.016a2.394 2.394 0 0 0-.563.348c-.231.21-.462.453-.688.723-.047.058-.094.12-.141.182-.074.099-.15.2-.244.297a.42.42 0 0 0-.111.246 1.448 1.448 0 0 0-.014.432c.016.23.07.447.12.654l.048.188c.02.076.042.163.056.25.045.265.077.518.096.774.013.062.018.126.025.19.008.077.016.154.031.233.06.269.197.519.397.721l.082.08c.076.072.147.139.186.215a.29.29 0 0 0 .27.185l.154.032a.318.318 0 0 1 .013.005l.091.04c.24.069.447.056.623-.033.044-.018.083-.038.122-.058.028-.015.056-.03.087-.043.077-.032.14-.078.191-.114l.09-.067a.93.93 0 0 0 .122-.111.147.147 0 0 1 .136-.056c.17.014.305-.044.414-.089l.036-.019a.518.518 0 0 0 .221-.245c.056-.134.11-.262.157-.434a.97.97 0 0 0 .515.116l.156.01c.1.02.201.036.303.05.094.015.19.03.308.051.02.002.037.005.053.009a.759.759 0 0 0 .103.015c.104.008.224.021.322.062.041.017.083.03.128.042.035.01.071.02.137.048l.04.014c.133.076.259.148.364.226.223.194.425.335.633.44a.479.479 0 0 1 .231.284 4.878 4.878 0 0 0 .331.661l.024.04c.027.038.05.08.073.12.03.055.063.11.095.153a.867.867 0 0 1 .04.068c.017.032.035.065.066.11.08.103.139.216.183.354l.142.343c.054.103.095.224.118.334a.543.543 0 0 0 .012.08l.118.536c.057.319.116.647.223.94.033.131.088.25.164.353l.039.054.063.019c.124.039.24.054.348.054.12 0 .232-.017.341-.04.085-.02.173-.032.265-.031.293-.012.58-.033.87-.17a1.45 1.45 0 0 0 .457-.237c.044-.029.087-.06.101-.067.22-.06.403-.184.565-.293l.065-.043a4.05 4.05 0 0 0 .338-.279l.092-.08c.141-.122.174-.328.057-.521a.265.265 0 0 1-.043-.089l-.051-.153a1.661 1.661 0 0 0-.162-.403c-.03-.056-.067-.114-.102-.173a7.83 7.83 0 0 1-.106-.178 5.968 5.968 0 0 1-.28-.44 17.57 17.57 0 0 0-.225-.365c-.075-.12-.15-.239-.235-.38a.717.717 0 0 1-.106-.229c-.007-.04-.015-.076-.008-.09l.029-.07.012-.044c.021-.115.074-.416-.26-.57l-.029-.062a3.96 3.96 0 0 0-.112-.426 4.197 4.197 0 0 1-.12-.43c-.024-.097-.047-.193-.072-.278-.051-.215-.046-.41-.022-.664.033-.217.099-.421.173-.653.03-.11.088-.22.186-.352l.024-.036c.042-.063.088-.135.13-.179a.277.277 0 0 0 .076-.106h.008l.027.005h.014c.042.007.104.018.134.001.155-.03.284-.068.427-.127.287-.133.556-.274.81-.407.09-.037.176-.073.248-.084a.593.593 0 0 0 .078-.012c.019-.005.036-.01.076-.007.173-.012.308-.086.451-.167a.55.55 0 0 0 .235-.436l.02-.053a1.63 1.63 0 0 0 .046-.598c-.004-.02-.003-.052-.003-.087"/><path d="M72.853 43.865a4.917 4.917 0 0 1-.473-.373l-.05-.04c.054-.03.1-.073.128-.137l.007-.037h.007a.298.298 0 0 0 .054-.01l.053.1c.079.159.165.325.274.497m2.519 3.069c.037.091.058.176.08.26l.029.135c.01.056.022.112.04.18.087.247.174.495.268.725.028.067.056.134.075.206a.67.67 0 0 0 .066.178l.086.128.153.064.078-.032a.283.283 0 0 0 .156-.172l.026-.062-.017-.065c-.02-.081-.042-.162-.047-.237l-.046-.138-.028-.048a.628.628 0 0 1-.084-.212 1.182 1.182 0 0 0-.117-.303 1.004 1.004 0 0 0-.078-.253l-.021-.047c-.007-.015-.017-.036-.02-.07a1.352 1.352 0 0 0-.175-.522c-.01-.03-.022-.073-.05-.116a2.425 2.425 0 0 0-.202-.376.335.335 0 0 0-.096-.104l-.032-.036-.044-.018a.22.22 0 0 0-.305.111l-.078.186.092.038.29.6zm-33.964-.614a.554.554 0 0 0 .511-.562c-.005-.288-.218-.504-.518-.526-1.863-.135-3.78.005-5.634.14-.395.03-.787.058-1.178.084-.376.025-.561.344-.545.631a.526.526 0 0 0 .538.515h.03c.815-.04 1.651-.056 2.46-.072 1.426-.028 2.901-.057 4.336-.21m26.915 3.513c-.085.18-.153.17-.247.131l-.167-.066a2.631 2.631 0 0 1-.504-.234l.02-.064c.044-.139.094-.296.035-.433a.409.409 0 0 1 .057-.029.606.606 0 0 0 .147-.087l.018.006c.117.04.229.08.292.139.081.076.143.198.21.327.034.067.069.136.108.202l.045.077-.014.031m.665.817l.082-.036.028-.086c.196-.604-.018-.858-.246-1.004l-.022-.731s-.156.054-.196-.027a.93.93 0 0 0-.555-.477c-.448-.144-.722.124-.92.319a2.628 2.628 0 0 1-.114.109 1.228 1.228 0 0 0-.419.848.997.997 0 0 0 .264.733c.24.256.721.526 1.303.526.25 0 .52-.05.795-.174m-32.186-1.449a2.214 2.214 0 0 0-.016-.03c-.09-.179-.039-.225.049-.275l.157-.093c.17-.1.33-.196.493-.25l.038.055c.083.12.176.256.32.295 0 .01-.008.042-.013.062a.581.581 0 0 0-.021.17l-.017.01c-.105.068-.204.131-.29.144-.109.016-.244-.01-.386-.037a4.105 4.105 0 0 0-.226-.04l-.088-.01zm-.869-.087c.003.057.005.136.05.213.185.32.376.638.567.956l.245.412.453-.102-.008-.17a.867.867 0 0 1 .001-.078c.003-.083.007-.187-.036-.287l-.034-.08a.933.933 0 0 0 .98-.047c.392-.264.35-.644.318-.921-.006-.052-.012-.104-.015-.156a1.23 1.23 0 0 0-.41-.853.988.988 0 0 0-.74-.245c-.461.04-.926.283-1.183.62-.167.22-.234.458-.19.693.002.014.002.03.002.045zm9.144 2.326a.334.334 0 0 1 .02.004c.121.026.236.051.305.103.09.066.166.18.247.299a4.6 4.6 0 0 0 .133.188l.054.07-.011.034c-.062.189-.13.186-.229.16l-.175-.046a2.63 2.63 0 0 1-.527-.172 3 3 0 0 1 .012-.066c.027-.143.057-.306-.017-.434a.397.397 0 0 1 .053-.036.583.583 0 0 0 .135-.104m.657 1.73c.273-.037.489-.16.624-.355.011-.017.024-.031.037-.046l.067-.102a1.47 1.47 0 0 0 .068-.423l.001-.049-.02-.043a.586.586 0 0 1-.057-.169l-.19-1.088-.142.393a.931.931 0 0 0-.725-.654c-.466-.092-.702.21-.876.428-.032.04-.065.081-.099.12a1.225 1.225 0 0 0-.313.893c.02.277.145.524.35.696.307.258.722.41 1.1.41.06 0 .118-.004.175-.012M36.99 22.985c.038-.105.126-.21.22-.32.048-.058.097-.117.142-.179l.053-.071h.035c.2.008.215.075.217.176l.004.183a2.56 2.56 0 0 1-.02.553l-.066.006c-.145.014-.31.03-.412.137a.468.468 0 0 1-.049-.042.578.578 0 0 0-.138-.1l-.001-.02c-.009-.124-.016-.241.014-.323m-.797-.74a.662.662 0 0 0 .354.116c-.078.052-.15.113-.21.183a.932.932 0 0 0-.223.698c.042.47.395.617.652.724.049.02.098.04.144.062.174.082.362.124.546.124.137 0 .273-.023.399-.07a.996.996 0 0 0 .572-.528c.189-.423.2-.947.031-1.336-.11-.252-.287-.425-.513-.501-.014-.005-.027-.013-.04-.02a.578.578 0 0 0-.212-.06c-.363.007-.726.02-1.09.032l-.5.017-.13.445.151.075a.908.908 0 0 1 .069.04M54.96 65.822c-.006-.041-.054-.076-.054-.076-.007-.04-.054-.076-.054-.076a.92.92 0 0 0-.157-.187c-.054-.076-.102-.111-.115-.194l-.048-.035s-.007-.04.035-.047c-.006-.042.028-.09.028-.09s.198-.624.192-.665c-.006-.041.035-.048-.013-.083s-.124.02-.166.026l-.33.052-.041.007s.006.041-.035.047c.006.042-.035.048-.028.09.006.041-.142.446-.183.452l-.048-.035-.163-.228c-.007-.042-.102-.111-.109-.152 0 0-.048-.036-.054-.077l-.083.013-.496.078s.217.305.265.34c.055.076.103.11.157.187.006.041.054.076.054.076.006.041.054.076.06.118 0 0 .008.04.049.034l.006.042c.007.04-.057.178-.05.22 0 0-.198.624-.192.665.007.041-.028.09-.028.09l.124-.02.29-.046.123-.02c.041-.006.085-.267.085-.267-.006-.041.079-.309.079-.309l.028-.089.048.035s.007.041.048.035c.006.041.223.346.223.346s.007.041.049.035c0 0 .006.04.048.034 0 0 .006.042.047.036l.041-.007.372-.059.125-.02s-.061-.117-.103-.11c-.012-.083-.02-.124-.025-.166zm-2.316-.186l.013.083c.026.165-.127.274-.161.322 0 0-.035.048-.077.054l-.124.02c-.041.006-.048-.035-.089-.029l-.143-.104-.061-.118c-.006-.041-.055-.076-.068-.159l-.013-.082-.012-.083c-.007-.041.028-.09.02-.13a.315.315 0 0 1 .287-.342c.082-.013.178.057.226.092.047.035.054.076.06.117.096.07.135.318.142.36m-.942-.064s.006.04 0 0m1.318-.505c-.006-.04-.054-.076-.06-.117-.007-.041-.15-.146-.198-.18-.048-.035-.09-.029-.096-.07-.048-.035-.09-.029-.137-.063a.593.593 0 0 0-.302-.037c-.042.006-.29.045-.483.16-.194.115-.244.335-.28.383-.034.048-.027.09-.02.13.006.042-.023.131-.023.131l.026.165.04.248c.006.042.127.277.134.318.007.041.054.076.06.118.049.034.192.139.24.174.048.034.09.028.137.063.041-.007.09.028.13.022.042-.007.083-.013.13.022.042-.007.332-.052.45-.113.076-.055.193-.115.186-.157.07-.096.168-.28.184-.453.008-.212-.098-.62-.098-.62.041-.006-.02-.124-.02-.124m-2.353-.688c-.007-.042 0 0 0 0zm.06 1.727c.006.042.006.042-.028.09-.035.047-.07.095-.194.114l-.124.02c.041-.006 0 0 0 0l-.124.02-.124.019-.02-.124-.058-.372-.013-.083c-.007-.04.041-.006.082-.013l.125-.02.124-.018c.082-.014.165-.027.213.008.047.035.089.028.095.07.007.041.061.117.074.2 0 0 .013.083-.028.09zm-.824-.93l-.02-.123-.019-.124-.02-.124-.006-.042-.007-.04.042-.008.041-.006c.041-.007.366-.1.413-.065.096.07.11.152.122.235l.02.124c.006.041-.029.09-.022.13-.035.049-.118.062-.194.116l-.248.039-.124.02c.035-.049.07-.097.022-.131zm-.291-.504c.006.041-.035.048 0 0-.042.006 0 0 0 0zm.044 1.094s.042-.006 0 0c.042-.006.042-.006 0 0zm1.345-.338l-.095-.07s-.042.007-.048-.035c0 0-.007-.041.035-.048l.104-.143s.064-.137.057-.178c-.007-.042.015-.173.009-.214l-.026-.165-.007-.041c-.048-.035-.06-.118-.108-.153-.007-.041-.048-.035-.055-.076-.007-.041-.048-.035-.054-.076-.041.006-.096-.07-.137-.063l-.09-.029-.04.007c-.042.006-.084.013-.09-.028l-.124.02-1.033.161.078.497.02.124a32.453 32.453 0 0 0 .064.413 3039.663 3039.663 0 0 0 .117.744l.052.331.052.33c.007.042.02.125.061.118l.124-.02.207-.032.62-.097.124-.02.083-.013c.041-.006.282-.087.38-.272-.006-.041.064-.137.057-.178-.007-.041.028-.09.028-.09-.006-.04.022-.13.016-.171-.046-.29-.141-.359-.148-.4-.13-.022-.185-.098-.233-.133zm4.006-4.697l-.02-.124-.124.02-.206.032-.165.026.064.413.02.124-.083.013-.207.033.072.455.207-.033.041-.006c.041-.007.071.454.078.496l.032.206c.007.041.075.2.088.283.006.041.06.118.108.152a.947.947 0 0 0 .446.142l.372-.058.041-.007s.042-.006.035-.048l-.006-.04-.014-.084-.038-.248-.207.032-.083.014c-.048-.035-.137-.063-.143-.105-.06-.117-.059-.372-.059-.372l-.032-.207-.013-.082-.013-.083.083-.013.371-.058-.071-.455-.496.078-.078-.496m7.829.759s-.074-.2-.08-.241l-.014-.083-.006-.041a62.747 62.747 0 0 1-.039-.248l-.039-.248a62.747 62.747 0 0 1-.04-.248l-.038-.248-.02-.124-.006-.042-.006-.041-.125.02-.248.038-.165.026.006.042.014.082a114.08 114.08 0 0 0 .104.662l.006.041.02.124c.006.041.039.248-.066.392a.13.13 0 0 1-.076.054c-.041.007-.076.054-.124.02-.042.006-.083.013-.13-.022-.042.006-.049-.035-.055-.077-.007-.04-.013-.082-.06-.117l-.02-.124-.02-.124-.058-.372-.02-.124-.058-.372c-.007-.041-.007-.041-.048-.035l-.165.026-.29.046-.041.006.006.042.02.124.058.372.02.124.039.248.038.247.02.125c.007.041.013.083.061.117.007.042.033.207.265.34.048.035.09.028.138.063.04-.007.088.028.17.015 0 0 .208-.032.202-.074.04-.006.075-.054.117-.06.041-.007.076-.055.076-.055.042-.006.035-.048.07-.095l.035-.048.041-.007.02.124c.006.041.012.083.054.076l.165-.026.124-.019.166-.026-.007-.041c.022-.131.015-.172.01-.214m-2.029-.231c-.045-.29-.043-.544-.17-.82-.055-.077-.062-.118-.151-.146a.319.319 0 0 0-.22-.05.773.773 0 0 0-.629.31s-.034.048-.076.054c-.041.007-.02-.124-.032-.206l-.007-.042-.165.026-.248.04-.083.013.013.082c.126.531.189 1.199.267 1.695.006.041.213.009.254.002l.29-.045-.007-.042-.058-.372-.046-.29-.058-.371c-.007-.042-.046-.29.243-.335.083-.013.214.009.227.091.006.042.054.077.06.118l.033.207.078.496.059.372.013.082.496-.078-.027-.165c.038-.302-.03-.461-.056-.626zm-2.058-.694l-.012-.082-.083.013c-.159.067-.311.176-.374.313-.007-.041-.055-.076-.061-.118l-.006-.041-.373.058-.082.014.02.123c.006.042.164.78.177.862.04.248.071.455.11.703l.014.083.33-.052.207-.033-.013-.083-.11-.703-.046-.289c-.013-.082.057-.178.133-.232a.511.511 0 0 1 .242-.08l.082-.014-.039-.248c-.102-.11-.109-.152-.115-.194zm-1.714.948s-.041.006 0 0l-.165.026-.372.059-.042.006-.006-.041c-.013-.083-.02-.124.008-.214l.105-.143c.035-.048.117-.06.159-.067.041-.007.083-.013.13.021.049.035.096.07.15.146-.034.048.02.124.033.207-.007-.042-.007-.042 0 0zm.47-.243c-.006-.042-.06-.118-.067-.16-.007-.04-.055-.075-.061-.117-.048-.035-.055-.076-.102-.11l-.144-.105c-.041.006-.089-.029-.089-.029-.042.007-.22-.05-.302-.037l-.249.04c-.04.006-.117.06-.158.067-.076.054-.153.108-.187.156-.035.048-.07.096-.064.137-.098.185-.087.522-.08.563l.02.125.025.165.026.165c.007.042.055.077.067.16.055.075.061.117.116.193.054.076.15.146.239.174.041-.006.048.035.09.028.047.035.13.022.219.05l.248-.038c.082-.014.165-.027.241-.081.042-.006.077-.054.16-.067a.56.56 0 0 0 .145-.15l.07-.096c.034-.048.028-.09.028-.09-.006-.04.035-.047.028-.088-.006-.041-.006-.041.028-.09l-.006-.04s-.172-.016-.207.032l-.206.032-.042.007s.013.083-.056.178c-.035.048-.118.06-.159.067a.374.374 0 0 1-.213-.009l-.144-.104c-.047-.035-.06-.117-.067-.159l-.007-.04.207-.033.165-.027.207-.032.413-.065c.042-.007-.125-.53-.132-.572zm-4.401.565l.006.041.046.29.058.371c.007.042.04.249.142.36.204.222.41.19.452.183l.124-.02.207-.032.165-.026-.013-.083a13.48 13.48 0 0 1-.045-.29l-.007-.04-.248.038c-.041.007-.041.007-.09-.028-.047-.035-.054-.076-.108-.152s-.086-.283-.086-.283l-.06-.372-.006-.042.249-.039.123-.02.083-.012-.071-.455s-.462.03-.503.037l-.046-.29-.013-.082-.013-.083-.082.013-.372.059.045.29.02.123s.012.083.02.124l-.083.013-.083.013-.083.013.013.083.02.124c.006.041.02.124.025.165l.013.083c-.047-.035.201-.074.201-.074zm10.985-2.067l-.02-.124-.041.007-.33.052-.083.012-.007-.041-.006-.041a13.227 13.227 0 0 0-.02-.124l-.032-.207-.007-.041-.041.006-.248.04-.166.025.02.124.045.29.013.082-.04.007-.29.045.013.083.059.372.082-.013.206-.032.02.123.02.125.032.206c.007.042.04.248.045.29l.027.165c.006.041.012.083.02.124.005.042.025.165.21.263.096.07.261.044.302.038l.372-.06.083-.012-.013-.083-.02-.124a4.671 4.671 0 0 1-.012-.082l-.02-.125-.083.013c-.041.007-.254-.002-.296.005-.047-.035-.06-.117-.06-.117l-.026-.166a36.683 36.683 0 0 1-.065-.413l-.014-.083-.006-.042.041-.006.166-.026.248-.039-.02-.124-.058-.372zm-13.128 2.447l.058.371.072.455c.007.041.026.166.17.27.15.146.356.113.398.107.123-.02.282-.087.324-.093.041-.007.117-.061.11-.103.042-.006.105-.143.147-.15l.034-.048.007.042.039.248c.047.035.082-.013.124-.02l.206-.032.124-.02c.042-.006-.039-.247-.045-.289a118.766 118.766 0 0 1-.078-.496l-.039-.248-.006-.041-.033-.207a201.22 201.22 0 0 1-.085-.537l-.165.025-.33.052a21.912 21.912 0 0 0 .038.249l.02.123.13.827c.006.042-.028.09-.07.096-.035.048-.035.048-.076.054 0 0-.158.068-.248.04-.13-.022-.198-.181-.198-.181l-.045-.29-.079-.496-.032-.206-.026-.166-.372.059-.124.02.04.247c-.016.172-.003.255.01.338zm-1.391.854a84.768 84.768 0 0 0-.039-.248l-.013-.083-.006-.041.083-.014.248-.038.082-.014.041-.006s.083-.013.09.028c0 0 .191.14.176.312.006.04-.015.171-.015.171-.057.179-.519.209-.567.174l-.082.013c-.041.006-.006-.041-.006-.041l-.014-.083c.035-.048.029-.09.022-.13zm-.143-.91l-.039-.248-.02-.124c-.006-.041-.012-.082-.02-.124l-.005-.041.04-.007.125-.02.206-.031.042-.007s.048.035.09.028c.088.029.162.229.169.27.006.041.032.207-.079.309-.041.006-.076.054-.076.054l-.207.033-.124.019-.041.007a.315.315 0 0 1-.06-.118zm.667 1.547l.207-.032.083-.013c.04-.007.04-.007.076-.055l.152-.108c.041-.007.035-.048.076-.054.035-.048.098-.185.092-.227.028-.089.015-.172.009-.213l-.007-.041-.02-.124c-.012-.083-.08-.242-.086-.283-.007-.041-.103-.111-.15-.146l-.096-.07-.048-.035s-.041.007-.047-.034l.034-.048s.041-.007.035-.048c-.007-.041.063-.137.104-.144-.006-.04.035-.047.029-.089l-.007-.041s-.004-.296-.01-.337c-.02-.124-.122-.235-.218-.305-.15-.146-.452-.183-.452-.183l-.083.013a163.99 163.99 0 0 0-.744.117l-.124.02-.083.013-.082.013.026.165.013.082.006.042.007.041.006.042.007.041.013.083.013.082.033.207.019.124.02.124.032.207a64.546 64.546 0 0 1 .059.372l.064.413.02.124.046.29.012.082c.02.124.922-.06.964-.067z"/></g></g></svg>