<svg width="120" height="120" preserveAspectRatio="xMidYMid meet" viewBox="0 0 120 120" xmlns="http://www.w3.org/2000/svg"><g fill="none" fill-rule="evenodd"><path d="M86.386 56.959l-.34-10.7-1.255-5.07 1.162-6.861-.717-5.394c-.089-1.45-1.202-2.142-1.783-3.228l-6.347-1.144-7.694-.352c-2.893.18-5.777.146-8.537-.93-.166-.064-.157-.154-.053-.248l-4.864-.96c-1.598.07-3.21-.11-4.59-.906l-.84-.166c-3.577.38-7.081 1.833-10.495 2.81-.764.22-1.53.426-2.299.631-.057.15-.224.3-.51.389-6.579 2.048-13.21 4.492-20.117 5.006l-7.093 2.074c-.44.118-.758.542-.95 1.273-.193.73-.213 1.755-.059 3.073.097.04-.005.505 0 1.236-.005 3.088 0 2.145.26 5.004.011.13.277 3.075.1 3.145l.099 3.28.55 5.924L9 72.555v4.539c.002.104.002 1.11 0 3.019.202.736.477 1.471.637 2.22.025.048 1.162.305 3.412.773.372-.982 1.31-5.48 1.62-5.705 4.854-3.958 12.708-4.481 12.762 1.874.003.357-.191 2.742-.596 4.45-.397 1.678-1.191 3.16-.397 3.16l2.42.588c4.57.334 9.255 1.67 13.564 2.951 1.722.513 3.802.972 5.703 1.719l6.487 1.573c.658.121 1.316.24 1.976.35.168.03.28.07.356.117 1.246-1.731 1.051-5.102 2.592-6.125 5.587-3.714 10.529-1.529 10.143-1.172.764.374 3.13 5.753.877 8.935.11.056.168.137.132.25-.213.664-.615 1.205-1.097 1.683a.828.828 0 0 1 .335.024c.525.196 1.058.366 1.592.52l3.128.75c1.46.311 2.907.605 4.293 1.031 3.105-.52 6.47.488 9.451 1.921l1.828-.427 3.708-3.47 7.974-3.895 2.905-1.64 2.127-2.402s1.337-21.446-7.814-26.043c-9.15-4.598-12.732-7.164-12.732-7.164z" fill="#CCA173"/><path d="M82.45 51.65s-.678-5.85-.675-5.872c0-.003.194-4.249.258-4.88-.062-.017-.243-4.476-.156-5.371L81.668 35c-.625.25-1.265.46-1.913.65a31.114 31.114 0 0 1-4.804 2.022c-.516.315-1.046.612-1.61.866-1.932.869-3.498 2.009-5.27 3.125-1.317.83-2.985 1.998-4.661 2.412-.276.869-.418 2.71-.41 2.724.139.243.186 2.645.085 3.512.42.702.283 1.467.199 2.233.149.416.671 3.273.566 4.329.327.914.357 1.368.132 2.317.582.765-.636 2.668.255 2.81.012-.003 1.846-.489 1.859-.491.85-.162 1.247-.36 2.879-1.142.243-.164 3.125-1.74 3.357-1.918-.369.018 1.16-.921 1.702-1.155.545-.235 1.098-.448 1.644-.682.033-.014 1.078-.434 1.193-.445.952-.403.934-.44 1.886-.853 1.39-.604 2.915-.952 4.212-1.74l.012-.006c.139-.644-.53-1.917-.53-1.918" fill="#E9F0FA"/><path d="M56.715 50.858a56.779 56.779 0 0 0-.827-5.713c-.223-1.113-.65-2.149-1.57-2.618-.229-.43-.662-.76-1.337-.861-11.603-1.734-23.044-4.185-34.59-6.202-1.24-1.135-3.738-.078-3.278 1.981.698 3.121 1.39 6.15 1.295 9.368-.093 3.157-.417 6.318-.64 9.467-.226 3.2-.464 6.399-.679 9.6-.19 2.826-.17 5.506 1.029 8.13.775 1.697 3.346 1.042 3.86-.416 2.654-.649 6.112-1.045 6.597 2.197.41 2.738-.601 7.197 2.676 8.464.382.147.788.259 1.206.349.192.53.64.987 1.404 1.202 6.626 1.864 13.662 2.829 20.455 3.91.262.04.524.032.777-.015 1.318.716 3.307.15 3.15-1.724-.698-8.314.22-16.61.606-24.913.19-4.065.256-8.151-.134-12.206" fill="#F0E118"/><path d="M38.964 47.107c0-.093 0 0 0 0zm1.361-1.802l-.001-.185-.184-.03c-.366.03-.732.152-.913.399 0-.093-.093-.2-.094-.293v-.093l-.826-.14-.183-.03.002.276c0 .093.104 1.773.105 1.958l.012 1.572v.185l.735.125.458.078-.001-.185a2895.261 2895.261 0 0 0-.016-2.22c-.001-.185.181-.339.364-.4.183-.062.366-.03.55 0l.183.032-.004-.555c-.186-.309-.186-.4-.187-.494zm-18.764 2.361c0-.092 0 0 0 0zm-.432 3.714c0 .093 0 .093-.09.17-.091.077-.182.153-.457.107l-.276-.047c.092.016 0 0 0 0l-.275-.046-.275-.047-.002-.277-.006-.833-.001-.185c0-.092.092.016.183.031l.276.047.275.046c.183.031.366.062.46.17.091.109.183.124.184.217 0 .092.093.293.095.478 0 0 .001.185-.09.17zm-1.484-2.561c0-.092 0-.185-.002-.277l-.002-.278a69.7 69.7 0 0 1-.002-.277v-.092l-.001-.093.092.016.091.015c.092.016.825.048.918.156.184.216.186.4.187.585l.002.278c0 .092-.09.17-.09.262-.09.077-.274.046-.457.107-.184-.03-.367-.062-.55-.093l-.276-.047c.091-.077.183-.154.09-.262zm-.467-1.28c0 .093-.091.077 0 0-.092-.015 0 0 0 0zm-.258 2.358s.092.016 0 0c.092.016.092.016 0 0zm3.025.236l-.185-.216s-.092-.016-.092-.108c0 0 0-.093.09-.077l.274-.23s.181-.247.18-.34c0-.092.09-.354.09-.447l-.003-.37-.001-.092c-.092-.108-.094-.293-.186-.401 0-.092-.092-.108-.093-.2 0-.093-.092-.108-.093-.201-.092-.015-.185-.216-.277-.232l-.184-.123-.092-.016c-.091-.016-.183-.03-.184-.123l-.275-.047-2.293-.389.008 1.11.002.277.003.463.002.277a2839.598 2839.598 0 0 0 .011 1.572l.003.278.004.74.006.74c0 .092.002.277.094.292l.275.047.459.078 1.376.233.275.047.183.031c.092.016.642.016.914-.307 0-.092.181-.246.18-.339 0-.092.091-.17.091-.17 0-.092.09-.261.09-.354-.006-.647-.19-.863-.19-.955-.276-.14-.37-.34-.462-.448zm3.493 1.608l.001.185c.003.37-.363.493-.454.57 0 0-.09.077-.183.061l-.275-.046c-.091-.016-.092-.108-.184-.124l-.277-.324-.094-.293c0-.093-.093-.2-.094-.386l-.002-.185-.001-.184c0-.093.09-.17.09-.263 0-.092.087-.631.73-.522.183.03.367.247.46.355.092.108.092.2.093.293.185.216.19.77.19.863m-2.022-.804s.001.092 0 0m3.023-.135c-.001-.092-.093-.2-.094-.292 0-.093-.277-.417-.37-.525-.092-.108-.184-.124-.185-.216-.092-.108-.184-.124-.276-.232-.184-.123-.369-.247-.644-.293-.091-.016-.642-.11-1.1-.002-.457.107-.636.538-.728.615-.09.077-.09.17-.09.262.001.092-.09.262-.09.262.002.092.002.185.004.37l.003.555c.001.092.189.678.19.77 0 .093.093.201.093.294l.462.54c.092.108.184.123.276.231.092.016.185.124.276.14.092.015.184.03.276.139.092.015.734.124 1.008.078.183-.061.458-.107.457-.2.182-.153.455-.477.544-.831.088-.446-.01-1.387-.01-1.387.091.015-.002-.278-.002-.278m6.39-3.258s.092.108 0 0c0 .093 0 0 0 0m-.674-4.547l-.002-.278-.276-.047a240.38 240.38 0 0 1-.458-.077l-.367-.063.007.926.002.277-.184-.031-.458-.078.007 1.017.458.078.092.016c.092.015.008 1.016.008 1.11l.004.462c0 .092.095.478.096.663 0 .092.093.292.186.4.277.325.829.603.92.618l.826.14.092.016s.092.016.091-.077v-.092a6762.038 6762.038 0 0 1-.006-.74l-.459-.078-.183-.031c-.093-.108-.277-.232-.278-.324-.093-.293-.005-.833-.005-.833l-.003-.462-.002-.185-.001-.185.183.031.826.14-.007-1.017-1.101-.187-.008-1.11m4.145 3.105s-.092-.016 0 0l-.367-.062-.826-.14-.092-.016v-.093c-.001-.185-.002-.277.088-.446l.273-.231c.092-.077.275-.046.366-.03.092.015.184.03.276.139.093.108.185.216.278.416-.09.077.003.278.004.463 0-.093 0-.093 0 0zm.745 1.696s.092.109 0 0c0 .093 0 0 0 0zm.353-1.88c0-.092-.094-.293-.095-.385 0-.093-.093-.2-.093-.293-.093-.108-.094-.2-.185-.308l-.278-.325c-.091-.015-.184-.123-.184-.123-.092-.016-.46-.263-.643-.294l-.55-.094c-.092-.015-.275.046-.367.03-.183.062-.366.124-.456.2-.092.077-.183.154-.182.247-.272.323-.36 1.048-.358 1.14l.001.277.003.37.003.37c0 .093.093.2.094.386.093.2.094.293.187.493s.278.417.462.54c.092.016.092.109.184.124.092.108.276.14.46.263.184.03.367.062.55.093.184.031.367.062.55 0 .092.016.183-.06.366-.03a.988.988 0 0 0 .365-.215l.182-.153c.091-.077.09-.17.09-.17 0-.092.092-.077.091-.17 0-.092 0-.092.09-.169v-.092s-.368-.155-.459-.078l-.459-.078-.091-.015s.001.185-.18.339c-.092.076-.275.045-.367.03-.184-.031-.276-.047-.46-.17l-.277-.325c-.092-.108-.093-.292-.094-.385v-.092l.458.077.367.062.459.078.917.156c.091.015-.1-1.218-.101-1.31zm-7.364 7.896s-.092-.015 0 0c0 0 .091.016 0 0zm-2.591-3.58s.092.017 0 0c.092.017 0 0 0 0zm2.957 3.55c0-.092-.093-.2-.093-.2-.001-.093-.094-.2-.094-.2-.093-.202-.186-.402-.278-.51-.093-.2-.185-.308-.186-.493l-.093-.108s0-.093.091-.077c0-.093.09-.17.09-.17s.633-1.186.632-1.278c0-.093.092-.077 0-.185-.093-.108-.276-.047-.367-.062l-.734-.125-.092-.015s0 .092-.091.077c0 .092-.091.077-.09.169 0 .093-.453.847-.544.832l-.093-.108-.279-.602c0-.092-.185-.308-.186-.401 0 0-.092-.108-.093-.2l-.183-.031-1.101-.187s.372.802.464.91c.093.2.186.309.279.509 0 .093.093.2.093.2 0 .093.093.201.094.294 0 0 0 .092.092.107v.093c.001.092-.18.339-.18.431 0 0-.633 1.186-.632 1.279 0 .092-.09.169-.09.169l.275.047a471.498 471.498 0 0 1 .917.155c.092.016.271-.508.271-.508 0-.093.271-.6.271-.6l.09-.17.093.108s0 .092.092.108c.001.092.373.894.373.894s0 .093.092.108c0 0 .001.093.093.108 0 0 0 .093.092.108l.092.016.826.14.275.047s-.094-.293-.186-.309l-.002-.37zm-2.456-10.299s.092.015 0 0c.092.015 0 0 0 0zm.174-1.264c.001.092.001.092 0 0 .001.092 0 0 0 0zm-.445 1.772v.092l.005.648.006.832c0 .092.004.555.19.863.37.617.829.695.92.71.092.017.184.032.276.047l.458.078.367.062-.001-.185-.004-.647-.001-.093-.55-.093c-.092-.015-.092-.015-.185-.124-.092-.108-.093-.2-.186-.4s-.096-.663-.096-.663l-.006-.833v-.092a677.823 677.823 0 0 0 1.009.17l-.008-1.016s-1.01-.264-1.101-.28l-.005-.647-.001-.185-.002-.185-.183-.03c-.092-.017-.734-.125-.825-.14l.004.647.002.277.002.277-.183-.03-.184-.032-.184-.031.002.185.002.277.003.37v.186c-.092-.108.459-.015.459-.015zm24.485 3.412l-.001-.278-.092-.015-.734-.125-.183-.03v-.093l-.002-.092-.002-.278-.003-.462v-.093l-.092-.015-.551-.094a227.08 227.08 0 0 0-.367-.062l.002.277.005.648.001.185-.092-.015-.641-.11v.185l.007.833.183.03c.092.017.459.079.459.079l.002.277.002.278.003.462.004.647.003.37.002.278c.001.092.003.37.372.709.185.216.552.278.643.294l.826.14.183.031-.001-.185-.002-.277-.001-.185-.002-.278-.184-.03c-.092-.017-.551-.187-.643-.202-.092-.108-.093-.293-.093-.293l-.003-.37-.003-.463-.003-.462-.002-.185v-.092l.091.015.367.062.55.094-.001-.278-.007-.832zm-3.368 3.031s-.091-.015 0 0m.09-.262s-.095-.478-.096-.57l-.001-.185v-.092l-.004-.555-.004-.555-.004-.555-.004-.555-.002-.278-.001-.092v-.093l-.276-.046-.55-.093-.367-.062v.092l.002.185a786.117 786.117 0 0 0 .008 1.11l.002.37.001.092.002.277c0 .093.004.555-.269.786-.091.077-.183.062-.183.062-.091-.016-.183.061-.275-.047-.092-.016-.183-.031-.276-.14-.092-.015-.092-.107-.093-.2 0-.092-.001-.185-.094-.293a69.974 69.974 0 0 0-.004-.554c0-.185-.005-.648-.005-.833l-.003-.277-.005-.833c-.001-.092-.001-.092-.093-.108l-.367-.062-.642-.109-.092-.015v.092l.003.278.006.832.002.277c0 .185.002.37.004.555l.004.555.002.278c0 .092.001.185.093.293.001.092.004.462.465.91.092.108.184.123.277.231.091.016.184.124.367.155 0 0 .459.078.458-.015.092.016.183-.061.275-.046.091.016.182-.061.182-.061.092.015.092-.077.183-.154l.09-.077.092.016.002.277c.001.093.002.185.093.2a297.275 297.275 0 0 0 .642.11l.368.062-.001-.093c.09-.262.089-.354.088-.447m-5.23-1.163c.091.015.091.015 0 0zm.91-.77c-.004-.647.084-1.187-.104-1.865-.093-.2-.094-.293-.278-.416a.854.854 0 0 0-.46-.263c-.551-.186-1.1-.095-1.465.213 0 0-.09.077-.182.062-.092-.016-.003-.278-.004-.463v-.092l-.367-.062-.55-.094-.184-.03.001.184c.1 1.218.02 2.682.027 3.792 0 .092.46.17.551.186.184.03.643.109.643.109l-.001-.093-.006-.832-.005-.648a625.65 625.65 0 0 0-.006-.832c0-.092-.004-.647.638-.538.183.03.459.17.46.355 0 .092.093.2.094.293l.003.462.008 1.11.006.832.002.186 1.1.186-.002-.37c.179-.616.084-1.002.081-1.371zm-25.605-6.28s-.092-.016 0 0c-.092-.016 0 0 0 0zm.657 2.143l-.003-.277-.001-.278-.002-.185v-.093l.183.031a287.812 287.812 0 0 0 .734.125l.091.016s.184.03.185.123c0 0 .37.432.28.787.001.092-.09.354-.09.354-.18.339-1.19.075-1.282-.033-.091-.016-.091-.016-.183-.03-.092-.017 0-.094 0-.094l-.002-.184c.091-.077.09-.17.09-.262zm-.015-2.035l-.004-.555-.002-.277-.002-.277v-.093l.091.016.275.046.459.078.091.016s.093.108.185.123c.184.123.279.601.28.694 0 .092.003.463-.27.6-.092-.015-.184.062-.184.062-.183-.03-.367-.062-.458-.078l-.275-.046-.092-.016c-.093-.2-.094-.293-.094-.293zm2.29-.166s-.093-.015 0 0c-.093-.108-.001-.092 0 0zm-1.347 3.929l.459.077.183.031c.092.016.092.016.183-.061l.366-.123c.091.016.09-.077.182-.061.091-.077.273-.323.272-.416a.925.925 0 0 0 .088-.447v-.092l-.002-.278c-.001-.185-.096-.57-.096-.663-.001-.092-.186-.308-.278-.416l-.185-.216-.093-.108s-.091-.016-.092-.108l.091-.077s.092.015.091-.077c0-.093.182-.247.273-.231 0-.092.091-.077.091-.17v-.092s.086-.632.086-.724c-.002-.278-.188-.586-.373-.802-.277-.417-.92-.71-.92-.71l-.184-.032-.459-.078-1.192-.201-.276-.047-.183-.031-.184-.031.003.37.001.184.001.093.001.092v.093l.001.092a53.877 53.877 0 0 0 .003.37l.003.463.002.277.002.278.004.462a69.974 69.974 0 0 1 .003.462l.001.185.001.185.007.925.002.278a529.813 529.813 0 0 1 .006.832c.002.277 2.02.527 2.111.543zm2.364-2.556c0 .185.005.74.006.833l.007 1.017c0 .092.002.37.28.694.277.417.736.494.828.51.275.047.641.016.733.032.092.015.275-.046.274-.139.091.016.273-.23.365-.215l.09-.077.002.093.004.555c.092.108.183.03.275.046l.458.078.276.047c.091.016-.005-.555-.005-.647l-.006-.833-.002-.277-.004-.555v-.093l-.004-.462-.008-1.202-.367-.063-.734-.124.002.277.002.278.002.277.013 1.85a.16.16 0 0 1-.182.154c-.091.077-.091.077-.183.061 0 0-.366.03-.55-.093-.276-.14-.37-.525-.37-.525l-.005-.647-.008-1.11-.004-.462-.002-.37-.826-.14a172.77 172.77 0 0 0-.275-.047l.004.555c-.089.355-.087.54-.086.724z" fill="#3879AF"/><path d="M108.855 87.696a.628.628 0 0 1-.11.093c-.272.187-.44.807-.712.964-.03.06-.341.523-1.707 1.055-.194.076-.202.33-.367.457-.514.392-.924.416-3.014 1.635-1.136.662-.717.298-1.295.659-.621.385-.632.23-1.36.762-.069.067-3.703 1.66-3.862 1.719l-.5.18a.57.57 0 0 1-.123.109c-.296.205-1.816 1.949-2.238 2.333-.145.132-1.536.968-2.297 1.366.128-.748.97-3.418 1.036-4.167-.005-.396-.02-.794-.034-1.19.04-.014.072-.03.086-.055.101-.021.004.048.126.02.08-.042.175-.117.278-.131v.007c.245-.05.335-.186.56-.228l-.02.02c.083-.007.22-.089.363-.117-.041.007-.084-.006-.005-.04.163-.036.26-.097.384-.112l.096-.075c.542-.193 2.653-1.034 3.193-1.24l-.019.012c.207-.08.468-.18.757-.293l.112-.043c.047-.018.132-.052.195-.083a2.14 2.14 0 0 0 .389-.228c.238-.18.426-.433.5-.728.024-.093.033-.187.034-.283a9.402 9.402 0 0 0-.084-.317c-.172-.596-.582-1.06-.789-1.636-.313-.87-.302-1.528-.81-2.358-.274-.447-.543-.868-.749-1.351-.004-.009-.002-.017-.003-.026a2.896 2.896 0 0 0-.365-.202c-.458-.206-1.039-.222-1.554-.36-.08.015-.162.03-.239.046a8.87 8.87 0 0 0-1.053.292s-.57.263-.653.299c0 0-.393.21-.594.309l-.005-.034c-.158.108-.482.244-.6.311-.281.125-.728.305-1.056.561l-.163.038c-.567-.62-.628-1.807-.679-2.043-.155-.727-.116-1.437-.214-2.122-.193-.5-.391-.998-.593-1.494-.557-.764-1.45-3.257-1.54-3.574-.105-.19-.2-.383-.273-.584-.4-.426-.788-.86-1.086-1.372a.185.185 0 0 1-.025-.08c-.076-.112-.674-.686-.74-.804-.112-.202 2.244-1.093 2.522-1.23.349-.173.7-.305 1.059-.426.136-.055.269-.116.403-.173l-.006-.094c.528-.323 1.057-.644 1.583-.974.27-.169.539-.339.808-.51l.002-.001c.236-.265.47-.53.74-.76.28-.296.596-.535.919-.78l.377-.33c.122-.13.247-.244.41-.35a.696.696 0 0 1 .1-.047l.145-.108c.237-.204.456-.4.687-.556.439-.727 1.241-1.007 1.98-1.367.026-.065.114-.137.299-.212.647-.264 1.252-.623 1.895-.881a4.12 4.12 0 0 1 .546-.172c.546-.41 1.09-.824 1.63-1.247a.888.888 0 0 0 .1-.094c.013.103.637.356.77.497 3.333 3.544 3.755 5.612 3.787 5.867.009.046.562 1.27.683 1.94.07.388.097 1.26.125 1.32.153.324.527 2.235.527 2.7 0 .024.106.533.242 1.18-.029.009-.058.018-.087.029a.407.407 0 0 0 .092-.006l.012.053-.008-.002-.007-.032-.076.038a.302.302 0 0 0-.074.03c.049.056.017.135-.148.243-1.055.687-2.24.813-3.376 1.295a7.753 7.753 0 0 0-.731.362c-.004.006-.01.01-.012.016-.002-.005-.067.041-.095.044a.29.29 0 0 0-.018.01c-.011.054-.09.085-.136.148-.013.03.025-.006.05-.012l-.119.145c-.06.048-.093.045-.042-.021a2.248 2.248 0 0 0-.189.229l.004.007c.155 1.227.97 2.198 1.15 3.408.182 1.216.491 2.346.741 3.544a1.3 1.3 0 0 0 .164.079c.142.056.282.09.419.114.753-.015 1.502-.068 2.19-.4.176-.085.6-.2.868-.132l.177-.09c.005.02-.043.063-.094.1.037-.016.088-.05.127-.056-.08.005.097-.083.041-.068.072-.083.172-.149.27-.213.049.812.1 1.629.155 1.816.027.092-.043.179-.16.253m-17.517-.894l.038-.027c.108-.047.133-.108.144-.076l-.138.081c.105-.054.045.004.017.044a.757.757 0 0 1 .123-.057c.013-.023-.021-.003-.04.001.046-.044.105-.116.179-.142.105-.058.034.043.155-.025.649-.345 1.309-.609 2-.864.02.007.002.013-.017.026.205-.088.394-.146.583-.217.059-.002.08.013.099.021-.02-.008.245-.095.521-.166a3.77 3.77 0 0 1 .347-.075.834.834 0 0 1 .138-.014l.005-.06c.14-.007.049.063.156.052.058-.084.13.033.164 0-.003.007.029.027.015.048.032-.038.039.011.067.015.016-.004.002-.018.003-.032l.066.028c.012.032 0 .056-.027.04.032.031.101.1.19.24.088.137.19.344.286.585l.259.686c.07.104.133.215.194.331l.001-.009a.32.32 0 0 1 .05.106c.09.182.178.379.272.598.265.616.706 1.171.96 1.782.1.244.2.387.057.646-.31.557-1.379.641-1.914.803-1.014.306-2.02.624-3.085.667h-.098c-.101.038-.203.076-.3.11-.003-.02.055-.055.114-.089-.04.014-.1.041-.14.041.083.007-.118.069-.056.062-.128.105-.307.156-.465.215.011-.302.034-.603.073-.903a5.001 5.001 0 0 0-.17-.83c-.244-.79-.25-1.2-.281-1.998-.023-.582-.273-1.086-.524-1.602l.037-.019c-.014.002-.028.008-.041.01l-.017-.033m-.65 7.84c-.006.052-.665 5.076-.846 4.9-.091.04-.84-.071-.937-.049a1.721 1.721 0 0 1-.474.047c-.082-.004-1.218-.516-1.274-.605-.053-.086-.7-.326-.76-.404-1.102-.306-1.102-.306-1.736-.485-1.703-.44-3.409-.868-5.115-1.297a27.227 27.227 0 0 1-2.512-.416.682.682 0 0 1-.129-.04 22.818 22.818 0 0 0-2.009-.233c-.26-.017-.366-.076-.377-.153a1.07 1.07 0 0 1-.404-.049 3.21 3.21 0 0 1-.77-.39c-.175-.045-.35-.088-.523-.137-.266-.075-.291-.19-.194-.303l-.652-.16c.194-.783.269-1.565.38-2.348a5.96 5.96 0 0 0 .006-1.618c-.044-.735-.245-1.397-.362-2.132a88.676 88.676 0 0 1-.159-.442c-.032-.294-.148-.515-.18-.809-.118-.735-.403-1.323-.919-1.838-.137-.074-.19-.22-.253-.294a1.197 1.197 0 0 0-.863-.662c-.578-.074-1.051-.368-1.451-.662-.82-.442-1.682-.588-2.649-.515-.073 0-.22 0-.378.073-.504-.073-1.113.074-1.786.148-1.05.147-2.194.441-3.17 1.103-.566.368-1.143.81-1.646 1.25-.503.442-.923.809-1.353 1.25-.084.074-.178.221-.262.295-.303.588-.596 1.103-.752 1.691-.104.22-.146.515-.324.735a7.335 7.335 0 0 0-.499 1.004l-.343-.095a30.786 30.786 0 0 0-5.12-1.173 12.174 12.174 0 0 1-3.52-.854c-.96-.32-1.813-.533-2.56-.746-.96-.214-2.026-.427-2.986-.64l-.64-.107c-.214 0-.427-.107-.534-.107-.213 0-.427-.106-.64-.106-.213 0-.427-.108-.533-.108-.64-.106-1.28-.32-1.92-.533-1.173-.427-2.453-.746-3.84-1.067l-.213-.106c-.854-.214-1.707-.427-2.56-.747-.534-.213-1.067-.32-1.494-.533l-.261-.087c.32-.966.399-1.933.535-2.9a5.97 5.97 0 0 0 .007-1.618c-.044-.735-.245-1.397-.363-2.133l-.158-.441c-.032-.294-.148-.514-.18-.809-.118-.735-.403-1.323-.92-1.838-.136-.074-.188-.221-.252-.294a1.198 1.198 0 0 0-.863-.662c-.578-.074-1.051-.368-1.451-.662-.82-.441-1.683-.588-2.649-.515-.073 0-.22 0-.378.074-.505-.074-1.113.073-1.786.146-1.05.148-2.194.442-3.17 1.104-.566.368-1.143.809-1.646 1.25-.503.441-.923.809-1.353 1.25-.084.074-.178.221-.262.294-.303.589-.596 1.103-.752 1.692-.105.22-.146.515-.324.735-.06.106-.12.212-.178.318-.009-.043-.023-.083-.023-.13v-1.174c0-.64-.106-1.28-.106-1.92 0-.64-.107-1.387-.107-2.027v-1.386c-.107-.854-.107-1.814-.107-2.667v-2.987c0-.96.107-1.813.107-2.773 0-.427.107-.853.107-1.174 0-.64.106-1.386.213-2.026 0-.427.107-.747.107-1.174v-1.173c.106-.96.106-1.92 0-3.2 0-.32 0-.64-.107-.96 0-.32-.107-.533-.107-.853 0-.534-.106-1.067-.106-1.707 0 0 .095-1.707.035-2.03.172-.167.226-1.851.214-2.174-.055-1.442-.383-1.442-.41-2.886-.02-1.176.313-2.354.294-3.53-.015-.957-.032-1.913-.054-2.87-.021-.91-.047-1.821-.082-2.732a111.47 111.47 0 0 0-.237-4.262c-.001-.019-.006-.034-.009-.052a16 16 0 0 0 .249-.477c.32-.64.533-.64 1.173-.533l.533.106c.854.214 1.814.534 2.668.96.746.32 1.493.534 2.24.64 1.6.107 3.093.534 4.266.96l3.2.96c.32.107.747.107 1.067.107h.533c.32 0 .746.107 1.066.107.64.106 1.28.106 1.92.213a14.46 14.46 0 0 1 3.094.64l.534.107c.213 0 .426.106.64.106.106 0 .213 0 .32.107h.213c.96.213 1.92.32 2.88.746.213.107.426.107.64.214.32.106.747.106 1.066.213.427.107.854.107 1.28.214.32.106.64.106.96.213l.32.106c1.067.214 2.24.32 3.414.107.64-.107 1.173 0 1.813 0h.32c.32 0 .533.107.747.107.96.32 2.027.427 3.093.533.533.107.96.213 1.28.32.427.214.853.214 1.28.107.32-.106.747 0 1.067.107h.106l2.24.64.64.213s.107 0 .107.107c-.103.207.693.066.59.272.451.264.263 1.114.477.9 0 0 0 3.094.107 4.481v1.92c.106.853.106 1.813.213 2.667 0 .64.106 1.173.106 1.813.107.64.107 1.28.107 1.92l.32 3.2c0 .533.107 1.067.213 1.6.107 1.173.32 2.346.32 3.52 0 .426 0 .853.107 1.28 0 .213 0 .32.107.533l.026.368a.88.88 0 0 1 .196.045l.046.023c.317.05.387.013.826.261l.465.14.104.056c.38.085.766.22 1.015.532l.371.18c1.274.491 1.372.76 2.631 1.29 1.134.477 2.26.975 3.384 1.483 1.515.128 2.969.824 4.261 1.597.657.08 1.043.406 1.678.736.772.401 1.64.492 2.426.837 5.699 2.509 4.765 2.41 5.426 2.788.124.071.696 1.466.814 1.47.17.384 2.063 2.978 2.463 3.438.91 1.046 1.39 2.79 1.476 4.202.074.413.184.802.233 1.222.01.083.119 1.425.198 2.03.066.185.133.37.197.558.034.101.065.203.098.304.084.022.15.057.181.11.33.567.477 1.039.536 1.69.004.045.011.09.017.136l.052.157c.015.046.028.094.042.141.534 1.809.48 3.695.22 5.58m-21.182-2.269c-.187.81-.374 1.618-.477 2.353-.072.516-.208.956-.628 1.324-.167.147-.282.441-.46.662-.105.22-.22.515-.398.736-.827 1.176-1.844 2.132-3.21 2.426-.073 0-.073 0-.157.074-.86.368-1.648.22-2.447.147-.872-.073-1.609-.588-2.198-1.103-.927-.735-1.454-1.692-1.572-2.942-.085-.441-.087-.956-.172-1.397-.096-.368-.044-.735.165-1.176l.376-1.104c.146-.515.355-.956.501-1.47.24-.662.607-1.177 1.1-1.545.576-.441 1.153-.882 1.867-1.25 1.038-.589 2.173-.81 3.38-1.03.736 0 1.598.147 2.26.662.274.147.39.368.58.588.537.883.981 1.913 1.351 2.942.096.368.191.735.14 1.103m-43.63-11.332c-.187.81-.374 1.618-.478 2.353-.072.515-.207.956-.627 1.324-.168.147-.283.441-.46.662-.105.22-.22.515-.398.735-.827 1.177-1.844 2.133-3.21 2.427-.073 0-.073 0-.157.074-.86.368-1.649.22-2.447.147-.873-.074-1.609-.588-2.198-1.103-.927-.736-1.454-1.692-1.573-2.942-.085-.441-.086-.956-.171-1.397-.096-.368-.044-.735.165-1.177l.376-1.103c.146-.515.355-.956.5-1.47.24-.663.608-1.178 1.1-1.545.577-.441 1.154-.882 1.868-1.25 1.038-.589 2.173-.81 3.38-1.03.736 0 1.597.147 2.26.662.274.147.39.368.58.588.537.882.981 1.912 1.351 2.942.096.368.191.735.14 1.103M14.372 29.455c.427 0 .853 0 1.28-.213.107-.107.32-.107.427-.107.427 0 .853-.107 1.28-.32.533-.214 1.067-.32 1.6-.533l.533-.214h.107c.64 0 1.173-.213 1.92-.64.107-.106.213-.106.32-.106h.106l.96-.32.747-.214c.427-.106.747-.213 1.174-.32.853-.213 1.706-.533 2.56-.746.533-.107 1.066-.214 1.493-.214 1.28-.213 2.346-.427 3.414-.853h.106c.107-.107.213-.107.427-.107a9.88 9.88 0 0 0 1.386-.426c.854-.32 1.814-.534 2.667-.747 1.706-.32 3.307-.64 4.907-.96l1.28-.32c.32-.107.533-.107.853-.213.213 0 .427-.107.64-.107.32-.107.64-.107 1.067-.213.64-.213 1.28-.32 1.92-.534.233-.058 2.54-1.135 3.047-1.243.279-.06.793-.25.793-.25h.427c.213 0 .426.107.746.107.107 0 .32.106.533.106.214 0 .427.107.64.107.32 0 .64.107 1.067.107.32.106.64.106 1.067.213.853.106 1.813.32 2.666.64 1.387.426 2.454.534 3.414.534.026-.005.055-.005.082-.008-.69.204-.423.618-.931 1.131-.389.392-.53.772-.932 1.165-.321.314-1.148.844-1.536 1.07-.473.276-.75.81-1.258 1.009-.446.175-1.075.156-1.536.295-.677.204-1.322.37-2.002.559-.526.146-1.31.478-1.82.652-1.122.383-.943.523-1.905 1.117-.486.3-1.936.856-2.422 1.165-.513.325-1.132.584-1.676.884-.876.482-1.215.917-2.142 1.304-.616.257-1.658.41-2.282.652-.505.196-.66.408-1.164.605-.546.214-.954.284-1.49.512-.132.057-1.376.078-1.508.136a.835.835 0 0 0-.418.382 75.016 75.016 0 0 0-3.86-.897c-.107 0-.32-.107-.534-.107-.746-.213-1.6-.32-2.24-.427-.533 0-.96-.106-1.493-.106-.853-.107-1.6-.107-2.453-.214a14.66 14.66 0 0 1-2.667-.533c-1.387-.533-2.88-.853-4.267-1.066-.32-.107-.746-.107-1.066-.214-.64-.107-1.387-.213-2.027-.32-.32-.107-.747-.107-1.067-.213-.32-.107-.64-.107-1.066-.32.106 0 .106-.107.106-.107m49.097-8.023c.255.045.499.093.717.13.96.213 1.813.213 2.88.32.64 0 1.28.106 2.027.213.64.107 1.28.213 2.026.213h.213c.747 0 1.387.214 2.027.427a4.27 4.27 0 0 0 1.6.32h1.173c.534 0 1.067 0 1.6.107.32.106.64.106.96 0 .96 0 1.92.106 2.667.213l1.6.32c.32.107.747.107 1.067.213.426.107.853.214 1.28.214h.106s.107 0 .107.106c0 .107-.107.107-.107.107-.533.32-.96.533-1.28.746-.32.214-.746.427-1.066.64-.64.32-1.28.64-1.92 1.067-.747.427-1.6.747-2.56 1.174-1.173.426-2.347.853-3.52 1.493l-2.347 1.174c-.96.426-1.813.96-2.453 1.386-.534.32-1.067.64-1.813.96-.32.107-.64.32-.854.427-.32.106-.64.32-.96.426-.533.214-1.066.427-1.6.533l-.96.32-.64.32c-.213.107-.32.107-.534.214H62.8c-.213.106-.32.106-.533.213-.96.107-1.707.64-2.347 1.494-.213.213-.32.32-.533.213-.107 0-.213-.107-.427-.107-.64.214-.96.107-1.28-.106-.107-.107-.32-.107-.533-.214a91.957 91.957 0 0 1-2.134-.32h-.853c-.64.214-1.28.107-2.133-.213l-1.707-.107h-.213c-.213 0-.427 0-.64-.107-.96-.213-2.027-.32-2.987-.32h-.427c-.426 0-.853 0-1.28-.106h-.96c-.213 0-.533 0-.746-.107-.853-.213-1.6-.426-2.453-.533a7.371 7.371 0 0 1-.469-.085 100.31 100.31 0 0 0 2.875-1.112c.37-.152.738-.306 1.104-.463a53.91 53.91 0 0 0 1.416-.633c.687-.32 1.333-.703 1.967-1.106.482-.308.958-.626 1.437-.937.32-.207.64-.41.968-.605a12.45 12.45 0 0 1 2.054-1.006 25.696 25.696 0 0 1 1.677-.541c.691-.202 1.13-.608 1.82-.813.705-.209 1.136-.32 1.816-.605a41.78 41.78 0 0 0 1.304-.605c.556-.271 1.048-.209 1.546-.59.176-.132.543-.466.975-.893.292-.29.334-.782.645-1.125.222-.243.642-.782.839-1.024.655-.806 1.173-1.088.882-1.32m22.053 4.608a.923.923 0 0 1 .146-.08c.131-.074.28-.166.414-.244.01.042.014.086.024.128.291-.041.579-.017.685.1.18.036.296.12.264.258-.036.156-.068.317-.098.48.188.046.314.151.286.328-.138.864-.145 1.726-.137 2.591a.202.202 0 0 1 .054.15c-.012.435-.035.869-.046 1.304a.302.302 0 0 1-.05.15 17.698 17.698 0 0 1-.46 2.084c.01.405.018.8-.038 1.205-.044.325-.12.63-.118.96 0 .016.081.527.072.595-.005.036-.016.07-.023.105.003.008.01.015.011.023.039.164.075.324.108.484a.124.124 0 0 1 .032.074c.002.052.006.102.01.152.064.342.105.683.107 1.032.044.396.068.787.016 1.173.028.068.052.137.072.206.08.032-.011 2.082.26 3.025.015.048-.005.168 0 .186.235.716.39 1.48.373 2.235-.004.182-.024.36-.05.539.09.35.15.668.176 1.022a.16.16 0 0 1 .005.094c0 .018.226 2.189.226 2.2.007.024-.071 1.949-.105 2.873.076.038.122.092.12.164a15.81 15.81 0 0 1-.342 3.078c.109.201.234.374.374.523.261.18.526.358.796.533.675.311 2.22 1.237 2.256 1.259.328.195.68.299 1.038.422.208.071.266.157.236.242l.034.008c.143.057.275.126.408.195a.31.31 0 0 1 .1.022c.397.182.803.34 1.203.515.987.185 2.188.53 2.742 1.336.187.099.371.203.549.32.544.356 1.001.775 1.49 1.161.432.218.85.462 1.226.785l.004.002h-.001c.03.027.061.049.09.076.164.15.03.512-.123.634-.294.233-.604.49-.926.734-.245.256-.66.537-.854.6-.03.01-.06.017-.092.025a4.074 4.074 0 0 1-.358.176 7.483 7.483 0 0 1-.897.302c-.035.056-.121.117-.283.18-.407.158-.82.3-1.23.45-.197.135-.393.272-.591.407a3.864 3.864 0 0 1-.824.562c-.432.293-.865.583-1.298.873-.287.251-.565.514-.892.769-.13.267-.324.455-.631.64-.533.318-1.05.613-1.571.959-.517.342-1.069.561-1.54.975-.192.169-.353.369-.557.532-.529.42-1.808 1.004-1.868 1.014-.008.048-.106.075-.151.05a1.31 1.31 0 0 1-.853.335c-.354.015-.613-.151-.545-.354a88.3 88.3 0 0 0-.82-.488c-.162-.066-.324-.129-.479-.193-.47-.195-.903-.463-1.375-.651a.48.48 0 0 1-.134-.036 9.858 9.858 0 0 1-.215-.113c-.103-.013-1.908-.66-2.41-1.046-1.097-.845-1.938-1.481-3.365-1.85-.606-.156-1.278-.26-1.955-.378-.514.014-.998-.001-1.349-.16-.16-.071-.3-.159-.446-.256a5.364 5.364 0 0 1-1.124-.502c-.05.007-.172.015-.187.016-.133.006-.508-.298-.49-.314-.437-.186-.869-.37-1.281-.612-.365-.18-.723-.362-.942-.427-.575-.17-1.415-.66-1.676-.768-.649-.268-.967-.668-1.394-.853a10.873 10.873 0 0 1-.787-.37 3.12 3.12 0 0 1-.418-.262c-.226-.174-.35-.352-.406-.572-.003-.011-.021-.004-.032-.007v-2.172c0-.32-.106-.64-.106-1.067 0-.32-.107-.64-.107-.853 0-.534-.107-.96-.107-1.493 0-.534-.106-1.174-.106-1.707 0-.427-.107-.854-.107-1.28l-.107-.427v-.427c.107-.64 0-1.28-.106-1.92 0-.32-.107-.64-.107-.96 0-.32 0-.64-.107-.96 0-.64-.106-1.28-.106-1.813 0-.64 0-1.28-.107-1.92-.107-1.173-.107-2.454-.107-3.627v-1.813c.187.156.716-2.042.534-2.133l-.107-.107c-.107-.107 0-.107 0-.107.107-.106.213-.213.32-.213h.107c.426-.213.96-.427 1.493-.64.427-.214.96-.32 1.387-.533.64-.214 1.28-.427 1.813-.747.534-.213.96-.427 1.387-.64l.64-.32c.107 0 .213-.107.32-.107.213-.106.426-.213.533-.213.533-.32 1.067-.533 1.6-.853a33.455 33.455 0 0 1 2.667-1.494l.426-.213 2.134-1.067h.107c.426-.213.853-.426 1.28-.533 1.493-.427 2.88-1.067 4.16-1.813.106-.107.213-.107.426-.214.534-.213.96-.533 1.494-.853.106-.107.32-.213.426-.213.107 0 .214-.107.32-.214.214-.106.427-.32.64-.427l.003-.001m22.535 52.1c.165.776.304 1.432.306 1.45.044.68.296 1.307.34 1.986.01.136.017 2.255.032 2.36l.005.043c-.722.6-2 1.138-2.65 1.283-.182.04-.744.071-.794-.213a.22.22 0 0 1 .009-.11 1.203 1.203 0 0 1-.07-.156c-.077-.196-.154-.489-.235-.742a30.276 30.276 0 0 0-.454-1.4c.003-.12-.049-.269-.072-.386.003.068-.028.053-.041.003-.098-.35-.031-.017-.15-.367a7.867 7.867 0 0 1-.153-.481 4.249 4.249 0 0 1-.152-.65c-.026-.197-.008-.331.027-.407a.512.512 0 0 1 .126-.178c.026-.12.19-.206.305-.317l-.007.019c.06-.056.32-.196.645-.329.334-.14.674-.284.784-.343l-.034.006c.186-.12.183-.054.348-.107-.045-.046.112-.154.175-.187l.003.013c.094-.053.296-.2.455-.28l.008.033c.12-.093.381-.193.477-.24.2-.076.506-.166.767-.303m1.82 8.931a.913.913 0 0 1-.036-.23c-.053-.335.052-.622.067-.979.02-.457-.11-.907-.165-1.361-.095-.794-.102-1.577.06-2.352-.352-3.451-1.118-6.877-1.886-10.138-.826-3.505-2.069-6.9-4.247-9.158.01-.046-.315-.258-.489-.374l-.372-.248c-.21-.14-.568-.501-.59-.519-.457-.32-.925-.624-1.402-.91-.124-.078-.16-.283-.182-.302a4.876 4.876 0 0 0-.56-.356 11.007 11.007 0 0 1-.397-.194c-.057-.025-.115-.046-.174-.069h-.002c-.043-.017-.085-.036-.128-.051-.077-.032-.115-.07-.129-.111a15.92 15.92 0 0 1-.616-.368 1.377 1.377 0 0 1-.09-.064c-.01-.008-.014-.017-.022-.025-.634-.25-4.017-1.622-4.175-1.676-1.35-.466-2.386-1.242-2.421-1.257-.154-.07-1.619-1.412-2.56-1.769-.075-.028-.112-.063-.125-.1-.057-.017-.11-.037-.17-.051-.19-.046-.335-.182-.181-.363a7.42 7.42 0 0 1 .047-.056l-.024-.013c.012-1.033.024-2.065.024-3.082v-.107c0-1.28 0-2.666-.213-4.053-.107-.534-.107-1.173-.107-1.707v-.213c0-.34-.001-.683-.017-1.04-.02-.045-.043-.088-.06-.136a8.76 8.76 0 0 1-.34-1.361c-.249-.37-.328-.781-.322-1.215-.142-.654-.227-1.305-.222-1.872.01-1.233.378-2.392.66-3.578.044-.58.099-1.159.215-1.732.01-.492.019-.984.03-1.475.06-2.55-.467-7.82-.477-7.919-.094-.297-.172-.598-.158-.921l-.01-.043c-1.741-.196-3.444-.716-5.125-1.26-.147-.03-.291-.061-.467-.061-.32 0-.64-.107-.96-.107-1.173-.213-2.453-.32-3.84-.213-.96.106-1.813 0-2.773-.107-.64-.107-1.174-.107-1.6 0h-.534c-.746-.213-1.386-.32-2.026-.32h-.32c-.534 0-.96 0-1.494-.106-1.066-.214-2.133-.214-3.307-.214-.213 0-.426 0-.64-.107-.533-.213-1.173-.32-1.813-.426-.853-.214-1.706-.32-2.56-.534-.96-.213-1.92-.32-2.773-.533-.853-.214-1.707-.32-2.56-.533-.534-.107-.96-.214-1.493-.32-.32-.107-.64-.107-1.067-.214-.533-.106-1.173-.213-1.706-.426-.32-.107-.64 0-.96.213h-.107c-.107.106-.32.213-.427.213-.747.213-1.494.427-2.133.64a5.188 5.188 0 0 0-1.174.427l-2.24.64c-.32.106-.64.106-.96.213l-.213.107c-.32.107-.747.213-1.067.213-.32.107-.64.107-.853.214-.427.106-.747.106-1.174.213-.533.106-.96.214-1.493.32-.32.107-.64.213-.96.213-.213 0-.32.107-.533.107-.213 0-.427.107-.64.107l-.32.106c-.64.107-1.173.32-1.813.534-.427.106-.747.32-1.174.426-.426.107-.853.32-1.387.427-.853.213-1.813.533-3.093.747-.32.106-.64.106-.853.213-.853.213-1.6.427-2.453.746-.427.107-.854.32-1.28.427-.427.214-.854.32-1.28.32-.214 0-.32.107-.427.107-.107 0-.213 0-.32.106-.534.107-1.067.214-1.494.427-.533.213-1.066.32-1.6.427-.106 0-.32.106-.426.213 0 0-.107 0-.107.107-.106.107-.213.107-.32.213a5.228 5.228 0 0 1-.746.32c-.64.214-1.387.32-2.027.534l-.64.213h-.32c-.107 0-.32.106-.427.106l-1.28.32c-.427.107-.853.32-1.067.64-.136.273-.272.503-.408.745-.479-.002-.426.685-.443 1.33-.083 3.099-.24.998-.147 4.12.017.564.346 3.555.367 4.12.025.64-.176 3.996-.147 4.635.074 1.592.119 1.39.22 2.97.034.52.069 2.945.459 3.063-.055.98-.219 1.355-.345 2.335a2.32 2.32 0 0 1-.089.4v.283a20.58 20.58 0 0 1 .107 4.373c-.107.747-.107 1.6-.213 2.346-.107.854-.107 1.6-.214 2.454-.106.96-.106 1.92-.106 2.88v.107c0 .746 0 1.493-.107 2.24v2.88c0 1.066 0 2.24.107 3.626 0 .107 0 .214.106.427 0 .107 0 .32.107.427.107 1.066.107 2.133.107 3.2v.746a2.585 2.585 0 0 0 0 1.28c0 .107.106.32.106.427 0 .107.107.32.214.427.084.085.237.101.403.105a4.99 4.99 0 0 1-.06.637c-.063.442-.061.956-.123 1.398a8.069 8.069 0 0 0 .49 2.794c.274.662.465 1.398.74 2.06.338.735.843 1.323 1.349 1.911.2.147.473.295.694.295.284.073.557.22.841.294.557.22 1.105.515 1.682.588.568.147 1.156.147 1.829.073l1.575-.22c.378-.074.682-.147 1.05-.147.736 0 1.365-.294 2.069-.588.86-.368 1.658-.81 2.286-1.618.094-.147.262-.295.356-.442.745-.588 1.153-1.397 1.571-2.28.096-.203.202-.467.299-.68a18.5 18.5 0 0 1 1.829.62c.64.32 1.386.533 2.24.746 1.066.213 2.133.534 3.413.96.213.107.427.107.64.214.32.107.747.32 1.066.32.32.106.747.106 1.067.106.214 0 .533 0 .747.107.533.107 1.173.213 1.707.32l.32.107c.213 0 .32.107.533.107.213.106.533.106.747.213 1.706.213 3.413.853 4.906 1.387.214.106.534.213.747.213.213 0 .427.107.64.107h.213c.427.106.854.106 1.28.213l.427.107c.533.106.96.106 1.493.213.747.107 1.387.32 2.134.533.256.064.553.166.863.26a.719.719 0 0 0-.042.159c.032.294-.01.588-.05.883-.062.44-.061.955-.123 1.397a8.065 8.065 0 0 0 .49 2.794c.274.662.465 1.397.74 2.06.338.735.843 1.323 1.349 1.912.2.147.473.294.694.294.284.073.557.22.841.294.557.22 1.105.515 1.682.588.568.147 1.157.147 1.829.074l1.575-.221c.378-.073.683-.147 1.05-.147.736 0 1.366-.294 2.069-.588.86-.368 1.658-.81 2.286-1.618.094-.148.262-.294.357-.442.744-.588 1.152-1.397 1.57-2.28.075-.157.154-.35.232-.53l1.48.38c1.31-.054 2.576.368 3.857.623 1.712.34 3.44.604 5.14 1.011 2.041.49 3.913 1.35 5.885 2.044.06.021.12.038.18.059.093.022.783.238 1.372.424a6.45 6.45 0 0 0 1.889-.72c.108-.396 4.342-3.448 4.524-3.552.438-.413.934-.714 1.46-.977.032-.064.118-.136.285-.212.321-.147.645-.283.97-.418a97.11 97.11 0 0 1 1.646-.97c.038-.065.12-.138.267-.22 1.53-.846 2.941-1.878 4.432-2.753.696-.546 1.589-.948 2.506-1.25l.196-.113c.954-.54 2.45-1.04 2.552-2.345.003-.03-.123-.984-.123-1.004m-27.064-35.78c-.02.011-.019.015-.018.02 0 .004.002.01-.02.026-.005.003.014.606-.003.615-.104.054-.642.33-1.25.636.002-.016.187-.183.218-.776-.076-.388-.277-.649-.284-.726a1.672 1.672 0 0 0-.518-.541 3.462 3.462 0 0 0-1.171-.455 1.73 1.73 0 0 1-.293.006 6.428 6.428 0 0 0-1.845.138c-.335.113-.68.196-1.038.286-.07.017-.796.459-.932.635a2.374 2.374 0 0 0-.17.25l-.084.137c-.022.163-.154.34-.186.52l-.005-.022c-.026.089-.151.384-.207.746-.063.36-.007.792.069.926l-.005-.04c.115.23.306.53.365.577l-.012.006c.043.041.12.103.202.166.081.068.178.106.25.159 0 0 .189.133.267.174-.218.107-.427.207-.611.294-.86.484-1.943 1.316-2.794 1.77l-1.327 1.008c-.23.119-3.257.767-3.9 1.078-.32.154-.676.323-1.05.501l-.152.069-.069.028c-.012.003-.022.015-.034.009-.01-.009-.013-.022-.018-.033a.99.99 0 0 1-.03-.148c-.014-.123-.03-.245-.045-.365a43.144 43.144 0 0 1-.119-1.166l-.138-1.612.004.161c-.111-1.04-.04-.902-.078-1.726-.053.112-.146-.781-.17-1.123l.013.012c-.032-.389-.108-1.15-.166-1.867-.644-1.116-.455-2.476-.533-3.754-.076-1.253-.215-2.531-.017-3.774-.027-.024-.057-.045-.083-.07-.111-.112.006-.218.152-.296.03-.138.06-.276.1-.413a.276.276 0 0 1 .081-.118l.018-.32-.013-.13c.14-.068.29-.147.396-.208l.02-.062c.452-.25.24-.107.485-.226.186-.117.377-.226.573-.325a.84.84 0 0 1 .233-.07c.037-.06.122-.123.28-.188l.015-.006a.437.437 0 0 1 .171-.153c.69-.41 1.365-.817 2.078-1.163.458-.504 1.049-.842 1.645-1.177.102-.057.32-.098.55-.113a.873.873 0 0 1 .196-.101l.308-.122c.028-.06.113-.126.28-.195-.02-.084.058-.183.296-.29a14.4 14.4 0 0 0 .793-.366.96.96 0 0 1 .277-.06c.905-.4 1.78-.872 2.696-1.25l.143-.061.002.002c.056-.022.111-.046.167-.067a.988.988 0 0 1 .458-.035l.56-.29 1.634-.857 1.666-.875c.004.071.975-.393.977-.355l.01.216c.207.016.369.082.385.222.07.295.07.59 0 .884a.237.237 0 0 1-.024.075 3.677 3.677 0 0 1-.043.271.224.224 0 0 1 .067.12c.126.69.179 1.255.14 1.956a.325.325 0 0 1-.093.195c-.038 1.736-.282 3.455-.409 5.183.213 1.81.493 3.287.627 5.758-.014.56.003.59.016 1.172.002-.324.07.968.073 1.03 0 .024.008.045 0 .052M80.7 52.895c-.263.111-.41.127-.768.314-.187.097-1.94.617-2.115.706-.106.054-.336.006-.37-.042 0 0-.137-.038-.126-.069 0 0-.044-.005-.08-.028-.061-.018.006-.05-.059-.075l-.243-.104c-.066-.042-.125-.082-.19-.117-.09-.086-.167-.147-.185-.199.01-.009.012-.006.02-.006a.053.053 0 0 1-.033-.04c-.008-.015-.021-.028-.026-.051.013-.015.032-.02.045-.025-.016.008-.03-.049-.024-.144a.98.98 0 0 1 .046-.219s.02-.03.035-.122c-.064-.066.067-.148.044-.2a.31.31 0 0 0 .071-.12c-.005-.017.044-.093.033-.06l.066-.113c.029-.05.034-.051.057-.085.043-.054.107-.122.195-.195.172-.145.25-.24.404-.307l.276-.174.039.01c.206-.155.042-.048.248-.132.115-.057.149-.139.223-.14-.01.003.055-.093.083-.059.029-.014.194-.073.149-.037.03-.006.06-.005.078-.023l-.042-.005c.098-.034.281-.101.311-.052 0 0 .093.003.17-.032h-.029a.95.95 0 0 1 .355-.068c.143-.008.209.013.225-.011 0 0 .242.124.243.11.038.007.151.06.357.245.216.179.349.398.368.468.003.063.058.106.084.08.013.024.014.05.022.075 0 0 .068.02.075.1.01.128.043.102.085.235.053.14.01.291.029.268.078.11-.041.309-.146.443m3.715-1.072a48.09 48.09 0 0 0 .02.375s-.025.06-.038.069l-.184.095-.914.472-.215.076-.096.099c-.344.08-1.053.502-1.245.507-.165.118-.375.177-.768.407.204-.041-3.73 1.202-5.197 1.883a.356.356 0 0 0-.074.046c-.313.242-.991.746-1.195.83l-3.086 1.971c.07-.02.222-.092.14-.039-.233.128-.523.232-.618.33.012-.036-.368.148-.365.14-.248.171-1.273.57-1.54.793-.77.39-.205.04-1.045.449l-.028.08c-.02.008-.31.146-.735.348l-.081.04-.042.019a.823.823 0 0 1-.077.034l-.34.138-.731.296-.095.04c-.016.004-.033.014-.047.017l-.036-.007-.142-.024-.144-.026-.073-.012-.018-.003-.009-.002h-.003c-.014.03.018-.041.014-.034h-.006l-.045-.006c-.067-.002-.106-.039-.148-.07-.04-.033-.081-.063-.116-.105a1.063 1.063 0 0 1-.193-.286c-.114-.224-.167-.524-.223-.804-.026-.142-.045-.288-.067-.429l-.035-.253-.094-.777c-.05-.447-.08-.728-.083-.691.007-.073.02-.14.014-.383-.089-.866-.144-1.71-.222-2.658.012.09.018.176.026.103-.214-3.148-.32-6.162-.429-9.274-.02-.59.05-.119.031-.624.002-.284-.032-.598-.056-.852.012-.01.022-.022.032-.033l.008.216c.02.02.011-.056 0-.224a.264.264 0 0 0 .077-.174c0-.31 0-.622.012-.933.033-.098.074-.196.123-.299a.238.238 0 0 0 .04-.078v-.004l.046-.09a.107.107 0 0 0 .009-.083 4.58 4.58 0 0 1 .078-.215c.114-.06.24-.044.36.016a.88.88 0 0 1 .11.058c.057-.062.114-.141.165-.245.1-.032.84-.42.885-.465.203-.196.654-.259.866-.446.492-.279.918-.635 1.331-1.015.652-.36 1.246-.814 1.892-1.18a.87.87 0 0 0 .29-.095c.55-.347 1.1-.691 1.654-1.026l.874-.449c.67-.327.858-.527 1.009-.605l-.015.045.676-.344c-.137.032-.04-.077-.334.058.008-.027.228-.124.455-.247-.077.047-.238.159-.092.091.526-.268.162-.112.77-.445-.002.01-.397.263.12.022a237.62 237.62 0 0 0 3.011-1.547l2.726-1.418c.159-.049.319-.096.477-.149.008-.003.014-.006.023-.008.19-.038.381-.081.573-.128.02.102.128.187.37.206.142.01.278.023.412.035.227 1.187.734 1.95.755 2.45.011-.072-.137-.326-.14-.41l.065.711.027-.384c.1.827.334 5.534.424 6.432l-.008-.253c.057.705.081 1.216.116 2.064l-.037-.524c-.046.203-.026.63-.001 1.141l.009-.317c.072.556.048 1.023.09 1.878l.002-.326c.02.182.022.427.03.68-.042-.446-.023.305-.045.45.044-.288.073.554.088.813-.035.13.06.788.022.835.022.264.041.038.038-.047 0 .57.082 1.054.13 2.077l.03 1.129.025.501zM21.855 80.38c.168.368.18.809.275 1.177.033.809-.07 1.544-.688 2.28-.178.22-.367.515-.619.735-.587.515-1.153.883-1.868.736-.504-.074-.914-.294-1.315-.59-.536-.366-1.062-.808-1.012-1.69.062-.441.04-.81.239-1.177.094-.147.125-.368.23-.588.02-.147.041-.295.125-.368.272-.368.545-.736.89-1.103.43-.442.745-.589 1.26-.589h.588c.809 0 1.63.442 1.894 1.177zm43.627 11.332c.169.368.18.81.276 1.177.033.809-.07 1.545-.688 2.28-.178.22-.367.515-.618.735-.588.515-1.154.883-1.868.736-.505-.074-.915-.294-1.315-.589-.537-.367-1.063-.808-1.012-1.691.061-.441.04-.809.238-1.177.094-.147.125-.368.23-.588.02-.147.042-.294.125-.368.273-.368.545-.736.89-1.103.43-.441.745-.588 1.26-.588h.588c.81 0 1.63.44 1.894 1.176z" fill="#1D6C97"/></g></svg>