<?xml version="1.0" encoding="UTF-8"?>
<svg width="120px" height="120px" viewBox="0 0 120 120" version="1.1" xmlns="http://www.w3.org/2000/svg" xmlns:xlink="http://www.w3.org/1999/xlink">
    <!-- Generator: Sketch 50.2 (55047) - http://www.bohemiancoding.com/sketch -->
    <title>image / outline / step-4</title>
    <desc>Created with Sketch.</desc>
    <defs></defs>
    <g id="Symbols" stroke="none" stroke-width="1" fill="none" fill-rule="evenodd">
        <g id="image-/-outline-/-step-4" fill="#1D6C93">
            <g id="phone" transform="translate(25.000000, 5.000000)">
                <path d="M61.5399863,63.535799 C61.6063996,62.9904514 61.5859063,62.4352368 61.6124716,61.8845762 C61.648145,61.152133 61.6952036,60.4204489 61.7282204,59.6876262 C61.733913,59.5661849 61.6876135,59.442846 61.6728128,59.3195072 C61.6261338,58.9236843 61.9156955,55.5271215 62.0720512,54.221627 C62.1984261,53.1650873 62.3191085,52.1047525 62.3612335,51.0428997 C62.406774,49.8948994 63.1597103,39.4714366 63.3073375,38.4566423 C63.4557236,37.4418481 63.6564813,36.4350234 63.8101806,35.4209881 C63.9308629,34.6266858 63.9995532,33.8244139 64.1202355,33.0301116 C64.1999314,32.5029802 64.3430045,31.9860955 64.4310495,31.4601026 C64.4750719,31.1944497 64.437501,30.9158936 64.4754514,30.6487226 C64.6105549,29.7041366 64.8257338,28.7663817 64.8913881,27.8180006 C64.97412,26.6237009 65.3335105,25.4734236 65.333131,24.2612871 C65.3327515,23.528844 65.6211747,22.7994369 65.7369235,22.0616807 C65.878858,21.1550451 66.0158591,20.2438555 66.0822723,19.3296298 C66.1972621,17.7395072 66.3775266,16.149764 66.2557057,14.5505332 C66.2302789,14.219226 66.2082677,13.8882984 66.1805639,13.5573707 C66.1558961,13.2674295 66.1259153,12.9782473 66.0928984,12.6340369 C66.0181361,12.7497857 65.8955562,12.8556674 65.8815146,12.9744522 C65.8063727,13.6347895 65.743375,14.2977834 65.7031476,14.9615363 C65.6568481,15.7262373 65.6625406,16.4947333 65.601061,17.2582958 C65.5164315,18.310661 65.3908156,19.3596107 65.2800004,20.4096988 C65.1828473,21.3353096 65.0936638,22.2616794 64.9782945,23.1850132 C64.8792439,23.976659 64.7407249,24.7629917 64.6318072,25.553499 C64.524787,26.3318621 64.439778,27.1132613 64.3338964,27.892004 C64.1581859,29.1853543 61.8204399,42.4809051 61.7479546,42.7867855 C60.7843934,46.8296439 60.6731987,57.772648 60.747961,59.3661862 C60.7536536,59.483453 60.5851537,67.6883341 60.4117203,68.8515146 C60.3157057,69.4947742 59.666374,74.8992938 59.4762424,76.9653147 C59.3878179,77.9235629 59.3172301,78.8878831 59.1464532,79.8328486 C58.8618251,81.4108271 58.5642938,82.9812156 58.6105933,84.594488 C58.6155268,84.7603313 58.5828895,84.9276927 58.5601192,85.0931565 C58.4948445,85.5751269 58.4242567,86.0563382 58.3601205,86.5383086 C58.3559459,86.5686689 58.3889628,86.6039628 58.4189436,86.66734 C58.4842184,86.5443807 58.5343129,86.4502636 58.5844075,86.3561466 C58.6272915,86.3648752 58.6705549,86.3739833 58.7141979,86.3823324 C58.6572723,86.9751179 58.6067982,87.5679035 58.541903,88.1595506 C58.4678997,88.8343091 58.2428537,89.5261453 58.3282421,90.1788925 C58.5050911,91.5352406 58.4633456,92.872234 58.3430428,94.2228895 C58.2542388,95.2278166 58.089534,96.2403339 58.4238772,97.2418455 C58.5301384,97.5606291 58.4007274,97.7264724 58.0223617,97.7150873 C56.4755026,97.6706853 54.9282639,97.6369094 53.3806457,97.6240063 C51.837202,97.6111031 50.2929994,97.6152777 48.7499352,97.6357709 C47.3245174,97.6539871 45.899479,97.7268519 44.4740612,97.7355805 C42.8349825,97.7458271 41.1951448,97.7234364 39.5556866,97.6942145 C38.0391877,97.6668902 36.5234479,97.6111031 35.007708,97.5678396 C33.561038,97.5264737 32.1147474,97.4934568 30.6684568,97.4418442 C29.2381054,97.3906112 27.8081335,97.3044637 26.3770231,97.2649953 C25.1857594,97.2319784 23.9933571,97.2490561 22.8017139,97.2350144 C21.4377757,97.2190753 20.0742171,97.1906124 18.7106584,97.1754323 C18.577073,97.1739143 18.443867,97.239948 18.3087635,97.2581642 C17.9136996,97.3116743 17.5190152,97.378467 17.1220538,97.4000988 C16.7099122,97.422869 16.2920781,97.3678409 15.881834,97.4019963 C15.023775,97.4741021 14.171029,97.6312168 13.312211,97.6642337 C11.8526377,97.7207798 10.3907875,97.7302674 8.93007577,97.7192618 C7.75626923,97.7105332 6.58284219,97.6555051 5.41017416,97.5959229 C4.83522527,97.5667011 4.83560478,97.5416538 4.91681868,98.0509485 C5.05723524,98.1534146 5.20979594,98.2141353 5.28152223,98.3264686 C5.48114145,98.6406981 11.4917292,99.0350029 13.182041,99.0000886 C14.2898138,98.9776978 19.6123605,98.7841507 20.6844599,98.7473387 C22.2798956,98.6926901 28.5159089,98.6851001 30.2984402,98.7473387 C31.8536485,98.8016078 33.6764072,98.9450604 35.231995,99.0023656 C36.4141507,99.0460086 37.4649978,98.9735233 38.647533,99.0046426 C39.5101461,99.0274129 40.630063,99.0084376 41.4938146,99.0167867 C42.8304284,99.0296899 44.0163791,99.0414545 45.352234,99.0171662 C46.5613344,98.9955345 47.874419,99.0957236 49.0838989,99.0312079 C49.6262105,99.0023656 51.5768621,99.041834 52.1199327,99.0532191 C53.455408,99.081682 54.1362386,99.0296899 55.4720934,99.0539781 C56.5851793,99.0744714 57.2049097,99.0737124 58.318375,99.0619477 C58.7001563,99.0581527 58.810592,98.3424077 59.1866807,98.2797895 C59.2883878,98.2630914 59.4299429,98.1044586 59.4363945,98.0035105 C59.4424665,97.9105319 59.2899058,97.8088248 59.2102099,97.7082562 C59.1168519,97.5906099 58.9502496,97.4725841 58.9472135,97.3515222 C58.9229252,96.3075061 58.9054681,95.262731 58.9301358,94.2190944 C58.9707428,92.4908322 59.0439871,90.7637085 59.1054668,89.0362053 C59.1081233,88.9553709 59.1346886,88.8047078 59.1449352,88.8050873 C59.5381016,88.8217855 59.43981,88.4802317 59.4648573,88.3045212 C59.5415171,87.7690408 59.6117254,87.2229342 59.5874371,86.6855562 C59.5198854,85.1489436 59.5141928,83.6256137 59.7900924,82.0988683 C59.932027,81.311397 59.8971126,80.4905294 59.9232984,79.6840829 C59.9426531,79.1026825 59.8819324,78.5144509 59.9445506,77.938743 C60.026903,77.1854272 60.2443589,76.446153 60.3157057,75.6924576 C60.4242439,74.5497704 60.7062156,73.4268174 60.6003339,72.2556674 C60.5441673,71.6310035 60.7274678,70.9881233 60.7684543,70.3513152 C60.8227234,69.5057798 61.4113344,64.5927182 61.5399863,63.535799" id="Fill-1"></path>
                <path d="M31.4131579,103.18473 L31.4097424,103.187007 C31.282988,103.56689 30.8776775,103.793455 30.4852701,103.925142 C30.1403008,104.040512 29.7327133,104.137665 29.3262642,104.172959 C29.2313882,104.197247 29.1319581,104.203319 29.032528,104.18738 C28.7706701,104.188898 28.5152637,104.161574 28.2845252,104.088329 C27.8257046,103.941841 27.5167881,103.486815 27.6458196,103.002947 C27.6943961,102.821924 27.7987598,102.67202 27.9281707,102.546024 C28.0090051,102.362724 28.1581503,102.206368 28.3380353,102.114907 C28.7368942,101.784359 29.3144996,101.590053 29.7801513,101.497074 C30.2845124,101.396126 30.7964636,101.359694 31.2624948,101.628762 C31.8537623,101.970316 31.9125855,102.731602 31.4131579,103.18473 M32.5664712,102.180941 C32.5596402,101.556277 32.1194153,101.19461 31.7402906,100.803341 C31.6511071,100.710742 31.4632525,100.711501 31.3194204,100.675068 C31.2013946,100.644708 31.0716041,100.64319 30.9634454,100.593475 C30.4131643,100.338828 29.8488416,100.434842 29.3167766,100.591198 C28.9513141,100.698598 28.6435362,100.991954 28.2860432,101.144895 C28.1266514,101.213205 27.8439208,101.216241 27.725895,101.118329 C27.2492377,100.721747 26.8974373,100.760457 26.7532257,101.386639 C26.5961109,102.069367 26.4856752,102.798015 26.5520884,103.487574 C26.653416,104.531211 27.8970514,105.445057 28.9957161,105.279214 C29.8602267,105.148285 30.7680008,105.028361 31.5061365,104.467834 C32.046171,104.05721 32.5520501,103.612051 32.6575523,102.964617 C32.6192223,102.649629 32.5687483,102.415475 32.5664712,102.180941" id="Fill-3"></path>
                <path d="M13.1513391,96.5641269 C13.1221173,96.4738049 13.1183223,96.3762723 13.1304664,96.2810167 C12.5532405,96.3182082 11.9760146,96.3584356 11.3995477,96.4054941 C10.3471825,96.4912621 9.29557628,96.5853791 8.24472911,96.6878453 C8.12822131,96.6992304 8.0189241,96.7925884 7.90621135,96.847237 C7.91152441,96.8954341 7.91721697,96.9432516 7.92290953,96.9910691 C8.08571684,97.0142189 8.25118068,97.0681085 8.41171096,97.0555848 C9.8822898,96.9394566 11.3517301,96.8051121 12.8226885,96.6939173 C12.9543764,96.6840502 13.0746793,96.6722856 13.182079,96.6331967 C13.1725914,96.6096674 13.1593087,96.5880357 13.1513391,96.5641269" id="Fill-5"></path>
                <path d="M63.6313582,9.05785484 C60.3425746,9.05519831 62.7490109,9.09276923 59.4609863,9.03736162 C56.6496191,8.99030309 52.6538192,9.56752901 49.8428315,9.50073626 C48.4371478,9.46733989 43.7161154,9.53565065 42.3108113,9.50073626 C39.4440364,9.42938947 41.4512342,9.56487248 38.5840799,9.50073626 C37.2766878,9.47113493 31.3719817,9.52540404 30.0645897,9.50073626 C28.6308228,9.47303246 27.1143239,9.14134577 25.6809365,9.12123205 C24.3735445,9.10263634 22.5610323,9.13147866 21.2536403,9.12123205 C19.4403692,9.10643138 17.3743482,9.11591899 15.5610771,9.12123205 C14.0851852,9.12502709 5.96379491,11.0274817 6.07347163,9.55538487 C6.23020687,7.44989548 6.10876553,4.94175211 8.30495643,4.91253028 C9.99147317,4.89013953 14.6335687,3.43056632 16.3200855,3.4286688 C18.3861064,3.42563276 21.2407372,3.40741656 23.3063786,3.4286688 C24.78265,3.44384896 27.1143239,3.39413391 28.5905953,3.41842218 C29.9738882,3.44119244 32.0144824,3.38274879 33.3977752,3.41159111 C34.7951098,3.44043343 34.2793635,2.87876719 35.6766981,2.91178405 C36.7757423,2.93759034 37.2319063,2.89470636 38.3313301,2.92203067 C39.8261972,2.95922208 40.8155647,2.88559826 42.3108113,2.92241017 C43.3464783,2.94821646 44.2531139,3.37136366 45.2887809,3.39603143 C46.2178072,3.41804268 48.0823114,3.37971275 49.0113377,3.40020598 C50.4439661,3.43208433 53.5965077,3.37705622 55.0295156,3.40324201 C55.7460196,3.41652466 60.3846996,3.39223639 61.1015831,3.40362152 C64.0943533,3.45068004 62.1657129,3.2666205 64.6434959,4.94668566 C66.7892128,6.40132533 65.8294466,9.05937286 63.6313582,9.05785484 M68.8738294,10.8665719 C68.1763007,10.7428536 68.204384,10.2050961 68.1189955,9.66923614 C67.9546702,8.63508715 67.7440454,7.60435369 67.4814284,6.59107743 C67.3421504,6.05559698 67.0734614,5.54895886 66.8275427,5.04725428 C66.1451941,3.65826885 65.1311588,2.54859852 63.7873344,1.79945719 C63.1311716,1.43361513 62.3827893,1.1793473 61.6446536,1.02754562 C60.8211294,0.858286737 59.9634499,0.834757475 59.118294,0.797945566 C58.1767441,0.757338615 57.2321581,0.749369026 56.2894696,0.772898288 C55.4587349,0.794150524 54.6298976,0.911796831 53.7991629,0.927356504 C52.1585662,0.957716841 50.5172105,0.950126757 48.8762342,0.952024278 C48.1551762,0.953162791 47.4333592,0.923940966 46.7126807,0.936085101 C46.0049053,0.947849732 45.29713,1.01160644 44.5889751,1.02071454 C43.9256017,1.02944314 43.2618488,0.985420649 42.598096,0.985041145 C41.9009467,0.984282136 41.2037975,1.00135983 40.5070277,1.02223256 C39.8580755,1.04158727 39.228478,0.961891388 38.5874954,0.839311526 C37.9981254,0.726598773 37.3719434,0.819197802 36.7620801,0.803638129 C35.6539278,0.775934321 34.546155,0.737224891 33.4383822,0.698515461 C32.9844951,0.682576284 32.5294696,0.669293637 32.0771006,0.628686685 C31.4425695,0.571761053 30.811454,0.442350115 30.1773025,0.43020598 C29.1230397,0.409333248 28.0676385,0.476884999 27.0129963,0.470433427 C26.0953551,0.46436136 25.1780934,0.380870432 24.2604522,0.379352415 C23.0729835,0.377454894 21.8847558,0.404779198 20.6984256,0.452976233 C19.3933106,0.505347815 18.0893341,0.596049323 16.7849781,0.670052645 C15.8316636,0.724321748 14.8669638,0.70382852 13.9284499,0.850696652 C12.4172641,1.08712778 10.9117709,1.3861771 9.4271504,1.75239867 C8.52089433,1.97592665 7.6541067,2.36453897 6.77934948,2.70419525 C6.66929325,2.74707922 6.55240595,2.82943164 6.46511998,2.92658472 C4.74103233,3.806655 4.46627128,6.00664094 4.36190762,8.06962586 C4.22984015,8.81724917 3.63515704,11.5030005 3.84426386,11.5090726 C3.88449131,11.5185602 2.88184117,16.6832331 2.58544838,18.5572249 C2.56647317,18.5898623 2.54977498,18.6259152 2.53952837,18.6695581 C2.27425492,19.8141429 2.06932264,20.9727692 1.79835663,22.1162154 C1.73042538,22.4038796 1.68564388,27.8038451 1.58431625,28.4774651 C1.58165972,28.4945428 1.0124034,31.7840854 0.90993726,33.417092 C0.901208663,33.54878 0.957754792,33.6508666 1.04276374,33.7210749 C1.01202389,34.1077897 0.939918094,42.9779417 0.850355098,44.8735653 C0.744852926,47.1111222 0.849975594,49.3600641 0.907660235,51.6033136 C0.956236775,53.4993166 0.946369665,58.5842936 0.892480066,59.2362819 C0.789254919,60.4833327 0.702348454,61.7330401 0.654151418,62.9835065 C0.644284309,63.2332203 0.909557756,71.2331692 0.310700102,72.6236726 C-0.0657680808,73.4988094 -0.113585612,74.3610429 0.240112318,75.2654015 C0.387359954,75.6414902 0.467814848,76.0828536 0.43555699,76.4832305 C0.263262075,78.6168032 0.48868758,80.7545505 0.185843215,82.8995083 C-0.0168120368,84.3359318 0.279201252,85.8418045 0.336506389,87.3169374 C0.365728214,88.0770843 0.380528878,88.8395083 0.363451188,89.6000348 C0.349409532,90.248228 0.27540621,90.8952826 0.237455788,91.5434758 C0.221516611,91.8193754 0.235178763,92.096793 0.22682967,92.3730721 C0.208233964,92.9567496 0.0909671607,93.5552277 0.182427677,94.120689 C0.360794659,95.2314978 0.626447611,96.322952 0.624170585,97.4618441 C0.620755047,98.8959905 0.64618183,100.331655 0.717908127,101.764283 C0.74788896,102.363141 0.910316765,102.958204 1.04731779,103.547194 C1.10841797,103.809811 1.38773307,104.081916 1.33915653,104.298613 C1.20101699,104.919481 1.59418336,105.34908 1.83630705,105.782854 C2.43402619,106.856091 3.37443764,107.602197 4.50649872,108.087203 C4.91294774,108.261396 5.3231918,108.437486 5.74823652,108.554752 C6.35999732,108.72477 6.98010721,108.905035 7.60818669,108.968412 C8.86700217,109.095546 10.1356848,109.12325 11.3967773,109.234065 C13.8768373,109.452659 16.3345066,109.376758 18.7902784,108.914902 C20.1545961,108.658737 21.5450995,108.513766 22.9306694,108.401053 C23.567857,108.349061 24.2069421,108.322875 24.8471657,108.305798 C25.1670878,108.297449 25.4873893,108.290997 25.8073114,108.284925 C26.127613,108.279232 27.1082519,108.261016 27.2786492,108.261016 C27.4490466,108.261016 28.471431,108.276576 28.8122258,108.281509 C29.0733247,108.284545 29.3355621,108.321357 29.5955225,108.308834 C30.2926717,108.274678 30.9886825,108.218891 31.6858317,108.182838 C31.9180883,108.171074 32.1503449,108.161206 32.3826015,108.155514 C32.6672296,108.147924 32.9522373,108.146026 33.237245,108.146406 C33.8068808,108.147165 37.9043878,107.902764 38.5780078,107.996502 C39.0831279,108.067089 43.5252248,107.613202 44.0238933,107.728951 C44.1085227,107.748306 47.5593546,108.025723 47.645502,108.040524 C47.9028059,108.085306 50.3786914,108.307316 50.6295437,108.376006 C51.3259339,108.566517 52.0037285,108.842037 52.7096063,108.978279 C52.9710847,109.027994 53.2337016,109.074673 53.4966981,109.118696 C54.2864463,109.248486 55.0818872,109.349434 55.877328,109.428751 C56.1334934,109.454177 56.3900382,109.476568 56.6469626,109.496302 C57.1600523,109.535391 57.675419,109.563095 58.1900267,109.578655 C58.4473306,109.586245 58.7050139,109.591558 58.9619383,109.593835 C59.0898312,109.594973 59.2200012,109.571065 59.3497916,109.532355 C59.566109,109.468978 59.7809084,109.364994 59.9809071,109.26822 C60.0465613,109.236721 60.1167696,109.157405 60.1676232,109.071258 C60.2180972,108.984731 60.2480781,108.890993 60.2317594,108.830652 C60.196086,108.696307 60.2089891,108.593082 60.2480781,108.505037 C60.2613607,108.475815 60.2772999,108.448112 60.2951366,108.421926 C60.3668629,108.316044 60.4723651,108.229138 60.556615,108.124774 C60.6514911,108.007887 60.7418131,107.889861 60.8234065,107.768799 C60.9042409,107.647737 60.9767262,107.52288 61.0363083,107.391951 C61.1554727,107.130473 61.2226449,106.845086 61.2059467,106.514917 C61.1960796,106.319852 61.1717913,106.124028 61.144467,105.928204 C61.0776743,105.439023 60.9975989,104.948324 61.1031011,104.458763 C61.1243533,104.360851 61.1524366,104.262939 61.1900075,104.165027 C61.2442766,104.023852 61.325111,103.892923 61.3983554,103.748331 L61.3983554,101.869027 C61.2476922,102.013238 61.1467441,102.20299 61.0237847,102.31001 C60.9008253,102.417031 60.7558547,102.441319 60.5167671,102.253464 C60.5072795,102.321016 60.4947558,102.385152 60.4826117,102.447391 C60.4454203,102.632969 60.4067108,102.796535 60.4260656,102.95327 C60.4313786,102.995016 60.4351737,103.036761 60.4378302,103.079266 C60.4404867,103.121011 60.4416252,103.163136 60.4423842,103.20564 C60.4431432,103.28989 60.4401072,103.37452 60.4351737,103.459529 C60.4135419,103.84093 60.3884946,105.751734 60.282613,105.872796 C60.290203,105.930101 60.2788179,106.659508 60.2196153,106.763872 C60.2268258,106.79613 60.2344159,106.828008 60.2378315,106.860266 C60.241247,106.893662 59.7607947,107.57715 59.4689559,107.74489 C59.3080461,107.83673 59.1315767,107.901246 58.9463786,107.950961 C58.6807257,108.023446 58.3991335,108.067848 58.12627,108.124395 C57.4678302,108.35741 56.7198274,108.440142 55.9369102,108.438624 C54.1350242,108.434829 52.1836135,108.348682 50.5752746,107.464437 C50.0428302,107.34717 49.5111448,107.228006 48.9775618,107.118708 C48.7062163,107.06368 48.4341118,107.01055 48.1616278,106.961594 C47.5362048,106.84964 46.8997763,106.800684 46.2679017,106.722886 C46.0576564,106.697079 45.8477906,106.667857 45.6390633,106.631804 C45.0242664,106.526682 44.4136441,106.457233 43.7996063,106.457992 C43.6766469,106.458371 43.5536876,106.461407 43.4307282,106.4671 C43.1840505,106.479623 42.9369932,106.503912 42.6880385,106.543001 C41.8242869,106.678484 40.9514272,106.761595 40.080465,106.845465 C39.2914757,106.921746 36.9723255,107.053054 36.6038269,107.067855 C35.4987106,107.112257 34.3932148,107.150587 33.287719,107.190814 C32.793984,107.208271 30.8194236,107.27848 30.3256886,107.291762 C30.1875491,107.295937 24.8885317,107.448498 24.8467862,107.449257 C24.6137706,107.454949 24.380755,107.460262 24.1477395,107.464437 C23.4486927,107.478858 22.7492664,107.49252 22.0509787,107.521742 C21.7063888,107.535784 21.3644555,107.612823 21.0217632,107.663297 C20.1599091,107.790051 18.9868616,107.560831 18.1542294,107.792328 C17.0396255,108.101624 16.1883975,107.993466 15.0548184,108.045078 C14.0202899,108.092516 13.0867096,108.088342 12.050663,108.045078 C11.3079733,108.013959 10.607788,108.001056 9.8685138,107.918703 C8.57364541,107.774492 7.1770699,107.504664 5.88371952,107.349447 C4.87461781,107.228385 3.18392653,105.87773 2.80745834,104.980202 C1.51942103,101.910013 1.37331191,94.8117662 1.20481204,93.3415668 C1.10841797,92.5028625 1.2196127,91.6421469 0.937261564,90.8212793 C0.920183874,90.7723233 0.928912471,90.7119821 0.935743547,90.6580925 C1.08109366,89.4892195 1.32397636,88.3230031 1.35130066,87.1518531 C1.38849208,85.5363036 1.26135817,83.9169591 1.20898658,82.2995121 C1.19836047,81.9811081 1.20746857,81.6623246 1.20746857,81.343541 C1.246178,81.3408845 1.28488743,81.3378485 1.32321735,81.3351919 L1.79456159,82.5731347 L1.95243534,82.5344252 C1.88716062,81.9898367 1.82871697,81.4448686 1.75357513,80.9017981 C1.71714273,80.6403197 1.6154356,80.3849134 1.60253246,80.1238145 C1.57444914,79.5640457 1.60822502,79.000482 1.56837708,78.4422313 C1.5520584,78.2111132 1.34143355,77.9894827 1.33915653,77.7629187 C1.3273919,76.3716563 1.32169934,74.9792553 1.37179389,73.5891314 C1.3994977,72.8225328 1.52852913,72.0585909 1.63213378,71.2961669 C1.72776885,70.5940841 1.89285318,69.8992119 1.94674278,69.194852 C1.98962676,68.6286317 1.81922936,68.0373642 1.91410542,67.486324 C2.00101188,66.9846195 1.93270112,66.5451536 1.8222654,66.0776044 C1.73384091,65.7045518 1.63668784,65.317837 1.64807296,64.9398508 C1.68033082,63.9113943 1.79607961,62.8848354 1.82606044,61.8559995 C1.84617416,61.1349415 1.78583299,60.4112269 1.80594672,59.6901689 C1.84503565,59.1364723 1.89626872,58.6761337 1.96306146,58.4017521 C2.04844991,58.0510902 2.1376334,57.6894227 2.13801291,57.3326887 C2.13991043,56.2586918 2.10651406,55.1843154 2.07084066,54.1106979 C2.0564195,53.665919 1.95471237,53.2200015 1.97482609,52.7782586 C2.02567966,51.6499926 2.17406581,50.5247626 2.19000498,49.3964965 C2.21732929,47.4177616 2.27008037,45.431057 2.13573588,43.4595326 C2.12093522,43.2428357 2.10423703,43.0257593 2.08640033,42.8094419 C2.08412331,42.7847741 2.08222579,42.7601063 2.08070777,42.7354385 C2.06476859,42.5445479 2.04807041,42.3536573 2.03099272,42.1631462 C1.90575633,40.750252 1.76647828,39.3396348 1.82909647,37.916494 C1.84883069,37.7180133 1.86021582,37.5199121 1.86590838,37.3214314 C1.90841285,36.7548316 1.94674278,36.1882318 1.98279568,35.621632 L1.98279568,35.620873 C2.00442742,35.5840611 2.0207461,35.5415566 2.0294747,35.4918416 C2.14142844,34.8193601 2.19797457,33.277814 2.1281458,33.2117802 C2.13345886,33.1169042 2.14750051,32.2546706 2.14750051,31.8231743 C2.09626744,31.8607452 2.33687312,29.7624664 2.41505098,28.8448252 C2.50537299,28.7795505 2.57292474,28.6793614 2.58582788,28.5381858 C2.69967915,27.2569796 2.84085472,26.0110672 3.136868,24.7564263 C3.19872719,24.4949479 3.02187823,24.3158219 2.82074099,24.2752149 C3.02377575,22.842207 3.2268105,21.4099581 3.42984526,19.9780887 C3.94559149,18.8259139 4.73382175,13.8062116 4.78771135,12.7405638 C4.87613583,12.4555561 4.96645783,12.1713074 5.06133389,11.8881973 L7.4381688,11.6104002 C7.55771262,11.6130567 8.12734845,11.5238732 8.29508932,11.4927539 C11.23397,11.5132471 23.1545769,10.9443703 24.3082697,10.9424728 C24.6767683,10.9420933 25.0445079,11.0244457 25.414145,11.0415234 C25.7526628,11.0570831 26.0930781,11.0267227 26.4323548,11.0331743 C26.6820686,11.0381078 26.9310234,11.0855459 27.1799781,11.0870639 C28.4494198,11.095413 29.7241744,11.0244457 30.9864054,11.1193217 C32.067613,11.2005357 33.1287067,11.2092642 34.1943546,11.0293792 C34.2342025,11.0225482 34.2793635,11.0195121 34.3165549,11.0316563 C35.1222424,11.2946527 35.9355199,11.0794738 36.7446229,11.0665707 C37.1670111,11.0597396 37.5886403,10.9838387 38.0102695,10.9864953 C38.2983132,10.9876338 38.5848389,11.1037621 38.8736416,11.1121112 C40.9692639,11.1735909 43.0652657,11.2320345 45.1612674,11.2680874 C46.2413364,11.2866831 47.3217849,11.2464557 48.4022335,11.2540457 C48.9107691,11.2574613 49.4189252,11.3288081 49.9274609,11.3356392 C50.4261294,11.3420907 50.925557,11.3052788 51.424605,11.2874421 C52.9232672,11.233173 54.4234474,11.1997766 55.920971,11.1178037 C57.0720073,11.0551855 58.2192485,10.9234976 59.3695258,10.8384886 C59.9456132,10.7959842 60.5395373,10.8597409 61.098547,10.7451306 C61.6287144,10.6369719 62.12966,10.6267253 62.6473037,10.7318479 C62.6602069,10.7345045 62.674628,10.7284324 62.6890492,10.7288119 C64.1444479,10.7796655 65.600226,10.8221699 67.0552452,10.8859267 C67.5945207,10.9098354 67.5994543,10.9534784 67.6252605,11.5109701 C67.6347481,11.7185589 67.6476513,11.9261477 67.6590364,12.133357 C67.6002133,14.9549709 67.5747865,20.0236292 67.5144453,20.3298891 C67.4704228,20.5556941 67.5630219,20.8069259 67.5250714,21.0350079 C67.3903474,21.8384183 67.2093239,22.6338592 67.0780155,23.4376491 C66.9763083,24.058518 66.9254548,24.6873565 66.8465179,25.3120204 C66.8040134,25.6493997 66.7368412,25.9845019 66.7053423,26.3226402 C66.6651149,26.759829 66.6302005,27.1989154 66.6286825,27.6376223 C66.6267849,28.1548865 64.5152235,42.369976 64.5106694,42.6413215 C64.5068744,42.8883787 64.2108611,46.6515426 64.1323037,47.2944227 C64.1770852,47.3027718 63.8560247,49.704654 63.9008062,49.7133826 C63.7452094,49.8902315 63.7387579,50.2082561 63.6901813,50.467837 C63.613901,50.878081 63.5562163,51.2921201 63.4943571,51.7050207 C63.3770903,52.4883174 63.2416073,53.2693371 63.1520443,54.0556698 C63.0325005,55.1076555 62.9459735,56.1634362 62.8518565,57.2180785 C62.7558419,58.2939729 62.6457857,59.3691084 62.5831675,60.4472798 C62.532314,61.3201395 62.537627,62.1964148 62.5285189,63.0715515 C62.5247239,63.4150028 62.5584997,63.7584541 62.5566022,64.1019054 C62.5550842,64.3698354 62.6192204,64.7034196 62.487153,64.8908947 C62.2328851,65.2521827 62.2875337,65.640795 62.3490134,65.9717227 C62.4905685,66.7341467 62.3307972,67.4662103 62.1611588,68.1686726 C61.9175171,69.1777743 61.8723561,70.1929481 61.8040454,71.2130555 C61.7459812,72.0718735 61.6955072,72.9318301 61.6503462,73.7917866 C61.6222628,74.3310621 61.5752043,74.8726146 61.5987336,75.4103721 C61.634407,76.2475584 61.6416176,77.0657695 61.3956988,77.8889141 C61.2571798,78.3534273 61.1884895,78.9048469 61.3076538,79.3598725 C61.3968373,79.7014263 61.3903858,79.9640432 61.2993048,80.2687851 C61.2044287,80.5875686 61.055663,80.9063522 61.0404829,81.2296898 C60.9786237,82.5659241 60.9471248,83.9036765 60.9270111,85.2414288 C60.9095539,86.4080248 60.9588895,87.5761388 60.9122105,88.7412167 C60.872742,89.7207171 60.8408637,90.6892119 61.1049986,91.645183 C61.1714118,91.8846501 60.7862151,92.7476427 60.7850765,92.9916639 C60.7774865,94.7901344 60.8010157,93.8493435 60.7850765,95.6481935 C60.777107,96.5624191 60.4378302,102.16466 60.4378302,103.079266 C60.4757806,103.082302 61.3604049,103.745295 61.3983554,103.748331 C61.4723587,103.555543 60.9748286,103.807534 61.5243508,99.9460787 C61.6511052,99.0550028 61.728524,98.1548188 61.7516738,97.2569118 C61.7846906,95.9764646 61.7520533,94.6937404 61.7364936,93.4121546 C61.7281445,92.7157644 61.6936096,92.0197536 61.679568,91.3229839 C61.677291,91.2045786 61.7049948,91.0797217 61.7459812,90.967768 C62.3061294,89.443679 62.2397162,87.8816397 62.0309889,86.3116307 C61.9835509,85.9556558 61.8503449,85.6019578 61.8567964,85.2493984 C61.8833617,83.9127846 61.9418054,82.5761707 62.0104957,81.2410749 C62.0256758,80.9534107 62.1106848,80.6623309 62.2036633,80.3871904 C62.4177037,79.7553159 62.4146676,79.1291339 62.2290901,78.4946029 C62.1911397,78.3644329 62.1399066,78.2145288 62.1687489,78.0915694 C62.44351,76.9253529 62.404421,75.7394022 62.4336429,74.5545901 C62.4541361,73.7223373 62.487153,72.879079 62.6374366,72.0635244 C62.9228238,70.5143882 63.0438856,68.9485538 62.8962585,67.3990381 C62.7846843,66.2290266 62.9588767,65.095827 62.9918936,63.9470677 C63.0431266,62.1892042 63.1767121,60.4339972 63.2765217,58.6780312 C63.2932199,58.3835359 63.0541323,58.0108628 63.5247175,57.8457784 C63.5562163,57.8347728 63.567981,57.7463483 63.575571,57.6916997 C63.7717747,56.2165668 63.9835381,54.7425725 64.1546945,53.264024 C64.2385649,52.5410685 64.2074456,51.8036918 64.2985266,51.0818748 C64.4150344,50.157023 64.5907448,49.2390023 64.7668348,48.3228791 C64.8044057,48.127814 64.7721478,48.0067521 64.6601941,47.9240202 C64.7596242,46.9775367 64.8503257,46.0940509 64.8666444,45.9035397 C64.9026973,45.4932957 64.9288831,45.0822926 64.9520328,44.67091 C64.9554484,44.6124664 65.011615,44.1927347 65.0848593,43.6489052 L65.0882749,43.6492847 C65.1243278,43.4367623 65.4507014,40.8713138 65.4537374,40.7787148 C65.502314,40.3760608 65.8765051,38.3149734 65.9839048,37.6815809 C66.0643597,37.2075801 66.449177,34.6838771 66.5618897,33.8971648 C66.6347545,33.3901472 66.6119843,32.8698469 66.6761205,32.3613113 C66.7816227,31.5339921 66.9630257,30.7146425 67.0389265,29.8854258 C67.124315,28.9548814 67.1064783,28.015229 67.1744095,27.0824076 C67.2282991,26.3404769 67.3410119,25.6031002 67.4320929,24.8642055 C67.5394926,23.9860327 67.6480308,23.1074804 67.7618821,22.2300667 C67.843855,21.5981922 67.9383515,20.9678357 68.0207039,20.3359612 C68.0707985,19.9534209 68.1159595,19.5701216 68.1470788,19.1856839 C68.1482174,19.1705037 68.1641565,18.8741109 68.1857883,18.4502047 C68.2442319,18.0661464 68.3045731,17.6794316 68.3140607,17.2927168 C68.3273433,16.726117 68.3170967,16.1587582 68.3060911,15.5917789 C68.3117837,15.3432037 68.3106452,15.1853299 68.29926,15.1800169 C68.2886339,14.5428293 68.2707972,13.9056417 68.255617,13.2680746 C68.2430934,12.7367687 68.2070405,12.2043243 68.2275337,11.6741569 C68.2389189,11.3792821 68.3227893,11.0756788 68.7577011,11.1530976 C68.834361,11.1671393 68.929996,11.0730222 69.0552324,11.008886 C68.9584589,10.9310877 68.9205084,10.874921 68.8738294,10.8665719" id="Fill-7"></path>
                <path d="M66.1852318,11.9667547 C66.1423478,11.8115374 65.889598,11.6570792 65.705159,11.6225443 C65.6095239,11.6043281 65.3404554,11.8931308 65.3662617,11.9595441 C65.4448191,12.1633378 65.6281196,12.3257657 65.8596172,12.6149479 C66.0216655,12.3143805 66.2247002,12.1067917 66.1852318,11.9667547" id="Fill-10"></path>
                <path d="M44.812541,35.418749 C26.5458646,35.5215947 31.8718267,35.7925607 13.6066683,36.0437925 C14.2787703,32.940966 14.9489747,29.8582533 15.8468817,26.8089369 C25.457826,26.5668132 35.0676317,26.366435 44.6827506,26.366435 C46.6371973,26.366435 46.839473,26.6100767 47.0656576,26.366435 C46.2390974,29.2066445 45.2717411,32.4977051 44.812541,35.418749 M48.3863322,25.2912995 C46.8246724,24.7744148 41.4159783,24.8552492 41.8535466,24.8605622 C44.4952755,24.8928201 24.7466351,25.0047738 14.7895829,25.4078073 C13.9960396,25.4396857 13.8863629,26.5076105 14.4734559,26.7747815 C13.534183,29.7850089 12.7038278,32.8612701 12.2237549,35.9785178 C12.2188214,36.0077396 12.2199599,36.0350639 12.2184419,36.0631472 C12.0617066,36.0654242 11.9045919,36.0677013 11.7478566,36.0695988 C10.9087728,36.0813634 10.9061163,37.3819244 11.7478566,37.3750933 C30.7503918,37.21684 26.1625653,37.1090608 45.1635824,36.7963493 C45.3442264,36.8733887 45.5480202,36.8787018 45.7157611,36.7880003 C45.8212632,36.7861027 45.9271449,36.7849642 46.0326471,36.7830667 C46.8337805,36.7697841 46.9074043,35.6475901 46.250862,35.4449348 C46.9662274,32.5629798 47.555218,29.6514235 48.3165035,26.7778175 C49.2053023,26.7888232 49.2550174,25.5789637 48.3863322,25.2912995" id="Fill-13"></path>
                <path d="M35.2259609,42.9569551 C31.7724725,44.6867354 28.2381498,46.5690763 25.3227984,49.1151701 C25.2317174,48.5736176 25.1330463,48.0332036 25.0203335,47.4965846 C24.9592333,47.2036073 24.7596141,47.0631908 24.5372246,47.0389025 C24.7334283,46.6195503 24.5353271,46.0119641 23.9326744,46.0184157 C19.6123984,46.0631972 15.3042665,46.0791363 10.9858881,45.8988718 C10.1433887,45.8639574 10.1483223,47.1641389 10.9858881,47.2066434 C15.256449,47.4210633 19.5486417,47.5489562 23.8245157,47.4286533 C23.7698671,47.5451611 23.7482354,47.6829212 23.7793547,47.8385179 C23.93609,48.6275072 24.0605673,49.4157374 24.1584794,50.2039677 C23.2317301,51.133753 22.3896103,52.1500653 21.6564081,53.2707412 C20.4283325,52.1891542 19.1998773,51.1079467 17.9714222,50.0263597 C17.3186749,49.4517903 16.3577703,50.3990328 17.010897,50.9872644 C18.4435254,52.2779582 19.8769129,53.5686521 21.3095413,54.8597254 C21.648818,55.1648468 22.186196,55.1265169 22.4283197,54.7155138 C22.9884679,53.7652352 23.6305891,52.8957911 24.3368464,52.0920012 C24.4620828,53.8616293 24.4685344,55.6373295 24.3903565,57.4323845 C20.4533798,57.0726145 16.4826271,56.9394085 12.5380603,56.6874177 C12.5403373,56.6692015 12.5448914,56.6528828 12.5460299,56.6339076 C12.7065602,53.7788974 12.6090276,50.9151586 12.3991618,48.0650819 C12.3395796,47.259015 11.0784871,47.2502864 11.1342742,48.0650819 C11.3289599,50.9219896 11.3399655,53.7724458 11.3122617,56.6339076 C11.3118822,56.6813456 11.3164362,56.7249886 11.3240263,56.7667341 C10.935414,57.0934872 11.0792461,57.9314325 11.7540046,57.9784911 C16.4370866,58.3048647 21.1361078,58.8441402 25.828298,58.9894903 C26.7573243,59.0179531 26.7148198,57.6676771 25.828298,57.5724215 C25.7835165,57.5678675 25.7391145,57.5640725 25.694333,57.5595184 C25.916343,55.3136124 25.8449962,53.0540443 25.5709941,50.817626 C28.530368,48.0005662 32.2931523,46.0339753 35.9136225,44.1341772 C36.6938832,43.7246922 36.0066011,42.5660658 35.2259609,42.9569551" id="Fill-15"></path>
                <path d="M41.6390129,64.5188288 C31.9381261,64.1579203 22.2110535,64.2304056 12.5090282,64.5267984 C11.6631133,64.5522251 11.6581798,65.8637917 12.5090282,65.845196 C22.2224387,65.6315351 31.9263615,65.7233752 41.6390129,65.9108502 C42.5369199,65.9283074 42.5323658,64.5522251 41.6390129,64.5188288" id="Fill-17"></path>
                <path d="M42.5914546,68.3251802 C32.6275714,68.396527 22.6633087,68.5957667 12.7001845,68.7559175 C11.8356739,68.7695796 11.8326379,70.1099885 12.7001845,70.1012599 C22.6636882,70.0014503 32.6294689,69.9411091 42.5914546,69.7532545 C43.5090958,69.7357973 43.5128909,68.3187286 42.5914546,68.3251802" id="Fill-19"></path>
                <path d="M38.7834714,71.749978 C29.8958621,72.022462 21.0086324,72.4588919 12.1270952,72.8820391 C11.2864934,72.9222665 11.2781443,74.2258635 12.1270952,74.1962622 C21.0124274,73.8843097 29.9045907,73.5852604 38.7834714,73.1222653 C39.6601261,73.0763453 39.6711317,71.7230332 38.7834714,71.749978" id="Fill-21"></path>
                <path d="M27.9309031,76.0998174 C22.5984894,76.2637632 17.2660756,76.6155636 11.9378364,76.8812166 C11.0539711,76.9252391 11.0475196,78.3024599 11.9378364,78.2622324 C17.2668347,78.0216268 22.607977,77.8671685 27.9309031,77.5256147 C28.8386772,77.4675506 28.8557549,76.0713546 27.9309031,76.0998174" id="Fill-23"></path>
            </g>
        </g>
    </g>
</svg>