<svg width="120" height="120" preserveAspectRatio="xMidYMid meet" viewBox="0 0 120 120" xmlns="http://www.w3.org/2000/svg"><g fill="#1D6C93" fill-rule="evenodd"><path d="M86.54 68.536c.066-.546.046-1.1.072-1.651.036-.733.083-1.465.116-2.197.006-.122-.04-.245-.055-.368-.047-.396.243-3.793.4-5.098.125-1.057.246-2.117.288-3.18.046-1.147.799-11.57.946-12.585.149-1.015.35-2.022.503-3.036.12-.794.19-1.597.31-2.39.08-.528.223-1.045.311-1.57.044-.267.007-.545.044-.812.136-.945.35-1.883.416-2.831.083-1.194.443-2.345.442-3.557 0-.732.288-1.462.404-2.2.142-.906.279-1.817.345-2.731.115-1.59.296-3.18.174-4.78-.026-.33-.048-.662-.075-.993-.025-.29-.055-.579-.088-.923-.075.116-.197.222-.211.34a36.68 36.68 0 0 0-.179 1.988c-.046.764-.04 1.533-.102 2.296-.085 1.053-.21 2.102-.321 3.152-.097.925-.186 1.852-.302 2.775-.099.792-.237 1.578-.346 2.368-.107.779-.192 1.56-.298 2.339-.176 1.293-2.514 14.589-2.586 14.895-.964 4.043-1.075 14.986-1 16.58.006.116-.163 8.321-.336 9.485-.096.643-.746 6.047-.936 8.113-.088.959-.159 1.923-.33 2.868-.284 1.578-.582 3.148-.535 4.761.005.166-.028.334-.05.5-.066.481-.137.962-.2 1.444-.005.03.028.066.058.13l.165-.312.13.026c-.057.593-.107 1.186-.172 1.778-.074.674-.3 1.366-.214 2.019.177 1.356.135 2.693.015 4.044-.089 1.005-.253 2.017.08 3.019.107.319-.022.484-.4.473a228.033 228.033 0 0 0-4.642-.091 214.032 214.032 0 0 0-4.631.012c-1.425.018-2.85.09-4.276.1-1.639.01-3.279-.013-4.918-.042-1.517-.027-3.033-.083-4.548-.126-1.447-.042-2.893-.075-4.34-.126-1.43-.051-2.86-.138-4.291-.177-1.191-.033-2.384-.016-3.575-.03-1.364-.016-2.728-.044-4.091-.06-.134-.001-.267.065-.402.083-.395.054-.79.12-1.187.142-.412.023-.83-.032-1.24.002-.858.072-1.711.23-2.57.262-1.46.057-2.921.066-4.382.055a81.307 81.307 0 0 1-3.52-.123c-.575-.03-.574-.054-.493.455.14.102.293.163.365.275.2.315 6.21.709 7.9.674 1.108-.022 6.43-.216 7.502-.253 1.596-.054 7.832-.062 9.614 0 1.556.055 3.378.198 4.934.255 1.182.044 2.233-.028 3.416.003.862.022 1.982.003 2.846.012 1.336.013 2.522.024 3.858 0 1.21-.021 2.522.079 3.732.014.542-.029 2.493.01 3.036.022 1.335.029 2.016-.023 3.352.001 1.113.02 1.733.02 2.846.008.382-.004.493-.72.869-.782.101-.017.243-.176.25-.276.005-.093-.147-.195-.227-.296-.093-.117-.26-.235-.263-.356a66.824 66.824 0 0 1-.017-3.133c.04-1.728.114-3.455.175-5.183a.816.816 0 0 1 .04-.23c.393.016.295-.326.32-.501.077-.536.147-1.082.122-1.62-.067-1.536-.073-3.06.203-4.586.142-.788.107-1.608.133-2.415.02-.581-.041-1.17.022-1.745.082-.754.3-1.493.37-2.247.11-1.142.391-2.265.285-3.436-.056-.625.127-1.268.168-1.905.055-.845.643-5.758.772-6.815m-30.127 39.649l-.003.002c-.127.38-.532.606-.925.738a5.15 5.15 0 0 1-1.159.248.721.721 0 0 1-.293.014 2.44 2.44 0 0 1-.748-.099c-.46-.146-.768-.601-.64-1.085a1.02 1.02 0 0 1 .283-.457.898.898 0 0 1 .41-.431c.399-.33.976-.525 1.442-.618.505-.1 1.016-.137 1.482.132.592.341.65 1.103.151 1.556m1.153-1.004c-.006-.625-.447-.986-.826-1.378-.089-.092-.277-.091-.42-.128-.119-.03-.248-.032-.357-.082-.55-.254-1.114-.158-1.646-.002-.366.108-.673.401-1.031.554-.16.068-.442.071-.56-.027-.477-.396-.829-.358-.973.269-.157.682-.267 1.411-.2 2.1.1 1.044 1.344 1.958 2.443 1.792.864-.13 1.772-.25 2.51-.811.54-.41 1.046-.856 1.152-1.503-.039-.315-.09-.55-.092-.784"/><path d="M38.151 101.564a.653.653 0 0 1-.02-.283c-.578.037-1.155.077-1.731.124-1.053.086-2.104.18-3.155.283-.117.011-.226.105-.339.16l.017.143c.163.023.328.077.489.065 1.47-.117 2.94-.25 4.41-.362.132-.01.253-.022.36-.06-.01-.024-.023-.046-.03-.07"/><path d="M88.631 14.058c-3.288-.003-.882.035-4.17-.02-2.811-.048-6.807.53-9.618.463-1.406-.034-6.127.035-7.532 0-2.867-.072-.86.064-3.727 0-1.307-.03-7.212.024-8.52 0-1.433-.028-2.95-.36-4.383-.38-1.307-.018-3.12.01-4.427 0-1.814-.015-3.88-.005-5.693 0-1.476.004-9.597 1.906-9.488.434.157-2.105.036-4.613 2.232-4.642 1.686-.023 6.329-1.482 8.015-1.484 2.066-.003 4.92-.022 6.986 0 1.477.015 3.808-.035 5.285-.01 1.383.022 3.423-.036 4.807-.007 1.397.028.881-.533 2.279-.5 1.099.026 1.555-.017 2.654.01 1.495.037 2.485-.036 3.98 0 1.035.026 1.942.45 2.978.474.929.022 2.793-.016 3.722.004 1.433.032 4.586-.023 6.019.003.716.014 5.355-.01 6.072 0 2.992.048 1.064-.136 3.541 1.544 2.146 1.454 1.186 4.112-1.012 4.11m5.243 1.81c-.698-.124-.67-.662-.755-1.198a32.8 32.8 0 0 0-.638-3.078c-.139-.535-.408-1.042-.653-1.544-.683-1.389-1.697-2.498-3.04-3.248a7.588 7.588 0 0 0-2.143-.771c-.824-.17-1.682-.193-2.527-.23a41.6 41.6 0 0 0-2.829-.025c-.83.021-1.66.139-2.49.154-1.64.03-3.282.023-4.923.025-.72.001-1.443-.028-2.163-.016-.708.012-1.416.076-2.124.085-.663.008-1.327-.036-1.99-.036-.698 0-1.395.016-2.092.037-.649.02-1.279-.06-1.92-.183-.589-.112-1.215-.02-1.825-.035-1.108-.028-2.216-.067-3.324-.105-.454-.016-.909-.03-1.36-.07-.635-.057-1.267-.187-1.9-.199-1.055-.02-2.11.047-3.165.04-.918-.006-1.835-.09-2.753-.09a84.451 84.451 0 0 0-3.562.073c-1.305.052-2.609.143-3.913.217-.953.054-1.918.034-2.857.18a53.051 53.051 0 0 0-4.5.902c-.907.224-1.774.613-2.649.952a.87.87 0 0 0-.314.223c-1.724.88-1.999 3.08-2.103 5.143-.132.747-.727 3.433-.518 3.44.04.009-.962 5.173-1.259 7.047a.403.403 0 0 0-.045.113c-.266 1.144-.47 2.303-.742 3.446-.068.288-.112 5.688-.214 6.361-.002.018-.572 3.307-.674 4.94a.352.352 0 0 0 .133.304c-.031.387-.103 9.257-.193 11.153-.105 2.237 0 4.486.058 6.73.048 1.895.038 6.98-.016 7.632a85.248 85.248 0 0 0-.238 3.748c-.01.25.256 8.25-.343 9.64-.377.875-.425 1.737-.07 2.641.146.376.227.818.195 1.218-.173 2.134.053 4.272-.25 6.417-.203 1.436.093 2.942.15 4.417.03.76.045 1.523.027 2.283-.014.648-.088 1.295-.126 1.943-.015.276-.002.554-.01.83-.019.584-.136 1.182-.045 1.748.179 1.11.444 2.202.442 3.34-.003 1.435.022 2.87.094 4.303.03.6.192 1.194.33 1.783.06.263.34.535.291.752-.138.62.255 1.05.497 1.484.598 1.073 1.538 1.82 2.67 2.304.407.174.817.35 1.242.468.612.17 1.232.35 1.86.413 1.259.128 2.528.155 3.789.266 2.48.219 4.938.143 7.393-.32 1.365-.255 2.755-.4 4.14-.513a35.05 35.05 0 0 1 1.917-.095c.32-.009.64-.015.96-.021.32-.006 1.301-.024 1.472-.024.17 0 1.192.016 1.533.02.261.004.524.04.784.028.697-.034 1.393-.09 2.09-.126a26.714 26.714 0 0 1 1.551-.037c.57.001 4.667-.243 5.341-.15.505.071 4.947-.383 5.446-.267.085.02 3.535.297 3.622.312.257.044 2.733.266 2.984.335.696.19 1.374.466 2.08.602.261.05.524.097.787.14a37.839 37.839 0 0 0 3.15.378 33.764 33.764 0 0 0 2.315.098 1.32 1.32 0 0 0 .388-.062c.216-.063.43-.167.63-.264a.514.514 0 0 0 .188-.197c.05-.086.08-.18.064-.24a.47.47 0 0 1 .063-.41c.072-.105.177-.192.262-.296.094-.117.185-.235.266-.356a2.6 2.6 0 0 0 .213-.377 1.83 1.83 0 0 0 .17-.877 6.715 6.715 0 0 0-.062-.587c-.066-.489-.146-.98-.04-1.47.02-.097.048-.195.086-.293.054-.141.135-.272.208-.417v-1.879c-.15.144-.251.334-.374.441-.123.107-.268.131-.507-.057a4.3 4.3 0 0 1-.034.194c-.038.186-.076.35-.057.506a1.966 1.966 0 0 1 .016.253c.001.084-.002.169-.007.254-.021.38-.047 2.292-.152 2.413.007.057-.004.787-.063.89.007.033.014.065.018.097.003.034-.477.717-.769.885a2.192 2.192 0 0 1-.523.206c-.265.072-.547.117-.82.173-.658.233-1.406.316-2.19.315-1.801-.004-3.752-.09-5.36-.975-.533-.117-1.065-.236-1.598-.345a37.255 37.255 0 0 0-.816-.157c-.626-.112-1.262-.161-1.894-.24-.21-.025-.42-.054-.629-.09a10.822 10.822 0 0 0-1.84-.174 7.097 7.097 0 0 0-1.112.085c-.863.135-1.736.219-2.607.302-.789.077-3.108.208-3.476.223-1.105.044-2.21.083-3.316.123-.494.017-2.469.087-2.962.1-.138.005-5.437.157-5.48.158-.232.006-.465.011-.698.015-.7.015-1.399.029-2.097.058-.345.014-.687.09-1.03.141-.861.127-2.034-.102-2.867.13-1.114.309-1.966.2-3.1.252a33.184 33.184 0 0 1-3.003 0c-.743-.031-1.443-.044-2.182-.126-1.295-.145-2.692-.414-3.985-.57-1.01-.12-2.7-1.471-3.077-2.369-1.288-3.07-1.434-10.168-1.602-11.638-.097-.84.015-1.7-.268-2.52-.017-.05-.008-.11-.001-.164.145-1.169.388-2.335.415-3.506.037-1.616-.09-3.235-.142-4.852-.01-.319-.002-.638-.002-.956l.116-.009.472 1.238.157-.039c-.065-.544-.123-1.09-.198-1.632-.037-.262-.139-.517-.151-.778-.029-.56.005-1.124-.035-1.682-.016-.23-.227-.453-.229-.68a93.879 93.879 0 0 1 .033-4.173c.027-.766.157-1.53.26-2.293.096-.702.26-1.397.315-2.101.043-.566-.128-1.158-.033-1.709.087-.501.019-.94-.092-1.408-.088-.373-.185-.76-.174-1.138.032-1.029.148-2.055.178-3.084.02-.721-.04-1.445-.02-2.166.039-.554.09-1.014.157-1.288.085-.35.175-.713.175-1.07a92.151 92.151 0 0 0-.067-3.221c-.015-.445-.116-.891-.096-1.333.05-1.128.2-2.253.215-3.382.027-1.978.08-3.965-.054-5.936a46.362 46.362 0 0 0-.055-.725 94.25 94.25 0 0 0-.05-.572c-.125-1.413-.265-2.823-.202-4.247.02-.198.031-.396.037-.595.042-.566.08-1.133.117-1.7a.382.382 0 0 0 .046-.13c.112-.672.169-2.213.1-2.28.004-.094.019-.956.019-1.388-.052.038.189-2.06.267-2.978a.411.411 0 0 0 .17-.307c.115-1.281.256-2.527.552-3.782.062-.261-.115-.44-.316-.48l.609-4.298c.516-1.152 1.304-6.172 1.358-7.237.088-.285.178-.57.273-.853l2.377-.278c.12.003.69-.086.857-.117 2.939.02 14.86-.549 16.013-.55.369 0 .737.081 1.106.099.339.015.68-.015 1.018-.009.25.005.499.053.748.054 1.27.008 2.544-.063 3.806.032 1.082.082 2.143.09 3.208-.09a.265.265 0 0 1 .123.003c.805.263 1.619.047 2.428.035.422-.007.844-.083 1.265-.08.288 0 .575.117.864.125 2.095.062 4.191.12 6.287.156 1.08.019 2.16-.022 3.241-.014.509.003 1.017.075 1.525.082.5.006.999-.03 1.498-.049 1.498-.054 2.998-.087 4.496-.17 1.151-.062 2.298-.194 3.449-.279.576-.042 1.17.022 1.729-.093a3.79 3.79 0 0 1 1.548-.013c.013.003.028-.004.042-.003 1.455.05 2.911.093 4.366.157.54.024.544.067.57.625.01.208.023.415.034.622-.059 2.822-.084 7.89-.145 8.197-.044.226.049.477.011.705-.135.803-.316 1.599-.447 2.403-.102.62-.153 1.25-.231 1.874-.043.337-.11.673-.142 1.01-.04.438-.075.877-.076 1.316-.002.517-2.114 14.732-2.118 15.003-.004.247-.3 4.01-.379 4.653.045.009-.276 2.41-.231 2.42-.156.176-.162.494-.21.754-.077.41-.135.824-.197 1.237-.117.783-.252 1.564-.342 2.35-.12 1.053-.206 2.108-.3 3.163-.096 1.076-.206 2.151-.269 3.23-.05.872-.045 1.748-.054 2.624-.004.343.03.686.028 1.03-.002.268.062.601-.07.789-.254.361-.2.75-.138 1.08.142.763-.018 1.495-.188 2.198-.243 1.009-.289 2.024-.357 3.044-.058.859-.108 1.719-.154 2.579-.028.54-.075 1.08-.051 1.618.035.838.043 1.656-.203 2.479-.139.464-.208 1.016-.088 1.47.089.342.082.605-.009.91-.095.319-.243.637-.259.96a128.54 128.54 0 0 0-.113 4.012c-.017 1.167.032 2.335-.015 3.5-.04.98-.071 1.948.193 2.904.066.24-.319 1.103-.32 1.347-.008 1.798.016.857 0 2.656-.008.914-.347 6.517-.347 7.431.038.003.922.666.96.67.074-.193-.423.059.126-3.803a23.31 23.31 0 0 0 .228-2.69c.033-1.28 0-2.562-.016-3.844-.008-.696-.042-1.392-.056-2.089a1.004 1.004 0 0 1 .066-.355c.56-1.524.494-3.086.285-4.656-.047-.356-.18-.71-.174-1.063.026-1.336.085-2.673.153-4.008.016-.288.1-.579.194-.854a3.063 3.063 0 0 0 .025-1.892c-.038-.13-.09-.28-.06-.403.275-1.167.235-2.353.265-3.537.02-.833.053-1.676.203-2.491.286-1.55.407-3.115.26-4.665-.112-1.17.062-2.303.095-3.452.051-1.758.185-3.513.285-5.269.016-.294-.223-.667.248-.832.031-.011.043-.1.05-.154.197-1.475.409-2.95.58-4.428.084-.723.052-1.46.144-2.182.116-.925.292-1.843.468-2.76.037-.194.005-.315-.107-.398a217 217 0 0 0 .207-2.02c.036-.41.062-.822.085-1.233.003-.059.06-.478.133-1.022h.003c.036-.212.363-2.778.366-2.87.048-.403.423-2.464.53-3.097.08-.474.465-2.998.578-3.785.073-.507.05-1.027.114-1.536.106-.827.287-1.646.363-2.476.085-.93.067-1.87.135-2.803.054-.742.167-1.479.258-2.218.107-.878.216-1.757.33-2.634.082-.632.176-1.262.259-1.894.05-.383.095-.766.126-1.15l.039-.736c.058-.384.119-.77.128-1.157.013-.567.003-1.134-.008-1.701.006-.249.005-.407-.007-.412-.01-.637-.028-1.274-.043-1.912-.013-.531-.049-1.064-.028-1.594.01-.295.095-.598.53-.52.076.013.172-.081.297-.145-.097-.078-.134-.134-.181-.142"/><path d="M91.185 16.967c-.043-.155-.295-.31-.48-.344-.095-.019-.365.27-.339.337.079.203.262.366.494.655.162-.3.365-.508.325-.648M69.813 40.419c-18.267.103-12.941.374-31.206.625.672-3.103 1.342-6.186 2.24-9.235 9.61-.242 19.22-.443 28.836-.443 1.954 0 2.156.244 2.383 0-.827 2.84-1.794 6.132-2.253 9.053m3.573-10.128c-1.561-.517-6.97-.436-6.532-.43 2.641.032-17.107.144-27.064.547-.794.032-.904 1.1-.317 1.367-.939 3.01-1.77 6.086-2.25 9.204-.004.029-.003.056-.005.084l-.47.007c-.84.011-.842 1.312 0 1.305 19.002-.158 14.415-.266 33.416-.579.18.077.384.083.552-.008l.317-.005c.8-.013.874-1.135.218-1.338.715-2.882 1.304-5.794 2.066-8.667.888.01.938-1.199.07-1.487M60.226 47.957c-3.454 1.73-6.988 3.612-9.903 6.158a40.77 40.77 0 0 0-.303-1.618c-.06-.293-.26-.434-.483-.458.196-.42-.002-1.027-.604-1.02-4.32.044-8.629.06-12.947-.12-.843-.035-.838 1.265 0 1.308 4.27.214 8.563.342 12.839.222a.648.648 0 0 0-.046.41c.157.789.282 1.577.38 2.365a19.345 19.345 0 0 0-2.503 3.067l-3.685-3.245c-.652-.574-1.613.373-.96.961l4.299 3.873c.339.305.876.267 1.118-.144.56-.95 1.203-1.82 1.909-2.624.125 1.77.132 3.545.053 5.34-3.937-.36-7.907-.493-11.852-.745.002-.018.007-.034.008-.053.16-2.855.063-5.719-.147-8.569-.06-.806-1.32-.815-1.265 0 .195 2.857.206 5.707.178 8.569 0 .047.004.091.012.133-.389.326-.245 1.164.43 1.211 4.683.327 9.382.866 14.074 1.011.93.029.887-1.321 0-1.417l-.134-.012c.222-2.246.151-4.506-.123-6.742 2.96-2.817 6.722-4.784 10.343-6.684.78-.41.093-1.568-.688-1.177m6.413 21.562c-9.7-.361-19.428-.289-29.13.008-.846.025-.85 1.337 0 1.318 9.713-.213 19.417-.122 29.13.066.898.017.893-1.359 0-1.392m.952 3.806c-9.963.072-19.928.27-29.89.43-.865.015-.868 1.355 0 1.346 9.963-.1 19.928-.16 29.89-.348.918-.017.922-1.434 0-1.428m-3.808 3.425c-8.887.272-17.774.709-26.656 1.132-.84.04-.849 1.344 0 1.314 8.885-.312 17.778-.61 26.656-1.074.877-.046.888-1.399 0-1.372M52.93 81.1c-5.332.164-10.664.516-15.992.781-.884.044-.89 1.421 0 1.381 5.329-.24 10.67-.395 15.993-.736.908-.058.925-1.455 0-1.426"/></g></svg>