<?xml version="1.0" encoding="UTF-8"?>
<svg width="120px" height="120px" viewBox="0 0 120 120" version="1.1" xmlns="http://www.w3.org/2000/svg" xmlns:xlink="http://www.w3.org/1999/xlink">
    <!-- Generator: Sketch 50.2 (55047) - http://www.bohemiancoding.com/sketch -->
    <title>image / outline / step-3</title>
    <desc>Created with Sketch.</desc>
    <defs></defs>
    <g id="Symbols" stroke="none" stroke-width="1" fill="none" fill-rule="evenodd">
        <g id="image-/-outline-/-step-3" fill="#1D6C97">
            <path d="M108.855236,87.6955937 C108.828416,87.7246494 108.794517,87.7551953 108.744973,87.7890937 C108.473041,87.9760938 108.304667,88.596323 108.033107,88.7527773 C108.003678,88.8127514 107.691887,89.2757814 106.325893,89.8080984 C106.131815,89.8837179 106.124365,90.1388873 105.958971,90.2647957 C105.444534,90.6566763 105.034773,90.680517 102.944619,91.9004875 C101.809208,92.5624379 102.228282,92.1984956 101.649774,92.5587128 C101.0288,92.9435157 101.017624,92.788179 100.290112,93.321241 C100.221198,93.3882928 96.5873618,94.9818909 96.4283,95.03963 C96.2614155,95.0999766 96.0949035,95.1592057 95.9283915,95.2195524 C95.9004532,95.2541958 95.8605946,95.2907018 95.8050906,95.3286978 C95.5093176,95.5335784 93.9894765,97.2780431 93.5674225,97.6617285 C93.4217711,97.7939696 92.0311909,98.6295097 91.2701528,99.027723 C91.3979238,98.2804677 92.2390516,95.6103154 92.3057309,94.8611977 C92.3012608,94.4648469 92.2856153,94.0673787 92.272205,93.6706554 C92.3124361,93.6572451 92.3444719,93.6412271 92.3575098,93.616269 C92.459205,93.5950359 92.3623524,93.6635777 92.4841632,93.6356395 C92.5631353,93.5942909 92.6592429,93.5190438 92.7620557,93.5048884 L92.7628007,93.5115936 C93.0071674,93.4624223 93.0965698,93.3260836 93.3211934,93.2843625 L93.3029404,93.3048505 C93.3852651,93.2974003 93.5219763,93.2150756 93.6646477,93.1867648 C93.6236716,93.194215 93.5808329,93.1808047 93.6601775,93.1465337 C93.823337,93.1111453 93.9209346,93.0496811 94.0442354,93.0351532 L94.140343,92.9602787 C94.6819727,92.7665735 96.7933599,91.9258182 97.3327545,91.7194476 L97.314129,91.7324855 C97.5212446,91.6523958 97.7820016,91.5514456 98.0710695,91.43932 L98.183195,91.3964814 C98.2297588,91.3778559 98.3146911,91.3435849 98.3776453,91.3134116 C98.5136114,91.2500849 98.6469701,91.1759554 98.7665458,91.0854354 C99.0053248,90.9055131 99.1926973,90.6518337 99.2668268,90.3571782 C99.29104,90.2644232 99.2996077,90.1698056 99.3014703,90.0744431 C99.2753946,89.9716303 99.2485738,89.8669549 99.216538,89.756692 C99.0448108,89.1614208 98.6350497,88.6969008 98.4283066,88.1210002 C98.1150257,87.2500716 98.1258284,86.5933363 97.6173522,85.7633838 C97.3439298,85.3156267 97.07535,84.8954353 96.8689794,84.4119173 C96.8652543,84.4033495 96.8671169,84.3947818 96.8659993,84.3858415 C96.7486587,84.3113395 96.6287104,84.2416801 96.5009395,84.1843136 C96.0431246,83.9783155 95.4623813,83.9619251 94.9471999,83.8244689 C94.8663652,83.8393693 94.7847855,83.8535246 94.7080484,83.8702876 C94.2535861,83.9697478 93.8039664,84.1016164 93.6553349,84.1623355 C93.6553349,84.1623355 93.0846495,84.4253276 93.0015797,84.4607161 C93.0015797,84.4607161 92.6093266,84.6704393 92.4081711,84.7698994 L92.4025835,84.736001 C92.2453842,84.8444015 91.9205554,84.9803676 91.8032148,85.047047 C91.5219697,85.1718378 91.074585,85.3517602 90.7467762,85.6084196 L90.5839893,85.6464157 C90.0170289,85.0254414 89.9563098,83.8393693 89.9052759,83.6028253 C89.7503117,82.8760582 89.7886802,82.1656814 89.6914551,81.4810079 C89.4977498,80.9807269 89.2995745,80.4826809 89.098419,79.98687 C88.5407714,79.2232243 87.6474923,76.7303868 87.5584623,76.4133807 C87.4534145,76.2237731 87.3587969,76.0296953 87.2846674,75.8285399 C86.8853366,75.4027608 86.4971811,74.9691591 86.199173,74.4569577 C86.1835276,74.4297645 86.1760774,74.4029438 86.1742149,74.3764956 C86.0982228,74.2654875 85.5003441,73.6914495 85.4340373,73.5729913 C85.3219118,73.3714633 87.6784106,72.4800467 87.9559306,72.3425905 C88.3046,72.1697458 88.6566221,72.0382497 89.0149768,71.917184 C89.1505704,71.8620525 89.2839291,71.8013333 89.4180327,71.7435943 C89.4161701,71.7119309 89.4143076,71.6821301 89.412445,71.6504667 C89.9402918,71.327128 90.4688836,71.0056518 90.9952404,70.6763529 C91.2641927,70.5072333 91.53389,70.3373687 91.8028423,70.1667591 C91.8035873,70.1660141 91.8043323,70.165269 91.8050773,70.1648965 C92.0405037,69.9000419 92.27444,69.6340697 92.5445098,69.4046034 C92.8253824,69.1092029 93.140526,68.870424 93.4638647,68.6253123 C93.567795,68.5344199 93.7369146,68.3857884 93.8408449,68.2945234 C93.9626557,68.1648899 94.0878191,68.0509018 94.250606,67.9454814 C94.2710941,67.9324436 94.3076001,67.9156806 94.3511838,67.8981727 C94.398865,67.8620392 94.4480364,67.8262782 94.4964627,67.7897722 C94.7333791,67.5860092 94.952415,67.3904414 95.1826263,67.2339872 C95.6218157,66.5068475 96.4242024,66.2270924 97.1621449,65.8672477 C97.1889656,65.8020584 97.2765055,65.730164 97.461643,65.6545444 C98.1090655,65.3908073 98.7143944,65.0324526 99.3569743,64.7739306 C99.5339166,64.7024086 99.7171915,64.6487672 99.9030741,64.6018309 C100.449174,64.1920698 100.993784,63.7782111 101.533923,63.3554122 C101.570802,63.3263564 101.602838,63.293948 101.633383,63.2611671 C101.646421,63.3636074 102.270376,63.6172868 102.403362,63.7580956 C105.735837,67.3021565 106.157518,69.3695875 106.190299,69.6251294 C106.198867,69.6713207 106.752044,70.8957613 106.873483,71.5651619 C106.943142,71.9533174 106.96959,72.824991 106.997529,72.8845927 C107.15063,73.2094215 107.52463,75.1196532 107.525375,75.5852908 C107.525375,75.6091314 107.631168,76.1183527 107.767134,76.7642852 C107.738451,76.773598 107.709395,76.7832832 107.679967,76.7937135 C107.711258,76.7963211 107.741431,76.7929685 107.77235,76.7881258 C107.776075,76.8060063 107.779427,76.8227693 107.783525,76.8406498 C107.780917,76.8406498 107.779055,76.8395322 107.776447,76.8391597 L107.76937,76.8067514 L107.693377,76.8451199 C107.660597,76.8540601 107.637501,76.8648629 107.618875,76.8756657 C107.667674,76.9311697 107.635638,77.0097693 107.470616,77.1177973 C106.416413,77.8054509 105.231086,77.9313593 104.094558,78.4126423 C103.842368,78.5195527 103.600982,78.6439711 103.363693,78.7754672 C103.359968,78.7806823 103.354007,78.7858974 103.352145,78.7914851 C103.34991,78.7858974 103.285093,78.8324612 103.256782,78.8354413 C103.25045,78.8387939 103.24449,78.8421465 103.238529,78.8458716 C103.227727,78.898768 103.149127,78.9296863 103.102563,78.993013 C103.09027,79.0231864 103.127521,78.9870529 103.15248,78.9810927 L103.034394,79.1263717 C102.97442,79.1736804 102.940894,79.1714454 102.991928,79.1047661 C102.947972,79.1517023 102.879057,79.2284394 102.803438,79.3338598 C102.804183,79.3364673 102.806418,79.3383299 102.80679,79.34131 C102.962127,80.5676132 103.777924,81.538747 103.957846,82.7486597 C104.138514,83.9649052 104.448442,85.0954733 104.698396,86.2927207 C104.750175,86.3210314 104.801954,86.3489697 104.861556,86.3716928 C105.003855,86.4279418 105.143918,86.4614677 105.281002,86.4856809 C106.033845,86.4707805 106.783335,86.4178841 107.470989,86.0859776 C107.647186,86.0006728 108.071475,85.8855672 108.338565,85.954109 C108.398539,85.9243082 108.458141,85.8945074 108.516252,85.8647066 C108.521467,85.8840771 108.473414,85.9269158 108.421635,85.9641668 C108.458886,85.9481488 108.509547,85.9138779 108.548661,85.9075452 C108.468943,85.9127604 108.646258,85.8252205 108.590009,85.8404934 C108.661531,85.7574237 108.761736,85.6914894 108.859707,85.6274177 C108.908878,86.4394897 108.959912,87.2556592 109.015416,87.4434043 C109.041864,87.5346693 108.972205,87.6218367 108.855236,87.6955937 M91.3383222,86.8023145 L91.3759457,86.7754937 C91.4836011,86.7278125 91.5093043,86.6667208 91.5197346,86.6987567 L91.3822784,86.7799639 C91.4865812,86.7259499 91.4266071,86.784434 91.3986688,86.8235475 C91.44188,86.8004519 91.4839736,86.7788463 91.5223422,86.766926 C91.5350075,86.7438304 91.5007366,86.7643184 91.4813661,86.7680435 C91.5279298,86.7244599 91.5871589,86.6518204 91.6609159,86.6264897 C91.7655912,86.5683781 91.6948143,86.6685834 91.8162526,86.601159 C92.4647927,86.2562147 93.124508,85.9924775 93.8162593,85.7365631 C93.8367473,85.7440133 93.8177493,85.7499735 93.7994963,85.7630113 C94.0043769,85.6754715 94.1932395,85.6173599 94.3824746,85.545838 C94.4409587,85.5436029 94.4610742,85.5588758 94.4808173,85.567071 C94.4607017,85.5585033 94.7259289,85.4717084 95.0023314,85.401304 C95.1416502,85.3647981 95.264206,85.3390949 95.3491383,85.3256845 C95.4348156,85.3126466 95.4836144,85.3111566 95.486967,85.3122741 L95.4918096,85.251555 C95.6318734,85.2452223 95.5406085,85.3152542 95.6482639,85.3037064 C95.7063754,85.2198916 95.7778974,85.3372323 95.8117958,85.3044514 C95.8088157,85.3107841 95.8408516,85.3305271 95.8266962,85.3521327 C95.8587321,85.3141367 95.8658098,85.363308 95.894493,85.3666606 C95.9097659,85.363308 95.8963556,85.3491526 95.8974731,85.3353698 L95.9626624,85.363308 C95.9753277,85.3949714 95.9622899,85.4191845 95.9358417,85.4024216 C95.9678775,85.4344574 96.0371644,85.5026268 96.1254493,85.6430631 C96.2137342,85.7801468 96.3161745,85.9868899 96.411537,86.2279039 C96.502057,86.4678004 96.5918319,86.7054619 96.6708041,86.913695 C96.740836,87.0183703 96.8037902,87.1293783 96.8648818,87.245229 C96.8659993,87.2422489 96.8652543,87.2385238 96.8663718,87.2362887 C96.8961727,87.2780099 96.907348,87.3126533 96.9159157,87.3424541 C97.0064356,87.524239 97.093603,87.7205518 97.1882206,87.9403328 C97.4527027,88.556092 97.8944997,89.111132 98.1470615,89.722421 C98.2476392,89.9664151 98.3485895,90.109459 98.2051731,90.3676085 C97.8948722,90.9245111 96.8261408,91.0094434 96.2908438,91.1711128 C95.2772438,91.477316 94.2714666,91.7946946 93.2057152,91.8379058 C93.1703268,91.8393958 93.1394084,91.8382783 93.1077451,91.8379058 C93.0067949,91.8755293 92.9054721,91.9138979 92.8071294,91.9477963 C92.8048944,91.9273082 92.8633785,91.8934098 92.9222351,91.8591389 C92.8816315,91.8729218 92.8227749,91.900115 92.7814263,91.9004875 C92.8648685,91.9068202 92.6644581,91.9690294 92.7255497,91.9615792 C92.5977788,92.0669995 92.4189739,92.1180334 92.2614022,92.1772625 C92.272205,91.8751568 92.2945556,91.5737962 92.3336691,91.2739255 C92.2967906,90.9878378 92.2442667,90.7088277 92.1630595,90.4447181 C91.9198104,89.6531342 91.9138503,89.2441181 91.8825594,88.4462015 C91.8598363,87.8635957 91.6102545,87.3599621 91.3588102,86.8444081 C91.3711031,86.8377029 91.3833959,86.8317428 91.3956887,86.8250376 C91.3815334,86.8265276 91.3684955,86.8328603 91.3547126,86.8354679 C91.349125,86.8242926 91.3435373,86.8134898 91.3383222,86.8023145 M90.6886646,94.6414167 C90.6815869,94.6939406 90.0229891,99.7183567 89.8423217,99.5414144 C89.7506842,99.582763 89.0015664,99.4706375 88.9054588,99.4929881 C88.7493771,99.5298666 88.5918053,99.547002 88.4312535,99.5399243 C88.3493013,99.5358267 87.212773,99.0243704 87.1568965,98.9345954 C87.104,98.8492906 86.4573225,98.6086491 86.3966034,98.531167 C85.2947186,98.2253362 85.2947186,98.2253362 84.6614514,98.0461589 C82.9583353,97.605852 81.2522391,97.1778379 79.5457704,96.7494513 C78.7042701,96.6451485 77.8657499,96.51626 77.0335624,96.332985 C76.9799209,96.3210647 76.9381998,96.3072818 76.9054189,96.2927539 C76.2393709,96.1903136 75.5707153,96.1031463 74.896472,96.0599351 C74.6360875,96.0431722 74.5299221,95.9835706 74.5194918,95.9068335 C74.3798005,95.9131661 74.2404818,95.9031084 74.1145734,95.8584072 C73.861639,95.7682597 73.5792764,95.6356461 73.3442225,95.4672716 C73.1698878,95.4225704 72.994808,95.3801042 72.8215909,95.3309329 C72.5559912,95.2556858 72.531033,95.1416978 72.6275131,95.0277097 C72.4103397,94.9744407 72.1935388,94.9207993 71.9763655,94.8675303 C72.1696982,94.0848866 72.2449452,93.3026155 72.3552082,92.5203443 C72.4274752,92.0051628 72.4364154,91.4169694 72.3615409,90.9021605 C72.3179572,90.1668256 72.1168018,89.5048751 71.9998336,88.7695402 C71.9465647,88.6223988 71.8936682,88.4756298 71.8411443,88.3281158 C71.8087359,88.0342053 71.6925128,87.8133068 71.6604769,87.5193964 C71.5431362,86.7840615 71.258166,86.1958681 70.7422396,85.6810591 C70.6051558,85.6073021 70.5526319,85.4601606 70.4893052,85.3867761 C70.3205581,85.0187362 69.9834365,84.7985827 69.6261993,84.7248257 C69.0484362,84.6510687 68.5749759,84.3571583 68.1749,84.0628753 C67.3546328,83.6214509 66.4926445,83.4746819 65.5263533,83.5480664 C65.4525963,83.5480664 65.3058274,83.5480664 65.1482556,83.6214509 C64.6435044,83.5480664 64.034823,83.6952079 63.3624423,83.7685923 C62.3123363,83.9161063 61.1676128,84.2100168 60.1923814,84.8719672 C59.6257936,85.2396347 59.049148,85.6810591 58.5455143,86.1221111 C58.0426257,86.5635355 57.6231794,86.9308305 57.1933027,87.3722549 C57.109488,87.4460119 57.0152429,87.5931534 56.9314281,87.6665379 C56.6282049,88.2547313 56.3350395,88.7695402 56.1789578,89.3581062 C56.0746549,89.5786321 56.0329338,89.8729151 55.854874,90.0934411 C55.6686189,90.4205049 55.4883241,90.7501764 55.356083,91.0969832 C55.2409774,91.0653199 55.1243817,91.033284 55.0133737,91.0016207 C52.9865463,90.3616483 51.3866155,90.0416622 49.8932226,89.8285864 C48.6132779,89.721676 47.4398712,89.4016899 46.3733748,88.9751658 C45.4130438,88.6548071 44.5596232,88.4417314 43.8134855,88.2286556 C42.8531545,88.0148348 41.7866581,87.801759 40.8266996,87.5883108 L40.1867273,87.4817729 C39.973279,87.4817729 39.7602032,87.375235 39.6532928,87.375235 C39.4398446,87.375235 39.2263963,87.2686971 39.0133205,87.2686971 C38.8002447,87.2686971 38.586424,87.1614142 38.4798861,87.1614142 C37.8399137,87.0548763 37.1999414,86.8418005 36.5599691,86.6283523 C35.3865623,86.2014557 34.1066177,85.8818421 32.7197626,85.5614834 L32.5066869,85.4549455 C31.6532662,85.2414972 30.7998456,85.0284214 29.946425,84.7080628 C29.4129906,84.494987 28.8799287,84.3884491 28.4530321,84.1750008 L28.19153,84.0878335 C28.5111437,83.1215423 28.5908608,82.1548786 28.726827,81.1878425 C28.799094,80.6730335 28.8080342,80.0848401 28.7335322,79.5704037 C28.6899485,78.8346963 28.4887931,78.1731183 28.3710799,77.4374109 C28.318556,77.2902694 28.2656595,77.1435005 28.2127631,76.9959865 C28.1807272,76.702076 28.0645041,76.48155 28.0320957,76.1872671 C27.9151275,75.4519322 27.6297848,74.8637387 27.1138583,74.3489298 C26.9771471,74.2751728 26.9246232,74.1280313 26.8612965,74.0546468 C26.6925494,73.6869794 26.3554278,73.4664534 25.9981906,73.3926964 C25.4204275,73.3189394 24.9465947,73.025029 24.5468913,72.730746 C23.7266241,72.2896941 22.8642633,72.1425526 21.8979721,72.2159371 C21.8245876,72.2159371 21.6774462,72.2159371 21.5202469,72.2896941 C21.0154957,72.2159371 20.4068143,72.3630785 19.7344336,72.436463 C18.6843276,72.583977 17.5396041,72.8778875 16.5640002,73.5398379 C15.9977849,73.9075054 15.4207668,74.3489298 14.9175056,74.7899817 C14.414617,75.2314062 13.9951707,75.5987011 13.5649215,76.0401256 C13.4814793,76.1135101 13.3872342,76.2610241 13.3030469,76.3344086 C13.0001962,76.922602 12.7070308,77.4374109 12.5509491,78.0259769 C12.4459012,78.2465028 12.4049251,78.5407858 12.2268653,78.7613118 C12.1665187,78.8667321 12.1072896,78.972525 12.049178,79.0786904 C12.0402377,79.0358517 12.0264549,78.9959931 12.0264549,78.9483118 L12.0264549,77.7749051 C12.0264549,77.1349327 11.9195445,76.4949604 11.9195445,75.8549881 C11.9195445,75.2150158 11.8130066,74.468133 11.8130066,73.8281607 L11.8130066,72.4416782 C11.7064687,71.5882576 11.7064687,70.6282991 11.7064687,69.775251 L11.7064687,66.7884651 C11.7064687,65.8285066 11.8130066,64.975086 11.8130066,64.0151275 C11.8130066,63.588231 11.9195445,63.1617069 11.9195445,62.8413482 C11.9195445,62.2017484 12.0264549,61.4552382 12.1333653,60.8148934 C12.1333653,60.3879968 12.2399031,60.0683832 12.2399031,59.6414866 L12.2399031,58.4680798 C12.346441,57.5081214 12.346441,56.5485354 12.2399031,55.2682182 C12.2399031,54.948232 12.2399031,54.6282459 12.1333653,54.3082597 C12.1333653,53.9882736 12.0264549,53.7748253 12.0264549,53.4548391 C12.0264549,52.9214047 11.9195445,52.3883427 11.9195445,51.7483704 C11.9195445,51.7483704 12.0152796,50.0407842 11.9545604,49.7181904 C12.1266601,49.5509334 12.1810466,47.8668153 12.1691262,47.5438491 C12.1143672,46.102235 11.7858133,46.1018625 11.7597376,44.658386 C11.7385046,43.4819991 12.0719011,42.3041222 12.0532756,41.1277354 C12.0380027,40.1711295 12.0212397,39.2148961 11.9988891,38.2582902 C11.9780286,37.347503 11.9515803,36.4367159 11.9173094,35.5259287 C11.8632954,34.1040577 11.7887934,32.6825592 11.680393,31.2640408 C11.678903,31.2454153 11.6736878,31.2297699 11.6714528,31.2115169 C11.7545225,31.0584152 11.8372197,30.900471 11.919917,30.7350765 C12.2399031,30.0951042 12.4533514,30.0951042 13.0933237,30.201642 L13.6263857,30.3081799 C14.4798063,30.5216282 15.4401373,30.8416144 16.2935579,31.2681384 C17.0396956,31.5884971 17.7865783,31.8015729 18.5330885,31.9081107 C20.1333919,32.0146486 21.6267848,32.4415452 22.799819,32.8680692 C23.8666879,33.1884279 24.9331843,33.5080416 26.0000532,33.8284002 C26.3200394,33.9349381 26.7465634,33.9349381 27.0665496,33.9349381 L27.599984,33.9349381 C27.9199702,33.9349381 28.3464942,34.0418485 28.6664804,34.0418485 C29.3064527,34.1483864 29.9467975,34.1483864 30.5867699,34.2549243 C31.6532662,34.3614622 32.7197626,34.5749105 33.6797211,34.8948966 L34.2135281,35.001807 C34.4266038,35.001807 34.6400521,35.1083449 34.8535004,35.1083449 C34.9600383,35.1083449 35.0665762,35.1083449 35.173114,35.2148828 L35.3865623,35.2148828 C36.3468933,35.4279585 37.3068518,35.5352415 38.2668103,35.961393 C38.4798861,36.0683034 38.6933344,36.0683034 38.9067826,36.1748413 C39.2267688,36.2813792 39.6536654,36.2813792 39.973279,36.3882895 C40.3998031,36.4951999 40.8266996,36.4951999 41.2532237,36.6017378 C41.5735823,36.7082757 41.893196,36.7082757 42.2135547,36.8148136 L42.5331683,36.9213515 C43.6000372,37.1351723 44.773444,37.2417102 45.9468507,37.0282619 C46.5868231,36.9213515 47.119885,37.0282619 47.7598573,37.0282619 L48.080216,37.0282619 C48.4002022,37.0282619 48.6132779,37.1351723 48.8267262,37.1351723 C49.7866847,37.4551584 50.8535536,37.5616963 51.92005,37.6682342 C52.4534844,37.7747721 52.8800084,37.88131 53.1999946,37.9885929 C53.6265187,38.2016686 54.0534152,38.2016686 54.4799393,38.0951308 C54.8002979,37.9885929 55.226822,38.0951308 55.5468081,38.2016686 L55.653346,38.2016686 C56.4002288,38.4147444 57.1463665,38.6281927 57.8932492,38.841641 L58.5332215,39.0550892 C58.5332215,39.0550892 58.6401319,39.0550892 58.6401319,39.1616271 C58.5365741,39.3687427 59.3330007,39.2275614 59.2294429,39.4343045 C59.6812976,39.6980417 59.49318,40.5484822 59.7066283,40.3346614 C59.7066283,40.3346614 59.7066283,43.4283577 59.8135387,44.8152127 L59.8135387,46.7351297 C59.9200766,47.5881778 59.9200766,48.5481363 60.0266144,49.4015569 C60.0266144,50.0415292 60.1331523,50.5749636 60.1331523,51.214936 C60.2400627,51.8549083 60.2400627,52.4948806 60.2400627,53.1352255 L60.5600489,56.3347146 C60.5600489,56.868149 60.6669593,57.4015835 60.7734972,57.9346454 C60.880035,59.1084247 61.0931108,60.2814589 61.0931108,61.4552382 C61.0931108,61.8813898 61.0931108,62.3082863 61.2000212,62.7348104 C61.2000212,62.9482586 61.2000212,63.055169 61.3065591,63.2682448 L61.3330073,63.6359123 C61.4004316,63.6455975 61.467856,63.6571453 61.5285751,63.680986 C61.5449655,63.6876912 61.5591209,63.6966314 61.5747664,63.7037091 C61.8921449,63.7536254 61.9621768,63.717492 62.4006212,63.9652112 C62.4006212,63.9644662 62.8662588,64.1056475 62.8662588,64.1049025 C62.8785517,64.1116076 62.9195278,64.1335857 62.9698166,64.160779 C63.3505219,64.2460838 63.7356974,64.3809324 63.9845341,64.6927234 C64.1551437,64.7754206 64.349594,64.8692932 64.3562992,64.8730183 C65.6302837,65.3639865 65.7275088,65.6325663 66.9869654,66.1626482 C68.1208861,66.6402061 69.2477291,67.1378796 70.3712195,67.6463558 C71.8858455,67.7741268 73.3397524,68.4696031 74.6323624,69.2433066 C75.2887251,69.3233962 75.6750181,69.6485975 76.3101478,69.9786415 C77.0816162,70.3802074 77.9499372,70.4707273 78.736306,70.8164167 C84.4345928,73.3245271 83.5010825,73.2250669 84.1615429,73.6039096 C84.2855887,73.6750591 84.8581367,75.0701093 84.9758499,75.0734619 C85.145342,75.4578923 87.0388108,78.0524251 87.4385141,78.51173 C88.3493013,79.5577383 88.8283492,81.3025756 88.9151441,82.7140163 C88.9889011,83.1267575 89.0991641,83.516403 89.1479629,83.9358494 C89.1576481,84.0192916 89.2667936,85.3607004 89.3461382,85.9652843 C89.412445,86.1511668 89.4794969,86.3366769 89.5428236,86.5236769 C89.5770945,86.6249997 89.6076403,86.7266949 89.6411662,86.8280177 C89.724981,86.8496233 89.7909153,86.8846392 89.8222061,86.9386532 C90.151505,87.5048685 90.2993916,87.9768388 90.3582481,88.6276139 C90.3619732,88.6730601 90.3694234,88.7185064 90.3753836,88.7639526 C90.3925191,88.8164765 90.410027,88.8686279 90.42679,88.9211518 C90.4424354,88.9665981 90.4551008,89.0146519 90.4685111,89.0619607 C91.0030631,90.8708696 90.9490491,92.7565157 90.6886646,94.6414167 M69.5073686,92.3732028 C69.3203686,93.1822947 69.132996,93.9910141 69.0298107,94.726349 C68.9575437,95.2415305 68.8215776,95.6822099 68.4021312,96.0502499 C68.2345017,96.1973913 68.1197686,96.4913018 67.9417087,96.7122003 C67.8370334,96.9327262 67.7223003,97.2270092 67.5442405,97.4475352 C66.7168956,98.6242945 65.699943,99.5801554 64.3346936,99.8744384 C64.2613091,99.8744384 64.2613091,99.8744384 64.1771218,99.9481954 C63.316996,100.315863 62.5287647,100.168349 61.7297305,100.094964 C60.8576844,100.02158 60.121232,99.5067709 59.5315485,98.991962 C58.605116,98.2566271 58.0776417,97.3003937 57.959556,96.0502499 C57.8746237,95.6088254 57.8731336,95.0940165 57.7882013,94.6529645 C57.6924662,94.2852971 57.7442451,93.9176296 57.9532233,93.4765777 C58.0783867,93.1085377 58.2039226,92.7408703 58.329086,92.3732028 C58.4751099,91.8583939 58.6840881,91.4169694 58.830112,90.9021605 C59.070381,90.2405826 59.4365585,89.7257736 59.9293893,89.3581062 C60.5064074,88.9166817 61.083053,88.4756298 61.7967824,88.1075898 C62.8353405,87.5193964 63.9696337,87.2988704 65.1773114,87.0783444 C65.9126463,87.0783444 66.7746346,87.2251134 67.4373301,87.7399224 C67.711125,87.8870638 67.8269756,88.1075898 68.0165833,88.3281158 C68.5544878,89.2105922 68.9981473,90.2405826 69.3684224,91.2702004 C69.4637849,91.6378679 69.5591475,92.0051628 69.5073686,92.3732028 M25.8793599,81.0410735 C25.6919874,81.8501654 25.5046148,82.6588848 25.4014295,83.3942197 C25.3291625,83.9090286 25.1935689,84.3504531 24.7741225,84.7181205 C24.606493,84.865262 24.4913873,85.1591725 24.3137,85.380071 C24.2090247,85.6005969 24.0939191,85.8948799 23.9158593,86.1154059 C23.0888869,87.2921652 22.0715618,88.2480261 20.7066849,88.5423091 C20.6333004,88.5423091 20.6333004,88.5423091 20.5491131,88.6160661 C19.6886148,88.9837335 18.9003835,88.8365921 18.1017218,88.7628351 C17.2293032,88.6894506 16.4932233,88.1746416 15.9035398,87.6598327 C14.9771073,86.9244978 14.449633,85.9682644 14.3311748,84.7181205 C14.24587,84.2766961 14.2451249,83.7618872 14.1598201,83.3208352 C14.0644575,82.9531678 14.1162364,82.5855003 14.3252146,82.1444484 L14.7007048,81.0410735 C14.8467287,80.5262646 15.0557069,80.0848401 15.2017308,79.5704037 C15.4416273,78.9084533 15.8085498,78.3932718 16.3013806,78.0259769 C16.8780262,77.5845524 17.4550443,77.1435005 18.1687737,76.775833 C19.2073318,76.1872671 20.341625,75.9667411 21.5489302,75.7462151 C22.2846376,75.7462151 23.1462534,75.8929841 23.8093214,76.407793 C24.0831163,76.5549345 24.1989669,76.775833 24.3885746,76.9959865 C24.9264791,77.8784629 25.3701386,78.9084533 25.7400412,79.9380711 C25.8357762,80.3057386 25.9311388,80.6730335 25.8793599,81.0410735 M14.3732684,29.4547593 C14.800165,29.4547593 15.2263165,29.4547593 15.6532131,29.2416836 C15.7601235,29.1351457 15.9731992,29.1351457 16.0797371,29.1351457 C16.5066337,29.1351457 16.9331577,29.0282353 17.3600543,28.8151595 C17.8931162,28.6013387 18.4265506,28.4948008 18.9599851,28.2817251 L19.493047,28.0682768 L19.5999574,28.0682768 C20.2399297,28.0682768 20.7733642,27.8548285 21.5198744,27.4283045 C21.6267848,27.3217666 21.7333227,27.3217666 21.8398606,27.3217666 L21.9463984,27.3217666 C22.2667571,27.2152287 22.5867433,27.1083183 22.9063569,27.0014079 L23.6532397,26.7883321 C24.0801362,26.6817943 24.3997499,26.5748839 24.8266464,26.468346 C25.680067,26.2548977 26.5334876,25.9349115 27.3865357,25.7218358 C27.9199702,25.6149254 28.4534046,25.5083875 28.8799287,25.5083875 C30.1598733,25.2949392 31.2263697,25.0814909 32.2936111,24.6549669 L32.400149,24.6549669 C32.5066869,24.5480565 32.6132247,24.5480565 32.826673,24.5480565 C33.2531971,24.4415186 33.6797211,24.3349807 34.2131556,24.1215324 C35.0665762,23.8019188 36.0265347,23.588098 36.8799553,23.3750222 C38.586424,23.0550361 40.1867273,22.7346774 41.7866581,22.4150637 C42.2135547,22.3085258 42.6400787,22.2016155 43.0669753,22.0950776 C43.3865889,21.9881672 43.6000372,21.9881672 43.9200234,21.8816293 C44.1334716,21.8816293 44.3465474,21.7747189 44.5599957,21.7747189 C44.8799819,21.668181 45.199968,21.668181 45.6268646,21.5616431 C46.2664644,21.3485674 46.9064367,21.2412845 47.5467816,21.0282087 C47.7803454,20.9697246 50.0869278,19.8931705 50.5939141,19.78477 C50.8725516,19.7255409 51.386988,19.5348158 51.386988,19.5348158 L51.4935259,19.5348158 L51.8135121,19.5348158 C52.0265878,19.5348158 52.2404086,19.6417261 52.5600223,19.6417261 C52.6665602,19.6417261 52.8800084,19.748264 53.0934567,19.748264 C53.306905,19.748264 53.5199808,19.8551744 53.7330565,19.8551744 C54.0534152,19.8551744 54.3734014,19.9617123 54.8002979,19.9617123 C55.1199116,20.0682502 55.4398978,20.0682502 55.8667943,20.1747881 C56.7202149,20.281326 57.6801734,20.4951468 58.5332215,20.8151329 C59.9200766,21.2412845 60.9865729,21.3485674 61.9465314,21.3485674 C61.9733521,21.3444697 62.0016629,21.3437247 62.0288561,21.3407446 C61.33934,21.5448802 61.6060572,21.9594839 61.0975809,22.4724303 C60.7090529,22.8639384 60.5674991,23.2435262 60.1663057,23.6365243 C59.8448295,23.9509228 59.0182296,24.4813772 58.6297016,24.7074908 C58.1566138,24.9827758 57.8802113,25.5173277 57.3724801,25.7158756 C56.9258405,25.8905828 56.297416,25.8719573 55.835876,26.0112761 C55.1590252,26.2154116 54.5138377,26.3811786 53.8336343,26.5700412 C53.308395,26.7156927 52.5231438,27.0479717 52.0139225,27.2219339 C50.8919221,27.6052468 51.0710995,27.744938 50.1085334,28.3394641 C49.6231528,28.6393347 48.1725985,29.1954923 47.6872179,29.5035581 C47.1742715,29.8287595 46.5551597,30.088399 46.0109225,30.3882696 C45.1351513,30.8702977 44.7957946,31.3046444 43.8689895,31.6920549 C43.2532303,31.9494594 42.2109471,32.1029335 41.5873652,32.3439475 C41.081869,32.5395153 40.9265323,32.7522186 40.4232712,32.9492764 C39.8767989,33.1627247 39.4692729,33.2327566 38.9332308,33.4614778 C38.8009898,33.5180993 37.5568061,33.5389599 37.42531,33.596699 C37.2252721,33.6849839 37.0896784,33.820205 37.0073537,33.9792668 C35.6015006,33.6201671 34.3442791,33.3210415 33.1466592,33.08189 C33.0401213,33.08189 32.826673,32.9749796 32.6132247,32.9749796 C31.8667145,32.7615314 31.0132939,32.6549935 30.3733216,32.5484556 C29.8402597,32.5484556 29.4133631,32.4415452 28.8799287,32.4415452 C28.0268806,32.3350073 27.2799978,32.3350073 26.4265772,32.2284694 C25.3597084,32.1219315 24.5062877,31.9081107 23.76015,31.695035 C22.373295,31.1616005 20.8799021,30.8416144 19.493047,30.6285386 C19.1734334,30.5216282 18.7465368,30.5216282 18.4265506,30.4147178 C17.7865783,30.3081799 17.0396956,30.201642 16.4000958,30.0951042 C16.0797371,29.9881938 15.6532131,29.9881938 15.3332269,29.8816559 C15.0132407,29.775118 14.6932546,29.775118 14.2667305,29.5612972 C14.3732684,29.5612972 14.3732684,29.4547593 14.3732684,29.4547593 M63.4700977,21.4323821 C63.7248946,21.4767108 63.9688887,21.5251371 64.1868071,21.5616431 C65.1467656,21.7747189 66.0001862,21.7747189 67.0666825,21.8816293 C67.7066549,21.8816293 68.3469997,21.9881672 69.0935099,22.0950776 C69.7334822,22.2016155 70.3734546,22.3081533 71.1199648,22.3081533 L71.3334131,22.3081533 C72.0799233,22.3081533 72.7198956,22.5216016 73.3602404,22.7346774 C73.8936749,22.9484982 74.4267368,23.0550361 74.9601713,23.0550361 L76.1332055,23.0550361 C76.66664,23.0550361 77.2000744,23.0550361 77.7335088,23.1615739 C78.0531225,23.2684843 78.3734812,23.2684843 78.6934673,23.1615739 C79.6534258,23.1615739 80.6137568,23.2684843 81.3598945,23.3750222 L82.9598253,23.6946359 C83.280184,23.8019188 83.7067081,23.8019188 84.0270667,23.9084567 C84.4532183,24.0149945 84.8801148,24.1215324 85.3066389,24.1215324 L85.4131768,24.1215324 C85.4131768,24.1215324 85.5200872,24.1215324 85.5200872,24.2280703 C85.5200872,24.3349807 85.4131768,24.3349807 85.4131768,24.3349807 C84.8801148,24.6549669 84.4532183,24.8684152 84.1336046,25.0814909 C83.8132459,25.2949392 83.3867219,25.5083875 83.0667357,25.7218358 C82.4267634,26.0414494 81.7867911,26.3618081 81.1468188,26.7883321 C80.399936,27.2152287 79.5465154,27.5348423 78.5865569,27.9617389 C77.4135227,28.388263 76.2401159,28.8151595 75.0667091,29.4547593 C74.2132885,29.8816559 73.3602404,30.3081799 72.7198956,30.6285386 C71.7599371,31.0546901 70.906889,31.5881246 70.2665442,32.0146486 C69.7334822,32.3350073 69.2000478,32.6549935 68.4535376,32.9749796 C68.1335514,33.08189 67.8131928,33.2949658 67.600117,33.4015037 C67.2801308,33.5080416 66.9601447,33.7214898 66.6401585,33.8284002 C66.1067241,34.0418485 65.5736621,34.2549243 65.0402277,34.3614622 C64.7202415,34.4680001 64.3998828,34.5749105 64.0802692,34.6818208 C63.8668209,34.7883587 63.6533726,34.8948966 63.4399244,35.001807 C63.2268486,35.1083449 63.1203107,35.1083449 62.9064899,35.2148828 L62.799952,35.2148828 C62.5868763,35.3214207 62.4799659,35.3214207 62.2668901,35.4279585 C61.3065591,35.5352415 60.5600489,36.0683034 59.9200766,36.921724 C59.7070008,37.1351723 59.5997179,37.2417102 59.3866421,37.1351723 C59.2801042,37.1351723 59.1735663,37.0282619 58.9601181,37.0282619 C58.3201457,37.2417102 57.9997871,37.1351723 57.6801734,36.921724 C57.573263,36.8148136 57.3601872,36.8148136 57.146739,36.7082757 C56.4002288,36.6017378 55.653346,36.4951999 55.0133737,36.3882895 L54.1599531,36.3882895 C53.5199808,36.6017378 52.8800084,36.4951999 52.0265878,36.1748413 L50.3201191,36.0683034 L50.1066709,36.0683034 C49.8935951,36.0683034 49.6801468,36.0683034 49.4666985,35.961393 C48.50674,35.7483172 47.4402437,35.6417793 46.4802852,35.6417793 L46.0533886,35.6417793 C45.6268646,35.6417793 45.199968,35.6417793 44.773444,35.5352415 L43.8134855,35.5352415 C43.6000372,35.5352415 43.280051,35.5352415 43.0669753,35.4279585 C42.2135547,35.2148828 41.4666719,35.001807 40.6136238,34.8948966 C40.452327,34.871801 40.2981078,34.8420002 40.1450062,34.8099643 C40.6769506,34.6136515 41.2081499,34.4132411 41.7374868,34.2076155 C42.1666184,34.0411035 42.5938875,33.8712389 43.0196665,33.6976492 C43.389569,33.5464101 43.7579815,33.3921909 44.1237864,33.2346192 C44.6002268,33.0297386 45.0721971,32.8192704 45.5396972,32.602097 C46.2266058,32.2824834 46.8732833,31.8991705 47.506923,31.4957421 C47.9893235,31.1884213 48.4646464,30.8695526 48.9440669,30.5588792 C49.263308,30.3517636 49.5847842,30.1483731 49.9118481,29.9539228 C50.5652308,29.5657673 51.2405916,29.2152353 51.9658687,28.9481456 C52.5183012,28.7451276 53.0793013,28.5707929 53.6429091,28.4065159 C54.3342878,28.2053605 54.7731047,27.7993245 55.4633659,27.594444 C56.1677825,27.3854658 56.5991491,27.2737128 57.2793526,26.9891151 C57.5311694,26.8836947 58.3402613,26.5026169 58.5831379,26.3837862 C59.1389229,26.1125988 59.6306362,26.1751805 60.1294272,25.7948477 C60.304507,25.6618616 60.6718019,25.3280926 61.1042861,24.9008235 C61.3959615,24.6113832 61.4376826,24.1185524 61.7494736,23.7762156 C61.9707446,23.5329665 62.3905634,22.9939444 62.5876213,22.7518128 C63.2428665,21.946446 63.7614006,21.6637109 63.4700977,21.4323821 M85.5226947,26.0399594 C85.5655334,26.0116486 85.6132147,25.9844554 85.6687187,25.9606147 C85.8002147,25.8857402 85.9484738,25.7941027 86.0829499,25.7158756 C86.0926352,25.7583417 86.0974778,25.8015529 86.1067905,25.8443916 C86.3984659,25.8026704 86.6856712,25.8265111 86.7918366,25.9442243 C86.9713864,25.9803578 87.0879821,26.063055 87.0555737,26.2023738 C87.0198128,26.3577105 86.9881494,26.5186348 86.9576036,26.6814217 C87.1457212,26.728358 87.2723746,26.8330333 87.2444363,27.0096031 C87.1058626,27.8738265 87.0991574,28.7361874 87.1073526,29.6011558 C87.1427411,29.6391518 87.1632291,29.6883232 87.1613666,29.7509048 C87.1487012,30.1859966 87.1263506,30.6199709 87.1148028,31.0546901 C87.1133128,31.1094491 87.0931972,31.158993 87.064514,31.2055567 C86.9583486,31.842549 86.8115796,32.5968819 86.6055815,33.2886331 C86.6156393,33.6939241 86.622717,34.0891573 86.567213,34.4937033 C86.5228843,34.8189046 86.4468922,35.1247353 86.4491273,35.4544068 C86.4491273,35.4700522 86.5303345,35.9807635 86.5210218,36.0485603 C86.5158066,36.0850663 86.5053763,36.1193373 86.4979261,36.1543532 C86.5012787,36.1621759 86.5072389,36.1685086 86.5094739,36.1767038 C86.5478425,36.3406083 86.5836035,36.5007876 86.6171294,36.6605944 C86.6350098,36.6825725 86.6480477,36.7067857 86.6491652,36.7354689 C86.6514003,36.7865028 86.6554979,36.8367917 86.6588505,36.886708 C86.7225497,37.2286723 86.7635258,37.5698915 86.7661334,37.919306 C86.8097171,38.3152842 86.8335577,38.7056748 86.7817788,39.0915952 C86.8100896,39.1601371 86.8343027,39.2290515 86.8540458,39.2983383 C86.9333904,39.3296292 86.8428705,41.3795522 87.1148028,42.3231202 C87.1285857,42.371174 87.1088427,42.4914948 87.1148028,42.5093753 C87.3491117,43.2245946 87.5037034,43.9882403 87.4873129,44.7444358 C87.4832153,44.9262207 87.4627273,45.104653 87.436279,45.2827129 C87.526799,45.6336174 87.5878906,45.950996 87.6128488,46.304508 C87.6232791,46.3328188 87.6258867,46.3641096 87.6176914,46.3987531 C87.618809,46.4166336 87.8441776,48.5876223 87.8441776,48.5999152 C87.8508828,48.6226383 87.7726556,50.5477704 87.7387572,51.4723404 C87.8147493,51.5095914 87.8609405,51.5636054 87.859823,51.6358724 C87.8426875,52.6744305 87.7354046,53.7006958 87.5171137,54.7139232 C87.6258867,54.9150786 87.7514226,55.0875508 87.8911139,55.2372999 C88.1522434,55.4172222 88.4174706,55.5949096 88.6867954,55.7703618 C89.3617837,56.0814077 90.907328,57.0074678 90.943089,57.0287009 C91.2712704,57.2235236 91.6229199,57.3278265 91.9812746,57.4511273 C92.1887627,57.5222767 92.2468743,57.6075815 92.2170735,57.6932589 C92.2278763,57.6962389 92.2409141,57.6981015 92.2505994,57.7014541 C92.3943883,57.7577031 92.5258843,57.8266175 92.6588704,57.8955318 C92.6991015,57.900002 92.735235,57.9063346 92.7598207,57.9178824 C93.1557989,58.1004124 93.5622074,58.2587292 93.9615382,58.4330639 C94.9490624,58.6182014 96.1504075,58.9635183 96.70433,59.7692576 C96.89133,59.8676002 97.07535,59.9715305 97.2530373,60.0881262 C97.796902,60.4453634 98.2543444,60.8636922 98.7427051,61.2499852 C99.1751894,61.4682761 99.5927732,61.7115252 99.9686358,62.0352364 C99.9701259,62.0359814 99.9712434,62.0367265 99.9727335,62.0374715 C99.9723609,62.0374715 99.9719884,62.037844 99.9716159,62.037844 C100.001417,62.0635472 100.03308,62.0858978 100.062508,62.1127185 C100.226413,62.2632126 100.092682,62.6245474 99.938835,62.7467307 C99.6452971,62.9802945 99.3349962,63.2373265 99.012775,63.4813206 C98.7680358,63.737235 98.3530596,64.0184801 98.1593544,64.0806893 C98.1295535,64.0907471 98.0982627,64.0981973 98.0673444,64.1063925 C97.9492587,64.1708367 97.8296829,64.2311834 97.7093622,64.2822173 C97.4165692,64.4062631 97.1152086,64.4982731 96.8123579,64.5835779 C96.7769694,64.6401994 96.6905471,64.7012911 96.5285052,64.7638728 C96.1220967,64.9218171 95.709728,65.0644884 95.2992219,65.21312 C95.1021641,65.3487136 94.9058513,65.4861699 94.7080484,65.621391 C94.4618192,65.8501122 94.1820642,66.0229569 93.8840561,66.1827637 C93.4519444,66.4759292 93.0190877,66.7661145 92.5858585,67.0562999 C92.2986532,67.3073717 92.0207607,67.5699913 91.6936968,67.8247882 C91.5633183,68.0915054 91.370358,68.2799955 91.0626647,68.464388 C90.5303478,68.7828841 90.0136763,69.0782846 89.4917897,69.423974 C88.9751182,69.7659382 88.4230583,69.9853467 87.9522055,70.3992054 C87.7599903,70.5679524 87.5986934,70.7679904 87.3945579,70.9307773 C86.8663386,71.3513411 85.5867665,71.9346919 85.5267923,71.9447497 C85.5193421,71.9928035 85.4209995,72.0203693 85.3755532,71.9957836 C85.125599,72.2084869 84.8715471,72.3150247 84.5225051,72.3299251 C84.1686206,72.3451981 83.9100986,72.178686 83.9782679,71.9760406 C83.7048455,71.8113911 83.4314231,71.6493492 83.1572557,71.4876798 C82.9963313,71.4217456 82.8342894,71.3591639 82.6793252,71.2950921 C82.2092175,71.0998968 81.7763608,70.8316896 81.3043905,70.6439445 C81.2459064,70.6350043 81.1993427,70.6230839 81.1699144,70.6081835 C81.1077052,70.5768927 80.9650338,70.5016456 80.9546035,70.495313 C80.8521633,70.4815301 79.0466069,69.8341076 78.5455808,69.4489321 C77.4477936,68.6044518 76.6070383,67.967832 75.1803247,67.5994196 C74.5735058,67.4425928 73.9018701,67.3394075 73.2253918,67.2205768 C72.7113279,67.2351047 72.2266922,67.2198318 71.8761603,67.061515 C71.7167259,66.9896206 71.5766621,66.9024532 71.4298932,66.8052281 C71.0309349,66.6763396 70.6532096,66.5124351 70.3064028,66.303457 C70.2557414,66.3097897 70.1339306,66.3179849 70.1186577,66.3187299 C69.9860441,66.3250626 69.6112989,66.0214668 69.6284344,66.0054489 C69.1918526,65.8191939 68.7604859,65.6359189 68.3477447,65.3926698 C67.9830574,65.2123749 67.6254477,65.0309625 67.4060392,64.9661458 C66.8305111,64.7959087 65.9912459,64.3060579 65.7297438,64.19803 C65.0812038,63.9298227 64.7630802,63.5297469 64.3361836,63.3449819 C64.0217851,63.2090157 63.7614006,63.0883224 63.5486973,62.9747069 C63.3818128,62.8849319 63.243984,62.7992546 63.1311135,62.7128323 C62.9046274,62.5388701 62.780209,62.3611827 62.7250775,62.1406568 C62.7220974,62.129854 62.7038444,62.1373042 62.6934141,62.1339516 L62.6934141,59.9618453 C62.6934141,59.6414866 62.5868763,59.3215004 62.5868763,58.8953489 C62.5868763,58.5749902 62.4799659,58.2550041 62.4799659,58.0419283 C62.4799659,57.5084939 62.373428,57.0815973 62.373428,56.5485354 C62.373428,56.0151009 62.2668901,55.3747561 62.2668901,54.8416942 C62.2668901,54.4147976 62.1599797,53.9882736 62.1599797,53.5617495 L62.0530693,53.1352255 L62.0530693,52.9214047 L62.0530693,52.7083289 C62.1599797,52.0683566 62.0530693,51.4283842 61.9465314,50.7884119 C61.9465314,50.4680532 61.8399935,50.1484396 61.8399935,49.8284534 C61.8399935,49.5080948 61.8399935,49.1884811 61.7334556,48.8684949 C61.7334556,48.2285226 61.6265453,47.5881778 61.6265453,47.0547433 C61.6265453,46.4151435 61.6265453,45.7751712 61.5200074,45.1348264 C61.4134695,43.9617921 61.4134695,42.6814749 61.4134695,41.5084407 L61.4134695,39.6950616 C61.6004695,39.8511433 62.1286888,37.6525888 61.9465314,37.5616963 L61.8399935,37.4551584 C61.7334556,37.348248 61.8399935,37.348248 61.8399935,37.348248 C61.9465314,37.2417102 62.0534418,37.1351723 62.1599797,37.1351723 L62.2668901,37.1351723 C62.6934141,36.921724 63.2268486,36.7082757 63.7599105,36.4951999 C64.1868071,36.2813792 64.7202415,36.1748413 65.1467656,35.9617655 C65.7867379,35.7483172 66.4270827,35.5352415 66.9601447,35.2148828 C67.4935791,35.001807 67.9201031,34.7883587 68.3469997,34.5749105 C68.5600755,34.4683726 68.7731512,34.3614622 68.986972,34.2549243 C69.0935099,34.2549243 69.2000478,34.1483864 69.3065857,34.1483864 C69.520034,34.0418485 69.7334822,33.9349381 69.8403926,33.9349381 C70.3734546,33.614952 70.906889,33.4015037 71.4403235,33.08189 C72.2937441,32.5484556 73.2537026,32.0150211 74.1067506,31.5884971 L74.5332747,31.3750488 L76.6670125,30.3081799 L76.7735503,30.3081799 C77.2000744,30.0951042 77.626971,29.8816559 78.0531225,29.775118 C79.5468879,29.3482214 80.9333705,28.7082491 82.2133151,27.9617389 C82.3202255,27.8548285 82.4267634,27.8548285 82.6402117,27.7482906 C83.1736461,27.5348423 83.6001702,27.2152287 84.1336046,26.89487 C84.2401425,26.7883321 84.4535908,26.6817943 84.5601287,26.6817943 C84.6666666,26.6817943 84.7735769,26.5748839 84.8801148,26.468346 C85.0935631,26.3618081 85.3066389,26.1479873 85.5200872,26.0414494 C85.5208322,26.0410769 85.5219497,26.0403319 85.5226947,26.0399594 M108.058065,78.1399649 C108.223087,78.9159035 108.362033,79.5718937 108.363523,79.5897742 C108.408224,80.2692326 108.660041,80.8969121 108.704742,81.5763705 C108.713683,81.7115916 108.721133,83.831174 108.736033,83.9358494 C108.737523,83.9477697 108.739013,83.9656502 108.740876,83.9790605 C108.019324,84.5788018 106.741614,85.1167063 106.091212,85.2616128 C105.908682,85.3022164 105.347309,85.3331347 105.29702,85.048537 C105.290315,85.0086784 105.294413,84.9725449 105.305588,84.9393915 C105.285472,84.9021405 105.262377,84.8555768 105.235183,84.7833098 C105.159191,84.5873695 105.082454,84.2942041 105.001247,84.0412697 C104.841068,83.516403 104.674928,82.9896737 104.547157,82.6413768 C104.550137,82.5214286 104.497986,82.3724245 104.474518,82.2550839 C104.478243,82.3228807 104.446952,82.3079803 104.433914,82.2576914 C104.336317,81.9071594 104.402623,82.240556 104.284538,81.8911415 C104.246914,81.7913088 104.192155,81.6188366 104.130691,81.4098585 C104.066619,81.2001353 104.002548,80.949436 103.979079,80.7598284 C103.953004,80.5627705 103.971257,80.4290394 104.006273,80.3530474 C104.040171,80.2703501 104.09493,80.2085135 104.132181,80.174615 C104.157512,80.0542943 104.321416,79.968617 104.436894,79.857609 L104.430189,79.8769795 C104.490908,79.821103 104.749803,79.6806667 105.074632,79.5484256 C105.408773,79.4076168 105.748502,79.2642004 105.859138,79.2045988 L105.825239,79.211304 C106.011122,79.0913557 106.007769,79.15729 106.172791,79.1043936 C106.127718,79.0582023 106.284917,78.9501744 106.348244,78.9173935 L106.350851,78.9304313 C106.445469,78.8771624 106.646997,78.7300209 106.806431,78.6499313 L106.813509,78.6830847 C106.934574,78.5899571 107.195331,78.4897519 107.291439,78.4431882 C107.49185,78.3668236 107.796563,78.2770487 108.058065,78.1399649 M109.877404,87.0712668 C109.859896,87.0470536 109.843878,86.8913444 109.842388,86.8418005 C109.788747,86.5057964 109.894167,86.2189637 109.90944,85.862099 C109.929183,85.4046566 109.798432,84.9546644 109.744046,84.5009472 C109.649055,83.7067557 109.64235,82.9237395 109.804765,82.1489185 C109.451625,78.6979851 108.686489,75.2720098 107.917629,72.011429 C107.091774,68.5061091 105.84908,65.1117972 103.671014,62.8532686 C103.680699,62.8074498 103.35587,62.5947466 103.18228,62.4792684 C103.058234,62.3961987 102.934189,62.3135015 102.80977,62.2308042 C102.599675,62.0907404 102.241692,61.7297782 102.219714,61.7122702 C101.762644,61.3926565 101.295144,61.0883158 100.817586,60.8011105 C100.693913,60.7243734 100.658525,60.5191204 100.636174,60.5001224 C100.456252,60.3675088 100.269251,60.2497956 100.075919,60.1443752 C99.9477753,60.0851461 99.8140442,60.0192118 99.678823,59.9502975 C99.6222015,59.9253393 99.5637174,59.9041062 99.5052333,59.8813831 C99.5044883,59.8810106 99.5033707,59.8806381 99.5026257,59.8802656 C99.4597871,59.8635026 99.4184384,59.8448771 99.3752273,59.8296042 C99.2984902,59.7975683 99.2597491,59.7599448 99.2463388,59.7185962 C98.9982471,59.58114 98.6290896,59.3509287 98.6298346,59.3505562 C98.5933286,59.3263431 98.5620378,59.3039925 98.5404322,59.286857 C98.5296294,59.2786618 98.5259043,59.2700941 98.5180816,59.2615263 C97.8836969,59.0115721 94.5013053,57.6403624 94.343361,57.585976 C92.993012,57.1203384 91.9570614,56.3443998 91.9220455,56.3287544 C91.7681988,56.2594675 90.3031167,54.9169412 89.3625287,54.560449 C89.2872817,54.5321383 89.2496581,54.4974948 89.2369928,54.4598713 C89.1799987,54.4434809 89.1278473,54.4233653 89.0678732,54.4088374 C88.8767755,54.3630187 88.7322416,54.22668 88.8857158,54.0456401 C88.9013612,54.0270146 88.9173791,54.0080166 88.9330246,53.9897636 C88.9252018,53.985666 88.9173791,53.9815684 88.9091839,53.9774708 C88.9214767,52.9437553 88.9333971,51.9122748 88.9333971,50.8949498 L88.9333971,50.7884119 C88.9333971,49.5080948 88.9333971,48.1216122 88.7199488,46.7347572 C88.6134109,46.2013227 88.6134109,45.5617229 88.6134109,45.0282885 L88.6134109,44.8152127 C88.6134109,44.474366 88.6119209,44.1320292 88.5959029,43.7751645 C88.5761599,43.7297183 88.5530643,43.6868797 88.5366738,43.6388259 C88.3854347,43.1962839 88.2751717,42.740704 88.1961996,42.2780465 C87.9473629,41.9085165 87.8676457,41.4965203 87.8739784,41.0632911 C87.7316795,40.4091634 87.6467472,39.7576433 87.6515899,39.1906829 C87.6616476,37.9576745 88.0304326,36.7987957 88.3120502,35.6130961 C88.3556339,35.0323528 88.4107654,34.4542172 88.5269886,33.8812967 C88.5366738,33.3892108 88.5456141,32.897125 88.5571619,32.4057842 C88.6167635,29.8566977 88.0896617,24.5867975 88.079604,24.4873373 C87.9861039,24.1897018 87.9078768,23.8890861 87.9220322,23.5657474 C87.9179346,23.5519645 87.915327,23.5378091 87.9112294,23.5232812 C86.1708623,23.3265959 84.4684912,22.8073169 82.7866081,22.2623346 C82.6398392,22.2332788 82.4956778,22.2016155 82.3202255,22.2016155 C81.9998668,22.2016155 81.6802532,22.0950776 81.3598945,22.0950776 C80.1868603,21.8816293 78.9069156,21.7747189 77.5200606,21.8816293 C76.5601021,21.9881672 75.7066815,21.8816293 74.746723,21.7747189 C74.1067506,21.668181 73.5733162,21.668181 73.1467922,21.7747189 L72.6133577,21.7747189 C71.8668475,21.5616431 71.2265027,21.4551052 70.5869029,21.4551052 L70.2665442,21.4551052 C69.7334822,21.4551052 69.3065857,21.4551052 68.7731512,21.3485674 C67.7066549,21.1347466 66.6401585,21.1347466 65.4663792,21.1347466 C65.2533034,21.1347466 65.0402277,21.1347466 64.8267794,21.0282087 C64.293345,20.8151329 63.6533726,20.7082225 63.0130278,20.6016846 C62.1599797,20.3882364 61.3065591,20.281326 60.4531385,20.0682502 C59.49318,19.8551744 58.5332215,19.748264 57.6798009,19.5348158 C56.8267528,19.3213675 55.9733322,19.2148296 55.1199116,19.0017538 C54.5864771,18.8952159 54.1599531,18.7883055 53.6265187,18.6813951 C53.306905,18.5748573 52.9865463,18.5748573 52.5600223,18.4683194 C52.0265878,18.3617815 51.386988,18.2548711 50.8535536,18.0417953 C50.5335674,17.9352574 50.2132087,18.0417953 49.8932226,18.2548711 L49.7866847,18.2548711 C49.6801468,18.361409 49.4666985,18.4683194 49.3597881,18.4683194 C48.6132779,18.6813951 47.8663952,18.8952159 47.2267954,19.1082917 C46.7998988,19.2148296 46.4802852,19.3213675 46.0533886,19.5348158 C45.3065059,19.748264 44.5599957,19.9617123 43.8134855,20.1747881 C43.4931268,20.281326 43.1735132,20.281326 42.8531545,20.3882364 L42.6400787,20.4951468 C42.3200925,20.6016846 41.893196,20.7082225 41.5732098,20.7082225 C41.2532237,20.8147604 40.9332375,20.8147604 40.7201617,20.9216708 C40.2932652,21.0282087 39.973279,21.0282087 39.5463824,21.1347466 C39.0133205,21.2412845 38.586424,21.3485674 38.053362,21.4551052 C37.7333759,21.5616431 37.4133897,21.668181 37.093031,21.668181 C36.8799553,21.668181 36.7734174,21.7747189 36.5599691,21.7747189 C36.3468933,21.7747189 36.1330725,21.8816293 35.9199968,21.8816293 L35.6000106,21.9881672 C34.9600383,22.0950776 34.4266038,22.3081533 33.7866315,22.5216016 C33.3601075,22.6281395 33.0401213,22.8415878 32.6132247,22.9484982 C32.1867007,23.0550361 31.7598041,23.2684843 31.2263697,23.3750222 C30.3733216,23.588098 29.4129906,23.9084567 28.1334185,24.1215324 C27.8130598,24.2280703 27.4934461,24.2280703 27.2799978,24.3349807 C26.4265772,24.5480565 25.680067,24.7615048 24.8266464,25.0814909 C24.3997499,25.1880288 23.9732258,25.4014771 23.5463293,25.5083875 C23.1201777,25.7218358 22.6932812,25.8283736 22.2667571,25.8283736 C22.0529363,25.8283736 21.9463984,25.9349115 21.8398606,25.9349115 C21.7333227,25.9349115 21.6267848,25.9349115 21.5198744,26.0414494 C20.98644,26.1479873 20.453378,26.2548977 20.0264815,26.468346 C19.493047,26.6814217 18.9599851,26.7883321 18.4265506,26.89487 C18.3200128,26.89487 18.1065645,27.0014079 18.0000266,27.1083183 C18.0000266,27.1083183 17.8931162,27.1083183 17.8931162,27.2152287 C17.7865783,27.3217666 17.6796679,27.3217666 17.57313,27.4283045 C17.3600543,27.5348423 17.146606,27.6413802 16.8266198,27.7482906 C16.186275,27.9617389 15.4401373,28.0682768 14.800165,28.2817251 L14.1598201,28.4948008 L14.0532822,28.4948008 L13.8402065,28.4948008 C13.7332961,28.4948008 13.5198478,28.6013387 13.4133099,28.6013387 C12.9867859,28.7082491 12.5598893,28.8151595 12.1333653,28.9216974 C11.7064687,29.0282353 11.2799447,29.2416836 11.0664964,29.5612972 C10.9301577,29.8339746 10.7941915,30.0641858 10.6578528,30.3055724 C10.1791774,30.3040823 10.2317013,30.9909909 10.2145658,31.6354334 C10.1322411,34.7347173 9.97466931,32.6341329 10.0677968,35.7553949 C10.0845598,36.3204927 10.4138587,39.3110037 10.4354643,39.875729 C10.4596774,40.5160738 10.258522,43.8716447 10.2879503,44.510872 C10.3624523,46.1033526 10.406781,45.9003346 10.5088488,47.4816399 C10.5423747,48.0001739 10.5766456,50.4255871 10.9666637,50.5444178 C10.9115322,51.5237468 10.7480003,51.899237 10.6224644,52.878566 C10.6038388,53.0223549 10.572548,53.154596 10.5334344,53.2790144 L10.5334344,53.5617495 C10.7465102,55.2682182 10.7465102,56.6550733 10.6399723,57.9350179 C10.5334344,58.6815281 10.5334344,59.5349487 10.4268966,60.2814589 C10.3196137,61.1348795 10.3196137,61.8817623 10.2130758,62.7348104 C10.1065379,63.6947689 10.1065379,64.6547273 10.1065379,65.6150583 L10.1065379,65.7215962 C10.1065379,66.4684789 10.1065379,67.2153617 10,67.9614994 L10,70.8417474 C10,71.9082437 10,73.082023 10.1065379,74.468133 C10.1065379,74.5750434 10.1065379,74.6815813 10.2130758,74.8950296 C10.2130758,75.00194 10.2130758,75.2150158 10.3196137,75.3215536 C10.4268966,76.3884225 10.4268966,77.4552914 10.4268966,78.5217878 L10.4268966,79.268298 C10.3196137,79.694822 10.3196137,80.1217186 10.4268966,80.5482426 C10.4268966,80.655153 10.5334344,80.8686013 10.5334344,80.9751392 C10.5334344,81.0816771 10.6399723,81.2947529 10.7465102,81.4016633 C10.83107,81.4865956 10.9841716,81.5033585 11.1503111,81.5070836 C11.1480761,81.7194144 11.1193928,81.9317451 11.089592,82.1444484 C11.0273828,82.5855003 11.0285003,83.1003092 10.9666637,83.5417337 C10.9692712,84.5709791 11.1391358,85.4534555 11.4561419,86.3363044 C11.7310544,86.9978823 11.9217795,87.7335897 12.196692,88.3951676 C12.5345586,89.130875 13.0400548,89.7190684 13.5459235,90.3072619 C13.7459614,90.4544034 14.0190113,90.6015448 14.2399098,90.6015448 C14.5237625,90.6749293 14.7971849,90.8224433 15.0810376,90.8958278 C15.6383127,91.1163538 16.18553,91.4106367 16.7632931,91.4840212 C17.3309985,91.6307902 17.9191919,91.6307902 18.5915726,91.5574057 C19.1168118,91.4840212 19.6416785,91.4106367 20.1669178,91.3368797 C20.5450155,91.2634953 20.8493562,91.1897383 21.2170237,91.1897383 C21.9527311,91.1897383 22.5819006,90.8958278 23.2855722,90.6015448 C24.1460705,90.2335049 24.9436146,89.7924529 25.5720391,88.9837335 C25.6662842,88.8365921 25.8339137,88.6894506 25.9281587,88.5423091 C26.6728064,87.9537431 27.0807049,87.1450238 27.4990338,86.2625474 C27.5951414,86.0587843 27.7005617,85.7946747 27.7977869,85.5815989 C28.4075859,85.7548161 29.0170124,85.9578341 29.6268114,86.2014557 C30.2664112,86.5218144 31.0132939,86.7352627 31.866342,86.9483384 C32.9332109,87.1614142 34.0000798,87.4817729 35.2800244,87.9082969 C35.4934727,88.0148348 35.7065485,88.0148348 35.9199968,88.1217452 C36.2396104,88.2286556 36.666507,88.4417314 36.9864931,88.4417314 C37.3068518,88.5482692 37.7333759,88.5482692 38.053362,88.5482692 C38.2668103,88.5482692 38.586424,88.5482692 38.8002447,88.6548071 C39.3333067,88.7617175 39.973279,88.8682554 40.5067134,88.9751658 L40.8266996,89.0817037 C41.0397754,89.0817037 41.1466858,89.1886141 41.3601341,89.1886141 C41.5732098,89.295152 41.893196,89.295152 42.1066443,89.4016899 C43.8134855,89.6151381 45.5199542,90.2551105 47.0133471,90.7885449 C47.2267954,90.8950828 47.5467816,91.0016207 47.7598573,91.0016207 C47.9733056,91.0016207 48.1867539,91.1085311 48.3998296,91.1085311 L48.6132779,91.1085311 C49.0401745,91.2150689 49.4666985,91.2150689 49.8932226,91.3216068 L50.3197466,91.4285172 C50.8531811,91.5354276 51.2797051,91.5354276 51.8131396,91.6419655 C52.5600223,91.7485034 53.1999946,91.9615792 53.9468773,92.1750274 C54.2031643,92.2390992 54.5000548,92.3407944 54.8103557,92.4357845 C54.7917302,92.4857008 54.7757123,92.5374797 54.7682621,92.5937288 C54.8002979,92.8876392 54.7589493,93.1822947 54.7176007,93.4765777 C54.655764,93.9176296 54.6568816,94.4324386 54.5946724,94.873863 C54.5972799,95.9031084 54.7675171,96.7855848 55.0845231,97.6680612 C55.3594356,98.3300116 55.5497882,99.0653465 55.8247007,99.7272969 C56.1625673,100.462632 56.6680635,101.051198 57.1739322,101.639764 C57.3739701,101.786533 57.6473925,101.933674 57.8679185,101.933674 C58.1517712,102.007059 58.4251936,102.1542 58.7090463,102.227957 C59.2663214,102.448483 59.8135387,102.742766 60.3913018,102.816151 C60.9593797,102.96292 61.5475731,102.96292 62.2199538,102.889535 C62.7448205,102.816151 63.2700598,102.742766 63.7949265,102.669009 C64.1730242,102.595625 64.4777374,102.52224 64.8450324,102.52224 C65.5807398,102.52224 66.2106544,102.227957 66.9135809,101.933674 C67.7744517,101.565634 68.5716233,101.124582 69.2004203,100.315863 C69.2942929,100.168349 69.4622949,100.02158 69.55654,99.8744384 C70.3008151,99.2858725 70.7090862,98.4771531 71.1270425,97.5946767 C71.2015445,97.4371049 71.2812616,97.2433997 71.3587437,97.0645948 C71.8519471,97.1912482 72.345523,97.3171567 72.8387263,97.4438101 C74.1488443,97.3901686 75.4146336,97.81185 76.6956957,98.0670195 C78.4084971,98.4074937 80.1358264,98.6708583 81.8352174,99.0783843 C83.8773177,99.5682351 85.7491809,100.428361 87.7212493,101.121975 C87.7812234,101.143208 87.8419425,101.160343 87.9019166,101.180831 C87.9942991,101.202809 88.6838153,101.418865 89.2731263,101.605493 C89.9365667,101.460214 90.5787741,101.227023 91.1617524,100.885058 C91.2697803,100.48908 95.5041025,97.4371049 95.6858874,97.3328021 C96.1235867,96.9196884 96.6197702,96.6194453 97.1457544,96.3557081 C97.1777903,96.2916364 97.2642126,96.220487 97.4314696,96.1437499 C97.7522008,95.9966084 98.0762846,95.8610147 98.4011134,95.7261661 C98.9472132,95.3987297 99.4944305,95.0735284 100.046863,94.7568948 C100.085231,94.6909606 100.167184,94.6175761 100.314325,94.5363689 C101.844597,93.6903985 103.255292,92.658173 104.746078,91.7831468 C105.442299,91.2374196 106.334833,90.8354812 107.252326,90.533748 C107.317515,90.496497 107.381959,90.4573834 107.447521,90.4201324 C108.402264,89.8807378 109.897892,89.3793392 109.99996,88.0751814 C110.002568,88.0446356 109.877032,87.0910098 109.877404,87.0712668 M82.8126094,51.2903693 C82.7936113,51.3022896 82.7939838,51.3063872 82.7947289,51.3108573 C82.7954739,51.3153274 82.7969639,51.3201701 82.7757309,51.3365605 C82.7701432,51.3402856 82.7887687,51.9430069 82.7723783,51.9515747 C82.6677029,52.0055886 82.1297984,52.2827361 81.5226069,52.5878219 C81.5237245,52.571804 81.708862,52.4045469 81.7401528,51.8118834 C81.6641608,51.4241004 81.4630053,51.1629708 81.4555551,51.0862337 C81.3091586,50.8277117 81.0729873,50.6299089 80.9381386,50.5446041 C80.5809014,50.3192355 80.1838057,50.174329 79.7665944,50.0901418 C79.659684,50.100572 79.5572437,50.1028071 79.474174,50.0964744 C78.8364367,50.0484206 78.2303628,50.1054147 77.6291315,50.2335581 C77.2938724,50.3471737 76.9496731,50.429871 76.5909459,50.5196459 C76.5212865,50.5367814 75.7948919,50.9785783 75.6592982,51.1551481 C75.5918739,51.2438055 75.5337623,51.3283653 75.4894336,51.4058474 C75.4551627,51.4609789 75.4268519,51.5067976 75.4052463,51.5418136 C75.3828957,51.704973 75.2506546,51.8822878 75.2189913,52.0610926 L75.2137761,52.0402321 C75.1880729,52.1288895 75.0629095,52.4239175 75.0066605,52.7863698 C74.9437063,53.145097 75.0003278,53.5779537 75.0759474,53.7116848 L75.0711048,53.6718262 C75.1862104,53.901665 75.3769355,54.2011631 75.4361646,54.2488444 L75.4238718,54.2548045 C75.4667105,54.2961531 75.543075,54.3576173 75.6257723,54.4213165 C75.707352,54.4887409 75.8038321,54.5267369 75.8757265,54.5796333 C75.8757265,54.5796333 76.0649617,54.7129919 76.1431888,54.753968 C75.9245254,54.8605059 75.7159197,54.9614562 75.5315272,55.048251 C74.6717739,55.5321416 73.5888871,56.3635841 72.7377016,56.8176739 L71.4108207,57.8256862 C71.1802369,57.9445169 68.1535925,58.5934295 67.5117576,58.9037304 C67.1902814,59.0575771 66.8345343,59.2270691 66.4609066,59.405129 C66.4113628,59.4278521 66.3603289,59.4505752 66.30855,59.4740433 L66.2403807,59.5023541 C66.2284603,59.5045892 66.2176576,59.5165095 66.2057372,59.5109218 C66.196052,59.5023541 66.1926994,59.4893162 66.1882293,59.4777684 C66.1733289,59.4289696 66.1658787,59.3786807 66.158801,59.3298819 C66.143528,59.2069536 66.1282551,59.0847703 66.1133547,58.9651946 C66.0653009,58.558041 66.0269324,58.1609453 65.9941515,57.7988655 C65.9315698,57.0713533 65.8816535,56.4857674 65.8555778,56.1873868 L65.8600479,56.3483112 C65.7490399,55.308263 65.8194443,55.4457193 65.7818208,54.621727 C65.7285518,54.734225 65.6361693,53.8409458 65.6112111,53.4989816 L65.624994,53.5109019 C65.5929581,53.1220014 65.5169661,52.3609632 65.4588545,51.6442538 C64.8151571,50.5282136 65.0036472,49.1681793 64.9261651,47.8904697 C64.850173,46.6369733 64.7112268,45.3585187 64.9094021,44.1161975 C64.8822089,44.0919844 64.8516631,44.0714963 64.8255874,44.0454206 C64.7145794,43.9344126 64.8322925,43.8282472 64.9783165,43.7496476 C65.0084898,43.6118189 65.0379181,43.4736176 65.0785217,43.3369064 C65.0911871,43.2940678 65.1209879,43.2553267 65.1593564,43.2191932 L65.1768644,42.8988346 L65.164199,42.7699461 C65.3035178,42.7006592 65.4543844,42.6216871 65.5601773,42.5609679 L65.5791753,42.4991312 C66.0321475,42.249177 65.8194443,42.3922208 66.0649284,42.2733901 C66.250811,42.156422 66.4415361,42.0472765 66.6382214,41.9478163 C66.6903729,41.919133 66.7730701,41.8956649 66.8706677,41.8774119 C66.9079187,41.8185553 66.992851,41.7552286 67.1511678,41.6896668 C67.156383,41.6878043 67.1608531,41.6855692 67.1656957,41.6837067 C67.1895364,41.6386329 67.2405703,41.5887166 67.3374229,41.53135 C68.0276841,41.1208439 68.7019273,40.7144354 69.4149116,40.3676285 C69.8734715,39.8639949 70.4635275,39.5257557 71.0602887,39.1908692 C71.1616114,39.1338751 71.3806473,39.0925265 71.6104861,39.0779986 C71.6577948,39.0441002 71.720749,39.0098293 71.8056813,38.9770484 C71.9088666,38.9368173 72.0109344,38.8954687 72.1137472,38.8548651 C72.1424305,38.7945184 72.2273628,38.7285842 72.3935023,38.6596698 C72.3748768,38.575855 72.4516138,38.4771399 72.6900203,38.370602 C72.957855,38.2562414 73.2223372,38.1340581 73.4827218,38.0036795 C73.5385983,37.9768588 73.639921,37.9563708 73.7598693,37.9437054 C74.6654413,37.5440021 75.5397224,37.0720318 76.4564698,36.6935616 L76.5987686,36.6328424 C76.5995136,36.6335874 76.6006312,36.6343325 76.6013762,36.634705 C76.6572527,36.6127269 76.7120117,36.5885137 76.7678882,36.5676532 C76.8945416,36.5192268 77.0636612,36.5121492 77.2264481,36.5333822 C77.4115856,36.4369021 77.5974682,36.339677 77.7852132,36.2420793 C78.792108,35.7146051 78.4836696,35.8759019 79.4197875,35.3856787 C79.679427,35.2489675 80.453503,34.843304 81.0860251,34.5113975 C81.0904952,34.5821744 82.060884,34.1180268 82.0634916,34.1560229 C82.0668442,34.23425 82.0701968,34.3053994 82.0731768,34.3720787 C82.2799199,34.3880966 82.4415893,34.4536584 82.4583523,34.5937222 C82.5280116,34.8887502 82.5280116,35.1837782 82.4583523,35.4784337 C82.4553722,35.5037643 82.4456869,35.52835 82.4337666,35.5529357 C82.4225913,35.6442007 82.4084359,35.7347206 82.3905554,35.8244955 C82.4237088,35.8572764 82.449412,35.895645 82.4583523,35.9440713 C82.5842607,36.6343325 82.6367846,37.1990577 82.5980435,37.8997492 C82.5939459,37.9701536 82.558185,38.0353429 82.5045435,38.0949445 C82.46692,39.8308415 82.2225534,41.549603 82.0962725,43.2784223 C82.3093482,45.0873313 82.5887308,46.5654513 82.7228344,49.0359382 C82.708679,49.5950759 82.7258145,49.6259942 82.7388524,50.2082275 C82.7410874,49.8841437 82.8096293,51.1756362 82.8122368,51.2385904 C82.8118643,51.2620585 82.8200596,51.2829191 82.8126094,51.2903693 M80.7001047,52.8947702 C80.437485,53.0061507 80.2907161,53.0221686 79.9319889,53.2087962 C79.7446163,53.3060213 77.9912113,53.8260454 77.8172491,53.9147028 C77.7107112,53.9690893 77.4805,53.920663 77.4466016,53.8726092 C77.4466016,53.8726092 77.3098904,53.8353582 77.3214382,53.8040673 C77.3214382,53.8040673 77.277482,53.7988522 77.2406035,53.7757566 C77.1798844,53.7578761 77.2465637,53.7265852 77.1824919,53.7012545 L76.9388703,53.5965792 C76.8733086,53.5552306 76.8137069,53.514627 76.7485177,53.479611 C76.6598603,53.3939337 76.5820057,53.3328421 76.5641252,53.2810632 C76.574183,53.2721229 76.5760455,53.275103 76.5831232,53.2747305 C76.5630076,53.2661628 76.5548124,53.2508898 76.5510873,53.2344994 C76.5432646,53.220344 76.5298543,53.2073062 76.5246391,53.183838 C76.5380495,53.1693101 76.55742,53.16335 76.5704579,53.1588799 C76.5544399,53.1670751 76.539167,53.1104535 76.5462447,53.0147184 C76.5499698,52.9223359 76.5924359,52.796055 76.5924359,52.796055 C76.5924359,52.796055 76.6118065,52.7662542 76.6270794,52.6742442 C76.5630076,52.6083099 76.6937587,52.5259852 76.6714081,52.4738338 C76.6769957,52.4771864 76.7358523,52.3918816 76.742185,52.3538856 C76.7365973,52.3367501 76.7861412,52.260758 76.7753384,52.2942839 C76.7909838,52.2678357 76.8133344,52.2290947 76.8412727,52.1810409 C76.8695834,52.131497 76.8747986,52.1296345 76.8982667,52.0957361 C76.9407329,52.0424671 77.0048046,51.9739253 77.0930895,51.9009133 C77.2648167,51.7560069 77.3437888,51.6613893 77.4968904,51.593965 L77.7732929,51.4200028 L77.8116615,51.4308056 C78.0184046,51.2750963 77.8537551,51.3816342 78.0604982,51.2978195 C78.1748588,51.2411979 78.2087572,51.1592457 78.2832592,51.1585007 C78.2732015,51.1611083 78.3376457,51.0646281 78.365584,51.0992716 C78.3946397,51.0851162 78.5604067,51.0262596 78.514588,51.0623931 C78.5443888,51.0564329 78.5745621,51.0568054 78.5928151,51.0392975 L78.5514665,51.0344548 C78.6494366,50.9998114 78.8319666,50.9327596 78.8621399,50.9823034 C78.8621399,50.9823034 78.9548949,50.9845385 79.0312595,50.9495225 L79.0033212,50.94915 C79.05063,50.9200942 79.2063392,50.8858233 79.3579508,50.8820982 C79.5009947,50.8735305 79.566929,50.8947636 79.5825744,50.8705504 C79.5825744,50.8705504 79.824706,50.9953413 79.826196,50.9804409 C79.8638195,50.9878911 79.9774351,51.0407875 80.1834332,51.2262975 C80.3991165,51.4047299 80.5317301,51.6241383 80.5511006,51.6937977 C80.5544532,51.7567519 80.6092122,51.8003356 80.6349154,51.7742599 C80.6479532,51.7981005 80.6490708,51.8241762 80.657266,51.8487619 C80.657266,51.8487619 80.7250628,51.8681324 80.731768,51.9482221 C80.7425708,52.0771106 80.7753517,52.0510349 80.8167003,52.1843935 C80.8695967,52.3240847 80.8278756,52.4753238 80.8457561,52.4522282 C80.9243557,52.5613737 80.80478,52.7606666 80.7001047,52.8947702 M84.4147752,51.8230587 C84.4188728,51.9035209 84.4237155,51.9981384 84.4300481,52.1098914 C84.4315382,52.1378297 84.4330282,52.167258 84.4345183,52.1978038 C84.4345183,52.1978038 84.4103051,52.2588955 84.3972673,52.2667182 C84.3402732,52.2961465 84.278809,52.3278098 84.2128748,52.3620808 C83.9789384,52.482774 83.6809304,52.6366207 83.298735,52.8344236 L83.0841692,52.9100431 L82.9884341,53.0087583 C82.6442348,53.088848 81.9346031,53.5112744 81.7427604,53.5164895 C81.5781109,53.6342027 81.3676427,53.6930593 80.9746446,53.9225255 C81.1791526,53.8815494 77.2443286,55.1253606 75.7781289,55.805564 C75.7498181,55.8186019 75.72784,55.8327572 75.7036269,55.8517553 C75.3914634,56.0935143 74.7127501,56.5975204 74.5093595,56.6828253 L71.4231135,58.6530311 C71.4938904,58.6336606 71.644757,58.5606486 71.5635498,58.6142901 C71.3296135,58.7424335 71.0401731,58.8456188 70.9448105,58.9439615 C70.9571034,58.9082005 70.5767706,59.0922205 70.5797507,59.0836528 C70.3316589,59.2550074 69.3072562,59.6535932 69.0401665,59.8770992 C68.2698156,60.2678623 68.8352859,59.9162128 67.9952757,60.3256014 L67.9665924,60.4053185 C67.9475944,60.4142588 67.657409,60.5520875 67.2320025,60.753988 L67.1507953,60.7931015 L67.1090742,60.8128446 C67.0904487,60.8221573 67.0587853,60.8374302 67.0323371,60.8471155 C66.9220741,60.8918167 66.8084586,60.9376355 66.6922354,60.9849442 C66.4590441,61.0795618 66.2135599,61.179022 65.9609981,61.2810898 L65.866008,61.3202033 C65.8503626,61.3254185 65.8332271,61.3347312 65.8186993,61.3377113 L65.7833108,61.3313786 L65.6406394,61.3067929 L65.4968505,61.2814623 L65.4242111,61.2687969 L65.4059581,61.2658168 L65.3970178,61.2639543 L65.3944103,61.2635818 C65.3798824,61.2937551 65.4122908,61.2229782 65.4078206,61.2304284 L65.402233,61.2296834 L65.3567867,61.2237232 C65.2901074,61.2218606 65.2506214,61.1849822 65.2085277,61.1540638 C65.1694142,61.1205379 65.127693,61.0911096 65.0934221,61.0486435 C65.0181751,60.9748865 64.9555934,60.8735637 64.9004619,60.7625557 C64.7864738,60.5390497 64.7328324,60.239179 64.6773284,59.9590515 C64.6508801,59.8167526 64.6322546,59.6711012 64.6095315,59.5302924 C64.5979837,59.4449875 64.5860634,59.3600552 64.5745156,59.2769855 C64.5398721,58.9901527 64.5078363,58.724553 64.4810155,58.4999295 C64.4310992,58.0532899 64.4012984,57.7720447 64.3975733,57.8085507 C64.4050235,57.7362838 64.4188064,57.6681144 64.4124737,57.4259829 C64.3234438,56.5598969 64.2675673,55.7157891 64.1900852,54.7677509 C64.202378,54.8582709 64.2075931,54.9439482 64.2161609,54.8713087 C64.0023401,51.723226 63.8961747,48.7088744 63.7874018,45.5972976 C63.7661687,45.0072416 63.8362006,45.4784669 63.8183201,44.9729707 C63.8198101,44.6887455 63.7855392,44.3747195 63.7616986,44.1214127 C63.7743639,44.1109824 63.7836767,44.0990621 63.7944794,44.0878868 L63.8015571,44.3043151 C63.8224177,44.3236856 63.813105,44.2484386 63.8023022,44.080064 C63.8496109,44.0267951 63.8794117,43.969056 63.8794117,43.9064743 C63.8790392,43.5969185 63.8782942,43.28401 63.8905871,42.9733366 C63.9244855,42.8749939 63.9650891,42.7766513 64.0138879,42.674211 C64.0321409,42.6492528 64.0466688,42.6228046 64.0537465,42.5956114 C64.054119,42.5944938 64.0544915,42.5930038 64.054864,42.5918863 C64.0701369,42.5617129 64.0842923,42.5322846 64.1003102,42.5013663 C64.1163282,42.4700755 64.1159557,42.4436272 64.108878,42.4186691 C64.1330911,42.3460296 64.1599118,42.2752527 64.1874776,42.2044758 C64.3014657,42.1445016 64.4266291,42.1597746 64.5462048,42.2197487 C64.5834558,42.2357666 64.6207068,42.2555096 64.6572128,42.2778603 C64.7142069,42.2156511 64.7708284,42.1366789 64.8218623,42.0334936 C64.9213225,42.0010853 65.6611275,41.6121847 65.7065737,41.567856 C65.9095917,41.3715432 66.3614464,41.309334 66.5726597,41.122334 C67.065118,40.8429514 67.4912695,40.4872043 67.9043832,40.107244 C68.5562759,39.7470267 69.1504295,39.2933094 69.7963619,38.9267595 C69.9178002,38.9047814 70.021358,38.8731181 70.0865473,38.832142 C70.6363722,38.4853351 71.1850795,38.1407632 71.7404921,37.8058767 C72.0355201,37.6542651 72.3279405,37.503771 72.6136557,37.357002 C73.2834289,37.0299382 73.4722915,36.8295277 73.6227855,36.7524182 L73.6082577,36.7974919 L74.2836184,36.4525475 C74.1465347,36.4853284 74.2441324,36.3758105 73.9502219,36.5106591 C73.9584171,36.4842109 74.1781981,36.3869858 74.4054292,36.2636849 C74.3279471,36.3106212 74.1670228,36.4227467 74.3134192,36.3553224 C74.8386585,36.0874877 74.4750886,36.2428244 75.0837701,35.9101729 C75.0811625,35.9191131 74.6863018,36.1727925 75.2029733,35.9317784 C75.651848,35.7105074 76.8271173,35.104806 78.2143449,34.3847441 C79.2279448,33.8576423 80.0780128,33.4154728 80.9396286,32.9673432 C81.0986904,32.9181718 81.2588698,32.8708631 81.4168141,32.8183391 C81.4250093,32.8153591 81.431342,32.812379 81.4395372,32.8097714 C81.6306349,32.7717754 81.82136,32.7289367 82.0132027,32.682373 C82.0322007,32.7844407 82.1406012,32.8690005 82.3827327,32.887626 C82.5250316,32.8984288 82.6613703,32.9110942 82.7951014,32.922642 C83.0223325,34.1102041 83.5293188,34.8727323 83.5501793,35.3722683 C83.5613546,35.3007464 83.4134681,35.0466945 83.410488,34.9621347 L83.4745598,35.6740015 L83.501753,35.2903161 C83.6027032,36.116916 83.8362671,40.8235809 83.9264145,41.7217027 L83.9178468,41.4691409 C83.9748408,42.1743024 83.999054,42.6853863 84.0344424,43.5332192 L83.9968189,43.0094701 C83.9506277,43.211743 83.9714882,43.6393846 83.9957014,44.1500959 L84.0046416,43.8334624 C84.0769086,44.3885024 84.0526954,44.8560026 84.0951616,45.7105407 L84.0973966,45.3845944 C84.1167672,45.5667518 84.1186297,45.8122359 84.1268249,46.0655428 C84.0854763,45.6192757 84.1044743,46.3702561 84.0824962,46.5144175 C84.1260799,46.2272122 84.1547632,47.0687125 84.1704086,47.3279795 C84.1346476,47.4587305 84.2303827,48.1162108 84.1916417,48.1627746 C84.2139923,48.4272567 84.2329903,48.2007706 84.2303827,48.1162108 C84.2296377,48.6865238 84.312335,49.1700419 84.3603888,50.1929545 C84.386092,51.1611083 84.387582,51.2274151 84.3898171,51.3216601 C84.3939147,51.4054749 84.3987573,51.50121 84.4147752,51.8230587 Z M21.8541277,80.3792348 C22.0228748,80.7469023 22.0344226,81.1879542 22.1297852,81.5556217 C22.1633111,82.3647136 22.0601258,83.100421 21.441759,83.8353834 C21.2636992,84.0562819 21.0752091,84.3505648 20.8233923,84.5710908 C20.2363164,85.0858998 19.6701011,85.4535672 18.9552542,85.3067982 C18.450503,85.2326687 18.0407419,85.0125153 17.6402936,84.7178598 C17.1038791,84.3505648 16.5775223,83.9091404 16.6281837,83.026664 C16.6903929,82.5856121 16.6684148,82.2179446 16.8669627,81.8499046 C16.9612077,81.7031357 16.9921261,81.4822372 17.0968014,81.2617112 C17.1172894,81.1145697 17.13815,80.9674282 17.2219648,80.8940438 C17.4942697,80.5263763 17.7665745,80.1583363 18.1126364,79.7910414 C18.5421405,79.3492444 18.8569115,79.2024755 19.3717205,79.2024755 L19.518862,79.2024755 L19.9602864,79.2024755 C20.7690058,79.2024755 21.5896455,79.6435274 21.8541277,80.3792348 Z M65.4821736,91.7113269 C65.6509207,92.0789943 65.6624685,92.5204188 65.7578311,92.8877137 C65.791357,93.6968056 65.6881717,94.4325131 65.0701775,95.1674755 C64.8917452,95.3883739 64.7032551,95.6826569 64.4518107,95.9031829 C63.8643623,96.4179918 63.298147,96.7856593 62.5836727,96.6388903 C62.0789215,96.5647608 61.6687879,96.3446073 61.2687121,96.0499518 C60.7322975,95.6826569 60.2059408,95.241605 60.2566022,94.3587561 C60.3184388,93.9177041 60.2964607,93.5500367 60.4950086,93.1819967 C60.5892537,93.0352277 60.620172,92.8143292 60.7248473,92.5938033 C60.7457079,92.4466618 60.7665685,92.2995203 60.8500107,92.2261358 C61.1226881,91.8584684 61.3946205,91.4904284 61.7406823,91.1231335 C62.1701865,90.681709 62.48533,90.5345675 63.0001389,90.5345675 L63.1469079,90.5345675 L63.5883324,90.5345675 C64.3974243,90.5345675 65.2176915,90.9756195 65.4821736,91.7113269 Z" id="butternut-delivery-van"></path>
        </g>
    </g>
</svg>